<?xml version="1.0" encoding="utf-8"?>
<!-- Generator: Adobe Illustrator 16.0.0, SVG Export Plug-In . SVG Version: 6.00 Build 0)  -->
<!DOCTYPE svg PUBLIC "-//W3C//DTD SVG 1.1//EN" "http://www.w3.org/Graphics/SVG/1.1/DTD/svg11.dtd">
<svg version="1.1" id="Layer_1" xmlns="http://www.w3.org/2000/svg" xmlns:xlink="http://www.w3.org/1999/xlink" x="0px" y="0px"
	 width="50px" height="25px" viewBox="0 0 50 25" enable-background="new 0 0 50 25" xml:space="preserve">
<g>
	<polygon fill="#FFFFFF" stroke="#FFFFFF" stroke-width="0.5468" stroke-miterlimit="10" points="23.466,19.093 18.328,13.738 
		20.086,12.051 23.165,15.26 29.672,5.906 31.672,7.298 	"/>
</g>
<g>
	<path fill="#FFFFFF" d="M25,2.5c5.514,0,10,4.486,10,10c0,5.514-4.486,10-10,10c-5.514,0-10-4.486-10-10
		C15,6.986,19.486,2.5,25,2.5 M25,0.5c-6.627,0-12,5.373-12,12s5.373,12,12,12s12-5.373,12-12S31.627,0.5,25,0.5L25,0.5z"/>
</g>
</svg>
