<svg xmlns="http://www.w3.org/2000/svg" xmlns:xlink="http://www.w3.org/1999/xlink" version="1.1" x="0px" y="0px" width="600px" height="430px" viewBox="0 0 600 430" enable-background="new 0 0 600 430" xml:space="preserve"><g><g><g><g><circle fill="#FFFFFF" cx="300.5" cy="210.6" r="188.2"/><path fill="#0093D0" d="M300.54 401.27c-105.16 0-190.72-85.55-190.72-190.71c0-105.16 85.55-190.71 190.72-190.71 c105.16 0 190.7 85.5 190.7 190.71C491.25 315.7 405.7 401.3 300.5 401.27z M300.54 24.9 c-102.38 0-185.67 83.29-185.67 185.67c0 102.4 83.3 185.7 185.7 185.67c102.38 0 185.67-83.29 185.67-185.67 C486.2 108.2 402.9 24.9 300.5 24.89z"/></g><g><path fill="#0078A1" d="M300.54 388.13c-97.91 0-177.57-79.66-177.57-177.57c0-97.91 79.66-177.57 177.57-177.57 c97.91 0 177.6 79.7 177.6 177.57C478.1 308.5 398.4 388.1 300.5 388.13z M300.54 34.3 c-97.17 0-176.23 79.06-176.23 176.23c0 97.2 79.1 176.2 176.2 176.23c97.17 0 176.22-79.06 176.22-176.23 C476.76 113.4 397.7 34.3 300.5 34.33z"/></g><g><path fill="#0093D0" d="M176.53 226.98h8.4c4.11 0 7.1 1.5 7.1 6.31c0 2.68-1.29 4.74-3.76 5.44v0.07 c2.75 0.4 4.5 2.5 4.5 5.79c0 3.9-1.92 7.29-7.77 7.29h-8.47V226.98L176.53 226.98z M181.55 237.19h1.43 c2.75 0 4.01-0.94 4.01-3.28c0-2.37-1.15-3.24-3.62-3.24h-1.81V237.19z M181.55 248.17h1.95c2.4 0 4.04-0.87 4.04-3.76 c0-2.89-1.64-3.73-3.83-3.73h-2.16V248.17z"/><path fill="#0093D0" d="M197.11 226.98h9.27c4.11 0 6.6 2.2 6.6 6.41c0 3.31-1.32 5.54-4.15 6.13v0.07 c3.42 0.5 3.9 2.3 4 7.6c0.03 2.6 0.2 4 1.1 4.46v0.21h-5.44c-0.49-0.7-0.59-1.64-0.63-2.62l-0.14-4.77 c-0.07-1.95-0.94-3.14-2.96-3.14h-2.68v10.53h-5.02V226.98L197.11 226.98z M202.13 237.85h2.09c2.4 0 3.76-1.05 3.76-3.73 c0-2.3-1.22-3.45-3.48-3.45h-2.37V237.85L202.13 237.85z"/><path fill="#0093D0" d="M225.57 226.49c7.53 0 8.5 5.4 8.5 12.93c0 7.56-0.94 12.93-8.47 12.93c-7.53 0-8.47-5.37-8.47-12.93 C217.1 231.9 218 226.5 225.6 226.49z M225.57 248.66c2.96 0 3.45-2.54 3.45-9.23c0-6.66-0.49-9.24-3.45-9.24 c-2.96 0-3.45 2.58-3.45 9.24C222.12 246.1 222.6 248.7 225.6 248.66z"/><path fill="#0093D0" d="M243.52 226.98v9.97h0.07l6.34-9.97h5.44l-6.76 10.67l7.53 14.22h-5.65l-5.12-10.21l-1.85 2.82v7.39 h-5.02v-24.89H243.52z"/><path fill="#0093D0" d="M273.34 226.98v4.11h-8.89v5.86h8.36v4.11h-8.36v6.69h9.23v4.11h-14.25v-24.88L273.34 227 L273.34 226.98z"/><path fill="#0093D0" d="M277.67 226.98h9.27c4.11 0 6.6 2.2 6.6 6.41c0 3.31-1.32 5.54-4.15 6.13v0.07 c3.42 0.5 3.9 2.3 4 7.6c0.04 2.6 0.2 4 1.1 4.46v0.21h-5.44c-0.49-0.7-0.59-1.64-0.63-2.62l-0.14-4.77 c-0.07-1.95-0.94-3.14-2.96-3.14h-2.68v10.53h-5.02V226.98L277.67 226.98z M282.69 237.85h2.09c2.41 0 3.76-1.05 3.76-3.73 c0-2.3-1.22-3.45-3.48-3.45h-2.37V237.85L282.69 237.85z"/><path fill="#0093D0" d="M302.92 231.51c0 3.69-0.87 6.31-4.6 6.66v-2.44c1.22-0.21 1.81-1.46 1.81-2.75v-0.56h-1.81v-5.44h4.6 V231.51z"/><path fill="#0093D0" d="M311.99 244.09v0.73c0 2.3 0.7 3.8 3.3 3.83c1.53 0 3-0.97 3-3.07c0-2.27-1.15-3.1-4.46-4.25 c-4.46-1.53-6.52-3.38-6.52-7.53c0-4.85 2.96-7.32 7.7-7.32c4.46 0 7.7 1.9 7.7 6.69v0.7h-4.81c0-2.33-0.8-3.69-2.72-3.69 c-2.26 0-2.86 1.43-2.86 2.89c0 1.5 0.5 2.5 2.6 3.38l3.87 1.67c3.76 1.6 4.7 3.6 4.7 6.59c0 5.26-3.21 7.63-8.64 7.6 c-5.68 0-7.91-2.65-7.91-7.25v-1.01L311.99 244.09L311.99 244.09z"/><path fill="#0093D0" d="M345.83 226.49c7.53 0 8.5 5.4 8.5 12.93c0 7.56-0.94 12.93-8.47 12.93c-7.53 0-8.47-5.37-8.47-12.93 C337.36 231.9 338.3 226.5 345.8 226.49z M345.83 248.66c2.96 0 3.45-2.54 3.45-9.23c0-6.66-0.49-9.24-3.45-9.24 c-2.96 0-3.45 2.58-3.45 9.24C342.38 246.1 342.9 248.7 345.8 248.66z"/><path fill="#0093D0" d="M358.76 226.98h8.78c5.09 0 6.8 3.7 6.8 7.46c0 5.16-3.17 7.49-7.91 7.49h-2.68v9.93h-5.02 L358.76 226.98L358.76 226.98z M363.78 238.24h2.23c1.99 0 3.35-1.19 3.35-3.73c0-2.44-0.98-3.83-3.48-3.83h-2.09V238.24z"/><path fill="#0093D0" d="M392.25 226.98v4.11h-8.89v5.86h8.36v4.11h-8.36v6.69h9.24v4.11h-14.26v-24.88L392.25 227 L392.25 226.98z"/><path fill="#0093D0" d="M402.36 226.98l6.06 17.04h0.07v-17.04h4.6v24.89h-5.71l-6.13-17.43h-0.07v17.43h-4.6v-24.89H402.36z"/><path fill="#1A1A1A" d="M187.63 267.96c0-2.04 0.44-2.8 1.52-3.4v0.89c-0.65 0.47-0.73 1.31-0.73 2.46h0.31v2.67h-1.1V267.96z M190.56 267.96c0-2.04 0.44-2.8 1.52-3.4v0.89c-0.65 0.47-0.73 1.31-0.73 2.46h0.31v2.67h-1.1L190.56 267.96L190.56 267.96z"/><path fill="#1A1A1A" d="M197.15 278.29c0 2.6 1.2 4.4 4.1 4.37c2.69 0 4.08-1.75 4.08-4.37v-13.72h1.1v13.51 c0 4.21-2.59 5.46-5.17 5.46c-2.59 0-5.18-0.99-5.18-5.46v-13.51h1.1L197.15 278.29L197.15 278.29z"/><path fill="#1A1A1A" d="M210.57 264.57h5.46c2.59 0 4.6 1.5 4.6 4.89c0 2.46-1.31 4.37-3.74 4.63v0.05 c3.06 0.2 3.6 2.1 3.6 4.62v1.96c0 1.1 0.2 1.8 0.6 2.51h-1.25c-0.29-0.55-0.47-1.44-0.47-2.53v-1.91 c0-2.67-0.73-4.21-3.74-4.21h-4.02v8.65h-1.1L210.57 264.57L210.57 264.57z M215.17 273.69c2.06 0 4.39-0.68 4.39-4.23 c0-2.51-1.41-4-3.69-4h-4.21v8.23H215.17z"/><path fill="#1A1A1A" d="M224.68 264.57h5.02c3.66 0 4.9 1.9 4.9 4.65c0 2.51-1.38 3.92-3.45 4.18v0.05 c2.69 0.2 4 2.1 4 4.7c0 3.14-2.04 5.07-5.33 5.07h-5.18V264.57z M229.36 273.01c2.4 0 4.13-1.15 4.13-3.79 c0-2.54-1.25-3.77-3.66-3.77h-4.05v7.55H229.36z M229.46 282.34c3.03 0 4.63-1.12 4.63-4.21c0-3.32-2.01-4.23-4.68-4.23h-3.63 v8.44H229.46L229.46 282.34z"/><path fill="#1A1A1A" d="M247.15 277.43h-7.03l-1.78 5.8h-1.1l5.8-18.66h1.39l5.59 18.66h-1.1L247.15 277.43z M243.73 265.7 h-0.05l-3.29 10.87h6.56L243.73 265.67z"/><path fill="#1A1A1A" d="M254.34 264.57l8.13 16.94h0.05v-16.94h1.1v18.66h-1.44l-8.15-16.94h-0.05v16.94h-1.1v-18.66H254.34z"/><path fill="#1A1A1A" d="M275.51 264.57h1.1v17.67h7.81v0.99h-8.91L275.51 264.57L275.51 264.57z"/><path fill="#1A1A1A" d="M296.8 277.43h-7.03l-1.78 5.8h-1.1l5.8-18.66h1.39l5.59 18.66h-1.1L296.8 277.43z M293.37 265.67h-0.05 l-3.29 10.87h6.56L293.37 265.67z"/><path fill="#1A1A1A" d="M303.98 264.57l8.13 16.94h0.05v-16.94h1.1v18.66h-1.44l-8.16-16.94h-0.05v16.94h-1.1v-18.66H303.98z"/><path fill="#1A1A1A" d="M317.48 264.57h4.26c3.95 0 6.7 1.7 6.7 9.33s-3.19 9.33-6.72 9.33h-4.26V264.57z M321.74 282.3 c3.97 0 5.62-2.72 5.62-8.44c0-5.72-1.33-8.44-5.62-8.44h-3.16v16.89L321.74 282.34L321.74 282.34z"/><path fill="#1A1A1A" d="M350.02 279.47h-0.05c-0.6 2.54-2.28 4.08-4.91 4.08c-4.08 0-5.73-3.58-5.73-9.62 c0-5.85 1.65-9.67 5.98-9.67c4.37 0 5.2 3.8 5.2 5.67h-1.1c0-2.51-1.33-4.78-4.08-4.78c-3.71 0-4.94 3.48-4.94 8.7 c0 5 1 8.8 4.8 8.78c3.53 0 4.6-3.42 4.6-6.72v-1.15h-5.12v-0.89h6.22v9.33h-0.89V279.47L350.02 279.47z"/><path fill="#1A1A1A" d="M354.81 264.57h5.46c2.59 0 4.6 1.5 4.6 4.89c0 2.46-1.31 4.37-3.74 4.63v0.05 c3.06 0.2 3.6 2.1 3.6 4.62v1.96c0 1.1 0.2 1.8 0.6 2.51h-1.26c-0.29-0.55-0.47-1.44-0.47-2.53v-1.91 c0-2.67-0.73-4.21-3.74-4.21h-4.03v8.65h-1.1V264.57L354.81 264.57z M359.41 273.69c2.06 0 4.39-0.68 4.39-4.23 c0-2.51-1.41-4-3.69-4h-4.21v8.23H359.41z"/><path fill="#1A1A1A" d="M377.91 277.43h-7.03l-1.78 5.8H368l5.8-18.66h1.38l5.59 18.66h-1.1L377.91 277.43z M374.49 265.7 h-0.05l-3.29 10.87h6.56L374.49 265.67z"/><path fill="#1A1A1A" d="M383.72 264.57h5.02c3.66 0 4.9 1.9 4.9 4.65c0 2.51-1.39 3.92-3.45 4.18v0.05 c2.69 0.2 4 2.1 4 4.7c0 3.14-2.04 5.07-5.33 5.07h-5.17L383.72 264.57L383.72 264.57z M388.4 273 c2.4 0 4.13-1.15 4.13-3.79c0-2.54-1.26-3.77-3.66-3.77h-4.05v7.55H388.4z M388.51 282.34c3.03 0 4.62-1.12 4.62-4.21 c0-3.32-2.01-4.23-4.68-4.23h-3.63v8.44H388.51L388.51 282.34z"/><path fill="#1A1A1A" d="M399.07 267.18c0 2.04-0.45 2.8-1.52 3.4v-0.89c0.65-0.47 0.73-1.31 0.73-2.46h-0.31v-2.67h1.1V267.18z M401.99 267.18c0 2.04-0.44 2.8-1.52 3.4v-0.89c0.65-0.47 0.73-1.31 0.73-2.46h-0.31v-2.67h1.1V267.18z"/></g><g><g><g><g><rect x="267.4" y="90" transform="matrix(-0.7071 -0.7071 0.7071 -0.7071 445.1059 365.3709)" fill="#0078A1" width="61.7" height="1.1"/></g></g><g><g><polygon fill="#0093D0" points="260.1,113.1 282.3,90.8 271.5,80 249.2,102.3 260.6,101.7"/></g></g><g><g><rect x="261" y="75.8" transform="matrix(0.7071 -0.7072 0.7072 0.7071 20.7915 217.1342)" fill="#0093D0" width="23" height="15.3"/></g></g><g><g><polygon fill="#0078A1" points="269.8,97 282.3,90.8 279.1,87.7"/></g></g></g><g><g><g><rect x="301.5" y="59.7" transform="matrix(-0.7076 -0.7066 0.7066 -0.7076 451.813 367.9761)" fill="#0078A1" width="1.1" height="61.7"/></g></g><g><g><polygon fill="#0093D0" points="340.2,113.1 318,90.8 328.8,80 351,102.3 339.7,101.7"/></g></g><g><g><rect x="316.3" y="75.8" transform="matrix(-0.7071 -0.7072 0.7072 -0.7071 500.5383 374.3161)" fill="#0093D0" width="23" height="15.3"/></g></g><g><g><polygon fill="#0078A1" points="330.5,97 318,90.8 321.1,87.7"/></g></g></g></g><g><g><path fill="#1A1A1A" d="M276.44 189.38v-26.22h-7.4v-4.93h0.68c4.93 0 7.97-1.89 8.71-5.98h5.56v37.13H276.44z"/><path fill="#1A1A1A" d="M313.75 158.85h-13.69l-0.79 8.44h0.1c1.42-1.94 3.62-2.78 6.82-2.78c7.13 0 9.1 6 9.1 11.8 c0 8.13-2.36 13.74-11.9 13.74c-9.44 0-10.96-6.19-10.96-10.33v-1h7.24c0 2.5 0.4 6.1 3.7 6.08c3.04 0 4.41-2.41 4.41-7.24 c0-6.14-0.94-7.87-4.35-7.87c-2.15 0-3.3 1.31-3.57 3.41h-6.77l1.36-20.19h19.35L313.75 158.85L313.75 158.85z"/></g><g><rect x="260.4" y="135.8" fill="#0093D0" width="1.3" height="68.4"/></g><g><rect x="323" y="135.8" fill="#0093D0" width="1.3" height="68.4"/></g><g><path fill="#1A1A1A" d="M337.27 184.62V167.2h-4.91v-3.28h0.45c3.28 0 5.3-1.25 5.79-3.97h3.69v24.67H337.27z"/><path fill="#1A1A1A" d="M347.86 175.39l8.19-15.44h5.19v15.65h2.37v3.9h-2.37v5.12h-4.6v-5.12h-8.78L347.86 175.4 L347.86 175.39z M356.64 166.22h-0.07l-4.81 9.38h4.88V166.22z"/></g><g><path fill="#1A1A1A" d="M240.36 178.87c0 1.9 0.6 3 2.3 2.96c2.65 0 3.07-2.65 3.07-6.27v-1.19h-0.07 c-0.84 1.25-2.48 2.09-4.64 2.09c-4.39 0-6.03-3.28-6.03-7.7c0-5.65 2.48-8.82 7.98-8.82c6.9 0 7.8 5.5 7.8 11.5 c0 7.01-0.14 13.63-8.29 13.63c-3.56 0-6.8-1.5-6.87-6.24H240.36L240.36 178.87z M242.69 172.77c1.99 0 2.75-1.32 2.75-4.67 c-0.03-2.82-0.42-4.88-2.75-4.88c-2.44 0-2.72 2.09-2.72 4.88C239.97 171.4 240.7 172.8 242.7 172.77z"/></g></g></g><g><polygon fill="#0093D0" points="592.6,407.6 438.4,407.6 438.4,342 592.6,342 561.9,374.7"/></g><g><g><rect x="103.1" y="309.2" fill="#0093D0" width="394.8" height="65.6"/></g></g><g><g><g opacity="0.5"><g><g><polygon fill="#FFFFFF" points="231.8,334.2 224.8,341.2 224.2,344.1 231.1,337.1"/></g></g><g><g><polygon fill="#FFFFFF" points="215.3,342.1 215.7,343.9 220.2,339.4 219.8,337.5"/></g></g><g><g><polygon fill="#FFFFFF" points="222.4,350.2 222,348.3 217.7,352.6 218.1,354.5"/></g></g><g><g><polygon fill="#FFFFFF" points="221.7,346.6 221.3,344.7 216.9,349.1 217.3,351"/></g></g><g><g><polygon fill="#FFFFFF" points="227,330.4 226.4,333.2 234.4,325.2 232.2,325.2"/></g></g><g><g><polygon fill="#FFFFFF" points="230.6,339.7 223.7,346.6 223.1,349.5 229.9,342.6"/></g></g><g><g><polygon fill="#FFFFFF" points="225.9,335.8 225.3,338.6 238.7,325.2 236.5,325.2"/></g></g><g><g><polygon fill="#FFFFFF" points="232.2,333.7 232.2,336 239.1,329.2 239.1,326.9"/></g></g><g><g><polygon fill="#FFFFFF" points="239.1,346.4 239.1,344.1 232.2,351 232.2,353.2"/></g></g><g><g><polygon fill="#FFFFFF" points="212.9,325.2 210.6,325.2 206.3,329.5 206.3,331.8"/></g></g><g><g><polygon fill="#FFFFFF" points="220.9,343 220.6,341.1 216.1,345.6 216.5,347.4"/></g></g><g><g><polygon fill="#FFFFFF" points="217.2,325.2 214.9,325.2 206.3,333.9 206.3,336.1"/></g></g><g><g><polygon fill="#FFFFFF" points="208.6,325.2 206.3,325.2 206.3,325.2 206.3,327.5"/></g></g><g><g><polygon fill="#FFFFFF" points="213.1,333.6 213.1,332.6 213.2,332.6 213.4,333.3 218,328.7 217.7,326.8 206.3,338.2 206.3,340.4"/></g></g><g><g><polygon fill="#FFFFFF" points="232.2,342.3 232.2,344.6 239.1,337.8 239.1,335.5"/></g></g><g><g><polygon fill="#FFFFFF" points="232.2,346.6 232.2,348.9 239.1,342.1 239.1,339.8"/></g></g><g><g><polygon fill="#FFFFFF" points="227.5,327.8 230.1,325.2 228.1,325.2"/></g></g><g><g><polygon fill="#FFFFFF" points="232.2,338 232.2,340.3 239.1,333.5 239.1,331.2"/></g></g><g><g><polygon fill="#FFFFFF" points="226.2,359.3 226.9,356.3 221.1,362.1 223.3,362.1"/></g></g><g><g><polygon fill="#FFFFFF" points="225.6,361.9 225.4,362.1 225.6,362.1"/></g></g><g><g><polygon fill="#FFFFFF" points="227.4,353.7 228.1,350.8 219.2,359.7 219.6,361.5"/></g></g><g><g><polygon fill="#FFFFFF" points="239.1,348.4 232.2,355.3 232.2,357.5 239.1,350.7"/></g></g><g><g><polygon fill="#FFFFFF" points="239.1,359.3 239.1,357.1 234,362.1 236.3,362.1"/></g></g><g><g><polygon fill="#FFFFFF" points="239.1,361.4 238.3,362.1 239.1,362.1"/></g></g><g><g><polygon fill="#FFFFFF" points="239.1,355 239.1,352.8 232.2,359.6 232.2,361.9"/></g></g><g><g><polygon fill="#FFFFFF" points="229.3,345.3 218.4,356.1 218.8,358 228.7,348.2"/></g></g><g><g><polygon fill="#FFFFFF" points="213.1,361.5 212.4,362.1 213.1,362.1"/></g></g><g><g><polygon fill="#FFFFFF" points="213.1,342.2 213.1,339.9 206.3,346.8 206.3,349.1"/></g></g><g><g><polygon fill="#FFFFFF" points="214.9,340.4 219.5,335.8 219.1,333.9 214.5,338.5"/></g></g><g><g><polygon fill="#FFFFFF" points="213.1,346.5 213.1,344.2 206.3,351.1 206.3,353.4"/></g></g><g><g><polygon fill="#FFFFFF" points="213.7,335 214.1,336.9 218.8,332.2 218.4,330.4"/></g></g><g><g><polygon fill="#FFFFFF" points="213.1,337.9 213.1,335.6 206.3,342.5 206.3,344.7"/></g></g><g><g><polygon fill="#FFFFFF" points="213.1,359.5 213.1,357.2 208.1,362.1 210.4,362.1"/></g></g><g><g><polygon fill="#FFFFFF" points="213.1,355.1 213.1,352.9 206.3,359.7 206.3,362"/></g></g><g><g><polygon fill="#FFFFFF" points="213.1,350.8 213.1,348.6 206.3,355.4 206.3,357.7"/></g></g></g><g><g><g><polygon fill="#FFFFFF" points="228.1,360.2 228.1,335.4 222.5,360.2 215.7,360.2 210.2,335.4 210.2,360.2 202.1,360.2 202.1,322 214.3,322 219.1,345.8 224,322 236.2,322 236.2,360.2"/></g></g><g><g><path fill="#0093D0" d="M235.52 322.64v36.94h-6.83v-29.49h-0.1l-6.57 29.49h-5.79l-6.57-29.49h-0.11v29.49h-6.83v-36.94 h11.07l5.28 26.07h0.1l5.33-26.07H235.52 M236.79 321.38h-1.26h-11.02h-1.03l-0.21 1.01l-4.14 20.26l-4.1-20.26l-0.21-1.01 h-1.03h-11.07h-1.26v1.26v36.94v1.26h1.26h6.83h1.26v-1.26v-18.51l4.19 18.78l0.22 0.99h1.01h5.79h1.01l0.22-0.99l4.18-18.78 v18.5v1.26h1.26h6.83h1.26v-1.26v-36.94L236.79 321.38L236.79 321.38z"/></g></g></g></g><g><g opacity="0.5"><g><g><path fill="#FFFFFF" d="M263.74 333.09l5.05-5.05c-0.34-0.41-0.72-0.8-1.13-1.15l-4.68 4.7 C263.28 332 263.5 332.5 263.7 333.09z"/></g></g><g><g><path fill="#FFFFFF" d="M264.61 347.17c-0.03 0.87-0.07 1.65-0.12 2.4l7.59-7.6c-0.01-0.75-0.03-1.5-0.06-2.21L264.61 347.2 z"/></g></g><g><g><path fill="#FFFFFF" d="M272.07 346.3c0.02-0.75 0.03-1.52 0.03-2.31l-7.85 7.85c-0.19 1.28-0.47 2.31-0.84 3.1 L272.07 346.3z"/></g></g><g><g><path fill="#FFFFFF" d="M255.52 332.7c0.55-1.38 1.35-2.23 2.56-2.56l5.28-5.28c-0.61-0.14-1.27-0.24-1.98-0.3l-14.28 14.3 c-0.05 0.77-0.08 1.56-0.1 2.38L255.52 332.7z"/></g></g><g><g><path fill="#FFFFFF" d="M248.52 331.08l5.82-5.83C251.4 326.3 249.6 328.3 248.5 331.08z"/></g></g><g><g><path fill="#FFFFFF" d="M271.98 348.43l-14.35 14.35c0.6 0.1 1.2 0.1 1.9 0.09c0.1 0 0.2-0.01 0.3-0.01l11.93-11.93 C271.86 350.1 271.9 349.3 272 348.43z"/></g></g><g><g><path fill="#FFFFFF" d="M254.82 335.42l-7.86 7.86c0 0.1 0 0.2 0 0.39c0 0.6 0 1.3 0 1.87l7.59-7.58 C254.63 337 254.7 336.2 254.8 335.42z"/></g></g><g><g><path fill="#FFFFFF" d="M259.43 324.48c-0.88 0-1.69 0.07-2.45 0.18l-9.27 9.27c-0.18 0.85-0.31 1.75-0.42 2.7 L259.43 324.48z"/></g></g><g><g><path fill="#FFFFFF" d="M264.65 342.83c0 0.3 0 0.5 0 0.84c0 0.52-0.01 0.96-0.02 1.45l7.27-7.27 c-0.06-0.71-0.13-1.39-0.22-2.06L264.65 342.83z"/></g></g><g><g><path fill="#FFFFFF" d="M270.4 356.59c0.42-0.99 0.74-2.08 0.99-3.26l-9.37 9.37c1.11-0.15 2.11-0.38 2.99-0.72L270.4 356.6 z"/></g></g><g><g><path fill="#FFFFFF" d="M264.54 338.63c0.04 0.7 0.1 1.4 0.1 2.19l6.77-6.77c-0.13-0.63-0.29-1.23-0.46-1.82 L264.54 338.63z"/></g></g><g><g><path fill="#FFFFFF" d="M257.25 356.81c-0.46-0.26-0.87-0.6-1.2-1.08l-4.67 4.67c0.41 0.3 0.8 0.7 1.3 0.9 L257.25 356.81z"/></g></g><g><g><path fill="#FFFFFF" d="M254.69 350.76c-0.07-0.65-0.12-1.36-0.16-2.12l-6.41 6.41c0.17 0.6 0.4 1.1 0.6 1.7 L254.69 350.76z"/></g></g><g><g><path fill="#FFFFFF" d="M261.33 357.05c-0.53 0.2-1.1 0.33-1.79 0.33c-0.27 0-0.48-0.06-0.73-0.09l-4.71 4.7 c0.55 0.2 1.1 0.4 1.8 0.51L261.33 357.05z"/></g></g><g><g><path fill="#FFFFFF" d="M255.38 354.37c-0.19-0.53-0.34-1.13-0.46-1.82l-5.51 5.51c0.28 0.5 0.6 0.9 0.9 1.3 L255.38 354.37z"/></g></g><g><g><path fill="#FFFFFF" d="M260.2 330.04c0.66 0.1 1.2 0.2 1.7 0.54l4.53-4.53c-0.48-0.28-0.98-0.53-1.54-0.74L260.2 330 z"/></g></g><g><g><path fill="#FFFFFF" d="M254.45 346.69c-0.02-0.7-0.02-1.47-0.03-2.25l-7.05 7.05c0.09 0.7 0.2 1.3 0.3 1.9 L254.45 346.69z"/></g></g><g><g><path fill="#FFFFFF" d="M264.13 334.73c0.11 0.6 0.2 1.3 0.3 2.01l6-6c-0.23-0.53-0.48-1.04-0.77-1.51L264.13 334.73z"/></g></g><g><g><path fill="#FFFFFF" d="M254.43 342.4c0.01-0.79 0.01-1.6 0.03-2.31l-7.42 7.42c0.03 0.7 0.1 1.4 0.1 2.15L254.43 342.4z "/></g></g></g><g><g><g><path fill="#FFFFFF" d="M255.99 360.94c-12.19 0-13.2-9.38-13.2-19.82c0-10.45 1.01-19.82 13.2-19.82 c12.19 0 13.2 9.4 13.2 19.82C269.19 351.6 268.2 360.9 256 360.94z M255.99 328.04c-3.57 0-4.49 2.69-4.49 13.1 c0 10.4 0.9 13.1 4.5 13.08c3.57 0 4.49-2.69 4.49-13.08C260.48 330.7 259.6 328 256 328.04z"/></g></g><g><g><path fill="#0093D0" d="M255.99 321.92c11.17 0 12.6 8 12.6 19.19c0 11.23-1.4 19.19-12.57 19.2 c-11.18 0-12.57-7.96-12.57-19.19C243.42 329.9 244.8 321.9 256 321.9 M255.99 354.83c4.4 0 5.12-3.78 5.12-13.71 c0-9.88-0.72-13.71-5.12-13.71c-4.4 0-5.12 3.83-5.12 13.71C250.87 351.1 251.6 354.8 256 354.8 M255.99 320.7 c-12.76 0-13.83 10.1-13.83 20.45c0 10.3 1.1 20.4 13.8 20.45c12.76 0 13.83-10.1 13.83-20.45 C269.83 330.8 268.8 320.7 256 320.66L255.99 320.66z M255.99 353.57c-2.85 0-3.86-1.88-3.86-12.45 c0-10.57 1.01-12.45 3.86-12.45c2.85 0 3.9 1.9 3.9 12.45C259.85 351.7 258.8 353.6 256 353.57L255.99 353.57z"/></g></g></g></g><g><g opacity="0.5"><g><g><polygon fill="#FFFFFF" points="286.9,336.3 287.4,338 291.6,333.8 291,332.2"/></g></g><g><g><polygon fill="#FFFFFF" points="297.6,332.1 304.4,325.3 304.4,325.2 302.2,325.2 297.6,329.9"/></g></g><g><g><polygon fill="#FFFFFF" points="292.7,337 292.1,335.3 288,339.5 288.6,341.2"/></g></g><g><g><polygon fill="#FFFFFF" points="293.8,340.2 293.2,338.5 289.1,342.7 289.7,344.4"/></g></g><g><g><polygon fill="#FFFFFF" points="296.1,346.6 295.5,344.9 291.3,349 291.9,350.7"/></g></g><g><g><polygon fill="#FFFFFF" points="295,343.4 294.4,341.7 290.2,345.9 290.8,347.5"/></g></g><g><g><polygon fill="#FFFFFF" points="297.2,349.7 296.6,348.1 292.5,352.2 293.1,353.9"/></g></g><g><g><polygon fill="#FFFFFF" points="286.7,353.6 279.9,360.5 279.9,362.1 280.5,362.1 286.7,355.9"/></g></g><g><g><polygon fill="#FFFFFF" points="304.4,353.2 295.8,361.8 295.9,362.1 297.8,362.1 304.4,355.5"/></g></g><g><g><polygon fill="#FFFFFF" points="283,325.2 280.7,325.2 279.9,326 279.9,328.3"/></g></g><g><g><polygon fill="#FFFFFF" points="290.4,330.7 289.8,329 279.9,338.9 279.9,341.2"/></g></g><g><g><polygon fill="#FFFFFF" points="289.3,327.5 288.7,325.8 279.9,334.6 279.9,336.9"/></g></g><g><g><polygon fill="#FFFFFF" points="287.3,325.2 285,325.2 279.9,330.3 279.9,332.6"/></g></g><g><g><polygon fill="#FFFFFF" points="286.7,351.6 286.7,349.3 279.9,356.2 279.9,358.4"/></g></g><g><g><polygon fill="#FFFFFF" points="304.4,351.1 304.4,348.9 294.7,358.6 295.3,360.3"/></g></g><g><g><polygon fill="#FFFFFF" points="304.4,346.8 304.4,344.6 293.6,355.4 294.2,357.1"/></g></g><g><g><polygon fill="#FFFFFF" points="286.7,360.2 286.7,357.9 282.6,362.1 284.8,362.1"/></g></g><g><g><polygon fill="#FFFFFF" points="286.7,347.3 286.7,345 279.9,351.9 279.9,354.1"/></g></g><g><g><polygon fill="#FFFFFF" points="304.4,359.8 304.4,357.5 299.8,362.1 302.1,362.1"/></g></g><g><g><polygon fill="#FFFFFF" points="304.4,361.8 304.1,362.1 304.4,362.1"/></g></g><g><g><polygon fill="#FFFFFF" points="297.6,338.5 297.6,340.7 304.4,333.9 304.4,331.6"/></g></g><g><g><polygon fill="#FFFFFF" points="297.6,334.2 297.6,336.4 304.4,329.6 304.4,327.3"/></g></g><g><g><polygon fill="#FFFFFF" points="304.4,340.2 297.6,347.1 297.6,349.4 304.4,342.5"/></g></g><g><g><polygon fill="#FFFFFF" points="286.7,343 286.7,340.7 279.9,347.5 279.9,349.8"/></g></g><g><g><polygon fill="#FFFFFF" points="297.6,342.8 297.6,345.1 304.4,338.2 304.4,335.9"/></g></g><g><g><polygon fill="#FFFFFF" points="286.7,338.7 286.7,336.4 279.9,343.2 279.9,345.5"/></g></g><g><g><polygon fill="#FFFFFF" points="297.6,325.5 297.6,327.8 300.2,325.2 297.9,325.2"/></g></g></g><g><g><g><polygon fill="#FFFFFF" points="292,360.2 283.8,337.1 283.8,360.2 275.7,360.2 275.7,322 285.4,322 293.4,344.6 293.4,322 301.5,322 301.5,360.2"/></g></g><g><g><path fill="#0093D0" d="M300.89 322.64v36.94h-8.49l-9.1-25.87h-0.1v25.87h-6.83v-36.94h8.59l9 25.3h0.1v-25.3H300.89 M302.15 321.38h-1.26h-6.83h-1.26v1.26v18.29l-6.66-18.71l-0.3-0.84h-0.89h-8.59h-1.26v1.26v36.94v1.26h1.26h6.83h1.26 v-1.26V340.8l6.76 19.2l0.3 0.84h0.89h8.49h1.26v-1.26v-36.94V321.38L302.15 321.38z"/></g></g></g></g><g><g opacity="0.5"><g><g><path fill="#FFFFFF" d="M328.96 333.66l5.21-5.21c-0.36-0.4-0.74-0.77-1.17-1.11l-4.94 4.9 C328.41 332.7 328.7 333.1 329 333.66z"/></g></g><g><g><path fill="#FFFFFF" d="M330.01 338.96c0.05 0.7 0.1 1.4 0.1 2.18l6.77-6.77c-0.14-0.63-0.29-1.23-0.47-1.81L330.01 339 z"/></g></g><g><g><polygon fill="#FFFFFF" points="324.5,325.2 322.2,325.2 313.2,334.2 313.2,336.5"/></g></g><g><g><path fill="#FFFFFF" d="M337.58 342.28c-0.01-0.76-0.03-1.5-0.06-2.22l-7.48 7.49c-0.05 0.89-0.11 1.73-0.2 2.5 L337.58 342.28z"/></g></g><g><g><path fill="#FFFFFF" d="M330.13 343.14c0 0.1 0 0.1 0 0.22c0 0.76-0.02 1.41-0.03 2.09l7.3-7.3 c-0.06-0.71-0.13-1.39-0.23-2.05L330.13 343.14z"/></g></g><g><g><polygon fill="#FFFFFF" points="320.2,325.2 317.9,325.2 313.2,329.9 313.2,332.2"/></g></g><g><g><path fill="#FFFFFF" d="M337.34 348.85l-13.28 13.29h0.85c0.52 0 1-0.03 1.49-0.06l10.62-10.63 C337.16 350.6 337.3 349.8 337.3 348.85z"/></g></g><g><g><polygon fill="#FFFFFF" points="320.6,352.6 313.2,360.1 313.2,362.1 313.4,362.1 320.6,354.9"/></g></g><g><g><polygon fill="#FFFFFF" points="315.9,325.2 313.6,325.2 313.2,325.6 313.2,327.9"/></g></g><g><g><path fill="#FFFFFF" d="M329.48 335.18c0.15 0.6 0.3 1.2 0.4 1.92l6.01-6.01c-0.23-0.52-0.5-1.01-0.8-1.48L329.48 335.2 z"/></g></g><g><g><polygon fill="#FFFFFF" points="323.2,356.6 320.9,356.6 315.4,362.1 317.7,362.1"/></g></g><g><g><polygon fill="#FFFFFF" points="320.6,350.6 320.6,348.4 313.2,355.8 313.2,358.1"/></g></g><g><g><polygon fill="#FFFFFF" points="320.6,346.3 320.6,344 313.2,351.5 313.2,353.8"/></g></g><g><g><path fill="#FFFFFF" d="M334.24 358.54c0.95-1.18 1.66-2.67 2.18-4.45l-7.66 7.66c1.7-0.37 3.1-1.02 4.24-1.97L334.24 358.5 z"/></g></g><g><g><path fill="#FFFFFF" d="M337.5 346.67c0.04-0.75 0.06-1.54 0.07-2.35l-8.21 8.21c-0.67 2.44-1.89 3.65-3.99 4l-5.61 5.6 h2.28L337.5 346.67z"/></g></g><g><g><polygon fill="#FFFFFF" points="320.6,342 320.6,339.7 313.2,347.2 313.2,349.4"/></g></g><g><g><path fill="#FFFFFF" d="M321.04 330.68h2.28l5.21-5.21c-0.63-0.12-1.32-0.19-2.05-0.23L321.04 330.68z"/></g></g><g><g><polygon fill="#FFFFFF" points="320.6,333.4 320.6,331.1 313.2,338.6 313.2,340.8"/></g></g><g><g><polygon fill="#FFFFFF" points="320.6,337.7 320.6,335.4 313.2,342.9 313.2,345.1"/></g></g><g><g><path fill="#FFFFFF" d="M325.2 330.83c0.65 0.1 1.2 0.3 1.7 0.55l4.84-4.84c-0.49-0.27-1.03-0.49-1.6-0.67L325.2 330.83z "/></g></g></g><g><g><g><path fill="#FFFFFF" d="M308.99 360.21v-38.2h12.84c10.69 0 12.8 7.1 12.8 18.58c0 12.11-2.23 19.62-13.3 19.62H308.99z M320.39 353.47c4.48 0 5.58-2.49 5.58-12.67c0-8.89-0.87-12.04-5.73-12.04h-2.52v24.71H320.39L320.39 353.47z"/></g></g><g><g><path fill="#0093D0" d="M321.83 322.64c10.35 0 12.2 7.1 12.2 17.95c0 13.09-2.79 18.99-12.67 18.99h-11.74v-36.94 L321.83 322.6 M317.07 354.1h3.31c5.17 0 6.21-3.26 6.21-13.29c0-8.38-0.67-12.67-6.36-12.67h-3.15L317.07 354.1 M321.83 321.38h-12.21h-1.26v1.26v36.94v1.26h1.26h11.74c11.56 0 13.94-8.09 13.94-20.25 C335.3 331.3 334.3 321.4 321.8 321.38L321.83 321.38z M318.33 329.39h1.89c4.1 0 5.1 2.2 5.1 11.4 c0 10.95-1.43 12.03-4.95 12.03h-2.05L318.33 329.39L318.33 329.39z"/></g></g></g></g><g><g opacity="0.5"><g><g><polygon fill="#FFFFFF" points="359.3,342.6 359.7,344.4 365.1,339 364.7,337.2"/></g></g><g><g><polygon fill="#FFFFFF" points="365.6,340.6 360.1,346.1 360.4,348 366,342.4"/></g></g><g><g><polygon fill="#FFFFFF" points="357.8,335.5 358.2,337.4 363.3,332.2 362.9,330.4"/></g></g><g><g><polygon fill="#FFFFFF" points="357,331.9 357.4,333.8 362.4,328.8 361.9,327"/></g></g><g><g><polygon fill="#FFFFFF" points="358.5,339 358.9,340.9 364.2,335.6 363.8,333.8"/></g></g><g><g><polygon fill="#FFFFFF" points="367.4,347.4 360.5,354.3 361.8,354.3 362,355.1 367.8,349.2"/></g></g><g><g><polygon fill="#FFFFFF" points="369.2,354.2 363.1,360.3 363.5,362.1 363.5,362.1 369.6,356"/></g></g><g><g><polygon fill="#FFFFFF" points="352,326.3 353.1,325.2 352.3,325.2"/></g></g><g><g><polygon fill="#FFFFFF" points="357.4,325.2 355.1,325.2 351.2,329.1 350.4,332.2"/></g></g><g><g><polygon fill="#FFFFFF" points="361.5,325.4 361.5,325.2 359.4,325.2 349.7,334.9 348.9,338"/></g></g><g><g><polygon fill="#FFFFFF" points="356.1,335.1 356.7,332.2 348.1,340.8 347.3,343.9"/></g></g><g><g><polygon fill="#FFFFFF" points="366.5,344 356.1,354.3 358.4,354.3 366.9,345.8"/></g></g><g><g><polygon fill="#FFFFFF" points="368.7,352.6 368.3,350.8 362.3,356.8 362.7,358.6"/></g></g><g><g><polygon fill="#FFFFFF" points="354.9,340.6 355.5,337.7 346.6,346.6 345.8,349.7"/></g></g><g><g><polygon fill="#FFFFFF" points="371,361.1 369.9,362.1 371.3,362.1"/></g></g><g><g><polygon fill="#FFFFFF" points="370.5,359.4 370.1,357.6 365.6,362.1 367.9,362.1"/></g></g><g><g><polygon fill="#FFFFFF" points="355.9,348.2 353.6,348.2 343.5,358.4 342.7,361.5"/></g></g><g><g><polygon fill="#FFFFFF" points="350.8,359.7 348.3,362.1 350.2,362.1"/></g></g><g><g><polygon fill="#FFFFFF" points="353.7,346.1 354.3,343.2 345,352.5 344.2,355.6"/></g></g><g><g><polygon fill="#FFFFFF" points="351.4,357.1 352,354.3 354.1,354.3 360.2,348.2 357.9,348.2 344,362.1 346.3,362.1"/></g></g></g><g><g><g><path fill="#FFFFFF" d="M359.45 360.21l-1.71-7.81h-8.81l-1.71 7.81h-9.09l10.11-38.2h10.18l10.11 38.2H359.45z M356.18 345.04l-2.84-13.22l-2.84 13.22H356.18z"/></g></g><g><g><path fill="#0093D0" d="M357.94 322.64l9.78 36.94h-7.76l-1.71-7.81h-9.83l-1.71 7.81h-7.76l9.78-36.94H357.94 M349.71 345.67h7.24l-3.57-16.61h-0.1L349.71 345.7 M358.91 321.38h-0.97h-9.21h-0.97l-0.25 0.94l-9.78 36.94l-0.42 1.6 h1.64h7.76h1.01l0.22-0.99l1.49-6.82h7.8l1.49 6.82l0.22 0.99h1.01h7.76h1.64l-0.42-1.58l-9.78-36.94L358.91 321.4 L358.91 321.38z M351.27 344.41l2.06-9.59l2.06 9.59H351.27L351.27 344.41z"/></g></g></g></g><g><g opacity="0.5"><g><g><polygon fill="#FFFFFF" points="381.6,329.6 381,327.9 375.3,333.6 376,335.2"/></g></g><g><g><polygon fill="#FFFFFF" points="389.1,328.4 387.8,332 394.6,325.2 392.3,325.2"/></g></g><g><g><polygon fill="#FFFFFF" points="385.4,338.7 397.9,326.2 398.3,325.2 396.6,325.2 386.7,335.2"/></g></g><g><g><polygon fill="#FFFFFF" points="382.7,332.8 382.1,331.1 376.6,336.6 377.3,338.2"/></g></g><g><g><polygon fill="#FFFFFF" points="371.8,325.2 372.1,326.1 373.1,325.2"/></g></g><g><g><polygon fill="#FFFFFF" points="388.8,354.6 381.3,362.1 381.3,362.1 383.5,362.1 388.8,356.9"/></g></g><g><g><polygon fill="#FFFFFF" points="377.4,325.2 375.1,325.2 372.8,327.5 373.4,329.1"/></g></g><g><g><polygon fill="#FFFFFF" points="380.5,326.4 380.1,325.2 379.4,325.2 374,330.6 374.7,332.1"/></g></g><g><g><polygon fill="#FFFFFF" points="383.8,336 383.2,334.3 377.9,339.6 378.6,341.2"/></g></g><g><g><polygon fill="#FFFFFF" points="388.8,352.6 388.8,350.3 381.3,357.7 381.3,360"/></g></g><g><g><polygon fill="#FFFFFF" points="388.8,348.3 388.8,347.6 390,344.8 381.3,353.4 381.3,355.7"/></g></g><g><g><polygon fill="#FFFFFF" points="388.8,361.2 388.8,358.9 385.5,362.1 387.8,362.1"/></g></g><g><g><polygon fill="#FFFFFF" points="391.5,341.2 393.2,337.2 381.3,349.1 381.3,351.4"/></g></g><g><g><polygon fill="#FFFFFF" points="384.9,339.2 384.3,337.5 379.2,342.6 379.9,344.2"/></g></g><g><g><polygon fill="#FFFFFF" points="394.7,333.7 396.4,329.7 380.5,345.6 381.2,347.2"/></g></g><g><g><polygon fill="#FFFFFF" points="390.3,325.2 390.3,325.2 390.3,325.2"/></g></g></g><g><g><g><polygon fill="#FFFFFF" points="377.1,360.2 377.1,345.2 367.2,322 377,322 381.5,335.2 386.3,322 395.8,322 385.9,345.2 385.9,360.2"/></g></g><g><g><path fill="#0093D0" d="M394.8 322.64l-9.57 22.4v14.54h-7.45v-14.54l-9.57-22.4h8.38l4.86 14.28h0.1l5.17-14.28H394.8 M396.71 321.38h-1.91h-8.07h-0.88l-0.3 0.83l-4 11.05l-3.76-11.03l-0.29-0.85h-0.9h-8.38h-1.91l0.75 1.76l9.47 22.16v14.28 v1.26h1.26h7.45h1.26v-1.26V345.3l9.47-22.16L396.71 321.38L396.71 321.38z"/></g></g></g></g></g><g><polygon fill="#0078A1" points="497.9,374.8 438.4,407.6 438.4,374.8"/></g><g><polygon fill="#0093D0" points="7.4,407.6 161.6,407.6 161.6,342 7.4,342 38.1,374.7"/></g><g><polygon fill="#0078A1" points="102.1,374.8 161.6,407.6 161.6,374.8"/></g></g></g></svg>