<?xml version="1.0" encoding="utf-8"?>
<!-- Generator: Adobe Illustrator 16.0.0, SVG Export Plug-In . SVG Version: 6.00 Build 0)  -->
<!DOCTYPE svg PUBLIC "-//W3C//DTD SVG 1.1//EN" "http://www.w3.org/Graphics/SVG/1.1/DTD/svg11.dtd">
<svg version="1.1" id="wednesday_expanded" xmlns="http://www.w3.org/2000/svg" xmlns:xlink="http://www.w3.org/1999/xlink" x="0px"
	 y="0px" width="600px" height="430px" viewBox="0 0 600 430" enable-background="new 0 0 600 430" xml:space="preserve">
<g>
	<g>
		<g>
			<path fill="#FFFFFF" d="M488.196,211.681c0,103.936-84.262,188.193-188.198,188.193c-103.936,0-188.193-84.257-188.193-188.193
				c0-103.93,84.257-188.188,188.193-188.188C403.935,23.494,488.196,107.751,488.196,211.681z"/>
			<path fill="#6ABD45" d="M299.998,402.396c-105.16,0-190.714-85.555-190.714-190.714c0-105.157,85.554-190.708,190.714-190.708
				c105.163,0,190.72,85.551,190.72,190.708C490.718,316.841,405.161,402.396,299.998,402.396z M299.998,26.015
				c-102.38,0-185.672,83.29-185.672,185.667c0,102.379,83.292,185.671,185.672,185.671c102.383,0,185.677-83.292,185.677-185.671
				C485.675,109.304,402.381,26.015,299.998,26.015z"/>
		</g>
		<g>
			<path fill="#6ABD45" d="M299.998,389.253c-97.914,0-177.572-79.658-177.572-177.572c0-97.911,79.659-177.566,177.572-177.566
				c97.914,0,177.572,79.656,177.572,177.566C477.57,309.595,397.912,389.253,299.998,389.253z M299.998,35.457
				c-97.174,0-176.23,79.054-176.23,176.225c0,97.173,79.057,176.23,176.23,176.23s176.23-79.057,176.23-176.23
				C476.229,114.511,397.172,35.457,299.998,35.457z"/>
		</g>
		<g>
			<g>
				<path fill="#1A1A1A" d="M276.092,171.212V144.99h-7.395v-4.93h0.682c4.93,0,7.972-1.888,8.706-5.979h5.559v37.131H276.092z"/>
				<path fill="#1A1A1A" d="M314.76,134.816v5.769c-6.137,8.653-9.703,20.139-10.909,30.627h-7.919
					c1.154-8.968,4.301-20.034,11.591-29.894h-15.629v-6.503H314.76z"/>
			</g>
			<g>
				<rect x="259.821" y="117.584" fill="#6ABD45" width="1.312" height="68.407"/>
			</g>
			<g>
				<rect x="322.465" y="117.584" fill="#6ABD45" width="1.311" height="68.407"/>
			</g>
			<g>
				<path fill="#1A1A1A" d="M336.736,166.459v-17.426h-4.914v-3.276h0.453c3.276,0,5.298-1.254,5.785-3.973h3.694v24.675H336.736z"
					/>
				<path fill="#1A1A1A" d="M347.328,157.224l8.189-15.439h5.193v15.648h2.369v3.903h-2.369v5.123h-4.601v-5.123h-8.782V157.224z
					 M356.11,148.058h-0.07l-4.809,9.375h4.879V148.058z"/>
			</g>
			<g>
				<path fill="#1A1A1A" d="M239.815,160.709c0,1.847,0.593,2.962,2.266,2.962c2.648,0,3.067-2.648,3.067-6.273v-1.185h-0.07
					c-0.836,1.254-2.475,2.091-4.635,2.091c-4.391,0-6.029-3.276-6.029-7.702c0-5.646,2.475-8.817,7.981-8.817
					c6.9,0,7.772,5.507,7.772,11.536c0,7.005-0.14,13.626-8.295,13.626c-3.555,0-6.796-1.499-6.865-6.238H239.815z M242.15,154.61
					c1.986,0,2.753-1.324,2.753-4.67c-0.035-2.823-0.418-4.879-2.753-4.879c-2.44,0-2.719,2.091-2.719,4.879
					C239.432,153.286,240.198,154.61,242.15,154.61z"/>
			</g>
		</g>
		<g>
			<g>
				<g>
					
						<rect x="266.858" y="76.508" transform="matrix(0.7071 0.7071 -0.7071 0.7071 141.663 -187.9347)" fill="#589642" width="61.671" height="1.062"/>
				</g>
				<g>
					<polygon fill="#6ABD45" points="259.524,99.641 281.782,77.384 270.955,66.556 248.694,88.818 260.084,88.195 					"/>
				</g>
				<g>
					
						<rect x="260.455" y="62.344" transform="matrix(-0.7071 0.7071 -0.7071 -0.7071 513.7505 -72.7924)" fill="#6ABD45" width="22.99" height="15.313"/>
				</g>
				<g>
					<polygon fill="#589642" points="269.236,83.542 281.782,77.384 278.587,74.19 					"/>
				</g>
			</g>
			<g>
				<g>
					
						<rect x="300.98" y="46.203" transform="matrix(0.7071 0.7071 -0.7071 0.7071 142.7855 -190.6366)" fill="#589642" width="1.062" height="61.671"/>
				</g>
				<g>
					<polygon fill="#6ABD45" points="339.683,99.641 317.422,77.384 328.251,66.556 350.51,88.818 339.121,88.195 					"/>
				</g>
				<g>
					
						<rect x="315.76" y="62.346" transform="matrix(0.7071 0.7071 -0.7071 0.7071 145.3652 -210.9117)" fill="#6ABD45" width="22.988" height="15.31"/>
				</g>
				<g>
					<polygon fill="#589642" points="329.969,83.542 317.422,77.384 320.614,74.19 					"/>
				</g>
			</g>
		</g>
		<g>
			<path fill="#6ABD45" d="M198.894,201.621h7.458l3.555,17.565h0.07l3.59-17.565h7.423v24.883h-4.601v-19.865h-0.07l-4.426,19.865
				h-3.903l-4.426-19.865h-0.07v19.865h-4.6V201.621z"/>
			<path fill="#6ABD45" d="M231.26,201.621h6.204l6.587,24.883h-5.228l-1.15-5.262h-6.622l-1.15,5.262h-5.228L231.26,201.621z
				 M231.922,217.129h4.879l-2.405-11.187h-0.07L231.922,217.129z"/>
			<path fill="#6ABD45" d="M252.683,201.621v9.968h0.07l6.343-9.968h5.437l-6.761,10.665l7.527,14.219h-5.646l-5.123-10.211
				l-1.847,2.822v7.389h-5.019v-24.883H252.683z"/>
			<path fill="#6ABD45" d="M282.501,201.621v4.112h-8.887v5.855h8.364v4.112h-8.364v6.692h9.235v4.111h-14.254v-24.883H282.501z"/>
			<path fill="#6ABD45" d="M286.833,201.621h9.271c4.112,0,6.621,2.161,6.621,6.413c0,3.311-1.324,5.542-4.147,6.134v0.07
				c3.416,0.453,3.938,2.335,4.008,7.597c0.034,2.613,0.174,3.973,1.115,4.461v0.209h-5.437c-0.488-0.697-0.593-1.637-0.627-2.613
				l-0.14-4.775c-0.069-1.951-0.941-3.136-2.962-3.136h-2.684v10.524h-5.019V201.621z M291.852,212.494h2.091
				c2.405,0,3.764-1.045,3.764-3.729c0-2.3-1.22-3.45-3.485-3.45h-2.37V212.494z"/>
			<path fill="#6ABD45" d="M311.654,218.732v0.732c0,2.334,0.662,3.834,3.311,3.834c1.534,0,2.998-0.977,2.998-3.068
				c0-2.264-1.15-3.102-4.461-4.251c-4.461-1.534-6.518-3.381-6.518-7.528c0-4.844,2.962-7.319,7.702-7.319
				c4.461,0,7.702,1.917,7.702,6.691v0.697h-4.81c0-2.335-0.802-3.694-2.719-3.694c-2.265,0-2.857,1.429-2.857,2.893
				c0,1.533,0.453,2.474,2.579,3.38l3.868,1.673c3.764,1.638,4.74,3.555,4.74,6.586c0,5.264-3.207,7.633-8.644,7.633
				c-5.681,0-7.911-2.648-7.911-7.248v-1.012H311.654z"/>
			<path fill="#6ABD45" d="M327.173,201.621h8.783c5.088,0,6.83,3.729,6.83,7.458c0,5.158-3.171,7.494-7.911,7.494h-2.684v9.932
				h-5.019V201.621z M332.191,212.877h2.23c1.987,0,3.346-1.185,3.346-3.729c0-2.439-0.976-3.833-3.484-3.833h-2.092V212.877z"/>
			<path fill="#6ABD45" d="M350.384,201.621h6.203l6.587,24.883h-5.228l-1.15-5.262h-6.621l-1.15,5.262h-5.228L350.384,201.621z
				 M351.046,217.129h4.879l-2.404-11.187h-0.07L351.046,217.129z"/>
			<path fill="#6ABD45" d="M376.749,210.02c0-3.625-0.731-5.193-2.997-5.193c-2.544,0-3.137,2.544-3.137,9.584
				c0,7.528,1.046,8.888,3.206,8.888c1.812,0,3.137-0.941,3.137-6.309h5.019c0,5.367-1.324,10.002-7.911,10.002
				c-7.527,0-8.469-5.367-8.469-12.93s0.941-12.93,8.469-12.93c7.18,0,7.702,5.263,7.702,8.887H376.749z"/>
			<path fill="#6ABD45" d="M400.093,201.621v4.112h-8.888v5.855h8.364v4.112h-8.364v6.692h9.236v4.111h-14.255v-24.883H400.093z"/>
			<path fill="#6ABD45" d="M197.829,250.098v0.73c0,2.336,0.662,3.834,3.311,3.834c1.533,0,2.997-0.975,2.997-3.066
				c0-2.266-1.15-3.102-4.461-4.252c-4.461-1.533-6.517-3.381-6.517-7.527c0-4.846,2.962-7.318,7.702-7.318
				c4.461,0,7.702,1.916,7.702,6.691v0.695h-4.81c0-2.334-0.802-3.693-2.718-3.693c-2.266,0-2.858,1.43-2.858,2.893
				c0,1.533,0.453,2.475,2.579,3.381l3.868,1.672c3.764,1.639,4.74,3.555,4.74,6.588c0,5.262-3.206,7.633-8.643,7.633
				c-5.681,0-7.911-2.65-7.911-7.25v-1.01H197.829z"/>
			<path fill="#6ABD45" d="M216.959,232.984l3.276,9.619h0.07l3.485-9.619h5.437l-6.447,15.092v9.793h-5.019v-9.793l-6.448-15.092
				H216.959z"/>
			<path fill="#6ABD45" d="M232.941,232.984h7.458l3.555,17.566h0.07l3.59-17.566h7.423v24.885h-4.601v-19.865h-0.07l-4.426,19.865
				h-3.903l-4.426-19.865h-0.07v19.865h-4.6V232.984z"/>
			<path fill="#6ABD45" d="M260.08,232.984h8.782c5.088,0,6.831,3.73,6.831,7.459c0,5.158-3.171,7.492-7.911,7.492h-2.684v9.934
				h-5.019V232.984z M265.099,244.242h2.23c1.986,0,3.346-1.186,3.346-3.729c0-2.439-0.976-3.834-3.485-3.834h-2.091V244.242z"/>
			<path fill="#6ABD45" d="M287.821,232.498c7.528,0,8.469,5.365,8.469,12.93c0,7.562-0.941,12.93-8.469,12.93
				s-8.469-5.367-8.469-12.93C279.353,237.863,280.293,232.498,287.821,232.498z M287.821,254.662c2.962,0,3.45-2.543,3.45-9.234
				c0-6.658-0.488-9.236-3.45-9.236s-3.45,2.578-3.45,9.236C284.371,252.119,284.859,254.662,287.821,254.662z"/>
			<path fill="#6ABD45" d="M304.968,250.098v0.73c0,2.336,0.662,3.834,3.311,3.834c1.534,0,2.998-0.975,2.998-3.066
				c0-2.266-1.15-3.102-4.461-4.252c-4.461-1.533-6.518-3.381-6.518-7.527c0-4.846,2.962-7.318,7.702-7.318
				c4.461,0,7.702,1.916,7.702,6.691v0.695h-4.81c0-2.334-0.802-3.693-2.719-3.693c-2.265,0-2.857,1.43-2.857,2.893
				c0,1.533,0.453,2.475,2.579,3.381l3.868,1.672c3.764,1.639,4.74,3.555,4.74,6.588c0,5.262-3.207,7.633-8.644,7.633
				c-5.681,0-7.911-2.65-7.911-7.25v-1.01H304.968z"/>
			<path fill="#6ABD45" d="M320.603,257.869v-24.885h5.019v24.885H320.603z"/>
			<path fill="#6ABD45" d="M335.521,232.984v17.357c0,2.473,0.593,4.32,2.928,4.32s2.928-1.848,2.928-4.32v-17.357h5.019v17.357
				c0,6.342-3.869,8.016-7.946,8.016s-7.946-1.359-7.946-8.016v-17.357H335.521z"/>
			<path fill="#6ABD45" d="M351.243,232.984h7.459l3.555,17.566h0.069l3.59-17.566h7.423v24.885h-4.6v-19.865h-0.07l-4.426,19.865
				h-3.903l-4.426-19.865h-0.07v19.865h-4.601V232.984z"/>
			<path fill="#6ABD45" d="M389.021,257.869v-24.885h5.019v24.885H389.021z"/>
			<path fill="#6ABD45" d="M399.204,257.869v-24.885h5.019v24.885H399.204z"/>
			<path fill="#1A1A1A" d="M192.495,273.979c0-2.039,0.444-2.797,1.516-3.398v0.889c-0.653,0.471-0.731,1.307-0.731,2.457h0.313
				v2.666h-1.098V273.979z M195.422,273.979c0-2.039,0.444-2.797,1.516-3.398v0.889c-0.653,0.471-0.732,1.307-0.732,2.457h0.313
				v2.666h-1.098V273.979z"/>
			<path fill="#1A1A1A" d="M201.368,284.459c0,2.379,1.542,4.209,4.234,4.209c2.588,0,4.313-1.855,4.313-4.234
				c0-2.432-1.307-3.268-3.398-4l-2.117-0.73c-2.457-0.838-3.79-2.039-3.79-4.574c0-3.006,2.064-4.863,4.992-4.863
				c3.45,0,4.992,1.961,4.992,5.072h-1.098c0-2.51-1.15-4.184-3.79-4.184c-2.091,0-3.999,0.969-3.999,3.869
				c0,2.064,1.124,3.059,2.745,3.607l2.771,0.967c2.405,0.836,3.79,2.012,3.79,4.758c0,3.318-2.457,5.201-5.411,5.201
				c-4.313,0-5.332-3.033-5.332-4.836v-1.229h1.098V284.459z"/>
			<path fill="#1A1A1A" d="M217.917,271.572h-4.966v-0.992h11.03v0.992h-4.966v17.67h-1.098V271.572z"/>
			<path fill="#1A1A1A" d="M233.518,283.439h-7.031l-1.777,5.803h-1.098l5.803-18.662h1.385l5.594,18.662h-1.098L233.518,283.439z
				 M230.094,271.678h-0.052l-3.293,10.873h6.561L230.094,271.678z"/>
			<path fill="#1A1A1A" d="M239.334,270.58h1.098v10.377h0.052l7.711-10.377h1.202l-5.855,7.867l6.43,10.795h-1.255l-5.881-9.879
				l-2.405,3.188v6.691h-1.098V270.58z"/>
			<path fill="#1A1A1A" d="M252.903,270.58h8.914v0.992h-7.815v7.451h7.292v0.992h-7.292v8.234h8.05v0.992h-9.148V270.58z"/>
			<path fill="#1A1A1A" d="M276.588,281.559l-5.097-10.979h1.203l4.443,9.828l4.548-9.828h1.098l-5.097,10.979v7.684h-1.098V281.559
				z"/>
			<path fill="#1A1A1A" d="M296.472,279.912c0,8.18-3.372,9.645-6.012,9.645c-3.581,0-6.038-2.404-6.038-9.645
				s2.614-9.646,6.038-9.646C294.171,270.266,296.472,272.672,296.472,279.912z M285.52,279.912c0,5.123,1.046,8.756,4.94,8.756
				c3.424,0,4.914-2.824,4.914-8.756c0-5.045-1.124-8.758-4.914-8.758C286.801,271.154,285.52,274.789,285.52,279.912z"/>
			<path fill="#1A1A1A" d="M301.166,284.303c0,2.613,1.177,4.365,4.078,4.365c2.692,0,4.077-1.752,4.077-4.365V270.58h1.098v13.514
				c0,4.207-2.587,5.463-5.175,5.463s-5.175-0.994-5.175-5.463V270.58h1.097V284.303z"/>
			<path fill="#1A1A1A" d="M314.59,270.58h5.463c2.588,0,4.626,1.49,4.626,4.889c0,2.455-1.307,4.363-3.737,4.625v0.053
				c3.058,0.184,3.606,2.064,3.606,4.627v1.961c0,1.07,0.157,1.75,0.628,2.508h-1.255c-0.287-0.549-0.471-1.438-0.471-2.535v-1.908
				c0-2.666-0.731-4.207-3.737-4.207h-4.025v8.65h-1.098V270.58z M319.189,279.703c2.065,0,4.392-0.68,4.392-4.234
				c0-2.51-1.411-4-3.686-4h-4.208v8.234H319.189z"/>
			<path fill="#1A1A1A" d="M346.064,275.938c0-2.508-1.333-4.783-4.077-4.783c-3.712,0-4.94,3.477-4.94,8.73
				c0,5.02,1.02,8.783,4.783,8.783c3.607,0,4.47-4.234,4.47-5.699h1.098c0,2.197-1.098,6.588-5.75,6.588
				c-4.052,0-5.698-3.582-5.698-9.619c0-5.855,1.646-9.672,5.985-9.672c4.365,0,5.229,3.844,5.229,5.672H346.064z"/>
			<path fill="#1A1A1A" d="M350.749,270.58h1.098v17.67h7.815v0.992h-8.913V270.58z"/>
			<path fill="#1A1A1A" d="M372.039,283.439h-7.031l-1.777,5.803h-1.098l5.803-18.662h1.385l5.594,18.662h-1.098L372.039,283.439z
				 M368.615,271.678h-0.053l-3.293,10.873h6.561L368.615,271.678z"/>
			<path fill="#1A1A1A" d="M377.855,270.58h1.098v18.662h-1.098V270.58z"/>
			<path fill="#1A1A1A" d="M396.143,271.992h-0.053l-5.358,17.25h-1.098l-5.358-17.25h-0.052v17.25h-1.099V270.58h1.777
				l5.307,16.781h0.052l5.176-16.781h1.804v18.662h-1.098V271.992z"/>
			<path fill="#1A1A1A" d="M402.83,273.193c0,2.039-0.444,2.797-1.517,3.398v-0.889c0.653-0.471,0.732-1.307,0.732-2.457h-0.314
				v-2.666h1.099V273.193z M405.757,273.193c0,2.039-0.444,2.797-1.516,3.398v-0.889c0.653-0.471,0.731-1.307,0.731-2.457h-0.313
				v-2.666h1.098V273.193z"/>
		</g>
	</g>
	<g>
		<g>
			<polygon fill="#6ABD45" points="592.576,406.506 438.453,406.506 438.453,340.889 592.576,340.889 561.917,373.56 			"/>
		</g>
		<g>
			<rect x="103.129" y="308.082" fill="#6ABD45" width="394.807" height="65.617"/>
		</g>
		<g>
			<polygon fill="#589642" points="497.936,373.699 438.453,406.506 438.453,373.699 			"/>
		</g>
		<g>
			<polygon fill="#6ABD45" points="7.424,406.506 161.547,406.506 161.547,340.889 7.424,340.889 38.083,373.56 			"/>
		</g>
		<g>
			<polygon fill="#589642" points="102.063,373.699 161.547,406.506 161.547,373.699 			"/>
		</g>
		<g>
			<g opacity="0.5">
				<g>
					<polygon fill="#FFFFFF" points="190.992,337.775 186.676,342.095 186.922,343.698 191.247,339.376 					"/>
				</g>
				<g>
					<polygon fill="#FFFFFF" points="184.104,346.521 184.443,344.327 178.48,350.29 178.13,352.495 					"/>
				</g>
				<g>
					<polygon fill="#FFFFFF" points="190.511,334.751 186.206,339.054 186.455,340.661 190.766,336.351 					"/>
				</g>
				<g>
					<polygon fill="#FFFFFF" points="191.727,342.405 191.474,340.805 187.147,345.132 187.394,346.739 					"/>
				</g>
				<g>
					<polygon fill="#FFFFFF" points="196.012,336.268 195.681,338.452 203.67,330.464 204.084,328.195 					"/>
				</g>
				<g>
					<polygon fill="#FFFFFF" points="192.212,345.435 191.956,343.834 187.615,348.173 187.864,349.78 					"/>
				</g>
				<g>
					<polygon fill="#FFFFFF" points="195.391,340.398 195.064,342.58 202.888,334.755 203.302,332.485 					"/>
				</g>
				<g>
					<polygon fill="#FFFFFF" points="178.792,348.32 184.747,342.369 185.085,340.176 179.145,346.115 					"/>
				</g>
				<g>
					<polygon fill="#FFFFFF" points="192.692,348.459 192.439,346.863 188.085,351.214 188.333,352.821 					"/>
				</g>
				<g>
					<polygon fill="#FFFFFF" points="172.565,326.472 170.712,326.472 167.627,329.557 167.912,331.125 					"/>
				</g>
				<g>
					<polygon fill="#FFFFFF" points="174.261,328.286 174.02,326.671 168.167,332.525 168.453,334.094 					"/>
				</g>
				<g>
					<polygon fill="#FFFFFF" points="169.059,326.472 167.202,326.472 167.088,326.587 167.371,328.155 					"/>
				</g>
				<g>
					<polygon fill="#FFFFFF" points="196.629,332.144 196.302,334.32 204.154,326.472 202.299,326.472 					"/>
				</g>
				<g>
					<polygon fill="#FFFFFF" points="183.161,352.627 173.574,362.216 173.588,362.299 175.348,362.299 182.823,354.824 					"/>
				</g>
				<g>
					<polygon fill="#FFFFFF" points="194.772,344.526 194.447,346.708 202.108,339.046 202.521,336.78 					"/>
				</g>
				<g>
					<polygon fill="#FFFFFF" points="201.328,343.336 201.74,341.071 194.155,348.654 193.831,350.836 					"/>
				</g>
				<g>
					<polygon fill="#FFFFFF" points="180.785,335.798 189.319,327.264 189.193,326.472 188.26,326.472 181.135,333.597 					"/>
				</g>
				<g>
					<polygon fill="#FFFFFF" points="175.174,334.393 174.932,332.776 169.25,338.46 169.536,340.032 					"/>
				</g>
				<g>
					<polygon fill="#FFFFFF" points="174.717,331.34 174.478,329.724 168.708,335.491 168.993,337.063 					"/>
				</g>
				<g>
					<polygon fill="#FFFFFF" points="181.8,329.421 181.451,331.626 186.606,326.472 184.751,326.472 					"/>
				</g>
				<g>
					<polygon fill="#FFFFFF" points="182.182,358.972 182.52,356.778 177.003,362.299 178.856,362.299 					"/>
				</g>
				<g>
					<polygon fill="#FFFFFF" points="181.881,360.93 180.512,362.299 181.668,362.299 					"/>
				</g>
				<g>
					<polygon fill="#FFFFFF" points="183.461,350.672 183.804,348.476 173.035,359.246 173.317,360.814 					"/>
				</g>
				<g>
					<polygon fill="#FFFFFF" points="192.921,349.888 188.555,354.255 188.801,355.862 193.174,351.488 					"/>
				</g>
				<g>
					<polygon fill="#FFFFFF" points="197.246,328.016 196.919,330.197 200.645,326.472 198.79,326.472 					"/>
				</g>
				<g>
					<polygon fill="#FFFFFF" points="198.983,356.209 199.393,353.944 191.042,362.299 192.895,362.299 					"/>
				</g>
				<g>
					<polygon fill="#FFFFFF" points="177.915,352.71 177.674,351.099 172.494,356.276 172.778,357.845 					"/>
				</g>
				<g>
					<polygon fill="#FFFFFF" points="199.763,351.922 200.175,349.649 189.492,360.333 189.741,361.94 					"/>
				</g>
				<g>
					<polygon fill="#FFFFFF" points="200.545,347.627 200.958,345.358 193.538,352.782 193.51,352.965 193.411,352.965 
						193.4,352.917 189.024,357.296 189.273,358.899 					"/>
				</g>
				<g>
					<polygon fill="#FFFFFF" points="198.201,360.5 198.613,358.235 194.551,362.299 196.404,362.299 					"/>
				</g>
				<g>
					<polygon fill="#FFFFFF" points="182.114,327.454 183.097,326.472 182.27,326.472 					"/>
				</g>
				<g>
					<polygon fill="#FFFFFF" points="180.472,337.768 180.12,339.973 189.8,330.293 189.547,328.692 					"/>
				</g>
				<g>
					<polygon fill="#FFFFFF" points="179.81,341.939 179.457,344.148 185.386,338.218 185.683,336.307 185.782,336.307 
						185.985,337.62 190.284,333.321 190.027,331.722 					"/>
				</g>
				<g>
					<polygon fill="#FFFFFF" points="175.632,337.445 175.389,335.829 169.789,341.43 170.075,343.002 					"/>
				</g>
				<g>
					<polygon fill="#FFFFFF" points="176.545,343.548 176.303,341.936 170.87,347.368 171.156,348.94 					"/>
				</g>
				<g>
					<polygon fill="#FFFFFF" points="177.003,346.604 176.76,344.988 171.411,350.338 171.697,351.906 					"/>
				</g>
				<g>
					<polygon fill="#FFFFFF" points="176.088,340.498 175.847,338.883 170.33,344.399 170.617,345.972 					"/>
				</g>
				<g>
					<polygon fill="#FFFFFF" points="177.459,349.657 177.218,348.041 171.952,353.308 172.239,354.876 					"/>
				</g>
			</g>
			<g>
				<g>
					<polygon fill="#FFFFFF" points="185.417,359.56 182.002,337.453 178.587,359.56 169.226,359.56 162.425,322.218 
						170.914,322.218 174.295,344.825 177.892,322.218 186.109,322.218 189.708,344.829 193.092,322.218 201.576,322.218 
						194.776,359.56 					"/>
				</g>
				<g>
					<path fill="#6ABD45" d="M200.667,322.977l-6.524,35.824h-8.076l-4.015-25.988h-0.101l-4.015,25.988h-8.078l-6.524-35.824h6.926
						l3.963,26.494h0.101l4.215-26.494h6.922l4.217,26.494h0.102l3.965-26.494H200.667 M202.485,321.46h-1.818h-6.922h-1.307
						l-0.193,1.292l-2.56,17.106l-2.725-17.12l-0.204-1.278h-1.294h-6.922h-1.294l-0.204,1.278l-2.723,17.115l-2.558-17.102
						l-0.193-1.292h-1.307h-6.926h-1.818l0.326,1.788l6.524,35.824l0.227,1.245h1.266h8.078h1.301l0.198-1.285l2.566-16.61
						l2.566,16.61l0.198,1.285h1.301h8.076h1.266l0.227-1.245l6.524-35.824L202.485,321.46L202.485,321.46z"/>
				</g>
			</g>
			<g>
				<g opacity="0.5">
					<g>
						<polygon fill="#FFFFFF" points="224.798,332.391 226.651,332.391 230.655,328.386 230.655,326.531 						"/>
					</g>
					<g>
						<polygon fill="#FFFFFF" points="228.307,332.391 230.16,332.391 230.655,331.896 230.655,330.042 						"/>
					</g>
					<g>
						<polygon fill="#FFFFFF" points="217.862,337.668 217.862,335.813 210.638,343.038 210.638,344.896 						"/>
					</g>
					<g>
						<polygon fill="#FFFFFF" points="221.287,332.391 223.142,332.391 229.063,326.472 227.206,326.472 						"/>
					</g>
					<g>
						<polygon fill="#FFFFFF" points="217.862,334.157 217.862,332.391 219.631,332.391 225.552,326.472 223.695,326.472 
							210.638,339.531 210.638,341.386 						"/>
					</g>
					<g>
						<polygon fill="#FFFFFF" points="217.862,353.363 210.638,360.588 210.638,362.299 210.783,362.299 217.862,355.218 						"/>
					</g>
					<g>
						<polygon fill="#FFFFFF" points="222.042,326.472 220.187,326.472 210.638,336.021 210.638,337.875 						"/>
					</g>
					<g>
						<polygon fill="#FFFFFF" points="218.218,340.825 217.862,340.825 217.862,339.324 210.638,346.549 210.638,348.403 						"/>
					</g>
					<g>
						<polygon fill="#FFFFFF" points="215.024,326.472 213.167,326.472 210.638,328.999 210.638,330.857 						"/>
					</g>
					<g>
						<polygon fill="#FFFFFF" points="210.638,327.347 211.514,326.472 210.638,326.472 						"/>
					</g>
					<g>
						<polygon fill="#FFFFFF" points="218.533,326.472 216.678,326.472 210.638,332.51 210.638,334.364 						"/>
					</g>
					<g>
						<polygon fill="#FFFFFF" points="217.862,348.196 217.862,346.744 219.317,346.744 225.236,340.825 223.383,340.825 
							210.638,353.57 210.638,355.425 						"/>
					</g>
					<g>
						<polygon fill="#FFFFFF" points="227.234,356.376 225.379,356.376 219.458,362.299 221.315,362.299 						"/>
					</g>
					<g>
						<polygon fill="#FFFFFF" points="230.743,356.376 228.89,356.376 222.969,362.299 224.822,362.299 						"/>
					</g>
					<g>
						<polygon fill="#FFFFFF" points="221.727,340.825 219.875,340.825 210.638,350.06 210.638,351.914 						"/>
					</g>
					<g>
						<polygon fill="#FFFFFF" points="231.159,361.125 229.986,362.299 231.159,362.299 						"/>
					</g>
					<g>
						<polygon fill="#FFFFFF" points="223.724,356.376 221.867,356.376 215.948,362.299 217.803,362.299 						"/>
					</g>
					<g>
						<polygon fill="#FFFFFF" points="231.159,359.469 231.159,357.618 226.478,362.299 228.331,362.299 						"/>
					</g>
					<g>
						<polygon fill="#FFFFFF" points="224.481,346.744 226.338,346.744 229.907,343.177 229.907,341.322 						"/>
					</g>
					<g>
						<polygon fill="#FFFFFF" points="227.992,346.744 229.847,346.744 229.907,346.684 229.907,344.829 						"/>
					</g>
					<g>
						<polygon fill="#FFFFFF" points="220.971,346.744 222.828,346.744 228.747,340.825 226.892,340.825 						"/>
					</g>
					<g>
						<polygon fill="#FFFFFF" points="220.213,356.376 218.36,356.376 212.439,362.299 214.292,362.299 						"/>
					</g>
					<g>
						<polygon fill="#FFFFFF" points="217.862,351.711 217.862,349.853 210.638,357.077 210.638,358.936 						"/>
					</g>
				</g>
				<g>
					<g>
						<polygon fill="#FFFFFF" points="206.15,359.56 206.15,322.218 227.684,322.218 227.684,329.654 214.891,329.654 
							214.891,336.567 226.934,336.567 226.934,344.008 214.891,344.008 214.891,352.123 228.188,352.123 228.188,359.56 						"/>
					</g>
					<g>
						<path fill="#6ABD45" d="M226.926,322.977v5.919h-12.793v8.431h12.042v5.923h-12.042v9.633h13.296v5.919h-20.521v-35.824
							H226.926 M228.443,321.46h-1.517h-20.018h-1.517v1.517v35.824v1.517h1.517h20.521h1.517v-1.517v-5.919v-1.517h-1.517H215.65
							v-6.6h10.525h1.517v-1.517v-5.923v-1.517h-1.517H215.65v-5.397h11.276h1.517v-1.517v-5.919V321.46L228.443,321.46z"/>
					</g>
				</g>
			</g>
			<g>
				<g opacity="0.5">
					<g>
						<path fill="#FFFFFF" d="M253.039,334.42l5.007-5.007c-0.3-0.318-0.625-0.613-0.973-0.88l-4.787,4.784
							C252.577,333.632,252.824,334.011,253.039,334.42z"/>
					</g>
					<g>
						<path fill="#FFFFFF" d="M254.313,345.326c-0.006,0.665-0.018,1.302-0.038,1.899l7.173-7.173
							c-0.038-0.589-0.08-1.162-0.137-1.72L254.313,345.326z"/>
					</g>
					<g>
						<path fill="#FFFFFF" d="M254.293,341.84c0.014,0.589,0.024,1.194,0.024,1.831l6.811-6.811
							c-0.082-0.541-0.173-1.066-0.283-1.572L254.293,341.84z"/>
					</g>
					<g>
						<path fill="#FFFFFF" d="M261.543,343.468c-0.004-0.621-0.014-1.234-0.032-1.827l-7.318,7.324
							c-0.054,0.748-0.124,1.429-0.211,2.062L261.543,343.468z"/>
					</g>
					<g>
						<path fill="#FFFFFF" d="M245.088,331.841v-0.052h0.052l5.288-5.286c-0.245-0.008-0.467-0.031-0.722-0.031h-1.099
							l-10.741,10.739v1.854L245.088,331.841z"/>
					</g>
					<g>
						<polygon fill="#FFFFFF" points="245.088,354.554 237.866,361.777 237.866,362.299 239.201,362.299 245.088,356.412 						"/>
					</g>
					<g>
						<path fill="#FFFFFF" d="M261.37,348.802l-13.496,13.497h1.379c0.171,0,0.326-0.016,0.495-0.02l11.404-11.404
							C261.239,350.215,261.312,349.526,261.37,348.802z"/>
					</g>
					<g>
						<path fill="#FFFFFF" d="M254.104,338.521c0.056,0.537,0.091,1.134,0.121,1.731l6.281-6.281
							c-0.139-0.478-0.298-0.939-0.472-1.377L254.104,338.521z"/>
					</g>
					<g>
						<polygon fill="#FFFFFF" points="239.93,326.472 238.075,326.472 237.866,326.683 237.866,328.533 						"/>
					</g>
					<g>
						<polygon fill="#FFFFFF" points="246.951,326.472 245.096,326.472 237.866,333.7 237.866,335.555 						"/>
					</g>
					<g>
						<polygon fill="#FFFFFF" points="243.44,326.472 241.583,326.472 237.866,330.189 237.866,332.044 						"/>
					</g>
					<g>
						<polygon fill="#FFFFFF" points="245.088,349.391 245.088,347.54 237.866,354.76 237.866,356.611 						"/>
					</g>
					<g>
						<polygon fill="#FFFFFF" points="245.088,352.901 245.088,351.043 237.866,358.267 237.866,360.122 						"/>
					</g>
					<g>
						<polygon fill="#FFFFFF" points="245.088,345.884 245.088,344.025 237.866,351.249 237.866,353.104 						"/>
					</g>
					<g>
						<polygon fill="#FFFFFF" points="248.028,356.981 246.171,356.981 240.855,362.299 242.712,362.299 						"/>
					</g>
					<g>
						<path fill="#FFFFFF" d="M253.519,335.599c0.144,0.454,0.277,0.939,0.373,1.48l5.616-5.616
							c-0.215-0.402-0.45-0.788-0.708-1.146L253.519,335.599z"/>
					</g>
					<g>
						<path fill="#FFFFFF" d="M260.144,355.394c0.271-0.769,0.49-1.624,0.675-2.528l-9.296,9.295
							c0.824-0.096,1.596-0.235,2.299-0.442L260.144,355.394z"/>
					</g>
					<g>
						<path fill="#FFFFFF" d="M261.476,347.042c0.026-0.617,0.046-1.254,0.054-1.906l-7.963,7.961
							c-0.645,2.272-1.793,3.411-3.755,3.757l-5.445,5.445h1.855L261.476,347.042z"/>
					</g>
					<g>
						<path fill="#FFFFFF" d="M246.796,331.789h1.355c0.167,0,0.291,0.04,0.45,0.048l4.934-4.932
							c-0.494-0.119-1.015-0.215-1.568-0.282L246.796,331.789z"/>
					</g>
					<g>
						<path fill="#FFFFFF" d="M250.078,332.017c0.494,0.123,0.934,0.302,1.322,0.533l4.669-4.669
							c-0.394-0.224-0.816-0.418-1.268-0.59L250.078,332.017z"/>
					</g>
					<g>
						<polygon fill="#FFFFFF" points="245.088,342.373 245.088,340.515 237.866,347.738 237.866,349.594 						"/>
					</g>
					<g>
						<polygon fill="#FFFFFF" points="245.088,338.862 245.088,337.004 237.866,344.229 237.866,346.083 						"/>
					</g>
					<g>
						<polygon fill="#FFFFFF" points="245.088,335.352 245.088,333.497 237.866,340.722 237.866,342.572 						"/>
					</g>
				</g>
				<g>
					<g>
						<path fill="#FFFFFF" d="M233.376,359.56v-37.342h12.6c11.626,0,12.6,9.379,12.6,18.169c0,11.837-2.184,19.173-13.054,19.173
							H233.376z M244.573,352.728c3.948,0,5.262-1.755,5.262-12.142c0-8.511-0.818-11.532-5.414-11.532h-2.305v23.674H244.573z"/>
					</g>
					<g>
						<path fill="#6ABD45" d="M245.976,322.977c10.037,0,11.841,6.874,11.841,17.41c0,12.697-2.708,18.414-12.295,18.414h-11.388
							v-35.824H245.976 M241.358,353.486h3.214c5.015,0,6.021-3.164,6.021-12.9c0-8.128-0.655-12.291-6.172-12.291h-3.063V353.486
							 M245.976,321.46h-11.842h-1.517v1.517v35.824v1.517h1.517h11.388c11.463,0,13.812-7.968,13.812-19.931
							C259.334,331.229,258.302,321.46,245.976,321.46L245.976,321.46z M242.875,329.812h1.546c3.493,0,4.655,1.558,4.655,10.774
							c0,10.877-1.544,11.384-4.503,11.384h-1.697V329.812L242.875,329.812z"/>
					</g>
				</g>
			</g>
			<g>
				<g opacity="0.5">
					<g>
						<polygon fill="#FFFFFF" points="281.698,340.59 281.21,339.221 277.192,343.241 277.674,344.61 						"/>
					</g>
					<g>
						<polygon fill="#FFFFFF" points="282.62,343.177 282.132,341.808 278.104,345.836 278.587,347.205 						"/>
					</g>
					<g>
						<polygon fill="#FFFFFF" points="275.363,338.047 275.847,339.416 279.853,335.411 279.37,334.042 						"/>
					</g>
					<g>
						<polygon fill="#FFFFFF" points="285.382,350.943 284.896,349.573 280.844,353.622 281.33,354.995 						"/>
					</g>
					<g>
						<polygon fill="#FFFFFF" points="292.131,342.342 285.505,348.965 285.505,350.819 292.131,344.196 						"/>
					</g>
					<g>
						<polygon fill="#FFFFFF" points="284.46,348.355 283.973,346.986 279.931,351.026 280.417,352.399 						"/>
					</g>
					<g>
						<polygon fill="#FFFFFF" points="280.776,337.999 280.287,336.63 276.279,340.642 276.76,342.015 						"/>
					</g>
					<g>
						<polygon fill="#FFFFFF" points="278.012,330.232 277.526,328.863 268.344,338.047 268.344,339.905 						"/>
					</g>
					<g>
						<polygon fill="#FFFFFF" points="271.246,326.472 269.391,326.472 268.344,327.519 268.344,329.369 						"/>
					</g>
					<g>
						<polygon fill="#FFFFFF" points="274.754,326.472 272.899,326.472 268.344,331.025 268.344,332.88 						"/>
					</g>
					<g>
						<polygon fill="#FFFFFF" points="292.131,352.869 283.589,361.411 283.899,362.299 284.554,362.299 292.131,354.725 						"/>
					</g>
					<g>
						<polygon fill="#FFFFFF" points="285.505,345.454 285.505,347.309 292.131,340.686 292.131,338.831 						"/>
					</g>
					<g>
						<polygon fill="#FFFFFF" points="278.934,332.82 278.448,331.455 268.344,341.558 268.344,343.408 						"/>
					</g>
					<g>
						<polygon fill="#FFFFFF" points="285.505,333.27 292.131,326.646 292.131,326.472 290.449,326.472 285.505,331.411 						"/>
					</g>
					<g>
						<polygon fill="#FFFFFF" points="277.093,327.646 276.673,326.472 276.408,326.472 268.344,334.536 268.344,336.391 						"/>
					</g>
					<g>
						<polygon fill="#FFFFFF" points="283.537,345.765 283.053,344.396 279.019,348.432 279.501,349.805 						"/>
					</g>
					<g>
						<polygon fill="#FFFFFF" points="274.969,361.355 274.969,359.501 272.171,362.299 274.026,362.299 						"/>
					</g>
					<g>
						<polygon fill="#FFFFFF" points="292.131,347.703 292.131,345.852 281.76,356.221 282.241,357.59 						"/>
					</g>
					<g>
						<polygon fill="#FFFFFF" points="274.969,354.334 274.969,352.479 268.344,359.103 268.344,360.958 						"/>
					</g>
					<g>
						<polygon fill="#FFFFFF" points="274.969,357.845 274.969,355.99 268.66,362.299 270.515,362.299 						"/>
					</g>
					<g>
						<polygon fill="#FFFFFF" points="292.131,361.742 292.131,359.891 289.721,362.299 291.575,362.299 						"/>
					</g>
					<g>
						<polygon fill="#FFFFFF" points="292.131,358.235 292.131,356.38 286.21,362.299 288.067,362.299 						"/>
					</g>
					<g>
						<polygon fill="#FFFFFF" points="292.131,351.214 292.131,349.358 282.673,358.816 283.157,360.186 						"/>
					</g>
					<g>
						<polygon fill="#FFFFFF" points="285.505,338.437 285.505,340.287 292.131,333.664 292.131,331.81 						"/>
					</g>
					<g>
						<polygon fill="#FFFFFF" points="285.505,327.904 285.505,329.759 288.793,326.472 286.938,326.472 						"/>
					</g>
					<g>
						<polygon fill="#FFFFFF" points="285.505,334.926 285.505,336.78 292.131,330.157 292.131,328.299 						"/>
					</g>
					<g>
						<polygon fill="#FFFFFF" points="274.969,350.823 274.969,348.973 268.344,355.596 268.344,357.447 						"/>
					</g>
					<g>
						<polygon fill="#FFFFFF" points="285.505,341.943 285.505,343.798 292.131,337.175 292.131,335.32 						"/>
					</g>
					<g>
						<polygon fill="#FFFFFF" points="274.969,340.295 274.969,338.44 268.344,345.063 268.344,346.919 						"/>
					</g>
					<g>
						<polygon fill="#FFFFFF" points="274.969,347.316 274.969,345.462 268.344,352.085 268.344,353.944 						"/>
					</g>
					<g>
						<polygon fill="#FFFFFF" points="274.969,343.806 274.969,341.951 268.344,348.574 268.344,350.434 						"/>
					</g>
				</g>
				<g>
					<g>
						<polygon fill="#FFFFFF" points="279.63,359.56 271.996,337.863 271.996,359.56 263.856,359.56 263.856,322.218 
							273.479,322.218 281.018,343.403 281.018,322.218 289.157,322.218 289.157,359.56 						"/>
					</g>
					<g>
						<path fill="#6ABD45" d="M288.399,322.977v35.824h-8.231l-8.829-25.089h-0.102v25.089h-6.623v-35.824h8.329l8.731,24.535h0.102
							v-24.535H288.399 M289.916,321.46h-1.517h-6.623h-1.517v1.517v16.033l-5.886-16.542l-0.359-1.008h-1.07h-8.329h-1.517v1.517
							v35.824v1.517h1.517h6.623h1.517v-1.517v-16.497l5.982,17.001l0.357,1.013h1.074h8.231h1.517v-1.517v-35.824V321.46
							L289.916,321.46z"/>
					</g>
				</g>
			</g>
			<g>
				<g opacity="0.5">
					<g>
						<polygon fill="#FFFFFF" points="316.457,332.391 318.313,332.391 320.113,330.591 320.113,328.736 						"/>
					</g>
					<g>
						<polygon fill="#FFFFFF" points="320.113,332.247 319.968,332.391 320.113,332.391 						"/>
					</g>
					<g>
						<polygon fill="#FFFFFF" points="309.879,340.825 308.022,340.825 300.089,348.758 300.089,350.612 						"/>
					</g>
					<g>
						<polygon fill="#FFFFFF" points="307.314,339.878 307.314,338.022 300.089,345.247 300.089,347.102 						"/>
					</g>
					<g>
						<polygon fill="#FFFFFF" points="307.314,336.367 307.314,334.516 300.089,341.74 300.089,343.591 						"/>
					</g>
					<g>
						<polygon fill="#FFFFFF" points="309.438,332.391 311.292,332.391 317.213,326.472 315.36,326.472 						"/>
					</g>
					<g>
						<polygon fill="#FFFFFF" points="303.172,326.472 301.319,326.472 300.089,327.701 300.089,329.553 						"/>
					</g>
					<g>
						<polygon fill="#FFFFFF" points="314.803,332.391 320.113,327.08 320.113,326.472 318.869,326.472 312.946,332.391 						"/>
					</g>
					<g>
						<polygon fill="#FFFFFF" points="306.681,326.472 304.828,326.472 300.089,331.208 300.089,333.062 						"/>
					</g>
					<g>
						<polygon fill="#FFFFFF" points="307.314,332.86 307.314,332.391 307.783,332.391 313.702,326.472 311.848,326.472 
							300.089,338.229 300.089,340.084 						"/>
					</g>
					<g>
						<polygon fill="#FFFFFF" points="310.191,326.472 308.337,326.472 300.089,334.719 300.089,336.573 						"/>
					</g>
					<g>
						<polygon fill="#FFFFFF" points="307.314,346.898 307.314,346.744 307.469,346.744 313.39,340.825 311.533,340.825 
							300.089,352.269 300.089,354.123 						"/>
					</g>
					<g>
						<polygon fill="#FFFFFF" points="315.385,356.376 313.529,356.376 307.608,362.299 309.464,362.299 						"/>
					</g>
					<g>
						<polygon fill="#FFFFFF" points="318.893,356.376 317.04,356.376 311.117,362.299 312.973,362.299 						"/>
					</g>
					<g>
						<polygon fill="#FFFFFF" points="314.486,346.744 319.36,341.876 319.36,340.825 318.553,340.825 312.632,346.744 						"/>
					</g>
					<g>
						<polygon fill="#FFFFFF" points="320.612,361.683 320.612,359.827 318.139,362.299 319.996,362.299 						"/>
					</g>
					<g>
						<polygon fill="#FFFFFF" points="320.612,358.172 320.612,356.376 320.549,356.376 314.628,362.299 316.484,362.299 						"/>
					</g>
					<g>
						<polygon fill="#FFFFFF" points="311.876,356.376 310.019,356.376 304.098,362.299 305.955,362.299 						"/>
					</g>
					<g>
						<polygon fill="#FFFFFF" points="316.145,346.744 317.999,346.744 319.36,345.387 319.36,343.527 						"/>
					</g>
					<g>
						<polygon fill="#FFFFFF" points="309.125,346.744 310.976,346.744 316.898,340.825 315.046,340.825 						"/>
					</g>
					<g>
						<polygon fill="#FFFFFF" points="307.314,350.405 307.314,348.555 300.089,355.779 300.089,357.63 						"/>
					</g>
					<g>
						<polygon fill="#FFFFFF" points="307.314,353.916 307.314,352.062 300.089,359.286 300.089,361.141 						"/>
					</g>
					<g>
						<polygon fill="#FFFFFF" points="308.363,356.376 307.314,356.376 307.314,355.572 300.587,362.299 302.444,362.299 						"/>
					</g>
				</g>
				<g>
					<g>
						<polygon fill="#FFFFFF" points="295.602,359.56 295.602,322.218 317.141,322.218 317.141,329.654 304.343,329.654 
							304.343,336.567 316.388,336.567 316.388,344.008 304.343,344.008 304.343,352.123 317.642,352.123 317.642,359.56 						"/>
					</g>
					<g>
						<path fill="#6ABD45" d="M316.382,322.977v5.919h-12.798v8.431h12.045v5.923h-12.045v9.633h13.299v5.919H296.36v-35.824
							H316.382 M317.898,321.46h-1.517H296.36h-1.517v1.517v35.824v1.517h1.517h20.523h1.517v-1.517v-5.919v-1.517h-1.517h-11.782
							v-6.6h10.528h1.517v-1.517v-5.923v-1.517h-1.517h-10.528v-5.397h11.281h1.517v-1.517v-5.919V321.46L317.898,321.46z"/>
					</g>
				</g>
			</g>
			<g>
				<g opacity="0.5">
					<g>
						<path fill="#FFFFFF" d="M342.61,353.268c0,0.311-0.036,0.593-0.075,0.868l6.715-6.716c-0.195-0.401-0.426-0.788-0.701-1.158
							l-6.006,6.011C342.586,352.583,342.61,352.909,342.61,353.268z"/>
					</g>
					<g>
						<path fill="#FFFFFF" d="M341.428,349.876c0.318,0.335,0.573,0.697,0.753,1.103l5.616-5.616
							c-0.295-0.294-0.633-0.577-0.995-0.855L341.428,349.876z"/>
					</g>
					<g>
						<path fill="#FFFFFF" d="M342.229,342.059l-5.344,5.342c0.479,0.175,0.932,0.351,1.339,0.518l5.29-5.29
							c-0.067-0.032-0.127-0.067-0.199-0.1L342.229,342.059z"/>
					</g>
					<g>
						<path fill="#FFFFFF" d="M339.366,348.432c0.444,0.219,0.828,0.449,1.17,0.685l5.271-5.271
							c-0.366-0.23-0.756-0.453-1.183-0.677L339.366,348.432z"/>
					</g>
					<g>
						<path fill="#FFFFFF" d="M339.778,341l-5.441,5.441c0.428,0.175,0.88,0.342,1.344,0.509l5.392-5.389L339.778,341z"/>
					</g>
					<g>
						<path fill="#FFFFFF" d="M333.69,354.107l-5.378,5.378c0.271,0.346,0.55,0.681,0.878,0.975l4.926-4.924
							C333.917,355.114,333.781,354.633,333.69,354.107z"/>
					</g>
					<g>
						<path fill="#FFFFFF" d="M335.648,325.922c-0.836,0.111-1.632,0.274-2.364,0.514l-5.859,5.859
							c-0.23,0.721-0.392,1.5-0.483,2.336L335.648,325.922z"/>
					</g>
					<g>
						<path fill="#FFFFFF" d="M326.305,351.11v1.453c0,0.083,0.016,0.154,0.016,0.238l1.691-1.691H326.305z"/>
					</g>
					<g>
						<path fill="#FFFFFF" d="M344.369,336.406h1.855l2.615-2.615c-0.068-0.549-0.171-1.062-0.307-1.548L344.369,336.406z"/>
					</g>
					<g>
						<path fill="#FFFFFF" d="M334.074,334.52c0.175-1.663,1.047-3.124,3.373-3.371l4.845-4.849
							c-0.494-0.135-1.023-0.219-1.557-0.298l-13.523,13.525c0.124,0.485,0.283,0.947,0.476,1.381L334.074,334.52z"/>
					</g>
					<g>
						<path fill="#FFFFFF" d="M339.237,325.847c-0.446-0.032-0.876-0.076-1.34-0.076c-0.167,0-0.309,0.028-0.474,0.032
							l-10.609,10.611c0.004,0.617,0.047,1.19,0.117,1.74L339.237,325.847z"/>
					</g>
					<g>
						<path fill="#FFFFFF" d="M341.742,333.867l4.979-4.979c-0.294-0.322-0.589-0.649-0.935-0.916l-4.602,4.602
							C341.424,332.939,341.607,333.377,341.742,333.867z"/>
					</g>
					<g>
						<path fill="#FFFFFF" d="M348.983,336.406v-1.003c0-0.031-0.009-0.06-0.009-0.092l-1.094,1.095H348.983z"/>
					</g>
					<g>
						<path fill="#FFFFFF" d="M350.021,350.159c-0.067-0.538-0.175-1.051-0.318-1.537l-14.239,14.242
							c0.555,0.056,1.132,0.096,1.745,0.107L350.021,350.159z"/>
					</g>
					<g>
						<path fill="#FFFFFF" d="M339.05,357.622c-0.249,0.036-0.502,0.06-0.754,0.06c-0.396,0-0.743-0.035-1.081-0.079l-4.709,4.709
							c0.462,0.146,1.001,0.23,1.522,0.334L339.05,357.622z"/>
					</g>
					<g>
						<path fill="#FFFFFF" d="M333.547,352.595c-0.002-0.147-0.016-0.282-0.016-0.434v-1.051h-0.354l-6.13,6.13
							c0.165,0.449,0.362,0.871,0.585,1.273L333.547,352.595z"/>
					</g>
					<g>
						<path fill="#FFFFFF" d="M335.894,357.268c-0.444-0.19-0.792-0.453-1.093-0.76l-4.667,4.665c0.37,0.242,0.782,0.445,1.21,0.641
							L335.894,357.268z"/>
					</g>
					<g>
						<path fill="#FFFFFF" d="M350.006,353.689c0.056-0.549,0.132-1.079,0.132-1.676c0-0.107-0.009-0.199-0.013-0.303
							l-11.221,11.221c0.705-0.035,1.396-0.087,2.04-0.183L350.006,353.689z"/>
					</g>
					<g>
						<path fill="#FFFFFF" d="M349.632,355.716l-6.6,6.6C346.455,361.308,348.708,359.127,349.632,355.716z"/>
					</g>
					<g>
						<path fill="#FFFFFF" d="M342.005,335.26c0.036,0.362,0.056,0.745,0.056,1.146h0.653l5.429-5.429
							c-0.19-0.426-0.441-0.792-0.688-1.162L342.005,335.26z"/>
					</g>
					<g>
						<path fill="#FFFFFF" d="M331.522,351.11h-1.856l-3.246,3.244c0.06,0.557,0.157,1.078,0.272,1.584L331.522,351.11z"/>
					</g>
					<g>
						<path fill="#FFFFFF" d="M334.502,337.601c-0.223-0.438-0.356-0.911-0.414-1.437l-5.841,5.835
							c0.236,0.374,0.491,0.732,0.79,1.066L334.502,337.601z"/>
					</g>
					<g>
						<path fill="#FFFFFF" d="M339.071,331.176c0.506,0.096,0.928,0.299,1.298,0.562l4.395-4.398
							c-0.395-0.227-0.816-0.426-1.254-0.601L339.071,331.176z"/>
					</g>
					<g>
						<path fill="#FFFFFF" d="M336.26,339.352c-0.416-0.254-0.778-0.517-1.059-0.792l-5.307,5.307
							c0.322,0.278,0.673,0.549,1.047,0.804L336.26,339.352z"/>
					</g>
					<g>
						<path fill="#FFFFFF" d="M338.622,340.498l-0.878-0.378c-0.149-0.063-0.267-0.127-0.404-0.191l-5.393,5.39
							c0.386,0.215,0.819,0.41,1.243,0.609L338.622,340.498z"/>
					</g>
				</g>
				<g>
					<g>
						<path fill="#FFFFFF" d="M333.967,360.264c-8.177,0-12.152-3.662-12.152-11.195v-2.216h8.746v1.813
							c0,3.517,1.048,4.763,4.006,4.763c1.642,0,3.558-0.957,3.558-3.656c0-2.696-1.16-3.758-5.912-5.405
							c-6.107-2.101-9.895-4.767-9.895-11.555c0-7.181,4.319-11.299,11.851-11.299c7.638,0,11.844,3.691,11.844,10.395v1.763h-8.441
							v-0.759c0-4.042-1.685-4.56-3.153-4.56c-2.289,0-3.355,1.082-3.355,3.405c0,1.886,0.486,2.99,3.25,4.165l5.575,2.414
							c5.307,2.309,7.279,5.066,7.279,10.178C347.166,356.201,342.602,360.264,333.967,360.264z"/>
					</g>
					<g>
						<path fill="#6ABD45" d="M334.168,322.272c6.42,0,11.085,2.758,11.085,9.636v1.004h-6.924c0-3.364-1.154-5.318-3.912-5.318
							c-3.263,0-4.114,2.054-4.114,4.164c0,2.205,0.651,3.562,3.712,4.863l5.57,2.412c5.418,2.356,6.822,5.115,6.822,9.481
							c0,7.579-4.617,10.99-12.44,10.99c-8.182,0-11.394-3.813-11.394-10.437v-1.457h7.229v1.055c0,3.363,0.951,5.521,4.765,5.521
							c2.207,0,4.316-1.405,4.316-4.415c0-3.264-1.658-4.47-6.423-6.122c-6.424-2.209-9.384-4.867-9.384-10.838
							C323.076,325.839,327.342,322.272,334.168,322.272 M334.168,320.756c-7.896,0-12.608,4.507-12.608,12.057
							c0,7.215,4.16,10.124,10.407,12.272c4.934,1.711,5.399,2.645,5.399,4.688c0,2.689-2.144,2.898-2.8,2.898
							c-2.2,0-3.248-0.6-3.248-4.005v-1.055v-1.517h-1.517h-7.229h-1.517v1.517v1.457c0,7.932,4.344,11.953,12.91,11.953
							c9.001,0,13.957-4.441,13.957-12.507c0-5.403-2.168-8.452-7.733-10.872l-5.573-2.413c-2.668-1.135-2.798-2.015-2.798-3.472
							c0-1.905,0.729-2.647,2.598-2.647c0.837,0,2.396,0,2.396,3.802v1.517h1.517h6.924h1.517v-1.517v-1.004
							C346.77,324.82,342.177,320.756,334.168,320.756L334.168,320.756z"/>
					</g>
				</g>
			</g>
			<g>
				<g opacity="0.5">
					<g>
						<path fill="#FFFFFF" d="M372.734,352.356l7.781-7.782c0.004-0.234,0.012-0.454,0.012-0.692c0-0.395-0.008-0.776-0.016-1.158
							l-7.443,7.443C372.984,350.979,372.877,351.703,372.734,352.356z"/>
					</g>
					<g>
						<path fill="#FFFFFF" d="M372.372,335.173l5.166-5.171c-0.271-0.347-0.573-0.665-0.892-0.963l-4.903,4.903
							C371.978,334.309,372.201,334.711,372.372,335.173z"/>
					</g>
					<g>
						<path fill="#FFFFFF" d="M372.754,336.446c0.107,0.485,0.188,1.031,0.259,1.592l5.831-5.831
							c-0.19-0.43-0.401-0.836-0.633-1.222L372.754,336.446z"/>
					</g>
					<g>
						<path fill="#FFFFFF" d="M373.283,342.931c0.004,0.386,0.016,0.744,0.016,1.154c0,0.238-0.004,0.458-0.004,0.688l6.931-6.93
							c-0.064-0.562-0.14-1.103-0.231-1.624L373.283,342.931z"/>
					</g>
					<g>
						<path fill="#FFFFFF" d="M373.16,339.543c0.04,0.565,0.083,1.127,0.104,1.756l6.452-6.452
							c-0.119-0.502-0.259-0.983-0.414-1.445L373.16,339.543z"/>
					</g>
					<g>
						<path fill="#FFFFFF" d="M373.271,346.453c-0.016,0.681-0.04,1.321-0.071,1.927l7.268-7.269
							c-0.023-0.601-0.056-1.187-0.096-1.76L373.271,346.453z"/>
					</g>
					<g>
						<path fill="#FFFFFF" d="M380.237,350.016l-12.279,12.283h0.274c0.573,0,1.118-0.023,1.644-0.063l10.066-10.07
							C380.062,351.488,380.157,350.764,380.237,350.016z"/>
					</g>
					<g>
						<polygon fill="#FFFFFF" points="360.009,326.472 358.154,326.472 356.844,327.781 356.844,329.636 						"/>
					</g>
					<g>
						<path fill="#FFFFFF" d="M364.068,332.943v-1.154h1.154l5.238-5.238c-0.561-0.052-1.15-0.079-1.775-0.079l-11.842,11.842v1.854
							L364.068,332.943z"/>
					</g>
					<g>
						<polygon fill="#FFFFFF" points="367.03,326.472 365.175,326.472 356.844,334.803 356.844,336.657 						"/>
					</g>
					<g>
						<polygon fill="#FFFFFF" points="363.52,326.472 361.664,326.472 356.844,331.292 356.844,333.146 						"/>
					</g>
					<g>
						<polygon fill="#FFFFFF" points="364.068,354 364.068,352.146 356.844,359.369 356.844,361.225 						"/>
					</g>
					<g>
						<polygon fill="#FFFFFF" points="364.598,356.981 364.068,356.981 364.068,355.656 357.426,362.299 359.28,362.299 						"/>
					</g>
					<g>
						<polygon fill="#FFFFFF" points="364.068,350.489 364.068,348.639 356.844,355.862 356.844,357.718 						"/>
					</g>
					<g>
						<path fill="#FFFFFF" d="M368.145,356.945c-0.274,0.024-0.562,0.036-0.863,0.036h-1.027l-5.317,5.317h1.854L368.145,356.945z"
							/>
					</g>
					<g>
						<path fill="#FFFFFF" d="M378.211,357.407c0.502-0.899,0.916-1.931,1.238-3.093l-7.643,7.643
							c1.074-0.223,2.026-0.562,2.87-1.016L378.211,357.407z"/>
					</g>
					<g>
						<path fill="#FFFFFF" d="M380.396,348.2c0.04-0.625,0.071-1.273,0.092-1.946l-8.809,8.812c-0.311,0.462-0.681,0.828-1.111,1.11
							l-6.121,6.122h1.854L380.396,348.2z"/>
					</g>
					<g>
						<polygon fill="#FFFFFF" points="364.068,343.472 364.068,341.617 356.844,348.842 356.844,350.696 						"/>
					</g>
					<g>
						<polygon fill="#FFFFFF" points="364.068,346.982 364.068,345.128 356.844,352.353 356.844,354.207 						"/>
					</g>
					<g>
						<path fill="#FFFFFF" d="M366.879,331.789h0.251c0.541,0,0.999,0.076,1.448,0.151l4.801-4.801
							c-0.462-0.15-0.955-0.278-1.477-0.378L366.879,331.789z"/>
					</g>
					<g>
						<polygon fill="#FFFFFF" points="364.068,336.45 364.068,334.6 356.844,341.824 356.844,343.679 						"/>
					</g>
					<g>
						<polygon fill="#FFFFFF" points="364.068,339.961 364.068,338.106 356.844,345.331 356.844,347.186 						"/>
					</g>
					<g>
						<path fill="#FFFFFF" d="M369.845,332.335c0.422,0.187,0.8,0.43,1.13,0.724l4.757-4.76c-0.366-0.251-0.757-0.479-1.175-0.681
							L369.845,332.335z"/>
					</g>
				</g>
				<g>
					<g>
						<path fill="#FFFFFF" d="M352.355,359.56v-37.342h12.601c11.623,0,12.597,9.379,12.597,18.169
							c0,11.837-2.184,19.173-13.05,19.173H352.355z M363.551,352.728c3.946,0,5.26-1.755,5.26-12.142
							c0-8.511-0.817-11.532-5.41-11.532h-2.303v23.674H363.551z"/>
					</g>
					<g>
						<path fill="#6ABD45" d="M364.956,322.977c10.035,0,11.838,6.874,11.838,17.41c0,12.697-2.706,18.414-12.291,18.414h-11.389
							v-35.824H364.956 M360.339,353.486h3.212c5.016,0,6.019-3.164,6.019-12.9c0-8.128-0.648-12.291-6.169-12.291h-3.062V353.486
							 M364.956,321.46h-11.842h-1.517v1.517v35.824v1.517h1.517h11.389c11.46,0,13.808-7.968,13.808-19.931
							C378.311,331.229,377.279,321.46,364.956,321.46L364.956,321.46z M361.855,329.812h1.545c3.782,0,4.652,2.015,4.652,10.774
							c0,10.877-1.544,11.384-4.502,11.384h-1.695V329.812L361.855,329.812z"/>
					</g>
				</g>
			</g>
			<g>
				<g opacity="0.5">
					<g>
						<polygon fill="#FFFFFF" points="397.628,338.329 398.137,335.969 389.667,344.435 388.998,346.959 						"/>
					</g>
					<g>
						<polygon fill="#FFFFFF" points="400.617,340.507 400.947,342.031 406.109,336.868 405.72,335.403 						"/>
					</g>
					<g>
						<polygon fill="#FFFFFF" points="400,337.616 400.326,339.141 405.373,334.094 404.987,332.629 						"/>
					</g>
					<g>
						<polygon fill="#FFFFFF" points="398.786,354.725 408.311,345.195 407.925,343.73 396.927,354.725 						"/>
					</g>
					<g>
						<polygon fill="#FFFFFF" points="399.375,334.727 399.705,336.251 404.637,331.319 404.251,329.851 						"/>
					</g>
					<g>
						<polygon fill="#FFFFFF" points="401.238,343.393 401.568,344.921 406.842,339.646 406.452,338.178 						"/>
					</g>
					<g>
						<polygon fill="#FFFFFF" points="394.057,327.864 395.446,326.472 394.424,326.472 						"/>
					</g>
					<g>
						<polygon fill="#FFFFFF" points="398.957,326.472 397.103,326.472 393.46,330.113 392.787,332.641 						"/>
					</g>
					<g>
						<polygon fill="#FFFFFF" points="398.587,333.859 398.838,332.692 398.941,332.692 399.084,333.365 403.904,328.541 
							403.515,327.076 390.933,339.662 390.264,342.187 						"/>
					</g>
					<g>
						<polygon fill="#FFFFFF" points="402.468,326.472 400.613,326.472 392.194,334.89 391.525,337.413 						"/>
					</g>
					<g>
						<polygon fill="#FFFFFF" points="401.858,346.282 402.189,347.811 407.578,342.421 407.188,340.952 						"/>
					</g>
					<g>
						<polygon fill="#FFFFFF" points="396.664,342.803 397.174,340.438 388.401,349.212 387.732,351.735 						"/>
					</g>
					<g>
						<polygon fill="#FFFFFF" points="410.516,353.522 410.126,352.054 404.339,357.845 404.669,359.365 						"/>
					</g>
					<g>
						<polygon fill="#FFFFFF" points="411.248,356.297 410.858,354.828 404.968,360.723 405.302,362.247 						"/>
					</g>
					<g>
						<polygon fill="#FFFFFF" points="411.985,359.071 411.595,357.606 406.902,362.299 408.757,362.299 						"/>
					</g>
					<g>
						<polygon fill="#FFFFFF" points="412.717,361.846 412.331,360.381 410.413,362.299 412.268,362.299 						"/>
					</g>
					<g>
						<polygon fill="#FFFFFF" points="409.779,350.744 409.394,349.279 403.71,354.963 404.04,356.483 						"/>
					</g>
					<g>
						<polygon fill="#FFFFFF" points="395.701,347.277 396.211,344.913 387.139,353.984 386.471,356.508 						"/>
					</g>
					<g>
						<polygon fill="#FFFFFF" points="409.043,347.97 408.657,346.505 400.438,354.725 402.293,354.725 						"/>
					</g>
					<g>
						<polygon fill="#FFFFFF" points="397.684,348.802 395.832,348.802 385.873,358.757 385.209,361.28 						"/>
					</g>
					<g>
						<polygon fill="#FFFFFF" points="392.819,360.691 393.337,358.314 389.353,362.299 391.211,362.299 						"/>
					</g>
					<g>
						<polygon fill="#FFFFFF" points="393.799,356.197 394.121,354.725 395.275,354.725 401.198,348.802 399.339,348.802 
							385.846,362.299 387.7,362.299 						"/>
					</g>
				</g>
				<g>
					<g>
						<path fill="#FFFFFF" d="M400.974,359.56l-1.66-7.575h-8.312l-1.656,7.575h-9.123l9.887-37.342h10.101l9.883,37.342H400.974z
							 M397.731,344.544l-2.572-11.975l-2.576,11.975H397.731z"/>
					</g>
					<g>
						<path fill="#6ABD45" d="M399.626,322.977l9.481,35.824h-7.523l-1.66-7.575h-9.532l-1.656,7.575h-7.527l9.485-35.824H399.626
							 M391.645,345.303h7.025l-3.459-16.104h-0.103L391.645,345.303 M400.794,321.46h-1.168h-8.933h-1.168l-0.299,1.128
							l-9.485,35.824l-0.504,1.905h1.971h7.527h1.221l0.261-1.192l1.396-6.383h7.091l1.399,6.384l0.261,1.191h1.221h7.523h1.971
							l-0.504-1.904l-9.481-35.824L400.794,321.46L400.794,321.46z M393.522,343.786l1.636-7.607l1.635,7.607H393.522
							L393.522,343.786z"/>
					</g>
				</g>
			</g>
			<g>
				<g opacity="0.5">
					<g>
						<polygon fill="#FFFFFF" points="423.166,333.783 422.696,332.398 417.358,337.736 417.916,339.033 						"/>
					</g>
					<g>
						<polygon fill="#FFFFFF" points="422.274,331.164 421.805,329.779 416.312,335.276 416.865,336.573 						"/>
					</g>
					<g>
						<polygon fill="#FFFFFF" points="421.383,328.545 420.913,327.164 415.261,332.816 415.814,334.118 						"/>
					</g>
					<g>
						<polygon fill="#FFFFFF" points="437.499,326.472 435.645,326.472 427.596,334.52 426.545,337.426 						"/>
					</g>
					<g>
						<polygon fill="#FFFFFF" points="429.59,329.015 428.535,331.925 433.988,326.472 432.134,326.472 						"/>
					</g>
					<g>
						<polygon fill="#FFFFFF" points="429.057,354.115 421.828,361.344 421.828,362.299 422.732,362.299 429.057,355.971 						"/>
					</g>
					<g>
						<polygon fill="#FFFFFF" points="419.949,326.472 418.095,326.472 414.206,330.356 414.764,331.658 						"/>
					</g>
					<g>
						<polygon fill="#FFFFFF" points="416.439,326.472 414.584,326.472 413.155,327.9 413.713,329.198 						"/>
					</g>
					<g>
						<polygon fill="#FFFFFF" points="412.546,326.472 412.661,326.738 412.929,326.472 						"/>
					</g>
					<g>
						<polygon fill="#FFFFFF" points="429.057,352.46 429.057,350.604 421.828,357.833 421.828,359.688 						"/>
					</g>
					<g>
						<polygon fill="#FFFFFF" points="429.057,359.481 429.057,357.626 424.384,362.299 426.238,362.299 						"/>
					</g>
					<g>
						<polygon fill="#FFFFFF" points="429.057,348.949 429.057,348.2 429.881,346.274 421.828,354.322 421.828,356.177 						"/>
					</g>
					<g>
						<polygon fill="#FFFFFF" points="424.058,336.402 423.588,335.018 418.409,340.196 418.967,341.493 						"/>
					</g>
					<g>
						<polygon fill="#FFFFFF" points="429.057,361.137 427.895,362.299 429.057,362.299 						"/>
					</g>
					<g>
						<polygon fill="#FFFFFF" points="424.949,339.018 424.479,337.637 419.46,342.656 420.018,343.953 						"/>
					</g>
					<g>
						<polygon fill="#FFFFFF" points="436.353,331.129 437.734,327.889 425.605,340.021 425.494,340.319 425.395,340.319 
							425.371,340.252 420.511,345.111 421.068,346.413 						"/>
					</g>
					<g>
						<polygon fill="#FFFFFF" points="421.828,349.16 433.734,337.259 435.119,334.019 421.562,347.571 421.828,348.2 						"/>
					</g>
					<g>
						<polygon fill="#FFFFFF" points="431.115,343.384 432.496,340.148 421.828,350.815 421.828,352.671 						"/>
					</g>
				</g>
				<g>
					<g>
						<polygon fill="#FFFFFF" points="417.34,359.56 417.34,344.857 407.668,322.218 417.491,322.218 421.735,334.678 
							426.248,322.218 435.758,322.218 426.086,344.857 426.086,359.56 						"/>
					</g>
					<g>
						<path fill="#6ABD45" d="M434.609,322.977l-9.282,21.726v14.099h-7.229v-14.099l-9.282-21.726h8.132l4.717,13.848h0.1
							l5.016-13.848H434.609 M436.907,321.46h-2.298h-7.829h-1.063l-0.362,1l-3.598,9.931l-3.373-9.903l-0.35-1.027h-1.086h-8.132
							h-2.298l0.903,2.112l9.16,21.44v13.788v1.517h1.517h7.229h1.517v-1.517v-13.788l9.16-21.44L436.907,321.46L436.907,321.46z"/>
					</g>
				</g>
			</g>
		</g>
	</g>
</g>
</svg>
