<?xml version="1.0" encoding="utf-8"?>
<!-- Generator: Adobe Illustrator 16.0.0, SVG Export Plug-In . SVG Version: 6.00 Build 0)  -->
<!DOCTYPE svg PUBLIC "-//W3C//DTD SVG 1.1//EN" "http://www.w3.org/Graphics/SVG/1.1/DTD/svg11.dtd">
<svg version="1.1" id="tuesday_expanded" xmlns="http://www.w3.org/2000/svg" xmlns:xlink="http://www.w3.org/1999/xlink" x="0px"
	 y="0px" width="600px" height="430px" viewBox="0 0 600 430" enable-background="new 0 0 600 430" xml:space="preserve">
<g>
	<g>
		<g>
			<path fill="#FFFFFF" d="M488.726,210.56c0,103.934-84.254,188.192-188.19,188.192c-103.933,0-188.193-84.258-188.193-188.192
				c0-103.933,84.26-188.188,188.193-188.188C404.472,22.372,488.726,106.627,488.726,210.56z"/>
			<path fill="#F3EA00" d="M300.535,401.273c-105.16,0-190.714-85.554-190.714-190.713c0-105.157,85.554-190.709,190.714-190.709
				c105.159,0,190.712,85.552,190.712,190.709C491.247,315.72,405.694,401.273,300.535,401.273z M300.535,24.893
				c-102.38,0-185.672,83.29-185.672,185.667c0,102.379,83.292,185.67,185.672,185.67c102.379,0,185.669-83.291,185.669-185.67
				C486.204,108.183,402.914,24.893,300.535,24.893z"/>
		</g>
		<g>
			<path fill="#C8BB2E" d="M300.535,388.13c-97.913,0-177.57-79.657-177.57-177.57c0-97.912,79.658-177.568,177.57-177.568
				c97.91,0,177.566,79.657,177.566,177.568C478.102,308.473,398.445,388.13,300.535,388.13z M300.535,34.333
				c-97.173,0-176.229,79.055-176.229,176.227c0,97.172,79.056,176.228,176.229,176.228c97.171,0,176.225-79.056,176.225-176.228
				C476.76,113.389,397.706,34.333,300.535,34.333z"/>
		</g>
		<g>
			<g>
				<g>
					
						<rect x="267.391" y="82.95" transform="matrix(0.7071 0.7071 -0.7071 0.7071 146.3748 -186.4255)" fill="#C8BB2E" width="61.674" height="1.062"/>
				</g>
				<g>
					<polygon fill="#F3EA00" points="260.059,106.086 282.32,83.828 271.491,72.997 249.231,95.259 260.619,94.638 					"/>
				</g>
				<g>
					
						<rect x="260.993" y="68.789" transform="matrix(-0.7071 0.7072 -0.7072 -0.7071 519.2089 -62.1985)" fill="#F3EA00" width="22.988" height="15.31"/>
				</g>
				<g>
					<polygon fill="#C8BB2E" points="269.773,89.985 282.32,83.828 279.122,80.631 					"/>
				</g>
			</g>
			<g>
				<g>
					
						<rect x="301.518" y="52.647" transform="matrix(0.7071 0.7071 -0.7071 0.7071 147.4983 -189.1295)" fill="#C8BB2E" width="1.062" height="61.67"/>
				</g>
				<g>
					<polygon fill="#F3EA00" points="340.218,106.086 317.958,83.828 328.784,72.997 351.045,95.259 339.659,94.638 					"/>
				</g>
				<g>
					
						<rect x="316.295" y="68.788" transform="matrix(0.7071 0.7072 -0.7072 0.7071 150.0826 -209.4053)" fill="#F3EA00" width="22.988" height="15.312"/>
				</g>
				<g>
					<polygon fill="#C8BB2E" points="330.502,89.985 317.958,83.828 321.154,80.631 					"/>
				</g>
			</g>
		</g>
		<g>
			<g>
				<path fill="#1A1A1A" d="M276.312,177.674v-26.222h-7.395v-4.93h0.682c4.93,0,7.972-1.888,8.706-5.979h5.559v37.131H276.312z"/>
				<path fill="#1A1A1A" d="M307.895,149.983c0-2.832-0.892-4.51-3.409-4.51c-3.986,0-4.615,3.985-4.615,9.44v1.835h0.105
					c1.258-1.94,3.723-3.199,6.975-3.199c6.608,0,9.073,4.93,9.073,11.59c0,8.496-3.724,13.269-12.01,13.269
					c-10.384,0-11.695-8.287-11.695-17.359c0-10.489,0.209-20.506,12.481-20.506c5.35,0,10.227,2.255,10.332,9.44H307.895z
					 M304.381,173.478c3.671,0,4.09-3.146,4.09-7.342c0-5.035-1.153-7.028-4.09-7.028c-2.99,0-4.144,1.993-4.144,7.028
					C300.29,170.384,300.867,173.478,304.381,173.478z"/>
			</g>
			<g>
				<rect x="260.356" y="124.043" fill="#F3EA00" width="1.312" height="68.412"/>
			</g>
			<g>
				<rect x="322.998" y="124.043" fill="#F3EA00" width="1.311" height="68.412"/>
			</g>
			<g>
				<path fill="#1A1A1A" d="M337.269,172.921v-17.425h-4.914v-3.276h0.453c3.276,0,5.298-1.254,5.785-3.973h3.694v24.674H337.269z"
					/>
				<path fill="#1A1A1A" d="M347.86,163.686l8.189-15.439h5.193v15.648h2.369v3.903h-2.369v5.123h-4.601v-5.123h-8.782V163.686z
					 M356.643,154.52h-0.07l-4.809,9.375h4.879V154.52z"/>
			</g>
			<g>
				<path fill="#1A1A1A" d="M240.356,167.17c0,1.847,0.593,2.962,2.266,2.962c2.648,0,3.067-2.649,3.067-6.273v-1.185h-0.07
					c-0.836,1.254-2.475,2.091-4.635,2.091c-4.391,0-6.029-3.276-6.029-7.702c0-5.646,2.475-8.817,7.981-8.817
					c6.9,0,7.772,5.506,7.772,11.536c0,7.005-0.14,13.626-8.295,13.626c-3.555,0-6.796-1.499-6.865-6.238H240.356z M242.691,161.072
					c1.986,0,2.753-1.325,2.753-4.67c-0.035-2.823-0.418-4.879-2.753-4.879c-2.44,0-2.719,2.091-2.719,4.879
					C239.973,159.747,240.739,161.072,242.691,161.072z"/>
			</g>
		</g>
		<g>
			<path fill="#F3EA00" d="M199.488,206.963h7.458l3.555,17.566h0.07l3.59-17.566h7.423v24.884h-4.601v-19.866h-0.07l-4.426,19.866
				h-3.903l-4.426-19.866h-0.07v19.866h-4.6V206.963z"/>
			<path fill="#F3EA00" d="M231.854,206.963h6.204l6.587,24.884h-5.228l-1.15-5.264h-6.622l-1.15,5.264h-5.228L231.854,206.963z
				 M232.516,222.473h4.879l-2.405-11.188h-0.07L232.516,222.473z"/>
			<path fill="#F3EA00" d="M253.277,206.963v9.968h0.07l6.343-9.968h5.437l-6.761,10.666l7.527,14.219h-5.646l-5.123-10.211
				l-1.847,2.822v7.389h-5.019v-24.884H253.277z"/>
			<path fill="#F3EA00" d="M283.095,206.963v4.112h-8.887v5.856h8.364v4.111h-8.364v6.691h9.235v4.113h-14.254v-24.884H283.095z"/>
			<path fill="#F3EA00" d="M287.427,206.963h9.271c4.112,0,6.621,2.161,6.621,6.413c0,3.312-1.324,5.542-4.147,6.134v0.07
				c3.416,0.453,3.938,2.334,4.008,7.598c0.034,2.613,0.174,3.973,1.115,4.461v0.209h-5.437c-0.488-0.697-0.593-1.639-0.627-2.615
				l-0.14-4.773c-0.069-1.951-0.941-3.137-2.962-3.137h-2.684v10.525h-5.019V206.963z M292.445,217.838h2.091
				c2.405,0,3.764-1.047,3.764-3.73c0-2.3-1.22-3.45-3.485-3.45h-2.37V217.838z"/>
			<path fill="#F3EA00" d="M312.248,224.076v0.73c0,2.336,0.662,3.834,3.311,3.834c1.534,0,2.998-0.975,2.998-3.066
				c0-2.266-1.15-3.102-4.461-4.252c-4.461-1.533-6.518-3.381-6.518-7.528c0-4.844,2.962-7.319,7.702-7.319
				c4.461,0,7.702,1.917,7.702,6.691v0.697h-4.81c0-2.335-0.802-3.694-2.719-3.694c-2.265,0-2.857,1.429-2.857,2.893
				c0,1.533,0.453,2.474,2.579,3.381l3.868,1.672c3.764,1.639,4.74,3.555,4.74,6.588c0,5.262-3.207,7.633-8.644,7.633
				c-5.681,0-7.911-2.65-7.911-7.25v-1.01H312.248z"/>
			<path fill="#F3EA00" d="M327.767,206.963h8.783c5.088,0,6.83,3.729,6.83,7.458c0,5.159-3.171,7.493-7.911,7.493h-2.684v9.934
				h-5.019V206.963z M332.785,218.221h2.23c1.987,0,3.346-1.186,3.346-3.729c0-2.439-0.976-3.833-3.484-3.833h-2.092V218.221z"/>
			<path fill="#F3EA00" d="M350.978,206.963h6.203l6.587,24.884h-5.228l-1.15-5.264h-6.621l-1.15,5.264h-5.228L350.978,206.963z
				 M351.64,222.473h4.879l-2.404-11.188h-0.07L351.64,222.473z"/>
			<path fill="#F3EA00" d="M377.343,215.363c0-3.625-0.731-5.193-2.997-5.193c-2.544,0-3.137,2.544-3.137,9.584
				c0,7.527,1.046,8.887,3.206,8.887c1.812,0,3.137-0.941,3.137-6.309h5.019c0,5.367-1.324,10.004-7.911,10.004
				c-7.527,0-8.469-5.367-8.469-12.93c0-7.563,0.941-12.931,8.469-12.931c7.18,0,7.702,5.263,7.702,8.887H377.343z"/>
			<path fill="#F3EA00" d="M400.687,206.963v4.112h-8.888v5.856h8.364v4.111h-8.364v6.691h9.236v4.113H386.78v-24.884H400.687z"/>
			<path fill="#F3EA00" d="M203.515,255.432v0.73c0,2.336,0.662,3.834,3.311,3.834c1.533,0,2.997-0.975,2.997-3.066
				c0-2.266-1.15-3.102-4.461-4.252c-4.461-1.533-6.517-3.381-6.517-7.527c0-4.846,2.962-7.318,7.702-7.318
				c4.461,0,7.702,1.916,7.702,6.691v0.695h-4.81c0-2.334-0.802-3.693-2.718-3.693c-2.266,0-2.858,1.43-2.858,2.893
				c0,1.533,0.453,2.475,2.579,3.381l3.868,1.672c3.764,1.639,4.74,3.555,4.74,6.588c0,5.262-3.206,7.633-8.643,7.633
				c-5.681,0-7.911-2.65-7.911-7.25v-1.01H203.515z"/>
			<path fill="#F3EA00" d="M222.645,238.318l3.276,9.619h0.07l3.485-9.619h5.437l-6.447,15.092v9.793h-5.019v-9.793l-6.448-15.092
				H222.645z"/>
			<path fill="#F3EA00" d="M238.627,238.318h7.458l3.555,17.566h0.07l3.59-17.566h7.423v24.885h-4.601v-19.865h-0.07l-4.426,19.865
				h-3.903l-4.426-19.865h-0.07v19.865h-4.6V238.318z"/>
			<path fill="#F3EA00" d="M265.766,238.318h8.782c5.088,0,6.831,3.73,6.831,7.459c0,5.158-3.171,7.492-7.911,7.492h-2.684v9.934
				h-5.019V238.318z M270.784,249.576h2.23c1.986,0,3.346-1.186,3.346-3.729c0-2.439-0.976-3.834-3.485-3.834h-2.091V249.576z"/>
			<path fill="#F3EA00" d="M293.507,237.832c7.528,0,8.469,5.365,8.469,12.93c0,7.562-0.94,12.93-8.469,12.93
				c-7.528,0-8.469-5.367-8.469-12.93C285.038,243.197,285.979,237.832,293.507,237.832z M293.507,259.996
				c2.962,0,3.45-2.543,3.45-9.234c0-6.658-0.488-9.236-3.45-9.236s-3.45,2.578-3.45,9.236
				C290.057,257.453,290.544,259.996,293.507,259.996z"/>
			<path fill="#F3EA00" d="M310.653,255.432v0.73c0,2.336,0.662,3.834,3.311,3.834c1.534,0,2.998-0.975,2.998-3.066
				c0-2.266-1.15-3.102-4.461-4.252c-4.461-1.533-6.518-3.381-6.518-7.527c0-4.846,2.962-7.318,7.702-7.318
				c4.461,0,7.702,1.916,7.702,6.691v0.695h-4.81c0-2.334-0.802-3.693-2.719-3.693c-2.265,0-2.857,1.43-2.857,2.893
				c0,1.533,0.453,2.475,2.579,3.381l3.868,1.672c3.764,1.639,4.74,3.555,4.74,6.588c0,5.262-3.207,7.633-8.644,7.633
				c-5.681,0-7.911-2.65-7.911-7.25v-1.01H310.653z"/>
			<path fill="#F3EA00" d="M326.288,263.203v-24.885h5.019v24.885H326.288z"/>
			<path fill="#F3EA00" d="M341.207,238.318v17.357c0,2.473,0.593,4.32,2.928,4.32s2.928-1.848,2.928-4.32v-17.357h5.019v17.357
				c0,6.342-3.869,8.016-7.946,8.016c-4.078,0-7.946-1.359-7.946-8.016v-17.357H341.207z"/>
			<path fill="#F3EA00" d="M356.929,238.318h7.459l3.555,17.566h0.069l3.59-17.566h7.423v24.885h-4.6v-19.865h-0.07l-4.426,19.865
				h-3.903l-4.426-19.865h-0.07v19.865h-4.601V238.318z"/>
			<path fill="#F3EA00" d="M394.707,263.203v-24.885h5.019v24.885H394.707z"/>
			<path fill="#1A1A1A" d="M195.355,279.312c0-2.039,0.444-2.797,1.516-3.398v0.889c-0.653,0.471-0.731,1.307-0.731,2.457h0.313
				v2.666h-1.098V279.312z M198.283,279.312c0-2.039,0.444-2.797,1.516-3.398v0.889c-0.653,0.471-0.732,1.307-0.732,2.457h0.313
				v2.666h-1.098V279.312z"/>
			<path fill="#1A1A1A" d="M216.819,277.326h-0.052l-5.358,17.25h-1.098l-5.358-17.25H204.9v17.25h-1.098v-18.662h1.777
				l5.306,16.781h0.052l5.175-16.781h1.804v18.662h-1.098V277.326z"/>
			<path fill="#1A1A1A" d="M230.703,288.773h-7.031l-1.777,5.803h-1.098l5.803-18.662h1.385l5.594,18.662h-1.098L230.703,288.773z
				 M227.279,277.012h-0.052l-3.293,10.873h6.561L227.279,277.012z"/>
			<path fill="#1A1A1A" d="M236.519,275.914h1.098v10.377h0.052l7.711-10.377h1.202l-5.855,7.867l6.43,10.795h-1.255l-5.881-9.879
				l-2.405,3.188v6.691h-1.098V275.914z"/>
			<path fill="#1A1A1A" d="M250.087,275.914h8.914v0.992h-7.815v7.451h7.292v0.992h-7.292v8.234h8.05v0.992h-9.148V275.914z"/>
			<path fill="#1A1A1A" d="M273.773,286.893l-5.097-10.979h1.203l4.443,9.828l4.548-9.828h1.098l-5.097,10.979v7.684h-1.098V286.893
				z"/>
			<path fill="#1A1A1A" d="M293.656,285.246c0,8.18-3.372,9.645-6.012,9.645c-3.581,0-6.038-2.404-6.038-9.645
				s2.614-9.646,6.038-9.646C291.356,275.6,293.656,278.006,293.656,285.246z M282.704,285.246c0,5.123,1.046,8.756,4.94,8.756
				c3.424,0,4.914-2.824,4.914-8.756c0-5.045-1.124-8.758-4.914-8.758C283.985,276.488,282.704,280.123,282.704,285.246z"/>
			<path fill="#1A1A1A" d="M298.352,289.637c0,2.613,1.176,4.365,4.077,4.365c2.692,0,4.078-1.752,4.078-4.365v-13.723h1.098v13.514
				c0,4.207-2.588,5.463-5.176,5.463c-2.587,0-5.175-0.994-5.175-5.463v-13.514h1.098V289.637z"/>
			<path fill="#1A1A1A" d="M311.774,275.914h5.463c2.588,0,4.626,1.49,4.626,4.889c0,2.455-1.307,4.363-3.737,4.625v0.053
				c3.058,0.184,3.606,2.064,3.606,4.627v1.961c0,1.07,0.157,1.75,0.628,2.508h-1.255c-0.287-0.549-0.471-1.438-0.471-2.535v-1.908
				c0-2.666-0.731-4.207-3.737-4.207h-4.025v8.65h-1.098V275.914z M316.374,285.037c2.065,0,4.392-0.68,4.392-4.234
				c0-2.51-1.411-4-3.686-4h-4.208v8.234H316.374z"/>
			<path fill="#1A1A1A" d="M333.735,275.914h4.835c4.365,0.078,5.071,3.162,5.071,5.176c0,3.162-1.961,5.176-5.307,5.176h-3.502
				v8.311h-1.098V275.914z M338.44,285.377c2.222,0,4.104-1.203,4.104-4.287c0-2.666-1.412-4.287-3.947-4.287h-3.764v8.574H338.44z"
				/>
			<path fill="#1A1A1A" d="M346.928,275.914h1.098v17.67h7.815v0.992h-8.913V275.914z"/>
			<path fill="#1A1A1A" d="M368.217,288.773h-7.031l-1.777,5.803h-1.098l5.803-18.662h1.385l5.594,18.662h-1.098L368.217,288.773z
				 M364.793,277.012h-0.053l-3.293,10.873h6.561L364.793,277.012z"/>
			<path fill="#1A1A1A" d="M382.998,281.271c0-2.508-1.333-4.783-4.077-4.783c-3.712,0-4.94,3.477-4.94,8.73
				c0,5.02,1.02,8.783,4.783,8.783c3.607,0,4.47-4.234,4.47-5.699h1.098c0,2.197-1.098,6.588-5.75,6.588
				c-4.052,0-5.698-3.582-5.698-9.619c0-5.855,1.646-9.672,5.985-9.672c4.365,0,5.229,3.844,5.229,5.672H382.998z"/>
			<path fill="#1A1A1A" d="M387.684,275.914h8.913v0.992h-7.815v7.451h7.292v0.992h-7.292v8.234h8.051v0.992h-9.148V275.914z"/>
			<path fill="#1A1A1A" d="M401.158,278.527c0,2.039-0.444,2.797-1.517,3.398v-0.889c0.653-0.471,0.732-1.307,0.732-2.457h-0.314
				v-2.666h1.099V278.527z M404.085,278.527c0,2.039-0.444,2.797-1.516,3.398v-0.889c0.653-0.471,0.731-1.307,0.731-2.457h-0.313
				v-2.666h1.098V278.527z"/>
		</g>
	</g>
	<g>
		<polygon fill="#F3EA00" points="592.576,407.628 438.453,407.628 438.453,342.011 592.576,342.011 561.917,374.687 		"/>
	</g>
	<g>
		<rect x="103.13" y="309.204" fill="#F3EA00" width="394.806" height="65.617"/>
	</g>
	<g>
		<polygon fill="#C8BB2E" points="497.936,374.821 438.453,407.628 438.453,374.821 		"/>
	</g>
	<g>
		<polygon fill="#F3EA00" points="7.424,407.628 161.547,407.628 161.547,342.011 7.424,342.011 38.083,374.687 		"/>
	</g>
	<g>
		<g>
			<g opacity="0.5">
				<g>
					<polygon fill="#FFFFFF" points="223.977,325.95 221.77,325.95 212.694,335.025 212.694,337.234 					"/>
				</g>
				<g>
					<polygon fill="#FFFFFF" points="212.694,333.055 219.8,325.95 217.591,325.95 211.671,331.871 212.694,331.871 					"/>
				</g>
				<g>
					<polygon fill="#FFFFFF" points="222.236,331.871 227.747,326.36 227.747,325.95 225.947,325.95 220.027,331.871 					"/>
				</g>
				<g>
					<polygon fill="#FFFFFF" points="215.62,325.95 213.41,325.95 207.49,331.871 209.7,331.871 					"/>
				</g>
				<g>
					<polygon fill="#FFFFFF" points="219.92,352.873 212.694,360.098 212.694,361.777 213.225,361.777 219.92,355.083 					"/>
				</g>
				<g>
					<polygon fill="#FFFFFF" points="207.261,325.95 205.054,325.95 204.866,326.137 204.866,328.347 					"/>
				</g>
				<g>
					<polygon fill="#FFFFFF" points="209.231,325.95 204.866,330.316 204.866,331.871 205.52,331.871 211.44,325.95 					"/>
				</g>
				<g>
					<polygon fill="#FFFFFF" points="219.92,361.232 219.374,361.777 219.92,361.777 					"/>
				</g>
				<g>
					<polygon fill="#FFFFFF" points="219.92,350.903 219.92,348.694 212.694,355.921 212.694,358.128 					"/>
				</g>
				<g>
					<polygon fill="#FFFFFF" points="219.92,346.724 219.92,344.517 212.694,351.743 212.694,353.95 					"/>
				</g>
				<g>
					<polygon fill="#FFFFFF" points="219.92,359.262 219.92,357.053 215.195,361.777 217.403,361.777 					"/>
				</g>
				<g>
					<polygon fill="#FFFFFF" points="224.206,331.871 226.416,331.871 227.747,330.539 227.747,328.33 					"/>
				</g>
				<g>
					<polygon fill="#FFFFFF" points="219.92,334.186 219.92,331.979 212.694,339.205 212.694,341.414 					"/>
				</g>
				<g>
					<polygon fill="#FFFFFF" points="219.92,342.546 219.92,340.337 212.694,347.563 212.694,349.772 					"/>
				</g>
				<g>
					<polygon fill="#FFFFFF" points="219.92,338.367 219.92,336.156 212.694,343.384 212.694,345.594 					"/>
				</g>
			</g>
			<g>
				<g>
					<polygon fill="#FFFFFF" points="207.912,359.057 207.912,329.147 200.085,329.147 200.085,321.728 224.467,321.728 
						224.467,329.147 216.639,329.147 216.639,359.057 					"/>
				</g>
				<g>
					<path fill="#F3EA00" d="M223.716,322.478v5.92h-7.828v29.909h-7.226v-29.909h-7.827v-5.92H223.716 M225.217,320.977h-1.501
						h-22.88h-1.501v1.501v5.92v1.501h1.501h6.326v28.408v1.501h1.501h7.226h1.501v-1.501v-28.408h6.327h1.501v-1.501v-5.92V320.977
						L225.217,320.977z"/>
				</g>
			</g>
		</g>
		<g>
			<g opacity="0.5">
				<g>
					<polygon fill="#FFFFFF" points="241.07,336.277 241.07,334.07 233.845,341.295 233.845,343.504 					"/>
				</g>
				<g>
					<path fill="#FFFFFF" d="M256.726,345.697v-2.21l-7.227,7.227v0.226c0,0.76-0.05,1.467-0.143,2.129L256.726,345.697z"/>
				</g>
				<g>
					<polygon fill="#FFFFFF" points="249.5,346.535 249.5,348.744 256.726,341.518 256.726,339.309 					"/>
				</g>
				<g>
					<polygon fill="#FFFFFF" points="241.07,332.1 241.07,329.893 233.845,337.119 233.845,339.324 					"/>
				</g>
				<g>
					<polygon fill="#FFFFFF" points="238.863,325.95 236.653,325.95 233.845,328.758 233.845,330.97 					"/>
				</g>
				<g>
					<path fill="#FFFFFF" d="M241.53,354.506l-5.012,5.011c0.367,0.391,0.765,0.725,1.186,1.023l4.615-4.615
						C241.984,355.528,241.718,355.059,241.53,354.506z"/>
				</g>
				<g>
					<path fill="#FFFFFF" d="M241.07,342.429l-7.225,7.225v1.286c0,0.31,0.021,0.595,0.032,0.89l7.193-7.191V342.429z"/>
				</g>
				<g>
					<polygon fill="#FFFFFF" points="241.07,327.92 241.07,325.95 240.833,325.95 233.845,332.939 233.845,335.148 					"/>
				</g>
				<g>
					<polygon fill="#FFFFFF" points="233.845,326.788 234.683,325.95 233.845,325.95 					"/>
				</g>
				<g>
					<polygon fill="#FFFFFF" points="249.5,338.178 249.5,340.385 256.726,333.158 256.726,330.951 					"/>
				</g>
				<g>
					<polygon fill="#FFFFFF" points="249.5,342.355 249.5,344.562 256.726,337.338 256.726,335.129 					"/>
				</g>
				<g>
					<path fill="#FFFFFF" d="M245.264,357.16c-0.726-0.004-1.318-0.151-1.826-0.382l-4.501,4.498
						c0.511,0.246,1.047,0.445,1.602,0.608L245.264,357.16z"/>
				</g>
				<g>
					<path fill="#FFFFFF" d="M241.191,352.873c-0.077-0.608-0.122-1.245-0.122-1.934v-0.155l-6.179,6.182
						c0.225,0.527,0.484,0.999,0.77,1.437L241.191,352.873z"/>
				</g>
				<g>
					<path fill="#FFFFFF" d="M256.726,349.874v-2.207l-14.581,14.582c0.653,0.105,1.322,0.172,2.002,0.205L256.726,349.874z"/>
				</g>
				<g>
					<path fill="#FFFFFF" d="M255.28,357.471l-3.714,3.714C253.101,360.41,254.368,359.183,255.28,357.471z"/>
				</g>
				<g>
					<polygon fill="#FFFFFF" points="249.5,333.998 249.5,336.207 256.726,328.981 256.726,326.771 					"/>
				</g>
				<g>
					<path fill="#FFFFFF" d="M256.379,354.402c0.151-0.749,0.223-1.597,0.269-2.477l-10.509,10.507
						c0.857-0.038,1.694-0.138,2.509-0.301L256.379,354.402z"/>
				</g>
				<g>
					<polygon fill="#FFFFFF" points="249.5,329.819 249.5,332.028 255.579,325.95 253.37,325.95 					"/>
				</g>
				<g>
					<path fill="#FFFFFF" d="M241.07,348.813v-2.205l-7.04,7.039c0.089,0.659,0.201,1.284,0.353,1.854L241.07,348.813z"/>
				</g>
				<g>
					<polygon fill="#FFFFFF" points="249.5,327.849 251.398,325.95 249.5,325.95 					"/>
				</g>
				<g>
					<polygon fill="#FFFFFF" points="241.07,340.459 241.07,338.249 233.845,345.474 233.845,347.683 					"/>
				</g>
			</g>
			<g>
				<g>
					<path fill="#FFFFFF" d="M241.254,359.757c-8.203,0-12.191-4.021-12.191-12.291v-25.738h8.727v25.738
						c0,3.888,1.003,5.474,3.464,5.474c2.462,0,3.466-1.586,3.466-5.474v-25.738h8.727v25.738
						C253.446,355.507,249.23,359.757,241.254,359.757z"/>
				</g>
				<g>
					<path fill="#F3EA00" d="M252.696,322.478v24.988c0,9.134-5.57,11.541-11.442,11.541c-5.871,0-11.44-1.958-11.44-11.541v-24.988
						h7.226v24.988c0,3.562,0.854,6.224,4.215,6.224c3.363,0,4.216-2.661,4.216-6.224v-24.988H252.696 M254.196,320.977h-1.5h-7.226
						h-1.5v1.501v24.988c0,4.358-1.342,4.723-2.716,4.723c-1.374,0-2.714-0.364-2.714-4.723v-24.988v-1.501h-1.501h-7.226h-1.501
						v1.501v24.988c0,8.654,4.354,13.042,12.941,13.042c8.346,0,12.942-4.632,12.942-13.042v-24.988V320.977L254.196,320.977z"/>
				</g>
			</g>
		</g>
		<g>
			<g opacity="0.5">
				<g>
					<polygon fill="#FFFFFF" points="274.871,331.871 277.08,331.871 283,325.95 280.792,325.95 					"/>
				</g>
				<g>
					<polygon fill="#FFFFFF" points="284.479,330.619 283.228,331.871 284.479,331.871 					"/>
				</g>
				<g>
					<polygon fill="#FFFFFF" points="277.004,340.302 274.796,340.302 264.458,350.641 264.458,352.85 					"/>
				</g>
				<g>
					<polygon fill="#FFFFFF" points="279.05,331.871 281.257,331.871 284.479,328.648 284.479,326.439 					"/>
				</g>
				<g>
					<polygon fill="#FFFFFF" points="271.685,337.267 271.685,335.058 264.458,342.283 264.458,344.491 					"/>
				</g>
				<g>
					<polygon fill="#FFFFFF" points="272.826,340.302 271.685,340.302 271.685,339.236 264.458,346.461 264.458,348.67 					"/>
				</g>
				<g>
					<polygon fill="#FFFFFF" points="264.458,327.777 266.284,325.95 264.458,325.95 					"/>
				</g>
				<g>
					<polygon fill="#FFFFFF" points="271.685,333.087 271.685,331.871 272.9,331.871 278.821,325.95 276.611,325.95 
						264.458,338.103 264.458,340.313 					"/>
				</g>
				<g>
					<polygon fill="#FFFFFF" points="270.461,325.95 268.254,325.95 264.458,329.747 264.458,331.952 					"/>
				</g>
				<g>
					<polygon fill="#FFFFFF" points="274.641,325.95 272.433,325.95 264.458,333.925 264.458,336.132 					"/>
				</g>
				<g>
					<polygon fill="#FFFFFF" points="284.982,357.399 284.982,355.858 284.316,355.858 278.396,361.777 280.604,361.777 					"/>
				</g>
				<g>
					<polygon fill="#FFFFFF" points="282.346,355.858 280.136,355.858 274.215,361.777 276.425,361.777 					"/>
				</g>
				<g>
					<polygon fill="#FFFFFF" points="278.166,355.858 275.956,355.858 270.037,361.777 272.245,361.777 					"/>
				</g>
				<g>
					<polygon fill="#FFFFFF" points="284.982,361.579 284.982,359.369 282.575,361.777 284.782,361.777 					"/>
				</g>
				<g>
					<polygon fill="#FFFFFF" points="273.986,355.858 271.779,355.858 265.858,361.777 268.066,361.777 					"/>
				</g>
				<g>
					<polygon fill="#FFFFFF" points="273.055,346.223 275.264,346.223 281.185,340.302 278.975,340.302 					"/>
				</g>
				<g>
					<polygon fill="#FFFFFF" points="281.414,346.223 283.621,346.223 283.727,346.117 283.727,343.909 					"/>
				</g>
				<g>
					<polygon fill="#FFFFFF" points="279.443,346.223 283.727,341.939 283.727,340.302 283.155,340.302 277.234,346.223 					"/>
				</g>
				<g>
					<polygon fill="#FFFFFF" points="271.685,349.805 271.685,347.594 264.458,354.82 264.458,357.029 					"/>
				</g>
				<g>
					<polygon fill="#FFFFFF" points="271.685,353.982 271.685,351.774 264.458,358.999 264.458,361.208 					"/>
				</g>
			</g>
			<g>
				<g>
					<polygon fill="#FFFFFF" points="259.676,359.057 259.676,321.728 281.2,321.728 281.2,329.147 268.404,329.147 
						268.404,336.078 280.446,336.078 280.446,343.499 268.404,343.499 268.404,351.634 281.701,351.634 281.701,359.057 					"/>
				</g>
				<g>
					<path fill="#F3EA00" d="M280.449,322.478v5.92h-12.796v8.431h12.042v5.921h-12.042v9.635h13.297v5.923h-20.524v-35.829H280.449
						 M281.95,320.977h-1.501h-20.022h-1.501v1.501v35.829v1.501h1.501h20.524h1.5v-1.501v-5.923v-1.501h-1.5h-11.796v-6.633h10.542
						h1.5v-1.501v-5.921v-1.501h-1.5h-10.542v-5.429h11.295h1.501v-1.501v-5.92V320.977L281.95,320.977z"/>
				</g>
			</g>
		</g>
		<g>
			<g opacity="0.5">
				<g>
					<path fill="#FFFFFF" d="M306.542,354.901l7.378-7.378c-0.193-0.513-0.424-1.013-0.73-1.477l-6.21,6.208
						c0.01,0.165,0.034,0.312,0.034,0.491C307.014,353.596,306.834,354.303,306.542,354.901z"/>
				</g>
				<g>
					<path fill="#FFFFFF" d="M291.74,332.094l6.249-6.251C294.831,326.784,292.66,328.888,291.74,332.094z"/>
				</g>
				<g>
					<path fill="#FFFFFF" d="M306.659,350.604l5.648-5.648c-0.343-0.357-0.732-0.7-1.177-1.034l-5.361,5.361
						C306.158,349.682,306.462,350.107,306.659,350.604z"/>
				</g>
				<g>
					<path fill="#FFFFFF" d="M313.021,335.885l0.364-0.366v-0.637c0-0.518-0.075-0.969-0.127-1.44l-2.444,2.443H313.021z"/>
				</g>
				<g>
					<path fill="#FFFFFF" d="M302.297,325.247c-0.655,0-1.264,0.062-1.869,0.13l-9.116,9.115c-0.037,0.43-0.104,0.834-0.104,1.293
						c0,0.343,0.046,0.636,0.064,0.956l11.468-11.468C302.587,325.27,302.452,325.247,302.297,325.247z"/>
				</g>
				<g>
					<path fill="#FFFFFF" d="M298.53,333.66c0.243-1.449,1.055-2.695,3.01-3.01l4.918-4.919c-0.593-0.147-1.206-0.275-1.854-0.353
						l-13.111,13.113c0.122,0.605,0.291,1.174,0.508,1.7L298.53,333.66z"/>
				</g>
				<g>
					<path fill="#FFFFFF" d="M297.987,352.89l-5.626,5.628c0.292,0.438,0.599,0.864,0.978,1.23l5.046-5.048
						C298.181,354.167,298.051,353.566,297.987,352.89z"/>
				</g>
				<g>
					<path fill="#FFFFFF" d="M314.331,349.084l-13.328,13.326c0.372,0.021,0.698,0.07,1.093,0.07c0.392,0,0.736-0.048,1.112-0.063
						l11.314-11.318C314.509,350.384,314.443,349.715,314.331,349.084z"/>
				</g>
				<g>
					<path fill="#FFFFFF" d="M291.931,350.589l-1.224,1.224v0.229c0,0.656,0.057,1.262,0.121,1.858l3.313-3.312H291.931z"/>
				</g>
				<g>
					<path fill="#FFFFFF" d="M298.492,335.67l-5.829,5.827c0.282,0.44,0.599,0.856,0.965,1.242l5.415-5.413
						C298.736,336.828,298.566,336.283,298.492,335.67z"/>
				</g>
				<g>
					<path fill="#FFFFFF" d="M297.931,350.975v-0.386h-1.82l-4.982,4.981c0.143,0.587,0.328,1.139,0.553,1.653L297.931,350.975z"/>
				</g>
				<g>
					<path fill="#FFFFFF" d="M303.223,347.655c0.543,0.247,1.042,0.493,1.456,0.752l5.259-5.258
						c-0.44-0.259-0.928-0.516-1.447-0.765L303.223,347.655z"/>
				</g>
				<g>
					<path fill="#FFFFFF" d="M300.46,356.806c-0.547-0.211-0.976-0.513-1.323-0.887l-4.677,4.677
						c0.436,0.29,0.923,0.541,1.443,0.766L300.46,356.806z"/>
				</g>
				<g>
					<path fill="#FFFFFF" d="M301.333,339.213c-0.543-0.274-0.987-0.562-1.352-0.856l-5.316,5.318
						c0.399,0.314,0.85,0.604,1.322,0.888L301.333,339.213z"/>
				</g>
				<g>
					<path fill="#FFFFFF" d="M304.759,356.687c-0.633,0.307-1.336,0.476-2.06,0.476c-0.216,0-0.387-0.031-0.582-0.046l-4.767,4.771
						c0.571,0.157,1.157,0.303,1.812,0.396L304.759,356.687z"/>
				</g>
				<g>
					<path fill="#FFFFFF" d="M313.814,355.986c0.298-0.84,0.481-1.783,0.589-2.799l-9.03,9.032c1.093-0.167,2.084-0.438,2.998-0.788
						L313.814,355.986z"/>
				</g>
				<g>
					<path fill="#FFFFFF" d="M303.503,330.655c0.597,0.123,1.093,0.361,1.498,0.712l4.404-4.404
						c-0.459-0.28-0.947-0.527-1.471-0.734L303.503,330.655z"/>
				</g>
				<g>
					<path fill="#FFFFFF" d="M305.604,341.094l-5.388,5.387c0.131,0.048,0.241,0.098,0.374,0.144
						c0.448,0.155,0.842,0.305,1.238,0.454l5.317-5.318L305.604,341.094z"/>
				</g>
				<g>
					<path fill="#FFFFFF" d="M305.833,332.506c0.237,0.485,0.398,1.059,0.5,1.712l5.3-5.303c-0.316-0.422-0.688-0.784-1.081-1.126
						L305.833,332.506z"/>
				</g>
				<g>
					<path fill="#FFFFFF" d="M298.791,345.939l5.438-5.441l-1.543-0.668l-5.417,5.421
						C297.75,345.486,298.248,345.719,298.791,345.939z"/>
				</g>
				<g>
					<path fill="#FFFFFF" d="M306.634,335.885h2.211l4.109-4.111c-0.157-0.577-0.342-1.127-0.587-1.62L306.634,335.885z"/>
				</g>
			</g>
			<g>
				<g>
					<path fill="#FFFFFF" d="M298.066,359.757c-8.169,0-12.141-3.659-12.141-11.187v-2.204h8.727v1.803
						c0,3.521,1.051,4.771,4.016,4.771c1.645,0,3.565-0.961,3.565-3.668c0-2.696-1.162-3.758-5.918-5.409
						c-6.103-2.1-9.887-4.764-9.887-11.55c0-7.174,4.315-11.288,11.839-11.288c7.635,0,11.839,3.688,11.839,10.385v1.751h-8.424
						v-0.75c0-4.046-1.69-4.565-3.162-4.565c-2.296,0-3.366,1.085-3.366,3.413c0,1.929,0.47,2.989,3.257,4.178l5.573,2.412
						c5.305,2.307,7.276,5.062,7.276,10.17C311.26,355.697,306.698,359.757,298.066,359.757z"/>
				</g>
				<g>
					<path fill="#F3EA00" d="M298.267,321.774c6.422,0,11.089,2.759,11.089,9.635v1.001h-6.924c0-3.359-1.154-5.315-3.912-5.315
						c-3.263,0-4.116,2.056-4.116,4.163c0,2.207,0.652,3.562,3.713,4.868l5.569,2.41c5.42,2.356,6.824,5.117,6.824,9.481
						c0,7.578-4.617,10.989-12.443,10.989c-8.18,0-11.391-3.812-11.391-10.437v-1.454h7.226v1.053c0,3.363,0.953,5.521,4.767,5.521
						c2.207,0,4.315-1.405,4.315-4.418c0-3.26-1.656-4.464-6.422-6.118c-6.422-2.209-9.383-4.87-9.383-10.841
						C287.178,325.337,291.442,321.774,298.267,321.774 M298.267,320.273c-7.883,0-12.589,4.501-12.589,12.039
						c0,7.208,4.155,10.114,10.395,12.26c4.943,1.716,5.41,2.651,5.41,4.699c0,2.707-2.154,2.917-2.814,2.917
						c-2.503,0-3.266-0.938-3.266-4.02v-1.053v-1.501h-1.5h-7.226h-1.501v1.501v1.454c0,7.921,4.337,11.938,12.892,11.938
						c8.992,0,13.944-4.436,13.944-12.49c0-5.396-2.167-8.44-7.727-10.857l-5.572-2.411c-2.673-1.141-2.808-2.069-2.808-3.491
						c0-1.916,0.733-2.662,2.615-2.662c0.843,0,2.411,0,2.411,3.814v1.501h1.501h6.924h1.501v-1.501v-1.001
						C310.856,324.332,306.268,320.273,298.267,320.273L298.267,320.273z"/>
				</g>
			</g>
		</g>
		<g>
			<g opacity="0.5">
				<g>
					<path fill="#FFFFFF" d="M337.201,351.663l7.76-7.762c0.002-0.183,0.008-0.354,0.008-0.539c0-0.563-0.008-1.112-0.018-1.656
						l-7.404,7.406C337.466,350.06,337.354,350.921,337.201,351.663z"/>
				</g>
				<g>
					<path fill="#FFFFFF" d="M336.97,335.177l5.305-5.302c-0.305-0.431-0.632-0.84-1.004-1.206l-4.965,4.967
						C336.57,334.084,336.795,334.6,336.97,335.177z"/>
				</g>
				<g>
					<path fill="#FFFFFF" d="M337.725,344.754c-0.008,0.771-0.014,1.563-0.038,2.248l7.194-7.196
						c-0.037-0.706-0.087-1.393-0.155-2.054L337.725,344.754z"/>
				</g>
				<g>
					<path fill="#FFFFFF" d="M337.344,336.774c0.102,0.607,0.188,1.256,0.243,1.965l6.08-6.08c-0.193-0.546-0.41-1.065-0.658-1.549
						L337.344,336.774z"/>
				</g>
				<g>
					<path fill="#FFFFFF" d="M337.7,340.598c0.022,0.679,0.028,1.425,0.032,2.174l6.765-6.761c-0.105-0.639-0.23-1.248-0.378-1.833
						L337.7,340.598z"/>
				</g>
				<g>
					<polygon fill="#FFFFFF" points="328.512,353.966 321.285,361.192 321.285,361.777 322.909,361.777 328.512,356.177 					"/>
				</g>
				<g>
					<path fill="#FFFFFF" d="M334.047,331.716c0.529,0.201,0.986,0.479,1.377,0.83l4.763-4.761
						c-0.433-0.303-0.914-0.558-1.423-0.786L334.047,331.716z"/>
				</g>
				<g>
					<polygon fill="#FFFFFF" points="325.306,325.95 323.095,325.95 321.285,327.761 321.285,329.97 					"/>
				</g>
				<g>
					<path fill="#FFFFFF" d="M333.639,325.972c-0.176-0.004-0.333-0.021-0.512-0.021h-1.672l-10.17,10.17v2.205L333.639,325.972z"/>
				</g>
				<g>
					<polygon fill="#FFFFFF" points="329.485,325.95 327.275,325.95 321.285,331.94 321.285,334.149 					"/>
				</g>
				<g>
					<path fill="#FFFFFF" d="M332.477,356.393c-0.255,0.016-0.477,0.067-0.755,0.067h-1.522l-5.319,5.317h2.209L332.477,356.393z"/>
				</g>
				<g>
					<path fill="#FFFFFF" d="M344.794,348.248c0.06-0.748,0.104-1.524,0.131-2.336l-15.866,15.865h2.205L344.794,348.248z"/>
				</g>
				<g>
					<path fill="#FFFFFF" d="M344.073,353.15c0.201-0.83,0.356-1.737,0.487-2.697l-11.303,11.301
						c0.862-0.02,1.672-0.088,2.421-0.211L344.073,353.15z"/>
				</g>
				<g>
					<path fill="#FFFFFF" d="M343.062,356.13l-4.638,4.637C340.534,359.859,342.039,358.335,343.062,356.13z"/>
				</g>
				<g>
					<polygon fill="#FFFFFF" points="328.512,351.996 328.512,349.787 321.285,357.013 321.285,359.223 					"/>
				</g>
				<g>
					<polygon fill="#FFFFFF" points="328.512,339.46 328.512,337.25 321.285,344.475 321.285,346.686 					"/>
				</g>
				<g>
					<polygon fill="#FFFFFF" points="328.512,347.816 328.512,345.609 321.285,352.834 321.285,355.043 					"/>
				</g>
				<g>
					<polygon fill="#FFFFFF" points="328.512,335.28 328.512,333.071 321.285,340.298 321.285,342.505 					"/>
				</g>
				<g>
					<path fill="#FFFFFF" d="M330.312,331.268h1.258c0.32,0,0.571,0.063,0.86,0.092l4.88-4.88c-0.571-0.159-1.185-0.283-1.841-0.366
						L330.312,331.268z"/>
				</g>
				<g>
					<polygon fill="#FFFFFF" points="328.512,343.639 328.512,341.43 321.285,348.656 321.285,350.863 					"/>
				</g>
			</g>
			<g>
				<g>
					<path fill="#FFFFFF" d="M316.505,359.057v-37.329h12.592c11.621,0,12.594,9.375,12.594,18.162
						c0,11.833-2.182,19.167-13.046,19.167H316.505z M327.691,352.235c3.956,0,5.272-1.756,5.272-12.146
						c0-8.518-0.819-11.542-5.424-11.542h-2.311v23.688H327.691z"/>
				</g>
				<g>
					<path fill="#F3EA00" d="M329.097,322.478c10.035,0,11.844,6.876,11.844,17.412c0,12.693-2.711,18.417-12.296,18.417h-11.39
						v-35.829H329.097 M324.479,352.985h3.212c5.018,0,6.022-3.161,6.022-12.896c0-8.129-0.652-12.292-6.174-12.292h-3.061V352.985
						 M329.097,320.977h-11.842h-1.501v1.501v35.829v1.501h1.501h11.39c11.45,0,13.797-7.963,13.797-19.918
						C342.441,330.739,341.41,320.977,329.097,320.977L329.097,320.977z M325.98,329.298h1.56c3.249,0,4.673,1.021,4.673,10.791
						c0,10.889-1.55,11.396-4.521,11.396h-1.711V329.298L325.98,329.298z"/>
				</g>
			</g>
		</g>
		<g>
			<g opacity="0.5">
				<g>
					<polygon fill="#FFFFFF" points="363.458,337.063 363.848,338.883 368.905,333.823 368.443,332.078 					"/>
				</g>
				<g>
					<polygon fill="#FFFFFF" points="364.935,343.945 365.324,345.761 370.654,340.431 370.192,338.688 					"/>
				</g>
				<g>
					<polygon fill="#FFFFFF" points="364.196,340.502 364.586,342.321 369.78,337.129 369.318,335.382 					"/>
				</g>
				<g>
					<polygon fill="#FFFFFF" points="367.155,327.216 366.821,325.95 366.214,325.95 354.892,337.271 354.098,340.275 					"/>
				</g>
				<g>
					<polygon fill="#FFFFFF" points="358.856,354.201 361.063,354.201 371.53,343.738 371.066,341.991 365.673,347.383 
						365.866,348.28 364.779,348.28 					"/>
				</g>
				<g>
					<polygon fill="#FFFFFF" points="360.6,348.28 348.873,360.005 348.406,361.777 349.31,361.777 362.809,348.28 					"/>
				</g>
				<g>
					<polygon fill="#FFFFFF" points="374.565,355.21 368.637,361.137 368.777,361.777 370.204,361.777 375.026,356.953 					"/>
				</g>
				<g>
					<polygon fill="#FFFFFF" points="357.107,328.907 360.062,325.95 357.887,325.95 					"/>
				</g>
				<g>
					<polygon fill="#FFFFFF" points="364.244,325.95 362.033,325.95 356.396,331.586 355.601,334.592 					"/>
				</g>
				<g>
					<polygon fill="#FFFFFF" points="356.615,358.649 357.232,355.827 351.279,361.777 353.488,361.777 					"/>
				</g>
				<g>
					<polygon fill="#FFFFFF" points="362.718,333.624 363.107,335.441 368.029,330.52 367.567,328.772 					"/>
				</g>
				<g>
					<polygon fill="#FFFFFF" points="374.153,353.651 373.691,351.904 367.888,357.708 368.284,359.519 					"/>
				</g>
				<g>
					<polygon fill="#FFFFFF" points="373.279,350.346 372.815,348.599 367.138,354.276 367.533,356.09 					"/>
				</g>
				<g>
					<polygon fill="#FFFFFF" points="375.902,360.261 375.44,358.512 372.175,361.777 374.384,361.777 					"/>
				</g>
				<g>
					<polygon fill="#FFFFFF" points="371.942,345.295 363.034,354.201 365.243,354.201 372.401,347.04 					"/>
				</g>
				<g>
					<polygon fill="#FFFFFF" points="361.188,337.359 361.794,334.548 353.385,342.954 352.591,345.955 					"/>
				</g>
				<g>
					<polygon fill="#FFFFFF" points="356.064,361.171 355.459,361.777 355.931,361.777 					"/>
				</g>
				<g>
					<polygon fill="#FFFFFF" points="360.045,342.684 360.649,339.869 351.883,348.635 351.089,351.64 					"/>
				</g>
				<g>
					<polygon fill="#FFFFFF" points="358.9,348.01 359.505,345.193 350.38,354.318 349.584,357.325 					"/>
				</g>
			</g>
			<g>
				<g>
					<path fill="#FFFFFF" d="M364.143,359.057l-1.657-7.578h-8.324l-1.656,7.578h-9.104l9.879-37.329h10.086l9.883,37.329H364.143z
						 M360.907,344.058l-2.584-12.019l-2.582,12.019H360.907z"/>
				</g>
				<g>
					<path fill="#F3EA00" d="M362.789,322.478l9.485,35.829h-7.527l-1.657-7.578h-9.533l-1.656,7.578h-7.524l9.481-35.829H362.789
						 M354.812,344.808h7.023l-3.463-16.107h-0.1L354.812,344.808 M363.944,320.977h-1.155h-8.932h-1.155l-0.296,1.117
						l-9.481,35.829l-0.498,1.885h1.949h7.524h1.208l0.258-1.181l1.398-6.397h7.117l1.399,6.397l0.258,1.181h1.208h7.527h1.95
						l-0.499-1.885l-9.485-35.829L363.944,320.977L363.944,320.977z M356.67,343.307l1.653-7.696l1.655,7.696H356.67L356.67,343.307
						z"/>
				</g>
			</g>
		</g>
		<g>
			<g opacity="0.5">
				<g>
					<polygon fill="#FFFFFF" points="384.358,331.216 383.798,329.568 378.322,335.043 378.983,336.59 					"/>
				</g>
				<g>
					<polygon fill="#FFFFFF" points="391.604,328.147 393.805,325.95 392.401,325.95 					"/>
				</g>
				<g>
					<polygon fill="#FFFFFF" points="385.42,334.333 384.86,332.685 379.574,337.973 380.235,339.518 					"/>
				</g>
				<g>
					<polygon fill="#FFFFFF" points="381.268,325.95 379.059,325.95 375.821,329.187 376.481,330.734 					"/>
				</g>
				<g>
					<polygon fill="#FFFFFF" points="377.089,325.95 374.882,325.95 374.569,326.261 375.231,327.807 					"/>
				</g>
				<g>
					<polygon fill="#FFFFFF" points="397.983,325.95 395.774,325.95 390.484,331.24 389.229,334.703 					"/>
				</g>
				<g>
					<polygon fill="#FFFFFF" points="383.298,328.1 382.736,326.451 377.072,332.115 377.733,333.664 					"/>
				</g>
				<g>
					<polygon fill="#FFFFFF" points="390.946,349.701 390.946,347.679 391.084,347.356 383.72,354.721 383.72,356.93 					"/>
				</g>
				<g>
					<polygon fill="#FFFFFF" points="390.946,358.062 390.946,355.853 385.021,361.777 387.23,361.777 					"/>
				</g>
				<g>
					<polygon fill="#FFFFFF" points="390.946,353.883 390.946,351.674 383.72,358.899 383.72,361.109 					"/>
				</g>
				<g>
					<polygon fill="#FFFFFF" points="390.946,360.032 389.201,361.777 390.946,361.777 					"/>
				</g>
				<g>
					<polygon fill="#FFFFFF" points="398.786,329.327 400.229,325.95 399.954,325.95 388.108,337.794 387.384,339.8 387.284,339.8 
						386.984,338.918 382.076,343.826 382.736,345.376 					"/>
				</g>
				<g>
					<polygon fill="#FFFFFF" points="392.553,343.916 394.2,340.061 383.72,350.541 383.72,352.75 					"/>
				</g>
				<g>
					<polygon fill="#FFFFFF" points="386.482,337.449 385.921,335.802 380.826,340.9 381.485,342.447 					"/>
				</g>
				<g>
					<polygon fill="#FFFFFF" points="383.72,348.57 395.669,336.621 397.317,332.767 383.328,346.756 383.72,347.679 					"/>
				</g>
			</g>
			<g>
				<g>
					<polygon fill="#FFFFFF" points="378.939,359.057 378.939,344.357 369.271,321.728 379.072,321.728 383.322,334.206 
						387.845,321.728 397.335,321.728 387.666,344.357 387.666,359.057 					"/>
				</g>
				<g>
					<path fill="#F3EA00" d="M396.198,322.478l-9.282,21.727v14.103h-7.227v-14.103l-9.282-21.727h8.128l4.717,13.85h0.1l5.02-13.85
						H396.198 M398.472,320.977h-2.273h-7.827h-1.053l-0.358,0.989l-3.616,9.978l-3.388-9.949l-0.347-1.018h-1.074h-8.128h-2.273
						l0.894,2.091l9.161,21.444v13.795v1.501h1.501h7.227h1.501v-1.501v-13.795l9.161-21.444L398.472,320.977L398.472,320.977z"/>
				</g>
			</g>
		</g>
	</g>
	<g>
		<polygon fill="#C8BB2E" points="102.063,374.821 161.547,407.628 161.547,374.821 		"/>
	</g>
</g>
</svg>
