<?xml version="1.0" encoding="utf-8"?>
<!-- Generator: Adobe Illustrator 16.0.0, SVG Export Plug-In . SVG Version: 6.00 Build 0)  -->
<!DOCTYPE svg PUBLIC "-//W3C//DTD SVG 1.1//EN" "http://www.w3.org/Graphics/SVG/1.1/DTD/svg11.dtd">
<svg version="1.1" id="friday_expanded" xmlns="http://www.w3.org/2000/svg" xmlns:xlink="http://www.w3.org/1999/xlink" x="0px"
	 y="0px" width="600px" height="430px" viewBox="0 0 600 430" enable-background="new 0 0 600 430" xml:space="preserve">
<g>
	<g>
		<g>
			<path fill="#FFFFFF" d="M488.196,211.681c0,103.936-84.26,188.193-188.198,188.193c-103.935,0-188.192-84.257-188.192-188.193
				c0-103.93,84.257-188.188,188.192-188.188C403.937,23.494,488.196,107.751,488.196,211.681z"/>
			<path fill="#EE2A7B" d="M299.998,402.396c-105.16,0-190.713-85.555-190.713-190.714c0-105.157,85.553-190.708,190.713-190.708
				c105.163,0,190.72,85.551,190.72,190.708C490.718,316.841,405.161,402.396,299.998,402.396z M299.998,26.015
				c-102.379,0-185.671,83.29-185.671,185.667c0,102.379,83.292,185.671,185.671,185.671c102.383,0,185.677-83.292,185.677-185.671
				C485.675,109.304,402.381,26.015,299.998,26.015z"/>
		</g>
		<g>
			<path fill="#C11D65" d="M299.998,389.253c-97.914,0-177.572-79.658-177.572-177.572c0-97.911,79.659-177.566,177.572-177.566
				c97.914,0,177.572,79.656,177.572,177.566C477.57,309.595,397.912,389.253,299.998,389.253z M299.998,35.457
				c-97.174,0-176.23,79.054-176.23,176.225c0,97.173,79.057,176.23,176.23,176.23s176.23-79.057,176.23-176.23
				C476.229,114.511,397.172,35.457,299.998,35.457z"/>
		</g>
		<g>
			<g>
				<path fill="#1A1A1A" d="M275.893,192.278v-26.222h-7.395v-4.93h0.682c4.93,0,7.972-1.888,8.706-5.979h5.559v37.131H275.893z"/>
				<path fill="#1A1A1A" d="M299.802,183.625c0,2.779,0.892,4.458,3.409,4.458c3.985,0,4.615-3.986,4.615-9.44v-1.783h-0.104
					c-1.259,1.888-3.724,3.146-6.976,3.146c-6.608,0-9.073-4.93-9.073-11.59c0-8.496,3.724-13.269,12.009-13.269
					c10.385,0,11.695,8.287,11.695,17.359c0,10.541-0.21,20.506-12.481,20.506c-5.35,0-10.227-2.255-10.332-9.388H299.802z
					 M303.315,174.447c2.99,0,4.144-1.993,4.144-7.028c-0.053-4.248-0.629-7.342-4.144-7.342c-3.671,0-4.09,3.146-4.09,7.342
					C299.225,172.454,300.379,174.447,303.315,174.447z"/>
			</g>
			<g>
				<rect x="259.821" y="138.651" fill="#EE2A7B" width="1.312" height="68.405"/>
			</g>
			<g>
				<rect x="322.465" y="138.651" fill="#EE2A7B" width="1.311" height="68.405"/>
			</g>
			<g>
				<path fill="#1A1A1A" d="M336.736,187.525v-17.426h-4.914v-3.276h0.453c3.276,0,5.298-1.254,5.785-3.973h3.694v24.675H336.736z"
					/>
				<path fill="#1A1A1A" d="M347.328,178.29l8.189-15.439h5.193v15.648h2.369v3.903h-2.369v5.123h-4.601v-5.123h-8.782V178.29z
					 M356.11,169.124h-0.07l-4.809,9.375h4.879V169.124z"/>
			</g>
			<g>
				<path fill="#1A1A1A" d="M239.817,181.774c0,1.847,0.593,2.962,2.266,2.962c2.648,0,3.067-2.648,3.067-6.273v-1.185h-0.07
					c-0.836,1.254-2.475,2.091-4.635,2.091c-4.391,0-6.029-3.276-6.029-7.702c0-5.646,2.475-8.817,7.981-8.817
					c6.9,0,7.772,5.507,7.772,11.536c0,7.005-0.14,13.626-8.295,13.626c-3.555,0-6.796-1.499-6.865-6.238H239.817z M242.152,175.675
					c1.986,0,2.753-1.324,2.753-4.67c-0.035-2.823-0.418-4.879-2.753-4.879c-2.44,0-2.719,2.091-2.719,4.879
					C239.434,174.351,240.2,175.675,242.152,175.675z"/>
			</g>
		</g>
		<g>
			<g>
				<g>
					
						<rect x="266.859" y="92.891" transform="matrix(0.7071 0.7071 -0.7071 0.7071 153.2508 -183.1383)" fill="#C11D65" width="61.671" height="1.062"/>
				</g>
				<g>
					<polygon fill="#EE2A7B" points="259.523,116.026 281.782,93.77 270.955,82.939 248.694,105.201 260.084,104.579 					"/>
				</g>
				<g>
					
						<rect x="260.456" y="78.728" transform="matrix(-0.7071 0.7071 -0.7071 -0.7071 525.3383 -44.8156)" fill="#EE2A7B" width="22.988" height="15.313"/>
				</g>
				<g>
					<polygon fill="#C11D65" points="269.235,99.925 281.782,93.77 278.587,90.575 					"/>
				</g>
			</g>
			<g>
				<g>
					
						<rect x="300.981" y="62.587" transform="matrix(0.7071 0.7071 -0.7071 0.7071 154.3704 -185.8384)" fill="#C11D65" width="1.062" height="61.671"/>
				</g>
				<g>
					<polygon fill="#EE2A7B" points="339.683,116.026 317.422,93.77 328.253,82.939 350.512,105.201 339.121,104.579 					"/>
				</g>
				<g>
					
						<rect x="315.761" y="78.729" transform="matrix(0.7071 0.7071 -0.7071 0.7071 156.9332 -206.1022)" fill="#EE2A7B" width="22.986" height="15.311"/>
				</g>
				<g>
					<polygon fill="#C11D65" points="329.969,99.925 317.422,93.77 320.614,90.575 					"/>
				</g>
			</g>
		</g>
		<g>
			<path fill="#EE2A7B" d="M222.884,229.709v4.111h-5.437v20.771h-5.019V233.82h-5.437v-4.111H222.884z"/>
			<path fill="#EE2A7B" d="M226.7,229.709h5.019v9.514h5.855v-9.514h5.019v24.883h-5.019v-11.047h-5.855v11.047H226.7V229.709z"/>
			<path fill="#EE2A7B" d="M261.471,229.709v4.111h-8.887v5.855h8.364v4.113h-8.364v6.691h9.235v4.111h-14.254v-24.883H261.471z"/>
			<path fill="#EE2A7B" d="M281.021,229.709h6.204l6.586,24.883h-5.228l-1.15-5.262h-6.622l-1.15,5.262h-5.228L281.021,229.709z
				 M281.684,245.217h4.879l-2.404-11.188h-0.07L281.684,245.217z"/>
			<path fill="#EE2A7B" d="M297.426,229.709h9.27c4.112,0,6.622,2.16,6.622,6.412c0,3.311-1.324,5.541-4.147,6.135v0.068
				c3.415,0.453,3.938,2.336,4.008,7.598c0.035,2.613,0.175,3.973,1.115,4.461v0.209h-5.437c-0.488-0.697-0.593-1.637-0.628-2.613
				l-0.139-4.775c-0.07-1.951-0.941-3.137-2.963-3.137h-2.684v10.525h-5.018V229.709z M302.444,240.582h2.092
				c2.404,0,3.764-1.045,3.764-3.729c0-2.301-1.22-3.451-3.485-3.451h-2.37V240.582z"/>
			<path fill="#EE2A7B" d="M332.919,229.709v4.111h-5.438v20.771h-5.018V233.82h-5.438v-4.111H332.919z"/>
			<path fill="#EE2A7B" d="M350.641,229.709v4.111h-8.888v5.855h8.364v4.113h-8.364v6.691h9.236v4.111h-14.255v-24.883H350.641z"/>
			<path fill="#EE2A7B" d="M354.972,229.709h9.271c4.112,0,6.622,2.16,6.622,6.412c0,3.311-1.324,5.541-4.147,6.135v0.068
				c3.415,0.453,3.938,2.336,4.008,7.598c0.035,2.613,0.175,3.973,1.115,4.461v0.209h-5.437c-0.488-0.697-0.593-1.637-0.627-2.613
				l-0.14-4.775c-0.07-1.951-0.941-3.137-2.963-3.137h-2.684v10.525h-5.019V229.709z M359.99,240.582h2.092
				c2.404,0,3.764-1.045,3.764-3.729c0-2.301-1.22-3.451-3.485-3.451h-2.37V240.582z"/>
			<path fill="#EE2A7B" d="M379.309,229.709l3.276,9.619h0.069l3.485-9.619h5.437l-6.447,15.09v9.793h-5.019v-9.793l-6.447-15.09
				H379.309z"/>
			<path fill="#1A1A1A" d="M157.036,270.701c0-2.039,0.444-2.797,1.516-3.398v0.889c-0.653,0.471-0.731,1.307-0.731,2.457h0.313
				v2.666h-1.098V270.701z M159.963,270.701c0-2.039,0.444-2.797,1.516-3.398v0.889c-0.653,0.471-0.732,1.307-0.732,2.457h0.313
				v2.666h-1.098V270.701z"/>
			<path fill="#1A1A1A" d="M172.231,280.162H165.2l-1.777,5.803h-1.098l5.803-18.662h1.385l5.594,18.662h-1.098L172.231,280.162z
				 M168.808,268.4h-0.052l-3.293,10.873h6.561L168.808,268.4z"/>
			<path fill="#1A1A1A" d="M179.422,267.303l8.129,16.938h0.052v-16.938h1.098v18.662h-1.438l-8.155-16.938h-0.052v16.938h-1.098
				v-18.662H179.422z"/>
			<path fill="#1A1A1A" d="M200.599,267.303h8.914v0.992h-7.815v7.451h7.292v0.992h-7.292v8.234h8.05v0.992h-9.148V267.303z"/>
			<path fill="#1A1A1A" d="M212.033,267.303h1.098l4.652,17.408h0.052l4.653-17.408h1.098l-5.097,18.662h-1.359L212.033,267.303z"/>
			<path fill="#1A1A1A" d="M226.591,267.303h8.914v0.992h-7.815v7.451h7.292v0.992h-7.292v8.234h8.05v0.992h-9.148V267.303z"/>
			<path fill="#1A1A1A" d="M240.285,267.303l8.129,16.938h0.052v-16.938h1.098v18.662h-1.438l-8.155-16.938h-0.052v16.938h-1.098
				v-18.662H240.285z"/>
			<path fill="#1A1A1A" d="M253.778,267.303h1.098v18.662h-1.098V267.303z"/>
			<path fill="#1A1A1A" d="M260.513,267.303l8.129,16.938h0.052v-16.938h1.098v18.662h-1.438l-8.155-16.938h-0.052v16.938h-1.098
				v-18.662H260.513z"/>
			<path fill="#1A1A1A" d="M284.142,282.201h-0.052c-0.601,2.535-2.274,4.078-4.914,4.078c-4.078,0-5.725-3.582-5.725-9.619
				c0-5.855,1.647-9.672,5.986-9.672c4.365,0,5.228,3.844,5.228,5.672h-1.098c0-2.508-1.333-4.783-4.078-4.783
				c-3.712,0-4.94,3.477-4.94,8.73c0,5.02,1.019,8.783,4.783,8.783c3.528,0,4.6-3.424,4.6-6.719v-1.148h-5.123v-0.889h6.221v9.33
				h-0.889V282.201z"/>
			<path fill="#1A1A1A" d="M307.96,276.635c0,8.18-3.372,9.645-6.013,9.645c-3.581,0-6.038-2.404-6.038-9.645
				s2.614-9.646,6.038-9.646C305.659,266.988,307.96,269.395,307.96,276.635z M297.008,276.635c0,5.123,1.045,8.756,4.939,8.756
				c3.425,0,4.914-2.824,4.914-8.756c0-5.045-1.124-8.758-4.914-8.758C298.289,267.877,297.008,271.512,297.008,276.635z"/>
			<path fill="#1A1A1A" d="M313.083,267.303l8.129,16.938h0.053v-16.938h1.098v18.662h-1.438l-8.155-16.938h-0.052v16.938h-1.099
				v-18.662H313.083z"/>
			<path fill="#1A1A1A" d="M337.684,268.295h-4.966v-0.992h11.03v0.992h-4.967v17.67h-1.098V268.295z"/>
			<path fill="#1A1A1A" d="M346.768,267.303h1.098v8.182h8.181v-8.182h1.099v18.662h-1.099v-9.488h-8.181v9.488h-1.098V267.303z"/>
			<path fill="#1A1A1A" d="M361.453,267.303h8.913v0.992h-7.815v7.451h7.292v0.992h-7.292v8.234h8.051v0.992h-9.148V267.303z"/>
			<path fill="#1A1A1A" d="M384.902,268.295h-4.966v-0.992h11.03v0.992H386v17.67h-1.098V268.295z"/>
			<path fill="#1A1A1A" d="M393.986,267.303h5.463c2.588,0,4.626,1.49,4.626,4.889c0,2.455-1.307,4.363-3.737,4.625v0.053
				c3.058,0.184,3.606,2.064,3.606,4.627v1.961c0,1.07,0.157,1.75,0.628,2.508h-1.255c-0.287-0.549-0.471-1.438-0.471-2.535v-1.908
				c0-2.666-0.731-4.207-3.737-4.207h-4.025v8.65h-1.098V267.303z M398.586,276.426c2.065,0,4.392-0.68,4.392-4.234
				c0-2.51-1.411-4-3.686-4h-4.208v8.234H398.586z"/>
			<path fill="#1A1A1A" d="M417.088,280.162h-7.031l-1.777,5.803h-1.098l5.803-18.662h1.385l5.594,18.662h-1.098L417.088,280.162z
				 M413.664,268.4h-0.053l-3.293,10.873h6.561L413.664,268.4z"/>
			<path fill="#1A1A1A" d="M422.904,267.303h1.098v18.662h-1.098V267.303z"/>
			<path fill="#1A1A1A" d="M428.264,267.303h1.098v17.67h7.815v0.992h-8.913V267.303z"/>
			<path fill="#1A1A1A" d="M438.289,269.916c0,2.039-0.444,2.797-1.517,3.398v-0.889c0.653-0.471,0.732-1.307,0.732-2.457h-0.314
				v-2.666h1.099V269.916z M441.216,269.916c0,2.039-0.444,2.797-1.516,3.398v-0.889c0.653-0.471,0.731-1.307,0.731-2.457h-0.313
				v-2.666h1.098V269.916z"/>
		</g>
	</g>
	<g>
		<g>
			<polygon fill="#EE2A7B" points="592.576,406.506 438.453,406.506 438.453,340.889 592.576,340.889 561.917,373.56 			"/>
		</g>
		<g>
			<rect x="103.129" y="308.082" fill="#EE2A7B" width="394.809" height="65.617"/>
		</g>
		<g>
			<polygon fill="#C11D65" points="497.938,373.699 438.453,406.506 438.453,373.699 			"/>
		</g>
		<g>
			<polygon fill="#EE2A7B" points="7.424,406.506 161.547,406.506 161.547,340.889 7.424,340.889 38.083,373.56 			"/>
		</g>
		<g>
			<polygon fill="#C11D65" points="102.064,373.699 161.547,406.506 161.547,373.699 			"/>
		</g>
		<g>
			<g>
				<g opacity="0.5">
					<g>
						<polygon fill="#FFFFFF" points="234.242,333.175 236.093,333.175 242.016,327.252 240.161,327.252 						"/>
					</g>
					<g>
						<polygon fill="#FFFFFF" points="245.084,332.86 244.77,333.175 245.084,333.175 						"/>
					</g>
					<g>
						<polygon fill="#FFFFFF" points="241.259,333.175 243.114,333.175 245.084,331.204 245.084,329.35 						"/>
					</g>
					<g>
						<polygon fill="#FFFFFF" points="232.291,336.976 232.291,335.121 225.063,342.35 225.063,344.204 						"/>
					</g>
					<g>
						<polygon fill="#FFFFFF" points="227.977,327.252 226.122,327.252 225.063,328.311 225.063,330.165 						"/>
					</g>
					<g>
						<polygon fill="#FFFFFF" points="239.603,333.175 245.084,327.693 245.084,327.252 243.671,327.252 237.749,333.175 						"/>
					</g>
					<g>
						<polygon fill="#FFFFFF" points="234.998,327.252 233.143,327.252 225.063,335.332 225.063,337.187 						"/>
					</g>
					<g>
						<polygon fill="#FFFFFF" points="231.487,327.252 229.632,327.252 225.063,331.821 225.063,333.676 						"/>
					</g>
					<g>
						<polygon fill="#FFFFFF" points="232.291,333.469 232.291,333.175 232.586,333.175 238.505,327.252 236.654,327.252 
							225.063,338.843 225.063,340.693 						"/>
					</g>
					<g>
						<polygon fill="#FFFFFF" points="232.291,340.49 232.291,338.632 225.063,345.86 225.063,347.715 						"/>
					</g>
					<g>
						<polygon fill="#FFFFFF" points="232.291,354.529 232.291,352.671 225.063,359.898 225.063,361.754 						"/>
					</g>
					<g>
						<polygon fill="#FFFFFF" points="232.291,351.019 232.291,349.164 225.063,356.389 225.063,358.243 						"/>
					</g>
					<g>
						<polygon fill="#FFFFFF" points="234.688,341.601 232.829,341.601 225.063,349.371 225.063,351.226 						"/>
					</g>
					<g>
						<polygon fill="#FFFFFF" points="232.291,361.547 232.291,359.692 228.904,363.079 230.755,363.079 						"/>
					</g>
					<g>
						<polygon fill="#FFFFFF" points="232.291,358.04 232.291,356.182 225.393,363.079 227.248,363.079 						"/>
					</g>
					<g>
						<polygon fill="#FFFFFF" points="239.293,347.523 244.332,342.484 244.332,341.601 243.357,341.601 237.434,347.523 						"/>
					</g>
					<g>
						<polygon fill="#FFFFFF" points="238.194,341.601 236.339,341.601 225.063,352.882 225.063,354.736 						"/>
					</g>
					<g>
						<polygon fill="#FFFFFF" points="240.945,347.523 242.804,347.523 244.332,345.995 244.332,344.141 						"/>
					</g>
					<g>
						<polygon fill="#FFFFFF" points="233.927,347.523 235.782,347.523 241.705,341.601 239.85,341.601 						"/>
					</g>
				</g>
				<g>
					<g>
						<polygon fill="#FFFFFF" points="220.03,359.563 220.03,322.218 241.563,322.218 241.563,329.654 228.771,329.654 
							228.771,336.567 240.811,336.567 240.811,344.008 228.771,344.008 228.771,359.563 						"/>
					</g>
					<g>
						<path fill="#EE2A7B" d="M240.805,322.977v5.919h-12.793v8.431h12.041v5.923h-12.041v15.556h-7.224v-35.828H240.805
							 M242.322,321.46h-1.517h-20.017h-1.517v1.517v35.828v1.517h1.517h7.224h1.517v-1.517v-14.039h10.523h1.517v-1.517v-5.923
							v-1.517h-1.517h-10.523v-5.397h11.276h1.517v-1.517v-5.919V321.46L242.322,321.46z"/>
					</g>
				</g>
			</g>
			<g>
				<g opacity="0.5">
					<g>
						<path fill="#FFFFFF" d="M259.748,332.573h1.855l5.187-5.187c-0.549-0.075-1.13-0.115-1.731-0.123L259.748,332.573z"/>
					</g>
					<g>
						<path fill="#FFFFFF" d="M263.187,332.641c0.545,0.072,1.023,0.211,1.461,0.398l4.892-4.892
							c-0.434-0.188-0.896-0.347-1.381-0.474L263.187,332.641z"/>
					</g>
					<g>
						<path fill="#FFFFFF" d="M265.675,333.664c0.334,0.282,0.617,0.621,0.836,1.019l5.203-5.202
							c-0.327-0.294-0.685-0.553-1.063-0.788L265.675,333.664z"/>
					</g>
					<g>
						<polygon fill="#FFFFFF" points="258.729,335.447 258.729,333.593 251.505,340.816 251.505,342.672 						"/>
					</g>
					<g>
						<polygon fill="#FFFFFF" points="258.729,338.954 258.729,337.104 251.505,344.327 251.505,346.183 						"/>
					</g>
					<g>
						<polygon fill="#FFFFFF" points="263.414,327.252 261.559,327.252 251.505,337.306 251.505,339.161 						"/>
					</g>
					<g>
						<polygon fill="#FFFFFF" points="258.729,342.465 258.729,340.609 251.505,347.834 251.505,349.689 						"/>
					</g>
					<g>
						<polygon fill="#FFFFFF" points="258.729,354.648 251.505,361.873 251.505,363.079 252.153,363.079 258.729,356.504 						"/>
					</g>
					<g>
						<path fill="#FFFFFF" d="M274.193,356.734l-6.269,6.27c0.016,0.023,0.02,0.052,0.036,0.075h1.744l4.545-4.546
							C274.221,357.988,274.201,357.392,274.193,356.734z"/>
					</g>
					<g>
						<polygon fill="#FFFFFF" points="256.393,327.252 254.542,327.252 251.505,330.289 251.505,332.144 						"/>
					</g>
					<g>
						<polygon fill="#FFFFFF" points="251.505,328.633 252.886,327.252 251.505,327.252 						"/>
					</g>
					<g>
						<polygon fill="#FFFFFF" points="259.903,327.252 258.048,327.252 251.505,333.795 251.505,335.65 						"/>
					</g>
					<g>
						<path fill="#FFFFFF" d="M267.16,337.537c0,0.004,0,0.008,0,0.008l6.074-6.07c-0.219-0.401-0.462-0.776-0.741-1.118
							l-5.533,5.532C267.08,336.391,267.16,336.928,267.16,337.537z"/>
					</g>
					<g>
						<polygon fill="#FFFFFF" points="258.729,361.67 257.32,363.079 258.729,363.079 						"/>
					</g>
					<g>
						<path fill="#FFFFFF" d="M272.712,347.688l-5.824,5.827l0.052,1.799l6.389-6.385
							C273.158,348.463,272.955,348.049,272.712,347.688z"/>
					</g>
					<g>
						<path fill="#FFFFFF" d="M274.146,355.122c-0.016-0.62-0.036-1.229-0.068-1.779l-6.958,6.958
							c0.048,0.55,0.147,1.067,0.295,1.557L274.146,355.122z"/>
					</g>
					<g>
						<path fill="#FFFFFF" d="M273.954,351.811c-0.063-0.581-0.155-1.103-0.259-1.596l-6.707,6.707l0.052,1.803L273.954,351.811z"/>
					</g>
					<g>
						<path fill="#FFFFFF" d="M275.789,362.78c-0.135-0.071-0.25-0.163-0.362-0.258l-0.557,0.557h0.919V362.78z"/>
					</g>
					<g>
						<path fill="#FFFFFF" d="M274.754,361.543c-0.167-0.406-0.283-0.903-0.366-1.493l-3.029,3.029h1.855L274.754,361.543z"/>
					</g>
					<g>
						<polygon fill="#FFFFFF" points="258.729,360.015 258.729,358.159 253.81,363.079 255.664,363.079 						"/>
					</g>
					<g>
						<path fill="#FFFFFF" d="M262.594,347.926c0.398,0,0.76,0.04,1.103,0.104l10.64-10.644c0.016-0.299,0.047-0.589,0.047-0.903
							c0-0.326-0.051-0.613-0.071-0.924l-12.367,12.367H262.594z"/>
					</g>
					<g>
						<path fill="#FFFFFF" d="M270.802,346.087l-4.311,4.311c0.167,0.454,0.267,0.976,0.319,1.537l5.13-5.131
							C271.614,346.521,271.231,346.282,270.802,346.087z"/>
					</g>
					<g>
						<path fill="#FFFFFF" d="M258.729,349.486v-1.561h1.561l13.86-13.859c-0.1-0.518-0.223-1.012-0.386-1.469l-6.823,6.826
							c-0.434,1.835-1.552,2.866-3.268,3.264l-12.168,12.168v1.859L258.729,349.486z"/>
					</g>
					<g>
						<path fill="#FFFFFF" d="M264.911,348.467c0.398,0.22,0.732,0.506,1.003,0.856l3.662-3.662
							c-0.37-0.092-0.732-0.188-1.162-0.243v-0.104c0.951-0.199,1.775-0.537,2.496-0.987l2.078-2.081
							c0.53-0.844,0.896-1.848,1.123-2.974L264.911,348.467z"/>
					</g>
					<g>
						<polygon fill="#FFFFFF" points="258.729,352.997 258.729,351.142 251.505,358.366 251.505,360.222 						"/>
					</g>
					<g>
						<path fill="#FFFFFF" d="M261.802,342.902c-0.02,0-0.04,0.004-0.063,0.004h-1.795l-8.438,8.438v1.855L261.802,342.902z"/>
					</g>
				</g>
				<g>
					<g>
						<path fill="#FFFFFF" d="M263.289,359.563l-0.227-0.325c-0.822-1.178-0.985-2.701-1.039-4.171l-0.204-6.88
							c-0.089-2.612-1.17-3.778-3.505-3.778h-3.103v15.154h-8.745v-37.346h14.109c6.54,0,10.291,3.642,10.291,9.989
							c0,4.305-1.465,7.288-4.269,8.764c3.503,1.409,3.985,4.91,4.066,11.101c0.048,3.506,0.239,5.263,1.195,5.757l0.409,0.213
							v1.522H263.289z M257.463,337.873c3.269,0,4.663-1.379,4.663-4.611c0-2.832-1.395-4.208-4.265-4.208h-2.649v8.819H257.463z"/>
					</g>
					<g>
						<path fill="#EE2A7B" d="M260.576,322.977c5.919,0,9.533,3.108,9.533,9.23c0,4.769-1.911,7.98-5.97,8.833v0.1
							c4.912,0.652,5.668,3.363,5.768,10.941c0.052,3.762,0.25,5.72,1.604,6.421v0.303h-7.826c-0.7-1.004-0.852-2.36-0.903-3.766
							l-0.203-6.874c-0.096-2.811-1.354-4.515-4.263-4.515h-3.861v15.154h-7.229v-35.828H260.576 M254.454,338.632h3.009
							c3.463,0,5.421-1.505,5.421-5.37c0-3.312-1.759-4.967-5.023-4.967h-3.407V338.632 M260.576,321.46h-13.351h-1.517v1.517
							v35.828v1.517h1.517h7.229h1.517v-1.517v-13.638h2.344c1.586,0,2.661,0.519,2.747,3.05l0.203,6.867
							c0.059,1.598,0.241,3.25,1.175,4.589l0.453,0.648h0.792h7.826h1.517v-1.517v-0.303v-0.923l-0.819-0.424
							c-0.72-0.373-0.761-3.329-0.785-5.095c-0.071-5.404-0.387-9.241-3.321-11.166c2.297-1.774,3.524-4.745,3.524-8.688
							C271.626,325.478,267.495,321.46,260.576,321.46L260.576,321.46z M255.971,329.812h1.89c2.458,0,3.506,1.032,3.506,3.45
							c0,2.809-1.058,3.854-3.904,3.854h-1.492V329.812L255.971,329.812z"/>
					</g>
				</g>
			</g>
			<g>
				<g opacity="0.5">
					<g>
						<polygon fill="#FFFFFF" points="289.808,332.784 289.808,330.926 282.583,338.154 282.583,340.009 						"/>
					</g>
					<g>
						<polygon fill="#FFFFFF" points="289.808,336.295 289.808,334.437 282.583,341.665 282.583,343.52 						"/>
					</g>
					<g>
						<polygon fill="#FFFFFF" points="289.808,339.806 289.808,337.951 282.583,345.176 282.583,347.03 						"/>
					</g>
					<g>
						<polygon fill="#FFFFFF" points="288.323,327.252 286.469,327.252 282.583,331.137 282.583,332.991 						"/>
					</g>
					<g>
						<polygon fill="#FFFFFF" points="289.808,355.501 282.583,362.725 282.583,363.079 284.08,363.079 289.808,357.352 						"/>
					</g>
					<g>
						<polygon fill="#FFFFFF" points="284.812,327.252 282.958,327.252 282.583,327.626 282.583,329.484 						"/>
					</g>
					<g>
						<polygon fill="#FFFFFF" points="289.808,329.273 289.808,327.423 282.583,334.647 282.583,336.498 						"/>
					</g>
					<g>
						<polygon fill="#FFFFFF" points="289.808,353.845 289.808,351.99 282.583,359.214 282.583,361.069 						"/>
					</g>
					<g>
						<polygon fill="#FFFFFF" points="289.808,360.862 289.808,359.007 285.736,363.079 287.591,363.079 						"/>
					</g>
					<g>
						<polygon fill="#FFFFFF" points="289.808,362.518 289.247,363.079 289.808,363.079 						"/>
					</g>
					<g>
						<polygon fill="#FFFFFF" points="289.808,350.334 289.808,348.479 282.583,355.703 282.583,357.559 						"/>
					</g>
					<g>
						<polygon fill="#FFFFFF" points="289.808,346.823 289.808,344.965 282.583,352.192 282.583,354.048 						"/>
					</g>
					<g>
						<polygon fill="#FFFFFF" points="289.808,343.312 289.808,341.462 282.583,348.687 282.583,350.537 						"/>
					</g>
				</g>
				<g>
					<g>
						<rect x="277.55" y="322.218" fill="#FFFFFF" width="8.741" height="37.346"/>
					</g>
					<g>
						<path fill="#EE2A7B" d="M285.533,322.977v35.828h-7.225v-35.828H285.533 M287.05,321.46h-1.517h-7.225h-1.517v1.517v35.828
							v1.517h1.517h7.225h1.517v-1.517v-35.828V321.46L287.05,321.46z"/>
					</g>
				</g>
			</g>
			<g>
				<g opacity="0.5">
					<g>
						<path fill="#FFFFFF" d="M309.455,332.677c0.558,0.067,1.06,0.188,1.501,0.358l4.717-4.717
							c-0.422-0.195-0.876-0.358-1.357-0.498L309.455,332.677z"/>
					</g>
					<g>
						<path fill="#FFFFFF" d="M314.614,345.072c0,0.656-0.008,1.277-0.021,1.874l7.069-7.068c-0.044-0.578-0.104-1.139-0.175-1.681
							L314.614,345.072z"/>
					</g>
					<g>
						<path fill="#FFFFFF" d="M314.264,338.4c0.08,0.521,0.147,1.067,0.195,1.66l6.086-6.086c-0.163-0.458-0.343-0.896-0.545-1.313
							L314.264,338.4z"/>
					</g>
					<g>
						<path fill="#FFFFFF" d="M314.555,341.621c0.023,0.569,0.035,1.189,0.039,1.811l6.672-6.667
							c-0.096-0.525-0.207-1.031-0.335-1.521L314.555,341.621z"/>
					</g>
					<g>
						<polygon fill="#FFFFFF" points="305.384,354.303 298.159,361.527 298.159,363.079 298.461,363.079 305.384,356.157 						"/>
					</g>
					<g>
						<path fill="#FFFFFF" d="M313.56,335.599c0.179,0.418,0.314,0.903,0.441,1.409l5.413-5.414
							c-0.238-0.382-0.497-0.736-0.784-1.066L313.56,335.599z"/>
					</g>
					<g>
						<path fill="#FFFFFF" d="M312.035,333.612c0.346,0.263,0.66,0.569,0.919,0.936l4.856-4.856
							c-0.326-0.29-0.681-0.553-1.062-0.796L312.035,333.612z"/>
					</g>
					<g>
						<path fill="#FFFFFF" d="M314.542,348.654c-0.031,0.708-0.075,1.369-0.131,1.982l7.411-7.412
							c-0.008-0.612-0.027-1.21-0.056-1.795L314.542,348.654z"/>
					</g>
					<g>
						<polygon fill="#FFFFFF" points="298.159,328.282 299.19,327.252 298.159,327.252 						"/>
					</g>
					<g>
						<polygon fill="#FFFFFF" points="302.701,327.252 300.846,327.252 298.159,329.938 298.159,331.793 						"/>
					</g>
					<g>
						<polygon fill="#FFFFFF" points="309.718,327.252 307.867,327.252 298.159,336.96 298.159,338.811 						"/>
					</g>
					<g>
						<polygon fill="#FFFFFF" points="306.211,327.252 304.356,327.252 298.159,333.449 298.159,335.304 						"/>
					</g>
					<g>
						<path fill="#FFFFFF" d="M321.811,346.748c0.016-0.609,0.028-1.238,0.028-1.883l-7.679,7.678
							c-0.187,1.059-0.445,1.935-0.788,2.647L321.811,346.748z"/>
					</g>
					<g>
						<path fill="#FFFFFF" d="M321.58,350.489c0.063-0.645,0.119-1.313,0.155-2.01l-14.601,14.6h1.855L321.58,350.489z"/>
					</g>
					<g>
						<path fill="#FFFFFF" d="M306.052,332.573h1.859l5.063-5.067c-0.521-0.091-1.075-0.154-1.66-0.194L306.052,332.573z"/>
					</g>
					<g>
						<polygon fill="#FFFFFF" points="307.286,357.762 305.436,357.762 300.117,363.079 301.969,363.079 						"/>
					</g>
					<g>
						<path fill="#FFFFFF" d="M320.023,357.212l-4.936,4.936C317.368,361.229,318.965,359.601,320.023,357.212z"/>
					</g>
					<g>
						<polygon fill="#FFFFFF" points="305.384,352.646 305.384,350.792 298.159,358.017 298.159,359.871 						"/>
					</g>
					<g>
						<path fill="#FFFFFF" d="M320.883,354.7c0.18-0.72,0.331-1.5,0.462-2.316l-10.655,10.651c0.729-0.039,1.429-0.104,2.074-0.219
							L320.883,354.7z"/>
					</g>
					<g>
						<path fill="#FFFFFF" d="M311.271,357.288c-0.645,0.278-1.409,0.426-2.312,0.457l-5.334,5.334h1.855L311.271,357.288z"/>
					</g>
					<g>
						<polygon fill="#FFFFFF" points="305.384,338.607 305.384,336.753 298.159,343.978 298.159,345.832 						"/>
					</g>
					<g>
						<polygon fill="#FFFFFF" points="305.384,335.097 305.384,333.242 298.159,340.467 298.159,342.321 						"/>
					</g>
					<g>
						<polygon fill="#FFFFFF" points="305.384,349.136 305.384,347.281 298.159,354.506 298.159,356.36 						"/>
					</g>
					<g>
						<polygon fill="#FFFFFF" points="305.384,342.118 305.384,340.264 298.159,347.488 298.159,349.343 						"/>
					</g>
					<g>
						<polygon fill="#FFFFFF" points="305.384,345.625 305.384,343.774 298.159,350.999 298.159,352.85 						"/>
					</g>
				</g>
				<g>
					<g>
						<path fill="#FFFFFF" d="M293.122,359.563v-37.346h12.6c11.627,0,12.601,9.379,12.601,18.169
							c0,11.839-2.183,19.177-13.046,19.177H293.122z M304.32,352.724c3.946,0,5.26-1.754,5.26-12.138
							c0-8.511-0.817-11.532-5.41-11.532h-2.303v23.67H304.32z"/>
					</g>
					<g>
						<path fill="#EE2A7B" d="M305.722,322.977c10.039,0,11.842,6.874,11.842,17.41c0,12.693-2.707,18.418-12.287,18.418H293.88
							v-35.828H305.722 M301.108,353.482h3.212c5.016,0,6.019-3.16,6.019-12.896c0-8.128-0.652-12.291-6.169-12.291h-3.062V353.482
							 M305.722,321.46H293.88h-1.517v1.517v35.828v1.517h1.517h11.396c11.457,0,13.804-7.969,13.804-19.935
							C319.08,331.229,318.048,321.46,305.722,321.46L305.722,321.46z M302.625,329.812h1.545c3.49,0,4.652,1.558,4.652,10.774
							c0,10.873-1.544,11.38-4.502,11.38h-1.695V329.812L302.625,329.812z"/>
					</g>
				</g>
			</g>
			<g>
				<g opacity="0.5">
					<g>
						<polygon fill="#FFFFFF" points="342.879,345.223 343.205,346.752 348.52,341.438 348.133,339.969 						"/>
					</g>
					<g>
						<polygon fill="#FFFFFF" points="342.254,342.333 342.584,343.862 347.787,338.659 347.396,337.19 						"/>
					</g>
					<g>
						<polygon fill="#FFFFFF" points="341.017,336.558 341.343,338.086 346.318,333.11 345.932,331.642 						"/>
					</g>
					<g>
						<polygon fill="#FFFFFF" points="341.637,339.447 341.964,340.972 347.055,335.885 346.664,334.42 						"/>
					</g>
					<g>
						<polygon fill="#FFFFFF" points="336.112,355.501 337.967,355.501 349.256,344.212 348.869,342.743 343.5,348.113 
							343.814,349.582 342.031,349.582 						"/>
					</g>
					<g>
						<polygon fill="#FFFFFF" points="352.539,356.623 346.608,362.554 346.724,363.079 347.934,363.079 352.93,358.084 						"/>
					</g>
					<g>
						<polygon fill="#FFFFFF" points="338.521,349.582 326.834,361.269 326.353,363.079 326.878,363.079 340.375,349.582 						"/>
					</g>
					<g>
						<polygon fill="#FFFFFF" points="340.392,333.672 340.722,335.196 345.582,330.336 345.195,328.867 						"/>
					</g>
					<g>
						<polygon fill="#FFFFFF" points="338.139,327.252 336.283,327.252 335.675,327.86 335.006,330.384 						"/>
					</g>
					<g>
						<polygon fill="#FFFFFF" points="344.85,327.558 344.766,327.252 343.301,327.252 333.15,337.405 332.479,339.929 						"/>
					</g>
					<g>
						<polygon fill="#FFFFFF" points="341.646,327.252 339.794,327.252 334.413,332.637 333.744,335.152 						"/>
					</g>
					<g>
						<polygon fill="#FFFFFF" points="338.691,340.741 339.197,338.377 330.619,346.95 329.955,349.479 						"/>
					</g>
					<g>
						<polygon fill="#FFFFFF" points="352.197,355.313 351.807,353.845 345.979,359.672 346.314,361.196 						"/>
					</g>
					<g>
						<polygon fill="#FFFFFF" points="350.725,349.761 350.338,348.292 343.13,355.501 344.984,355.501 						"/>
					</g>
					<g>
						<polygon fill="#FFFFFF" points="351.461,352.535 351.07,351.07 345.351,356.79 345.686,358.314 						"/>
					</g>
					<g>
						<polygon fill="#FFFFFF" points="353.662,360.862 353.275,359.394 349.59,363.079 351.445,363.079 						"/>
					</g>
					<g>
						<polygon fill="#FFFFFF" points="354.012,362.172 353.101,363.079 354.251,363.079 						"/>
					</g>
					<g>
						<polygon fill="#FFFFFF" points="337.729,345.207 338.238,342.847 329.357,351.728 328.692,354.247 						"/>
					</g>
					<g>
						<polygon fill="#FFFFFF" points="336.864,349.582 336.789,349.582 337.278,347.312 328.096,356.496 327.427,359.02 						"/>
					</g>
					<g>
						<polygon fill="#FFFFFF" points="339.65,336.268 340.16,333.903 331.885,342.178 331.217,344.702 						"/>
					</g>
					<g>
						<polygon fill="#FFFFFF" points="334.854,358.613 335.372,356.237 328.533,363.079 330.389,363.079 						"/>
					</g>
					<g>
						<polygon fill="#FFFFFF" points="334.389,360.73 332.044,363.079 333.879,363.079 						"/>
					</g>
					<g>
						<polygon fill="#FFFFFF" points="349.605,345.521 339.623,355.501 341.474,355.501 349.992,346.986 						"/>
					</g>
				</g>
				<g>
					<g>
						<path fill="#FFFFFF" d="M341.839,359.563l-1.656-7.579h-8.312l-1.659,7.579h-9.119l9.883-37.346h10.1l9.888,37.346H341.839z
							 M338.601,344.544l-2.576-11.977l-2.572,11.977H338.601z"/>
					</g>
					<g>
						<path fill="#EE2A7B" d="M340.49,322.977l9.486,35.828h-7.527l-1.656-7.579h-9.533l-1.659,7.579h-7.523l9.481-35.828H340.49
							 M332.514,345.303h7.025l-3.463-16.104h-0.104L332.514,345.303 M341.658,321.46h-1.168h-8.932h-1.168l-0.299,1.129
							l-9.481,35.828l-0.504,1.904h1.971h7.523h1.221l0.261-1.192l1.398-6.387h7.091l1.396,6.387l0.261,1.192h1.222h7.527h1.971
							l-0.504-1.905l-9.486-35.828L341.658,321.46L341.658,321.46z M334.391,343.786l1.635-7.609l1.636,7.609H334.391
							L334.391,343.786z"/>
					</g>
				</g>
			</g>
			<g>
				<g opacity="0.5">
					<g>
						<polygon fill="#FFFFFF" points="367.824,340.021 380.044,327.801 380.279,327.252 378.738,327.252 368.879,337.111 						"/>
					</g>
					<g>
						<polygon fill="#FFFFFF" points="364.509,332.809 364.039,331.423 358.598,336.864 359.155,338.166 						"/>
					</g>
					<g>
						<polygon fill="#FFFFFF" points="366.296,338.042 365.822,336.657 360.699,341.78 361.253,343.082 						"/>
					</g>
					<g>
						<polygon fill="#FFFFFF" points="371.816,329.007 373.572,327.252 372.453,327.252 						"/>
					</g>
					<g>
						<polygon fill="#FFFFFF" points="365.4,335.424 364.931,334.042 359.648,339.324 360.202,340.622 						"/>
					</g>
					<g>
						<polygon fill="#FFFFFF" points="363.617,330.189 363.144,328.804 357.547,334.404 358.104,335.706 						"/>
					</g>
					<g>
						<polygon fill="#FFFFFF" points="359.533,327.252 357.682,327.252 355.445,329.488 355.998,330.786 						"/>
					</g>
					<g>
						<polygon fill="#FFFFFF" points="354.49,327.252 354.951,328.33 356.026,327.252 						"/>
					</g>
					<g>
						<polygon fill="#FFFFFF" points="362.726,327.57 362.618,327.252 361.188,327.252 356.496,331.944 357.049,333.246 						"/>
					</g>
					<g>
						<polygon fill="#FFFFFF" points="370.877,331.606 369.818,334.516 377.083,327.252 375.228,327.252 						"/>
					</g>
					<g>
						<polygon fill="#FFFFFF" points="371.001,361.415 371.001,359.557 367.478,363.079 369.333,363.079 						"/>
					</g>
					<g>
						<polygon fill="#FFFFFF" points="371.001,354.398 371.001,352.543 363.772,359.768 363.772,361.622 						"/>
					</g>
					<g>
						<polygon fill="#FFFFFF" points="367.188,340.661 366.714,339.276 361.75,344.24 362.304,345.542 						"/>
					</g>
					<g>
						<polygon fill="#FFFFFF" points="371.001,363.071 370.988,363.079 371.001,363.079 						"/>
					</g>
					<g>
						<polygon fill="#FFFFFF" points="371.001,357.904 371.001,356.054 363.971,363.079 365.822,363.079 						"/>
					</g>
					<g>
						<polygon fill="#FFFFFF" points="371.001,350.888 371.001,349.028 363.772,356.257 363.772,358.111 						"/>
					</g>
					<g>
						<polygon fill="#FFFFFF" points="377.425,333.931 378.811,330.69 362.801,346.7 363.354,348.002 						"/>
					</g>
					<g>
						<polygon fill="#FFFFFF" points="374.81,340.053 376.191,336.82 363.772,349.239 363.772,351.09 						"/>
					</g>
					<g>
						<polygon fill="#FFFFFF" points="372.194,346.183 373.576,342.942 363.772,352.746 363.772,354.601 						"/>
					</g>
				</g>
				<g>
					<g>
						<polygon fill="#FFFFFF" points="358.738,359.563 358.738,344.857 349.066,322.218 358.882,322.218 363.128,334.674 
							367.643,322.218 377.152,322.218 367.48,344.857 367.48,359.563 						"/>
					</g>
					<g>
						<path fill="#EE2A7B" d="M376.004,322.977l-9.282,21.726v14.103h-7.225v-14.103l-9.282-21.726h8.124l4.721,13.848h0.096
							l5.02-13.848H376.004 M378.302,321.46h-2.298h-7.829h-1.063l-0.362,1l-3.6,9.928l-3.375-9.9l-0.35-1.027h-1.086h-8.124h-2.298
							l0.903,2.112l9.16,21.44v13.792v1.517h1.517h7.225h1.517v-1.517v-13.792l9.16-21.44L378.302,321.46L378.302,321.46z"/>
					</g>
				</g>
			</g>
		</g>
	</g>
</g>
</svg>
