<?xml version="1.0" encoding="utf-8"?>
<!-- Generator: Adobe Illustrator 16.0.0, SVG Export Plug-In . SVG Version: 6.00 Build 0)  -->
<!DOCTYPE svg PUBLIC "-//W3C//DTD SVG 1.1//EN" "http://www.w3.org/Graphics/SVG/1.1/DTD/svg11.dtd">
<svg version="1.1" id="thursday_expanded" xmlns="http://www.w3.org/2000/svg" xmlns:xlink="http://www.w3.org/1999/xlink" x="0px"
	 y="0px" width="600px" height="430px" viewBox="0 0 600 430" enable-background="new 0 0 600 430" xml:space="preserve">
<g>
	<g>
		<g>
			<path fill="#FFFFFF" d="M488.193,211.682c0,103.937-84.257,188.192-188.193,188.192c-103.938,0-188.196-84.255-188.196-188.192
				c0-103.931,84.257-188.188,188.196-188.188C403.937,23.495,488.193,107.751,488.193,211.682z"/>
			<path fill="#F99C1C" d="M300,402.396c-105.162,0-190.717-85.554-190.717-190.713c0-105.157,85.555-190.708,190.717-190.708
				c105.16,0,190.715,85.551,190.715,190.708C490.715,316.842,405.16,402.396,300,402.396z M300,26.016
				c-102.381,0-185.675,83.29-185.675,185.667c0,102.379,83.293,185.67,185.675,185.67c102.38,0,185.672-83.291,185.672-185.67
				C485.672,109.305,402.38,26.016,300,26.016z"/>
		</g>
		<g>
			<path fill="#DA8327" d="M300,389.253c-97.915,0-177.574-79.658-177.574-177.571c0-97.91,79.659-177.566,177.574-177.566
				c97.913,0,177.57,79.656,177.57,177.566C477.57,309.595,397.913,389.253,300,389.253z M300,35.458
				c-97.175,0-176.232,79.054-176.232,176.224c0,97.173,79.058,176.229,176.232,176.229c97.173,0,176.229-79.056,176.229-176.229
				C476.229,114.512,397.173,35.458,300,35.458z"/>
		</g>
		<g>
			<g>
				<path fill="#1A1A1A" d="M275.935,173.278v-26.222h-7.395v-4.93h0.682c4.93,0,7.972-1.888,8.706-5.979h5.559v37.131H275.935z"/>
				<path fill="#1A1A1A" d="M297.924,153.612v-0.105c-3.985-1.049-5.349-4.458-5.349-7.132c0-7.29,4.143-10.227,10.908-10.227
					c6.766,0,10.909,2.937,10.909,10.227c0,2.674-1.364,6.083-5.35,7.132v0.105c4.195,0.839,6.293,4.51,6.293,9.178
					c0,4.248-1.521,11.223-11.853,11.223c-10.332,0-11.852-6.975-11.852-11.223C291.631,158.122,293.729,154.451,297.924,153.612z
					 M303.483,169.083c3.409,0,4.301-2.884,4.301-6.398c0-3.566-0.892-6.398-4.301-6.398c-3.409,0-4.3,2.832-4.3,6.398
					C299.183,166.198,300.075,169.083,303.483,169.083z M303.483,151.356c2.203,0,3.671-1.73,3.671-5.192
					c0-3.356-1.206-5.087-3.671-5.087s-3.671,1.73-3.671,5.087C299.812,149.626,301.281,151.356,303.483,151.356z"/>
			</g>
			<g>
				<rect x="259.823" y="119.651" fill="#F99C1C" width="1.312" height="68.405"/>
			</g>
			<g>
				<rect x="322.467" y="119.651" fill="#F99C1C" width="1.311" height="68.405"/>
			</g>
			<g>
				<path fill="#1A1A1A" d="M336.736,168.525V151.1h-4.914v-3.276h0.453c3.276,0,5.298-1.254,5.785-3.973h3.694v24.674H336.736z"/>
				<path fill="#1A1A1A" d="M347.329,159.29l8.189-15.439h5.193v15.648h2.369v3.903h-2.369v5.123h-4.601v-5.123h-8.782V159.29z
					 M356.111,150.124h-0.07l-4.809,9.375h4.879V150.124z"/>
			</g>
			<g>
				<path fill="#1A1A1A" d="M239.817,162.775c0,1.847,0.593,2.962,2.266,2.962c2.648,0,3.067-2.649,3.067-6.273v-1.185h-0.07
					c-0.836,1.254-2.475,2.091-4.635,2.091c-4.391,0-6.029-3.276-6.029-7.702c0-5.646,2.475-8.817,7.981-8.817
					c6.9,0,7.772,5.506,7.772,11.536c0,7.005-0.14,13.626-8.295,13.626c-3.555,0-6.796-1.499-6.865-6.238H239.817z M242.152,156.676
					c1.986,0,2.753-1.325,2.753-4.67c-0.035-2.823-0.418-4.879-2.753-4.879c-2.44,0-2.719,2.091-2.719,4.879
					C239.434,155.352,240.2,156.676,242.152,156.676z"/>
			</g>
		</g>
		<g>
			<g>
				<g>
					
						<rect x="266.859" y="82.892" transform="matrix(0.7071 0.7071 -0.7071 0.7071 146.1804 -186.0669)" fill="#DA8327" width="61.671" height="1.062"/>
				</g>
				<g>
					<polygon fill="#F99C1C" points="259.523,106.026 281.782,83.77 270.957,72.94 248.694,95.202 260.086,94.58 					"/>
				</g>
				<g>
					
						<rect x="260.458" y="68.728" transform="matrix(-0.7071 0.7071 -0.7071 -0.7071 518.2675 -61.8943)" fill="#F99C1C" width="22.989" height="15.315"/>
				</g>
				<g>
					<polygon fill="#DA8327" points="269.239,89.926 281.782,83.77 278.587,80.575 					"/>
				</g>
			</g>
			<g>
				<g>
					
						<rect x="300.981" y="52.588" transform="matrix(0.7071 0.7071 -0.7071 0.7071 147.3 -188.767)" fill="#DA8327" width="1.062" height="61.671"/>
				</g>
				<g>
					<polygon fill="#F99C1C" points="339.685,106.026 317.422,83.77 328.251,72.94 350.512,95.202 339.123,94.58 					"/>
				</g>
				<g>
					
						<rect x="315.761" y="68.73" transform="matrix(0.7071 0.7071 -0.7071 0.7071 149.8545 -209.0262)" fill="#F99C1C" width="22.989" height="15.31"/>
				</g>
				<g>
					<polygon fill="#DA8327" points="329.971,89.926 317.422,83.77 320.616,80.575 					"/>
				</g>
			</g>
		</g>
		<g>
			<path fill="#F99C1C" d="M200.971,203.708l6.064,17.042h0.07v-17.042h4.601v24.884h-5.716l-6.134-17.426h-0.07v17.426h-4.6
				v-24.884H200.971z"/>
			<path fill="#F99C1C" d="M224.634,203.22c7.528,0,8.469,5.366,8.469,12.93c0,7.562-0.941,12.93-8.469,12.93
				s-8.469-5.367-8.469-12.93C216.166,208.586,217.106,203.22,224.634,203.22z M224.634,225.385c2.962,0,3.45-2.543,3.45-9.234
				c0-6.658-0.488-9.237-3.45-9.237s-3.45,2.579-3.45,9.237C221.184,222.842,221.672,225.385,224.634,225.385z"/>
			<path fill="#F99C1C" d="M237.564,203.708h9.271c4.112,0,6.622,2.161,6.622,6.413c0,3.311-1.325,5.541-4.147,6.133v0.07
				c3.416,0.453,3.938,2.334,4.008,7.598c0.035,2.613,0.174,3.973,1.115,4.461v0.209h-5.437c-0.488-0.697-0.593-1.639-0.627-2.615
				l-0.14-4.773c-0.069-1.951-0.941-3.137-2.962-3.137h-2.684v10.525h-5.019V203.708z M242.583,214.582h2.091
				c2.405,0,3.764-1.046,3.764-3.729c0-2.3-1.22-3.45-3.485-3.45h-2.37V214.582z"/>
			<path fill="#F99C1C" d="M273.057,203.708v4.112h-5.437v20.772h-5.019V207.82h-5.437v-4.112H273.057z"/>
			<path fill="#F99C1C" d="M276.874,203.708h5.019v9.515h5.855v-9.515h5.019v24.884h-5.019v-11.049h-5.855v11.049h-5.019V203.708z"
				/>
			<path fill="#F99C1C" d="M318.729,212.107c0-3.625-0.731-5.193-2.997-5.193c-2.544,0-3.137,2.545-3.137,9.584
				c0,7.527,1.046,8.887,3.206,8.887c1.812,0,3.137-0.941,3.137-6.309h5.019c0,5.367-1.324,10.004-7.911,10.004
				c-7.527,0-8.469-5.367-8.469-12.93c0-7.564,0.941-12.93,8.469-12.93c7.18,0,7.702,5.262,7.702,8.887H318.729z"/>
			<path fill="#F99C1C" d="M336.308,203.22c7.528,0,8.469,5.366,8.469,12.93c0,7.562-0.94,12.93-8.469,12.93
				c-7.527,0-8.469-5.367-8.469-12.93C327.839,208.586,328.78,203.22,336.308,203.22z M336.308,225.385
				c2.963,0,3.45-2.543,3.45-9.234c0-6.658-0.487-9.237-3.45-9.237c-2.962,0-3.45,2.579-3.45,9.237
				C332.857,222.842,333.346,225.385,336.308,225.385z"/>
			<path fill="#F99C1C" d="M353.785,203.708h6.203l6.587,24.884h-5.228l-1.15-5.264h-6.621l-1.15,5.264h-5.228L353.785,203.708z
				 M354.447,219.217h4.879l-2.404-11.188h-0.07L354.447,219.217z"/>
			<path fill="#F99C1C" d="M374.124,220.82v0.73c0,2.336,0.662,3.834,3.311,3.834c1.534,0,2.998-0.975,2.998-3.066
				c0-2.266-1.15-3.102-4.461-4.252c-4.461-1.533-6.518-3.38-6.518-7.528c0-4.845,2.962-7.318,7.702-7.318
				c4.461,0,7.702,1.916,7.702,6.691v0.696h-4.81c0-2.335-0.802-3.694-2.719-3.694c-2.265,0-2.857,1.43-2.857,2.893
				c0,1.534,0.453,2.475,2.579,3.381l3.868,1.673c3.764,1.638,4.74,3.554,4.74,6.587c0,5.262-3.207,7.633-8.644,7.633
				c-5.681,0-7.911-2.65-7.911-7.25v-1.01H374.124z"/>
			<path fill="#F99C1C" d="M404.393,203.708v4.112h-5.438v20.772h-5.018V207.82H388.5v-4.112H404.393z"/>
			<path fill="#F99C1C" d="M244.132,251.82v0.73c0,2.336,0.662,3.834,3.311,3.834c1.533,0,2.997-0.975,2.997-3.066
				c0-2.266-1.15-3.102-4.461-4.252c-4.461-1.533-6.517-3.381-6.517-7.527c0-4.846,2.962-7.318,7.702-7.318
				c4.461,0,7.702,1.916,7.702,6.691v0.695h-4.81c0-2.334-0.802-3.693-2.718-3.693c-2.266,0-2.858,1.43-2.858,2.893
				c0,1.533,0.453,2.475,2.579,3.381l3.868,1.672c3.764,1.639,4.74,3.555,4.74,6.588c0,5.262-3.206,7.633-8.643,7.633
				c-5.681,0-7.911-2.65-7.911-7.25v-1.01H244.132z"/>
			<path fill="#F99C1C" d="M264.517,234.707v17.357c0,2.473,0.593,4.32,2.928,4.32s2.927-1.848,2.927-4.32v-17.357h5.019v17.357
				c0,6.342-3.868,8.016-7.946,8.016s-7.946-1.359-7.946-8.016v-17.357H264.517z"/>
			<path fill="#F99C1C" d="M280.239,234.707h7.458l3.555,17.566h0.07l3.59-17.566h7.423v24.885h-4.6v-19.865h-0.07l-4.426,19.865
				h-3.903l-4.426-19.865h-0.07v19.865h-4.6V234.707z"/>
			<path fill="#F99C1C" d="M307.425,234.707h7.459l3.555,17.566h0.069l3.59-17.566h7.423v24.885h-4.6v-19.865h-0.07l-4.426,19.865
				h-3.903l-4.426-19.865h-0.07v19.865h-4.601V234.707z"/>
			<path fill="#F99C1C" d="M334.683,259.592v-24.885h5.019v24.885H334.683z"/>
			<path fill="#F99C1C" d="M359.489,234.707v4.113h-5.437v20.771h-5.02V238.82h-5.437v-4.113H359.489z"/>
			<path fill="#1A1A1A" d="M216.092,275.699c0-2.039,0.444-2.797,1.516-3.398v0.889c-0.653,0.471-0.731,1.309-0.731,2.457h0.313
				v2.666h-1.098V275.699z M219.02,275.699c0-2.039,0.444-2.797,1.516-3.398v0.889c-0.653,0.471-0.732,1.309-0.732,2.457h0.313
				v2.666h-1.098V275.699z"/>
			<path fill="#1A1A1A" d="M237.556,273.713h-0.052l-5.358,17.252h-1.098l-5.358-17.252h-0.052v17.252h-1.098v-18.664h1.777
				l5.306,16.781h0.052l5.175-16.781h1.804v18.664h-1.098V273.713z"/>
			<path fill="#1A1A1A" d="M242.887,272.301h8.914v0.994h-7.815v7.449h7.292v0.994h-7.292v8.232h8.05v0.994h-9.148V272.301z"/>
			<path fill="#1A1A1A" d="M255.206,272.301h8.914v0.994h-7.815v7.449h7.292v0.994h-7.292v8.232h8.05v0.994h-9.148V272.301z"/>
			<path fill="#1A1A1A" d="M271.618,273.295h-4.966v-0.994h11.03v0.994h-4.966v17.67h-1.098V273.295z"/>
			<path fill="#1A1A1A" d="M297.316,288.35c-1.15,1.674-2.718,2.928-5.228,2.928c-3.529,0-4.94-2.613-4.94-4.756
				c0-2.535,1.359-3.791,3.346-5.307l1.098-0.836l-0.863-1.178c-0.941-1.279-1.463-2.326-1.463-3.605
				c0-1.936,1.542-3.295,3.502-3.295c2.405,0,3.45,1.699,3.45,3.242c0,1.908-1.229,3.293-2.64,4.443l-0.732,0.602l4.313,6.012
				c0.471-1.02,0.706-2.326,0.706-3.451h0.994c0,1.412-0.366,3.033-1.072,4.312l2.509,3.504h-1.098L297.316,288.35z
				 M292.115,281.109l-1.15,0.916c-1.621,1.281-2.718,2.561-2.718,4.338c0,2.354,1.673,4.025,3.973,4.025
				c2.117,0,3.659-1.463,4.522-2.822L292.115,281.109z M293.212,279.15c1.254-1.098,2.013-2.014,2.013-3.582
				c0-1.463-1.045-2.379-2.431-2.379c-1.673,0-2.535,1.1-2.535,2.562c0,0.836,0.653,2.17,1.281,3.006l0.784,1.045L293.212,279.15z"
				/>
			<path fill="#1A1A1A" d="M321.237,287.201h-0.052c-0.602,2.535-2.274,4.076-4.914,4.076c-4.078,0-5.725-3.58-5.725-9.619
				c0-5.854,1.646-9.67,5.985-9.67c4.365,0,5.229,3.842,5.229,5.672h-1.099c0-2.51-1.333-4.783-4.077-4.783
				c-3.712,0-4.94,3.477-4.94,8.73c0,5.018,1.02,8.781,4.783,8.781c3.529,0,4.601-3.424,4.601-6.717v-1.15h-5.123v-0.889h6.221
				v9.332h-0.889V287.201z"/>
			<path fill="#1A1A1A" d="M326.029,272.301h5.463c2.588,0,4.626,1.49,4.626,4.889c0,2.457-1.307,4.365-3.737,4.627v0.053
				c3.058,0.182,3.606,2.064,3.606,4.625v1.961c0,1.072,0.157,1.752,0.628,2.51h-1.255c-0.287-0.549-0.471-1.438-0.471-2.535v-1.908
				c0-2.666-0.731-4.209-3.737-4.209h-4.025v8.652h-1.098V272.301z M330.629,281.424c2.065,0,4.392-0.68,4.392-4.234
				c0-2.51-1.411-4-3.686-4h-4.208v8.234H330.629z"/>
			<path fill="#1A1A1A" d="M340.143,272.301h8.913v0.994h-7.815v7.449h7.292v0.994h-7.292v8.232h8.051v0.994h-9.148V272.301z"/>
			<path fill="#1A1A1A" d="M352.462,272.301h8.913v0.994h-7.815v7.449h7.292v0.994h-7.292v8.232h8.051v0.994h-9.148V272.301z"/>
			<path fill="#1A1A1A" d="M368.874,273.295h-4.966v-0.994h11.03v0.994h-4.967v17.67h-1.098V273.295z"/>
			<path fill="#1A1A1A" d="M379.233,274.916c0,2.039-0.444,2.797-1.517,3.396v-0.889c0.653-0.469,0.732-1.307,0.732-2.457h-0.314
				v-2.666h1.099V274.916z M382.16,274.916c0,2.039-0.444,2.797-1.516,3.396v-0.889c0.653-0.469,0.731-1.307,0.731-2.457h-0.313
				v-2.666h1.098V274.916z"/>
		</g>
	</g>
	<g>
		<g>
			<polygon fill="#F99C1C" points="592.576,406.506 438.453,406.506 438.453,340.889 592.576,340.889 561.919,373.562 			"/>
		</g>
		<g>
			<rect x="103.129" y="308.082" fill="#F99C1C" width="394.807" height="65.617"/>
		</g>
		<g>
			<polygon fill="#DA8327" points="497.936,373.699 438.453,406.506 438.453,373.699 			"/>
		</g>
		<g>
			<polygon fill="#F99C1C" points="7.424,406.506 161.547,406.506 161.547,340.889 7.424,340.889 38.085,373.562 			"/>
		</g>
		<g>
			<polygon fill="#DA8327" points="102.062,373.699 161.547,406.506 161.547,373.699 			"/>
		</g>
		<g>
			<g>
				<g opacity="0.5">
					<g>
						<polygon fill="#FFFFFF" points="211.69,327.383 209.834,327.383 199.612,337.604 199.612,339.46 						"/>
					</g>
					<g>
						<polygon fill="#FFFFFF" points="208.18,327.383 206.327,327.383 199.612,334.098 199.612,335.949 						"/>
					</g>
					<g>
						<polygon fill="#FFFFFF" points="204.673,327.383 202.816,327.383 197.12,333.079 198.977,333.079 						"/>
					</g>
					<g>
						<polygon fill="#FFFFFF" points="209.505,333.079 214.099,328.485 214.099,327.383 213.344,327.383 207.648,333.079 						"/>
					</g>
					<g>
						<polygon fill="#FFFFFF" points="211.159,333.079 213.016,333.079 214.099,331.996 214.099,330.14 						"/>
					</g>
					<g>
						<polygon fill="#FFFFFF" points="194.141,327.383 192.288,327.383 192.079,327.594 192.079,329.444 						"/>
					</g>
					<g>
						<polygon fill="#FFFFFF" points="197.652,327.383 195.795,327.383 192.079,331.101 192.079,332.955 						"/>
					</g>
					<g>
						<polygon fill="#FFFFFF" points="201.163,327.383 199.306,327.383 193.609,333.079 195.466,333.079 						"/>
					</g>
					<g>
						<polygon fill="#FFFFFF" points="206.566,357.075 206.566,355.222 199.933,361.857 201.783,361.857 						"/>
					</g>
					<g>
						<polygon fill="#FFFFFF" points="206.566,350.058 206.566,348.2 199.612,355.154 199.612,357.009 						"/>
					</g>
					<g>
						<polygon fill="#FFFFFF" points="206.566,353.568 206.566,351.711 199.612,358.665 199.612,360.52 						"/>
					</g>
					<g>
						<polygon fill="#FFFFFF" points="206.566,360.586 206.566,358.729 203.439,361.857 205.294,361.857 						"/>
					</g>
					<g>
						<polygon fill="#FFFFFF" points="206.566,336.019 206.566,334.161 199.612,341.115 199.612,342.971 						"/>
					</g>
					<g>
						<polygon fill="#FFFFFF" points="206.566,339.529 206.566,337.672 199.612,344.626 199.612,346.48 						"/>
					</g>
					<g>
						<polygon fill="#FFFFFF" points="206.566,343.034 206.566,341.183 199.612,348.137 199.612,349.987 						"/>
					</g>
					<g>
						<polygon fill="#FFFFFF" points="206.566,346.547 206.566,344.689 199.612,351.644 199.612,353.498 						"/>
					</g>
				</g>
				<g>
					<g>
						<polygon fill="#FFFFFF" points="195.124,358.887 195.124,330.108 187.589,330.108 187.589,322.893 211.127,322.893 
							211.127,330.108 203.594,330.108 203.594,358.887 						"/>
					</g>
					<g>
						<path fill="#F99C1C" d="M210.369,323.651v5.698h-7.533v28.778h-6.954V329.35h-7.535v-5.698H210.369 M211.886,322.135h-1.517
							h-22.021h-1.517v1.517v5.698v1.517h1.517h6.018v27.262v1.517h1.517h6.954h1.517v-1.517v-27.262h6.016h1.517v-1.517v-5.698
							V322.135L211.886,322.135z"/>
					</g>
				</g>
			</g>
			<g>
				<g opacity="0.5">
					<g>
						<polygon fill="#FFFFFF" points="234.823,348.359 234.823,350.219 241.78,343.261 241.78,341.402 						"/>
					</g>
					<g>
						<polygon fill="#FFFFFF" points="233.127,346.553 234.823,346.553 234.823,346.706 241.78,339.748 241.78,337.897 						"/>
					</g>
					<g>
						<polygon fill="#FFFFFF" points="241.78,346.771 241.78,344.915 234.823,351.872 234.823,353.729 						"/>
					</g>
					<g>
						<polygon fill="#FFFFFF" points="234.823,337.831 234.823,339.69 241.78,332.732 241.78,330.874 						"/>
					</g>
					<g>
						<polygon fill="#FFFFFF" points="229.614,346.553 231.471,346.553 241.78,336.243 241.78,334.387 						"/>
					</g>
					<g>
						<polygon fill="#FFFFFF" points="226.713,330.249 226.713,328.394 219.759,335.346 219.759,337.202 						"/>
					</g>
					<g>
						<polygon fill="#FFFFFF" points="222.561,327.383 220.704,327.383 219.759,328.33 219.759,330.186 						"/>
					</g>
					<g>
						<polygon fill="#FFFFFF" points="234.823,336.18 241.78,329.22 241.78,327.383 241.761,327.383 234.823,334.32 						"/>
					</g>
					<g>
						<polygon fill="#FFFFFF" points="234.823,330.816 234.823,332.667 240.107,327.383 238.256,327.383 						"/>
					</g>
					<g>
						<polygon fill="#FFFFFF" points="226.713,333.76 226.713,331.904 219.759,338.858 219.759,340.713 						"/>
					</g>
					<g>
						<polygon fill="#FFFFFF" points="226.713,337.271 226.713,335.415 219.759,342.369 219.759,344.224 						"/>
					</g>
					<g>
						<polygon fill="#FFFFFF" points="226.068,327.383 224.217,327.383 219.759,331.841 219.759,333.691 						"/>
					</g>
					<g>
						<polygon fill="#FFFFFF" points="241.78,353.789 241.78,351.937 234.823,358.894 234.823,360.747 						"/>
					</g>
					<g>
						<polygon fill="#FFFFFF" points="241.78,350.282 241.78,348.426 234.823,355.383 234.823,357.24 						"/>
					</g>
					<g>
						<polygon fill="#FFFFFF" points="226.713,361.837 226.713,359.982 224.838,361.857 226.695,361.857 						"/>
					</g>
					<g>
						<polygon fill="#FFFFFF" points="234.823,329.162 236.6,327.383 234.823,327.383 						"/>
					</g>
					<g>
						<polygon fill="#FFFFFF" points="241.78,357.3 241.78,355.44 235.366,361.857 237.223,361.857 						"/>
					</g>
					<g>
						<polygon fill="#FFFFFF" points="226.713,358.326 226.713,356.472 221.327,361.857 223.184,361.857 						"/>
					</g>
					<g>
						<polygon fill="#FFFFFF" points="241.78,360.811 241.78,358.953 238.877,361.857 240.733,361.857 						"/>
					</g>
					<g>
						<polygon fill="#FFFFFF" points="230.438,340.562 228.582,340.562 219.759,349.387 219.759,351.241 						"/>
					</g>
					<g>
						<polygon fill="#FFFFFF" points="226.713,354.816 226.713,352.965 219.759,359.919 219.759,361.77 						"/>
					</g>
					<g>
						<polygon fill="#FFFFFF" points="226.928,340.562 226.713,340.562 226.713,338.926 219.759,345.88 219.759,347.73 						"/>
					</g>
					<g>
						<polygon fill="#FFFFFF" points="226.713,347.799 226.713,346.553 227.96,346.553 233.949,340.562 232.092,340.562 
							219.759,352.897 219.759,354.752 						"/>
					</g>
					<g>
						<polygon fill="#FFFFFF" points="226.713,351.31 226.713,349.454 219.759,356.408 219.759,358.263 						"/>
					</g>
				</g>
				<g>
					<g>
						<polygon fill="#FFFFFF" points="230.333,358.887 230.333,343.582 223.739,343.582 223.739,358.887 215.271,358.887 
							215.271,322.893 223.739,322.893 223.739,336.073 230.333,336.073 230.333,322.893 238.807,322.893 238.807,358.887 						"/>
					</g>
					<g>
						<path fill="#F99C1C" d="M238.049,323.651v34.477h-6.958v-15.305h-8.11v15.305h-6.952v-34.477h6.952v13.181h8.11v-13.181
							H238.049 M239.566,322.135h-1.517h-6.958h-1.517v1.517v11.664h-5.076v-11.664v-1.517h-1.517h-6.952h-1.517v1.517v34.477v1.517
							h1.517h6.952h1.517v-1.517V344.34h5.076v13.788v1.517h1.517h6.958h1.517v-1.517v-34.477V322.135L239.566,322.135z"/>
					</g>
				</g>
			</g>
			<g>
				<g opacity="0.5">
					<g>
						<polygon fill="#FFFFFF" points="263.864,335.551 270.817,328.599 270.817,327.383 270.183,327.383 263.864,333.7 						"/>
					</g>
					<g>
						<path fill="#FFFFFF" d="M270.817,346.15v-1.854l-6.954,6.953v0.18c0,0.633-0.04,1.218-0.104,1.783L270.817,346.15z"/>
					</g>
					<g>
						<polygon fill="#FFFFFF" points="263.864,347.738 263.864,349.594 270.817,342.64 270.817,340.785 						"/>
					</g>
					<g>
						<polygon fill="#FFFFFF" points="263.864,344.229 263.864,346.085 270.817,339.131 270.817,337.274 						"/>
					</g>
					<g>
						<polygon fill="#FFFFFF" points="263.864,340.718 263.864,342.572 270.817,335.62 270.817,333.764 						"/>
					</g>
					<g>
						<polygon fill="#FFFFFF" points="263.864,337.207 263.864,339.062 270.817,332.109 270.817,330.253 						"/>
					</g>
					<g>
						<polygon fill="#FFFFFF" points="250.977,327.383 249.123,327.383 248.802,327.701 248.802,329.559 						"/>
					</g>
					<g>
						<polygon fill="#FFFFFF" points="254.488,327.383 252.633,327.383 248.802,331.212 248.802,333.071 						"/>
					</g>
					<g>
						<polygon fill="#FFFFFF" points="255.756,336.646 255.756,334.788 248.802,341.74 248.802,343.6 						"/>
					</g>
					<g>
						<polygon fill="#FFFFFF" points="255.756,329.624 255.756,327.771 248.802,334.723 248.802,336.576 						"/>
					</g>
					<g>
						<polygon fill="#FFFFFF" points="255.756,333.135 255.756,331.277 248.802,338.229 248.802,340.086 						"/>
					</g>
					<g>
						<path fill="#FFFFFF" d="M270.817,351.429v-0.115l-11.212,11.217c0.067,0,0.137,0.004,0.205,0.004
							c0.582,0,1.161-0.032,1.728-0.086l9.189-9.185C270.782,352.683,270.817,352.077,270.817,351.429z"/>
					</g>
					<g>
						<polygon fill="#FFFFFF" points="263.864,330.189 263.864,332.044 268.527,327.383 266.672,327.383 						"/>
					</g>
					<g>
						<path fill="#FFFFFF" d="M257.077,356.384c-0.302-0.314-0.527-0.708-0.714-1.144l-4.713,4.715
							c0.325,0.308,0.667,0.581,1.029,0.825L257.077,356.384z"/>
					</g>
					<g>
						<path fill="#FFFFFF" d="M259.577,357.392c-0.585-0.024-1.089-0.144-1.519-0.337l-4.333,4.333
							c0.43,0.207,0.878,0.376,1.339,0.518L259.577,357.392z"/>
					</g>
					<g>
						<path fill="#FFFFFF" d="M269.058,358.438c0.582-0.882,1.033-1.937,1.335-3.188l-6.876,6.876
							c1.128-0.269,2.199-0.679,3.145-1.292L269.058,358.438z"/>
					</g>
					<g>
						<path fill="#FFFFFF" d="M270.817,349.659v-1.853l-7.662,7.662c-0.35,0.713-0.864,1.256-1.58,1.584l-5.185,5.183
							c0.529,0.104,1.075,0.175,1.632,0.223L270.817,349.659z"/>
					</g>
					<g>
						<path fill="#FFFFFF" d="M255.975,353.976c-0.102-0.515-0.159-1.074-0.187-1.667l-5.636,5.636
							c0.215,0.412,0.456,0.792,0.716,1.137L255.975,353.976z"/>
					</g>
					<g>
						<polygon fill="#FFFFFF" points="255.756,340.156 255.756,338.299 248.802,345.251 248.802,347.109 						"/>
					</g>
					<g>
						<polygon fill="#FFFFFF" points="263.864,328.533 265.016,327.383 263.864,327.383 						"/>
					</g>
					<g>
						<path fill="#FFFFFF" d="M255.756,347.174v-1.857l-6.922,6.922c0.021,0.607,0.067,1.181,0.137,1.718L255.756,347.174z"/>
					</g>
					<g>
						<path fill="#FFFFFF" d="M255.756,350.685v-1.857l-6.534,6.534c0.12,0.51,0.257,0.993,0.42,1.437L255.756,350.685z"/>
					</g>
					<g>
						<polygon fill="#FFFFFF" points="255.756,343.663 255.756,341.81 248.802,348.764 248.802,350.614 						"/>
					</g>
				</g>
				<g>
					<g>
						<path fill="#FFFFFF" d="M256.08,359.563c-7.917,0-11.766-3.881-11.766-11.864v-24.807h8.468v24.807
							c0,4.595,1.585,5.228,3.298,5.228c1.712,0,3.296-0.633,3.296-5.228v-24.807h8.47v24.807
							C267.846,355.461,263.778,359.563,256.08,359.563z"/>
					</g>
					<g>
						<path fill="#F99C1C" d="M267.088,323.651v24.048c0,8.786-5.357,11.105-11.008,11.105s-11.008-1.883-11.008-11.105v-24.048
							h6.952v24.048c0,3.427,0.818,5.986,4.056,5.986c3.236,0,4.054-2.56,4.054-5.986v-24.048H267.088 M268.605,322.135h-1.517
							h-6.954h-1.517v1.517v24.048c0,4.47-1.527,4.47-2.537,4.47c-1.011,0-2.539,0-2.539-4.47v-24.048v-1.517h-1.517h-6.952h-1.517
							v1.517v24.048c0,8.376,4.214,12.622,12.525,12.622c8.077,0,12.525-4.482,12.525-12.622v-24.048V322.135L268.605,322.135z"/>
					</g>
				</g>
			</g>
			<g>
				<g opacity="0.5">
					<g>
						<path fill="#FFFFFF" d="M295.87,344.15c1.344-0.646,2.337-1.658,2.989-2.991L295.87,344.15z"/>
					</g>
					<g>
						<path fill="#FFFFFF" d="M292.606,335.23l5.174-5.177c-0.292-0.326-0.617-0.617-0.969-0.884l-4.868,4.868
							C292.216,334.381,292.451,334.769,292.606,335.23z"/>
					</g>
					<g>
						<path fill="#FFFFFF" d="M292.62,351.622l0.032,1.112l5.636-5.637c-0.247-0.378-0.536-0.704-0.874-0.979l-4.854,4.852
							C292.583,351.182,292.61,351.393,292.62,351.622z"/>
					</g>
					<g>
						<path fill="#FFFFFF" d="M289.187,347.329c0.553,0.06,1.033,0.198,1.443,0.405l9.002-8.999
							c0.119-0.649,0.193-1.334,0.211-2.062L289.187,347.329z"/>
					</g>
					<g>
						<path fill="#FFFFFF" d="M285.726,347.277h1.855l12.188-12.188c-0.05-0.565-0.133-1.101-0.25-1.602L285.726,347.277z"/>
					</g>
					<g>
						<path fill="#FFFFFF" d="M299.455,351.099l-6.657,6.655l0.014,0.483c0.018,0.428,0.05,0.846,0.102,1.256l6.679-6.68
							C299.56,352.188,299.512,351.634,299.455,351.099z"/>
					</g>
					<g>
						<path fill="#FFFFFF" d="M292.861,336.63c0.02,0.215,0.045,0.42,0.045,0.652c0,0.445-0.026,0.857-0.082,1.242l6.313-6.313
							c-0.179-0.441-0.378-0.855-0.621-1.237L292.861,336.63z"/>
					</g>
					<g>
						<polygon fill="#FFFFFF" points="282.906,327.383 281.053,327.383 277.845,330.589 277.845,332.442 						"/>
					</g>
					<g>
						<path fill="#FFFFFF" d="M299.669,355.385c-0.006-0.348-0.02-0.637-0.028-0.967l-6.436,6.438c0.117,0.36,0.265,0.7,0.476,1.001
							h0.374l5.632-5.633C299.684,355.952,299.674,355.684,299.669,355.385z"/>
					</g>
					<g>
						<polygon fill="#FFFFFF" points="286.417,327.383 284.56,327.383 277.845,334.098 277.845,335.953 						"/>
					</g>
					<g>
						<polygon fill="#FFFFFF" points="277.845,328.936 279.399,327.383 277.845,327.383 						"/>
					</g>
					<g>
						<polygon fill="#FFFFFF" points="284.797,332.51 284.797,332.498 284.811,332.498 289.928,327.383 288.071,327.383 
							277.845,337.606 277.845,339.464 						"/>
					</g>
					<g>
						<path fill="#FFFFFF" d="M291.587,348.438c0.287,0.328,0.501,0.73,0.667,1.182l4.132-4.129
							c-0.416-0.186-0.882-0.335-1.407-0.45L291.587,348.438z"/>
					</g>
					<g>
						<polygon fill="#FFFFFF" points="284.797,360.588 284.797,358.732 281.67,361.857 283.527,361.857 						"/>
					</g>
					<g>
						<polygon fill="#FFFFFF" points="284.797,353.568 284.797,351.715 277.845,358.669 277.845,360.52 						"/>
					</g>
					<g>
						<path fill="#FFFFFF" d="M299.234,349.665c-0.104-0.537-0.241-1.022-0.402-1.459l-6.134,6.136l0.054,1.804L299.234,349.665z"/>
					</g>
					<g>
						<polygon fill="#FFFFFF" points="284.797,357.077 284.797,355.222 278.166,361.857 280.017,361.857 						"/>
					</g>
					<g>
						<path fill="#FFFFFF" d="M299.952,359.471c-0.091-0.472-0.159-1.017-0.201-1.653l-4.042,4.04h1.857L299.952,359.471z"/>
					</g>
					<g>
						<path fill="#FFFFFF" d="M301.214,361.722v-0.155c-0.36-0.187-0.631-0.478-0.842-0.859l-1.15,1.15h1.855L301.214,361.722z"/>
					</g>
					<g>
						<path fill="#FFFFFF" d="M286.467,332.498h1.614c0.082,0,0.146,0.014,0.223,0.016l4.882-4.884
							c-0.525-0.1-1.083-0.159-1.664-0.191L286.467,332.498z"/>
					</g>
					<g>
						<polygon fill="#FFFFFF" points="284.797,336.021 284.797,334.166 277.845,341.117 277.845,342.975 						"/>
					</g>
					<g>
						<path fill="#FFFFFF" d="M289.767,332.709c0.493,0.123,0.937,0.294,1.317,0.535l4.73-4.73
							c-0.406-0.215-0.822-0.418-1.284-0.571L289.767,332.709z"/>
					</g>
					<g>
						<polygon fill="#FFFFFF" points="284.797,339.529 284.797,337.677 277.845,344.63 277.845,346.48 						"/>
					</g>
					<g>
						<polygon fill="#FFFFFF" points="285.392,342.447 284.797,342.447 284.797,341.183 277.845,348.137 277.845,349.991 						"/>
					</g>
					<g>
						<polygon fill="#FFFFFF" points="284.797,350.06 284.797,348.204 277.845,355.156 277.845,357.013 						"/>
					</g>
					<g>
						<path fill="#FFFFFF" d="M288.994,342.354c-0.406,0.056-0.836,0.094-1.304,0.094h-0.643l-9.203,9.198v1.856L288.994,342.354z"
							/>
					</g>
				</g>
				<g>
					<g>
						<path fill="#FFFFFF" d="M289.554,358.887l-0.226-0.324c-0.794-1.134-0.952-2.606-1.004-4.028l-0.193-6.622
							c-0.088-2.492-1.12-3.605-3.346-3.605h-2.959v14.58h-8.471v-35.994h13.605c6.31,0,9.929,3.515,9.929,9.643
							c0,4.127-1.396,6.996-4.07,8.43c3.337,1.374,3.799,4.745,3.877,10.681c0.048,3.364,0.23,5.049,1.137,5.518l0.41,0.212v1.512
							H289.554z M283.961,337.956c3.125,0,4.458-1.317,4.458-4.405c0-2.745-1.293-4.023-4.07-4.023h-2.523v8.429H283.961z"/>
					</g>
					<g>
						<path fill="#F99C1C" d="M286.96,323.651c5.696,0,9.171,2.995,9.171,8.884c0,4.588-1.833,7.679-5.748,8.499v0.097
							c4.733,0.629,5.459,3.236,5.555,10.524c0.052,3.622,0.243,5.507,1.546,6.182v0.291h-7.535
							c-0.676-0.966-0.818-2.27-0.868-3.622l-0.193-6.616c-0.096-2.702-1.302-4.342-4.104-4.342h-3.717v14.58h-6.954v-34.477H286.96
							 M281.067,338.715h2.894c3.333,0,5.216-1.448,5.216-5.164c0-3.188-1.692-4.782-4.828-4.782h-3.282V338.715 M286.96,322.135
							h-12.847h-1.517v1.517v34.477v1.517h1.517h6.954h1.517v-1.517v-13.063h2.2c1.492,0,2.503,0.49,2.588,2.879l0.193,6.606
							c0.057,1.551,0.234,3.153,1.141,4.448l0.453,0.646h0.79h7.535h1.517v-1.517v-0.291v-0.923l-0.82-0.424
							c-0.663-0.344-0.704-3.279-0.727-4.856c-0.068-5.179-0.37-8.869-3.154-10.744c2.183-1.723,3.348-4.578,3.348-8.354
							C297.648,326.022,293.652,322.135,286.96,322.135L286.96,322.135z M282.584,330.285h1.765c2.352,0,3.311,0.946,3.311,3.266
							c0,2.658-1.002,3.647-3.699,3.647h-1.376V330.285L282.584,330.285z"/>
					</g>
				</g>
			</g>
			<g>
				<g opacity="0.5">
					<g>
						<path fill="#FFFFFF" d="M316.977,347.95c0.472,0.19,0.901,0.382,1.283,0.574l5.062-5.062c-0.398-0.205-0.79-0.412-1.244-0.609
							L316.977,347.95z"/>
					</g>
					<g>
						<path fill="#FFFFFF" d="M321.315,352.489l5.896-5.898c-0.242-0.349-0.518-0.688-0.842-1.014l-5.411,5.414
							C321.15,351.429,321.266,351.93,321.315,352.489z"/>
					</g>
					<g>
						<path fill="#FFFFFF" d="M324.478,336.944h1.856l1.148-1.148c-0.01-0.607-0.073-1.167-0.157-1.706L324.478,336.944z"/>
					</g>
					<g>
						<path fill="#FFFFFF" d="M319.627,341.792l-5.196,5.198c0.255,0.096,0.479,0.195,0.749,0.287
							c0.219,0.075,0.394,0.146,0.599,0.219l5.143-5.146L319.627,341.792z"/>
					</g>
					<g>
						<path fill="#FFFFFF" d="M313.229,346.532l5.242-5.242l-1.293-0.559l-5.211,5.212
							C312.373,346.146,312.779,346.346,313.229,346.532z"/>
					</g>
					<g>
						<path fill="#FFFFFF" d="M319.307,349.13c0.398,0.269,0.723,0.556,0.997,0.861l5.175-5.178
							c-0.328-0.259-0.702-0.506-1.101-0.753L319.307,349.13z"/>
					</g>
					<g>
						<path fill="#FFFFFF" d="M318.901,326.825c-0.567-0.063-1.156-0.091-1.756-0.099l-10.94,10.938
							c0.032,0.585,0.092,1.145,0.193,1.664L318.901,326.825z"/>
					</g>
					<g>
						<path fill="#FFFFFF" d="M306.818,351.09l-1.148,1.146v0.255c0,0.529,0.056,1.011,0.102,1.501l2.904-2.902H306.818z"/>
					</g>
					<g>
						<path fill="#FFFFFF" d="M328.607,351.96c0-0.533-0.024-1.041-0.074-1.526l-12.086,12.089c0.063,0,0.117,0.012,0.181,0.012
							c0.623,0,1.19-0.056,1.766-0.104l10.189-10.192C328.587,352.141,328.607,352.062,328.607,351.96z"/>
					</g>
					<g>
						<path fill="#FFFFFF" d="M315.414,326.802c-0.782,0.067-1.519,0.186-2.213,0.358l-6.689,6.691
							c-0.155,0.666-0.246,1.385-0.292,2.145L315.414,326.802z"/>
					</g>
					<g>
						<path fill="#FFFFFF" d="M307.559,331.148l3.004-3.003C309.292,328.865,308.299,329.889,307.559,331.148z"/>
					</g>
					<g>
						<path fill="#FFFFFF" d="M313.338,337.553l-5.363,5.361c0.267,0.341,0.563,0.665,0.888,0.97l5.139-5.137
							C313.69,338.377,313.476,337.982,313.338,337.553z"/>
					</g>
					<g>
						<path fill="#FFFFFF" d="M313.928,356.368c-0.324-0.307-0.585-0.658-0.778-1.078l-4.759,4.756
							c0.32,0.295,0.677,0.558,1.061,0.801L313.928,356.368z"/>
					</g>
					<g>
						<path fill="#FFFFFF" d="M312.186,351.09h-1.856l-4.353,4.351c0.105,0.514,0.215,1.02,0.38,1.478L312.186,351.09z"/>
					</g>
					<g>
						<path fill="#FFFFFF" d="M316.447,357.357c-0.581-0.056-1.103-0.153-1.528-0.328l-4.375,4.374
							c0.426,0.191,0.85,0.378,1.336,0.518L316.447,357.357z"/>
					</g>
					<g>
						<path fill="#FFFFFF" d="M312.779,354.008c-0.096-0.523-0.142-1.091-0.149-1.707l-5.756,5.755
							c0.215,0.398,0.47,0.763,0.744,1.111L312.779,354.008z"/>
					</g>
					<g>
						<path fill="#FFFFFF" d="M327.853,356.479c0.279-0.736,0.466-1.558,0.586-2.439l-8.143,8.142
							c0.941-0.173,1.81-0.424,2.605-0.75L327.853,356.479z"/>
					</g>
					<g>
						<path fill="#FFFFFF" d="M328.295,349.021c-0.117-0.481-0.287-0.936-0.483-1.371l-6.542,6.542
							c-0.353,1.818-1.636,2.83-3.127,3.124l-4.905,4.904c0.521,0.094,1.074,0.159,1.649,0.207L328.295,349.021z"/>
					</g>
					<g>
						<path fill="#FFFFFF" d="M318.731,332.155c0.416,0.191,0.751,0.474,1.037,0.82l4.345-4.341
							c-0.366-0.257-0.736-0.508-1.148-0.709L318.731,332.155z"/>
					</g>
					<g>
						<path fill="#FFFFFF" d="M320.378,334.022c0.169,0.438,0.282,0.943,0.356,1.496l5.152-5.15
							c-0.261-0.358-0.563-0.673-0.878-0.976L320.378,334.022z"/>
					</g>
					<g>
						<path fill="#FFFFFF" d="M320.967,336.944h1.856l4.188-4.188c-0.147-0.476-0.302-0.936-0.507-1.35L320.967,336.944z"/>
					</g>
					<g>
						<path fill="#FFFFFF" d="M315.253,332.128c0.493-0.188,1.085-0.303,1.812-0.303c0.113,0,0.209,0.023,0.314,0.029l4.384-4.384
							c-0.462-0.159-0.951-0.291-1.459-0.398L315.253,332.128z"/>
					</g>
					<g>
						<path fill="#FFFFFF" d="M316.043,340.212c-0.452-0.219-0.854-0.442-1.182-0.673l-5.107,5.111
							c0.343,0.254,0.727,0.493,1.125,0.724L316.043,340.212z"/>
					</g>
					<g>
						<path fill="#FFFFFF" d="M313.117,336.118c-0.004-0.098-0.012-0.186-0.012-0.285c0-0.656,0.1-1.301,0.322-1.883l-6.705,6.709
							c0.155,0.454,0.353,0.874,0.575,1.276L313.117,336.118z"/>
					</g>
				</g>
				<g>
					<g>
						<path fill="#FFFFFF" d="M312.898,359.563c-7.884,0-11.717-3.534-11.717-10.804v-2.16h8.468v1.774
							c0,3.361,1.002,4.553,3.83,4.553c1.565,0,3.393-0.914,3.393-3.49s-1.113-3.591-5.671-5.172
							c-5.889-2.025-9.54-4.598-9.54-11.15c0-6.925,4.167-10.896,11.431-10.896c7.372,0,11.432,3.562,11.432,10.029v1.724h-8.183
							v-0.759c0-3.862-1.607-4.357-3.009-4.357c-2.183,0-3.199,1.031-3.199,3.247c0,1.841,0.449,2.853,3.112,3.984l5.363,2.319
							c5.122,2.23,7.026,4.893,7.026,9.823C325.635,355.644,321.23,359.563,312.898,359.563z"/>
					</g>
					<g>
						<path fill="#F99C1C" d="M313.092,322.977c6.18,0,10.673,2.655,10.673,9.271v0.965H317.1c0-3.233-1.11-5.116-3.768-5.116
							c-3.141,0-3.958,1.978-3.958,4.006c0,2.124,0.627,3.43,3.574,4.683l5.359,2.317c5.215,2.271,6.568,4.928,6.568,9.127
							c0,7.292-4.442,10.576-11.978,10.576c-7.867,0-10.958-3.67-10.958-10.045v-1.401h6.95v1.016c0,3.233,0.917,5.312,4.589,5.312
							c2.126,0,4.151-1.35,4.151-4.249c0-3.139-1.592-4.297-6.182-5.889c-6.182-2.126-9.029-4.688-9.029-10.434
							C302.42,326.403,306.525,322.977,313.092,322.977 M313.092,321.46c-7.632,0-12.189,4.356-12.189,11.654
							c0,6.98,4.019,9.793,10.053,11.868c4.713,1.635,5.158,2.52,5.158,4.454c0,2.535-2.017,2.732-2.635,2.732
							c-2.383,0-3.072-0.852-3.072-3.795v-1.016v-1.517h-1.517h-6.95h-1.517v1.517v1.401c0,7.672,4.198,11.562,12.475,11.562
							c8.702,0,13.494-4.294,13.494-12.093c0-5.226-2.097-8.174-7.479-10.518l-5.362-2.319c-2.537-1.078-2.66-1.911-2.66-3.29
							c0-1.791,0.685-2.489,2.441-2.489c0.786,0,2.251,0,2.251,3.6v1.517h1.517h6.665h1.517v-1.517v-0.965
							C325.281,325.392,320.839,321.46,313.092,321.46L313.092,321.46z"/>
					</g>
				</g>
			</g>
			<g>
				<g opacity="0.5">
					<g>
						<path fill="#FFFFFF" d="M350.489,346.369c-0.014,0.681-0.035,1.318-0.067,1.923l6.985-6.985
							c-0.027-0.6-0.06-1.183-0.105-1.748L350.489,346.369z"/>
					</g>
					<g>
						<path fill="#FFFFFF" d="M349.407,335.264l4.859-4.855c-0.292-0.328-0.608-0.631-0.947-0.907l-4.613,4.608
							C348.98,334.44,349.21,334.834,349.407,335.264z"/>
					</g>
					<g>
						<path fill="#FFFFFF" d="M349.837,336.494c0.127,0.468,0.236,0.979,0.324,1.528l5.503-5.505
							c-0.205-0.414-0.428-0.808-0.675-1.178L349.837,336.494z"/>
					</g>
					<g>
						<path fill="#FFFFFF" d="M350.489,342.856c0.006,0.49,0.021,0.949,0.021,1.475c0,0.126,0,0.239,0,0.364l6.637-6.641
							c-0.069-0.554-0.151-1.089-0.246-1.604L350.489,342.856z"/>
					</g>
					<g>
						<path fill="#FFFFFF" d="M350.349,339.491c0.045,0.55,0.077,1.135,0.105,1.747l6.14-6.142c-0.13-0.493-0.275-0.963-0.44-1.417
							L350.349,339.491z"/>
					</g>
					<g>
						<path fill="#FFFFFF" d="M349.974,352.249l7.483-7.485c0.004-0.213,0.01-0.412,0.01-0.627c0-0.418-0.01-0.818-0.014-1.223
							l-7.158,7.157C350.215,350.881,350.111,351.604,349.974,352.249z"/>
					</g>
					<g>
						<path fill="#FFFFFF" d="M357.173,350.211l-11.646,11.646h0.105c0.648,0,1.256-0.034,1.841-0.088l9.371-9.374
							C356.974,351.705,357.087,350.982,357.173,350.211z"/>
					</g>
					<g>
						<polygon fill="#FFFFFF" points="339.742,327.383 337.888,327.383 334.674,330.595 334.674,332.45 						"/>
					</g>
					<g>
						<path fill="#FFFFFF" d="M341.625,332.518v-0.02h0.021l5.087-5.087c-0.224-0.008-0.431-0.028-0.663-0.028h-1.16l-10.235,10.233
							v1.854L341.625,332.518z"/>
					</g>
					<g>
						<polygon fill="#FFFFFF" points="334.674,328.939 336.231,327.383 334.674,327.383 						"/>
					</g>
					<g>
						<polygon fill="#FFFFFF" points="343.253,327.383 341.398,327.383 334.674,334.105 334.674,335.961 						"/>
					</g>
					<g>
						<path fill="#FFFFFF" d="M357.338,348.394c0.042-0.627,0.073-1.275,0.092-1.948l-8.559,8.56
							c-0.261,0.358-0.557,0.659-0.899,0.897l-5.952,5.955h1.851L357.338,348.394z"/>
					</g>
					<g>
						<polygon fill="#FFFFFF" points="341.625,353.574 341.625,351.719 334.674,358.673 334.674,360.527 						"/>
					</g>
					<g>
						<polygon fill="#FFFFFF" points="341.974,356.738 341.625,356.738 341.625,355.229 334.998,361.857 336.853,361.857 						"/>
					</g>
					<g>
						<path fill="#FFFFFF" d="M354.585,358.167c0.729-0.986,1.294-2.177,1.724-3.578l-6.846,6.847
							c1.293-0.311,2.397-0.805,3.335-1.48L354.585,358.167z"/>
					</g>
					<g>
						<polygon fill="#FFFFFF" points="341.625,350.063 341.625,348.21 334.674,355.162 334.674,357.018 						"/>
					</g>
					<g>
						<path fill="#FFFFFF" d="M346.545,332.765c0.479,0.135,0.913,0.318,1.29,0.565l4.501-4.504
							c-0.388-0.229-0.804-0.433-1.247-0.607L346.545,332.765z"/>
					</g>
					<g>
						<path fill="#FFFFFF" d="M345.516,356.707c-0.256,0.02-0.521,0.031-0.8,0.031h-1.089l-5.118,5.119h1.854L345.516,356.707z"/>
					</g>
					<g>
						<polygon fill="#FFFFFF" points="341.625,336.024 341.625,334.172 334.674,341.123 334.674,342.979 						"/>
					</g>
					<g>
						<path fill="#FFFFFF" d="M343.299,332.498h1.271c0.195,0,0.343,0.046,0.525,0.056l4.737-4.733
							c-0.49-0.123-1.012-0.223-1.564-0.29L343.299,332.498z"/>
					</g>
					<g>
						<polygon fill="#FFFFFF" points="341.625,346.557 341.625,344.702 334.674,351.655 334.674,353.509 						"/>
					</g>
					<g>
						<polygon fill="#FFFFFF" points="341.625,343.046 341.625,341.191 334.674,348.145 334.674,350 						"/>
					</g>
					<g>
						<polygon fill="#FFFFFF" points="341.625,339.535 341.625,337.681 334.674,344.634 334.674,346.489 						"/>
					</g>
				</g>
				<g>
					<g>
						<path fill="#FFFFFF" d="M330.183,358.887v-35.994h12.157c11.215,0,12.154,9.041,12.154,17.515
							c0,11.408-2.107,18.479-12.595,18.479H330.183z M340.986,352.25c3.776,0,5.032-1.684,5.032-11.65
							c0-8.172-0.782-11.072-5.18-11.072h-2.185v22.723H340.986z"/>
					</g>
					<g>
						<path fill="#F99C1C" d="M342.34,323.651c9.654,0,11.396,6.613,11.396,16.756c0,12.216-2.609,17.721-11.836,17.721h-10.958
							v-34.477H342.34 M337.896,353.009h3.091c4.826,0,5.791-3.041,5.791-12.409c0-7.821-0.627-11.831-5.938-11.831h-2.943V353.009
							 M342.34,322.135h-11.398h-1.517v1.517v34.477v1.517h1.517h10.958c11.082,0,13.353-7.69,13.353-19.237
							C355.252,331.566,354.255,322.135,342.34,322.135L342.34,322.135z M339.412,330.285h1.427c3.595,0,4.422,1.928,4.422,10.314
							c0,9.907-1.237,10.893-4.274,10.893h-1.574V330.285L339.412,330.285z"/>
					</g>
				</g>
			</g>
			<g>
				<g opacity="0.5">
					<g>
						<polygon fill="#FFFFFF" points="375.341,335.893 375.67,337.422 380.438,332.649 380.05,331.183 						"/>
					</g>
					<g>
						<polygon fill="#FFFFFF" points="374.288,335.292 374.7,333.369 374.798,333.369 375.049,334.532 379.706,329.875 
							379.317,328.41 366.889,340.837 366.22,343.356 						"/>
					</g>
					<g>
						<polygon fill="#FFFFFF" points="377.206,344.562 377.53,346.087 382.646,340.976 382.257,339.507 						"/>
					</g>
					<g>
						<polygon fill="#FFFFFF" points="376.585,341.673 376.909,343.199 381.911,338.199 381.521,336.735 						"/>
					</g>
					<g>
						<polygon fill="#FFFFFF" points="375.962,338.783 376.293,340.312 381.175,335.428 380.784,333.959 						"/>
					</g>
					<g>
						<polygon fill="#FFFFFF" points="370.71,354.565 372.561,354.565 383.378,343.75 382.989,342.283 377.823,347.448 
							378.13,348.869 376.406,348.869 						"/>
					</g>
					<g>
						<polygon fill="#FFFFFF" points="372.896,348.869 361.838,359.927 361.324,361.857 361.758,361.857 374.75,348.869 						"/>
					</g>
					<g>
						<polygon fill="#FFFFFF" points="384.46,347.834 377.731,354.565 379.332,354.565 379.377,354.772 384.851,349.299 						"/>
					</g>
					<g>
						<polygon fill="#FFFFFF" points="370.01,329.041 371.669,327.383 370.449,327.383 						"/>
					</g>
					<g>
						<polygon fill="#FFFFFF" points="375.18,327.383 373.325,327.383 369.416,331.292 368.748,333.815 						"/>
					</g>
					<g>
						<polygon fill="#FFFFFF" points="378.687,327.383 376.836,327.383 368.15,336.064 367.488,338.584 						"/>
					</g>
					<g>
						<polygon fill="#FFFFFF" points="387.054,357.626 386.663,356.159 380.964,361.857 382.82,361.857 						"/>
					</g>
					<g>
						<polygon fill="#FFFFFF" points="386.317,354.852 385.929,353.383 380.305,359.007 380.639,360.527 						"/>
					</g>
					<g>
						<polygon fill="#FFFFFF" points="385.585,352.073 385.196,350.608 379.674,356.13 380.008,357.648 						"/>
					</g>
					<g>
						<polygon fill="#FFFFFF" points="388.137,361.708 387.985,361.857 388.172,361.857 						"/>
					</g>
					<g>
						<polygon fill="#FFFFFF" points="387.79,360.4 387.4,358.934 384.475,361.857 386.331,361.857 						"/>
					</g>
					<g>
						<polygon fill="#FFFFFF" points="373.329,339.762 373.837,337.397 365.627,345.609 364.958,348.133 						"/>
					</g>
					<g>
						<polygon fill="#FFFFFF" points="383.726,345.058 374.221,354.565 376.071,354.565 384.114,346.524 						"/>
					</g>
					<g>
						<polygon fill="#FFFFFF" points="372.366,344.236 372.871,341.872 364.365,350.382 363.692,352.905 						"/>
					</g>
					<g>
						<polygon fill="#FFFFFF" points="371.404,348.706 371.912,346.344 363.1,355.158 362.431,357.678 						"/>
					</g>
					<g>
						<polygon fill="#FFFFFF" points="369.494,357.638 370.01,355.262 363.414,361.857 365.269,361.857 						"/>
					</g>
					<g>
						<polygon fill="#FFFFFF" points="369.032,359.756 366.925,361.857 368.57,361.857 						"/>
					</g>
				</g>
				<g>
					<g>
						<path fill="#FFFFFF" d="M376.592,358.887l-1.601-7.292h-7.949l-1.59,7.292h-8.843l9.526-35.994h9.762l9.53,35.994H376.592z
							 M373.461,344.381l-2.442-11.356l-2.443,11.356H373.461z"/>
					</g>
					<g>
						<path fill="#F99C1C" d="M375.313,323.651l9.129,34.477h-7.24l-1.601-7.292h-9.171l-1.59,7.292h-7.246l9.125-34.477H375.313
							 M367.637,345.14h6.763l-3.333-15.5h-0.096L367.637,345.14 M376.481,322.135h-1.168h-8.594h-1.168l-0.299,1.129l-9.125,34.477
							l-0.504,1.904h1.971h7.246h1.222l0.261-1.193l1.329-6.099h6.729l1.339,6.101l0.262,1.191h1.22h7.24h1.971l-0.504-1.905
							l-9.129-34.477L376.481,322.135L376.481,322.135z M369.515,343.623l1.504-6.991l1.503,6.991H369.515L369.515,343.623z"/>
					</g>
				</g>
			</g>
			<g>
				<g opacity="0.5">
					<g>
						<polygon fill="#FFFFFF" points="396.831,330.639 396.359,329.254 390.994,334.619 391.548,335.921 						"/>
					</g>
					<g>
						<polygon fill="#FFFFFF" points="405.146,327.486 404.092,330.4 407.109,327.383 405.252,327.383 						"/>
					</g>
					<g>
						<polygon fill="#FFFFFF" points="397.723,333.256 397.251,331.873 392.045,337.079 392.599,338.381 						"/>
					</g>
					<g>
						<polygon fill="#FFFFFF" points="403.785,353.415 396.831,360.368 396.831,361.857 397.197,361.857 403.785,355.27 						"/>
					</g>
					<g>
						<polygon fill="#FFFFFF" points="410.613,327.383 408.763,327.383 403.154,332.993 402.098,335.897 						"/>
					</g>
					<g>
						<polygon fill="#FFFFFF" points="387.899,327.383 388.396,328.545 389.558,327.383 						"/>
					</g>
					<g>
						<polygon fill="#FFFFFF" points="393.07,327.383 391.213,327.383 388.891,329.703 389.448,331.003 						"/>
					</g>
					<g>
						<polygon fill="#FFFFFF" points="395.939,328.02 395.721,327.383 394.724,327.383 389.941,332.163 390.494,333.461 						"/>
					</g>
					<g>
						<polygon fill="#FFFFFF" points="406.433,342.099 407.817,338.858 396.831,349.841 396.831,351.695 						"/>
					</g>
					<g>
						<polygon fill="#FFFFFF" points="403.812,348.225 405.196,344.988 396.831,353.352 396.831,355.206 						"/>
					</g>
					<g>
						<polygon fill="#FFFFFF" points="403.785,351.759 403.785,349.906 396.831,356.86 396.831,358.713 						"/>
					</g>
					<g>
						<polygon fill="#FFFFFF" points="403.785,358.78 403.785,356.926 398.852,361.857 400.708,361.857 						"/>
					</g>
					<g>
						<polygon fill="#FFFFFF" points="398.614,335.875 398.143,334.49 393.092,339.539 393.649,340.841 						"/>
					</g>
					<g>
						<polygon fill="#FFFFFF" points="403.785,360.437 402.362,361.857 403.785,361.857 						"/>
					</g>
					<g>
						<polygon fill="#FFFFFF" points="409.052,335.969 410.437,332.729 396.246,346.915 396.8,348.217 						"/>
					</g>
					<g>
						<polygon fill="#FFFFFF" points="399.506,338.492 399.034,337.111 394.143,341.999 394.702,343.299 						"/>
					</g>
					<g>
						<polygon fill="#FFFFFF" points="411.671,329.839 412.717,327.383 412.27,327.383 401.16,338.492 400.356,340.707 
							400.261,340.707 399.926,339.727 395.195,344.457 395.753,345.757 						"/>
					</g>
				</g>
				<g>
					<g>
						<polygon fill="#FFFFFF" points="392.343,358.887 392.343,344.714 383.02,322.893 392.532,322.893 396.599,334.827 
							400.921,322.893 410.136,322.893 400.812,344.714 400.812,358.887 						"/>
					</g>
					<g>
						<path fill="#F99C1C" d="M408.987,323.651l-8.934,20.907v13.569h-6.952v-13.569l-8.934-20.907h7.821l4.54,13.324h0.098
							l4.826-13.324H408.987 M411.285,322.135h-2.298h-7.534h-1.063l-0.362,1l-3.407,9.405l-3.195-9.378l-0.35-1.027h-1.086h-7.821
							h-2.298l0.903,2.112l8.812,20.622v13.259v1.517h1.517h6.952h1.517v-1.517v-13.259l8.812-20.622L411.285,322.135
							L411.285,322.135z"/>
					</g>
				</g>
			</g>
		</g>
	</g>
</g>
</svg>
