<svg xmlns="http://www.w3.org/2000/svg" xmlns:xlink="http://www.w3.org/1999/xlink" version="1.1" x="0px" y="0px" width="200px" height="200px" viewBox="0 0 200 200" enable-background="new 0 0 200 200" xml:space="preserve"><g><g><circle fill="none" stroke="#FFFFFF" stroke-width="0.5561" stroke-miterlimit="10" cx="100" cy="81" r="50"/><g><g><line fill="none" stroke="#FFFFFF" stroke-width="0.5478" stroke-miterlimit="10" x1="88.7" y1="59.7" x2="107.7" y2="102.3"/><g><polygon fill="#FFFFFF" points="63.4,87.9 85.8,77.9 81,67 58.5,77 67,79.7"/></g><g><rect x="71.8" y="63.8" transform="matrix(0.9133 -0.4073 0.4073 0.9133 -21.4231 38.939)" fill="#FFFFFF" width="17.9" height="12"/></g><polygon fill="#D1D3D4" points="75,78.9 85.8,77.9 84.4,74.7"/></g><g><line fill="none" stroke="#FFFFFF" stroke-width="0.5478" stroke-miterlimit="10" x1="111.3" y1="59.7" x2="92.3" y2="102.3"/><g><polygon fill="#FFFFFF" points="136.6,87.9 114.2,77.9 119,67 141.5,77 133,79.7"/></g><g><rect x="110.3" y="63.8" transform="matrix(-0.9133 -0.4073 0.4073 -0.9133 199.7465 182.0919)" fill="#FFFFFF" width="17.9" height="12"/></g><polygon fill="#D1D3D4" points="125,78.9 114.2,77.9 115.6,74.7"/></g></g></g><g><path fill="#FFFFFF" stroke="#FFFFFF" stroke-width="0.9094" d="M24.55 150.94h6.94c0.41 0 0.8 0 1.3 0 c0.44 0 0.9 0.1 1.3 0.18c0.44 0.1 0.9 0.3 1.3 0.47c0.42 0.2 0.8 0.5 1.2 0.88c0.36 0.4 0.7 0.9 0.9 1.5 c0.23 0.6 0.3 1.2 0.3 1.93c0 0.77-0.12 1.41-0.35 1.91c-0.23 0.5-0.51 0.91-0.84 1.23c-0.33 0.32-0.67 0.56-1.04 0.7 c-0.36 0.16-0.68 0.29-0.94 0.39l3.56 6.16H33.9l-3.07-5.5H28.4v5.5h-3.84L24.55 150.94z M28.39 153.82v4.17h3.2 c0.13 0 0.33-0.02 0.59-0.04c0.26-0.03 0.52-0.11 0.78-0.25c0.25-0.14 0.48-0.35 0.67-0.63c0.19-0.29 0.29-0.68 0.29-1.19 c0-0.5-0.08-0.88-0.23-1.15c-0.15-0.27-0.35-0.47-0.58-0.6s-0.48-0.21-0.73-0.25c-0.26-0.04-0.49-0.05-0.69-0.05H28.39 L28.39 153.82z"/><path fill="#FFFFFF" stroke="#FFFFFF" stroke-width="0.9094" d="M43.91 150.94v15.41h-3.84v-15.41H43.91z"/><path fill="#FFFFFF" stroke="#FFFFFF" stroke-width="0.9094" d="M55.98 150.94h4.1l-5.35 15.41h-3.93l-5.28-15.41h4.1l3.19 11 L55.98 150.94z"/><path fill="#FFFFFF" stroke="#FFFFFF" stroke-width="0.9094" d="M62.27 150.94h11.39v3.01h-7.55v2.77l7.05 0v2.93h-7.05v3.69h8.23 v3.01H62.27V150.94z"/><path fill="#FFFFFF" stroke="#FFFFFF" stroke-width="0.9094" d="M76.48 150.94l6.94 0c0.41 0 0.8 0 1.3 0 c0.44 0 0.9 0.1 1.3 0.19s0.86 0.3 1.3 0.47c0.42 0.2 0.8 0.5 1.2 0.88c0.36 0.4 0.7 0.9 0.9 1.5 c0.23 0.6 0.3 1.2 0.3 1.93c0 0.77-0.12 1.41-0.35 1.91c-0.23 0.5-0.51 0.91-0.84 1.23s-0.67 0.56-1.04 0.7 c-0.36 0.16-0.68 0.29-0.94 0.39l3.56 6.15h-4.26l-3.07-5.5h-2.43v5.5h-3.84V150.94z M80.32 153.81v4.17h3.2 c0.13 0 0.33-0.01 0.59-0.04c0.26-0.03 0.52-0.11 0.78-0.25c0.25-0.14 0.48-0.35 0.67-0.63c0.19-0.28 0.28-0.68 0.28-1.19 c0-0.49-0.08-0.88-0.23-1.15c-0.15-0.27-0.35-0.47-0.58-0.6c-0.23-0.13-0.48-0.21-0.73-0.25c-0.26-0.04-0.49-0.05-0.69-0.05H80.32 L80.32 153.81z"/><path fill="#FFFFFF" stroke="#FFFFFF" stroke-width="0.9094" d="M102.96 150.93c0.23 0.8 0.5 1.7 0.7 2.5 c0.23 0.8 0.5 1.7 0.7 2.49c0.22 0.7 0.4 1.4 0.5 1.83c0.13 0.5 0.2 0.9 0.3 1.38s0.2 0.9 0.3 1.4 c0.09 0.5 0.2 1.1 0.3 1.85c0.12-0.76 0.21-1.39 0.29-1.89c0.08-0.5 0.16-0.98 0.25-1.44c0.09-0.46 0.19-0.94 0.29-1.45 c0.11-0.51 0.25-1.16 0.43-1.94c0.16-0.79 0.33-1.57 0.5-2.35c0.17-0.78 0.34-1.56 0.5-2.35h3.82l-3.91 15.41h-3.97 c-0.25-0.86-0.49-1.71-0.72-2.55c-0.23-0.84-0.48-1.69-0.72-2.53c-0.21-0.71-0.37-1.28-0.49-1.69c-0.12-0.41-0.23-0.79-0.32-1.11 c-0.09-0.33-0.17-0.66-0.24-0.99c-0.07-0.33-0.17-0.77-0.28-1.31c-0.1 0.48-0.19 0.87-0.25 1.17c-0.07 0.3-0.14 0.61-0.23 0.9 c-0.09 0.33-0.19 0.71-0.32 1.13c-0.12 0.43-0.29 1.02-0.51 1.76l-1.48 5.19h-3.97l-3.91-15.41h3.84 c0.28 1.2 0.5 2.3 0.7 3.15c0.2 0.9 0.4 1.7 0.5 2.33s0.27 1.2 0.4 1.75c0.1 0.5 0.2 1 0.3 1.4 c0.08 0.4 0.1 0.9 0.2 1.33c0.07 0.4 0.1 0.9 0.2 1.5c0.15-0.76 0.27-1.39 0.37-1.9s0.2-0.99 0.31-1.45 s0.22-0.94 0.35-1.44c0.13-0.5 0.3-1.14 0.5-1.91l1.27-4.76H102.96L102.96 150.93z"/><path fill="#FFFFFF" stroke="#FFFFFF" stroke-width="0.9094" d="M124.96 165.16c-0.76 0.62-1.55 1.05-2.39 1.3 c-0.84 0.23-1.65 0.34-2.46 0.34c-1.22 0-2.31-0.22-3.26-0.65s-1.75-1.03-2.4-1.78c-0.65-0.75-1.14-1.62-1.48-2.61 c-0.34-0.99-0.51-2.04-0.51-3.17c0-1.05 0.16-2.06 0.49-3.03c0.33-0.97 0.81-1.84 1.45-2.59c0.64-0.75 1.43-1.35 2.38-1.81 c0.95-0.46 2.04-0.69 3.27-0.69c0.47 0 0.9 0 1.4 0.11c0.47 0.1 0.9 0.2 1.4 0.35c0.78 0.3 1.4 0.6 2 1.1 c0.55 0.4 1 0.9 1.4 1.44c0.37 0.5 0.7 1.1 0.9 1.6c0.22 0.6 0.4 1.1 0.5 1.56c0.11 0.5 0.2 0.9 0.2 1.3 c0.03 0.4 0 0.7 0 0.83c0 0.67-0.07 1.32-0.22 1.94c-0.15 0.62-0.35 1.21-0.61 1.77c-0.26 0.55-0.57 1.06-0.93 1.5 C125.77 164.4 125.4 164.8 125 165.16z M124.04 158.98c0.03-0.81-0.06-1.6-0.27-2.36s-0.54-1.37-0.97-1.83 c-0.34-0.35-0.74-0.63-1.21-0.83c-0.47-0.2-0.97-0.31-1.5-0.31c-0.58 0-1.11 0.12-1.59 0.36c-0.47 0.24-0.88 0.58-1.2 1 c-0.33 0.44-0.58 0.95-0.77 1.54c-0.18 0.59-0.27 1.23-0.27 1.93c0 0.9 0.1 1.7 0.3 2.33c0.23 0.6 0.5 1.2 0.9 1.6 c0.37 0.4 0.8 0.7 1.2 0.86c0.46 0.2 0.9 0.3 1.4 0.27c0.45 0 0.91-0.08 1.37-0.25c0.46-0.17 0.87-0.44 1.24-0.81 s0.67-0.84 0.91-1.41C123.88 160.5 124 159.8 124 158.98z"/><path fill="#FFFFFF" stroke="#FFFFFF" stroke-width="0.9094" d="M130.13 150.93h6.94c0.41 0 0.8 0 1.3 0 c0.44 0 0.9 0.1 1.3 0.19c0.44 0.1 0.9 0.3 1.3 0.47c0.42 0.2 0.8 0.5 1.2 0.88c0.36 0.4 0.7 0.9 0.9 1.5 c0.23 0.6 0.3 1.2 0.3 1.93c0 0.77-0.12 1.41-0.35 1.91c-0.23 0.5-0.51 0.91-0.84 1.23c-0.33 0.32-0.67 0.56-1.04 0.7 c-0.36 0.16-0.68 0.29-0.94 0.39l3.56 6.15h-4.26l-3.07-5.5h-2.43l0 5.5h-3.84L130.13 150.93L130.13 150.93z M133.97 153.81v4.17 h3.2c0.13 0 0.33-0.01 0.59-0.04c0.26-0.03 0.52-0.11 0.78-0.25c0.26-0.14 0.48-0.35 0.67-0.63s0.29-0.68 0.29-1.19 c0-0.5-0.08-0.88-0.23-1.15c-0.15-0.27-0.35-0.47-0.58-0.6c-0.23-0.13-0.48-0.22-0.73-0.25c-0.26-0.04-0.49-0.06-0.69-0.06 L133.97 153.81z"/><path fill="#FFFFFF" stroke="#FFFFFF" stroke-width="0.9094" d="M145.63 150.93h3.67v6.29l5.76-6.29l4.63 0l-5.46 5.72l5.9 9.7 h-4.34l-4.12-6.99l-2.36 2.47v4.52h-3.67L145.63 150.93z"/><path fill="#FFFFFF" stroke="#FFFFFF" stroke-width="0.9094" d="M163.13 161.73c0.2 0.2 0.4 0.4 0.6 0.6 c0.2 0.2 0.5 0.4 0.9 0.59c0.51 0.3 1 0.5 1.5 0.58c0.51 0.1 1 0.2 1.4 0.16c0.38 0 0.74-0.04 1.08-0.13 c0.34-0.09 0.64-0.21 0.9-0.36c0.26-0.15 0.47-0.34 0.62-0.57c0.15-0.23 0.23-0.47 0.23-0.73c0-0.31-0.09-0.55-0.26-0.74 c-0.18-0.19-0.39-0.34-0.65-0.45c-0.26-0.11-0.55-0.19-0.87-0.24c-0.32-0.05-0.62-0.1-0.89-0.14c-0.42-0.06-0.84-0.12-1.26-0.18 c-0.42-0.06-0.84-0.13-1.26-0.22c-0.16-0.03-0.37-0.08-0.63-0.14c-0.26-0.07-0.54-0.16-0.85-0.29c-0.3-0.13-0.62-0.29-0.94-0.49 c-0.32-0.2-0.61-0.44-0.86-0.74c-0.26-0.3-0.46-0.66-0.62-1.07c-0.16-0.42-0.24-0.9-0.24-1.45c0-0.99 0.2-1.82 0.59-2.48 c0.39-0.66 0.89-1.19 1.51-1.59c0.61-0.39 1.28-0.67 2.01-0.84c0.73-0.17 1.43-0.25 2.1-0.25c0.89 0 1.7 0.1 2.4 0.3 c0.7 0.2 1.3 0.4 1.9 0.72c0.54 0.3 1 0.6 1.4 0.94c0.42 0.3 0.8 0.7 1.1 0.96l-2.84 2 c-0.25-0.25-0.49-0.47-0.72-0.68c-0.23-0.21-0.5-0.39-0.81-0.57c-0.28-0.16-0.64-0.31-1.09-0.46c-0.45-0.15-0.92-0.22-1.42-0.22 c-0.38 0-0.71 0.05-1 0.15c-0.29 0.1-0.53 0.23-0.72 0.38c-0.19 0.15-0.33 0.32-0.43 0.51c-0.1 0.19-0.14 0.38-0.14 0.6 c0 0.3 0.1 0.5 0.2 0.71c0.14 0.2 0.3 0.3 0.5 0.43c0.2 0.1 0.4 0.2 0.6 0.22c0.22 0 0.4 0.1 0.6 0.1 c0.41 0 0.8 0.1 1.3 0.17c0.46 0.1 0.9 0.1 1.3 0.24c0.44 0.1 0.8 0.2 1.2 0.26c0.36 0.1 0.7 0.2 0.9 0.2 c0.89 0.3 1.6 0.8 2 1.49s0.67 1.4 0.7 2.3c0 0.55-0.1 1.12-0.31 1.7c-0.21 0.58-0.51 1.11-0.92 1.6 c-0.35 0.41-0.75 0.74-1.2 1.01c-0.45 0.26-0.92 0.47-1.43 0.63c-0.5 0.16-1.02 0.27-1.56 0.34c-0.54 0.06-1.08 0.1-1.62 0.1 c-1.09 0-2.02-0.11-2.8-0.32c-0.78-0.22-1.44-0.48-1.99-0.8c-0.54-0.32-1-0.66-1.35-1.02s-0.65-0.68-0.88-0.95L163.13 161.73z"/><path fill="#FFFFFF" d="M89.52 181.35h-1.67l-2.74-10.1h-0.03l-2.78 10.1h-1.67l-3.08-12.02h1.6l2.39 10h0.03l2.69-10H86l2.66 10 h0.03l2.44-10h1.6L89.52 181.35z"/><path fill="#FFFFFF" d="M93.6 169.33h8.3v1.35h-6.7v3.82h6.24v1.35H95.2V180h6.75v1.35H93.6L93.6 169.33z"/><path fill="#FFFFFF" d="M103.48 169.33h8.3v1.35h-6.7v3.82h6.24v1.35h-6.24V180h6.75v1.35h-8.35V169.33z"/><path fill="#FFFFFF" d="M112.93 169.33h1.6v5.99l6.09-5.99h2.07l-5.06 4.85l5.27 7.17l-2.02 0l-4.34-6.08l-2 1.87v4.21h-1.6 V169.33z"/></g></g></svg>