<svg xmlns="http://www.w3.org/2000/svg" xmlns:xlink="http://www.w3.org/1999/xlink" version="1.1" x="0px" y="0px" width="122.02px" height="29px" viewBox="0 0 122.02 29" enable-background="new 0 0 122.02 29" xml:space="preserve"><g><g><g opacity="0.5"><g><g><polygon fill="#6ABC45" points="114.1,18.5 114.2,19.2 117.2,16.2 117,15.6"/></g><g><polygon fill="#6ABC45" points="113.3,14.9 113.4,15.5 116.3,12.7 116.1,12.1"/></g><g><polygon fill="#6ABC45" points="110.4,23.7 111.2,23.7 114.4,20.4 113.7,20.4"/></g><g><polygon fill="#6ABC45" points="114.3,19.7 114.5,20.4 117.5,17.4 117.3,16.7"/></g><g><polygon fill="#6ABC45" points="113.8,17.3 114,17.9 116.9,15 116.7,14.4"/></g><g><polygon fill="#6ABC45" points="117.8,18.5 117.6,17.9 111.8,23.7 112.6,23.7"/></g><g><polygon fill="#6ABC45" points="113.6,16.1 113.7,16.7 116.6,13.9 116.4,13.2"/></g><g><polygon fill="#6ABC45" points="112.2,20.4 104.8,27.8 104.8,27.9 105.5,27.9 113,20.4"/></g><g><polygon fill="#6ABC45" points="112.1,8 111.4,8 109.6,9.8 109.3,10.8"/></g><g><polygon fill="#6ABC45" points="113,13.7 113.2,14.3 116,11.5 115.8,10.9"/></g><g><polygon fill="#6ABC45" points="118.3,20.2 114.8,23.7 115.2,23.7 115.3,24 118.4,20.8"/></g><g><polygon fill="#6ABC45" points="112.4,12.2 112.5,11.5 112.6,11.5 112.7,11.9 115.3,9.2 115.2,8.6 108,15.8 107.7,16.8"/></g><g><polygon fill="#6ABC45" points="115,8.1 115,8 114.3,8 108.5,13.8 108.3,14.8"/></g><g><polygon fill="#6ABC45" points="113.6,8 112.8,8 109.1,11.8 108.8,12.8"/></g><g><polygon fill="#6ABC45" points="109.8,8.8 110.7,8 110.1,8"/></g><g><polygon fill="#6ABC45" points="112,14.1 112.2,13.1 107.5,17.8 107.2,18.8"/></g><g><polygon fill="#6ABC45" points="119,23.2 118.9,22.6 115.7,25.8 115.8,26.4"/></g><g><polygon fill="#6ABC45" points="119.3,24.3 119.2,23.7 115.9,27 116,27.6"/></g><g><polygon fill="#6ABC45" points="118.1,19.7 118,19.1 113.3,23.7 114.1,23.7"/></g><g><polygon fill="#6ABC45" points="118.7,22 118.6,21.4 115.4,24.6 115.5,25.2"/></g><g><polygon fill="#6ABC45" points="119.7,25.5 119.5,24.9 116.5,27.9 117.2,27.9"/></g><g><polygon fill="#6ABC45" points="112.8,12.5 112.9,13.1 115.7,10.4 115.5,9.8"/></g><g><polygon fill="#6ABC45" points="120,26.7 119.8,26 117.9,27.9 118.7,27.9"/></g><g><polygon fill="#6ABC45" points="120.3,27.8 120.1,27.2 119.4,27.9 120.2,27.9"/></g><g><polygon fill="#6ABC45" points="111.2,17.8 111.4,16.8 106.4,21.8 106.1,22.8"/></g><g><polygon fill="#6ABC45" points="110.8,19.7 111,18.7 105.9,23.8 105.6,24.8"/></g><g><polygon fill="#6ABC45" points="109.1,27.2 109.3,26.2 107.6,27.9 108.4,27.9"/></g><g><polygon fill="#6ABC45" points="111.5,15.9 111.8,15 107,19.8 106.7,20.8"/></g><g><polygon fill="#6ABC45" points="109.5,25.3 109.8,24.3 106.2,27.9 107,27.9"/></g><g><polygon fill="#6ABC45" points="111.5,20.4 110.7,20.4 105.4,25.8 105.1,26.8"/></g></g><g><g><path fill="#6ABC45" d="M97.56 11.51c0.15 0.1 0.3 0.2 0.4 0.38l2.66-2.66c-0.14-0.12-0.29-0.22-0.45-0.32L97.56 11.51z"/></g><g><path fill="#6ABC45" d="M99 17.43c0 0.1 0 0.2 0 0.36c0 0.1 0 0.3 0 0.42l3.85-3.85c-0.03-0.23-0.05-0.47-0.09-0.69 L99 17.43z"/></g><g><path fill="#6ABC45" d="M98.97 15.99c0.01 0.2 0 0.5 0 0.76l3.66-3.66c-0.04-0.22-0.09-0.43-0.15-0.63L98.97 15.99z"/></g><g><path fill="#6ABC45" d="M103 18.62c0.01-0.26 0.01-0.52 0.01-0.79l-4.27 4.27c-0.07 0.4-0.16 0.75-0.27 1.05L103 18.62z"/></g><g><path fill="#6ABC45" d="M98.25 12.29c0.09 0.2 0.2 0.3 0.2 0.54l2.87-2.87c-0.12-0.14-0.23-0.28-0.36-0.42L98.25 12.29z"/></g><g><path fill="#6ABC45" d="M98.65 13.36c0.05 0.2 0.1 0.4 0.1 0.64l3.13-3.13c-0.09-0.17-0.18-0.33-0.29-0.49L98.65 13.36z"/></g><g><path fill="#6ABC45" d="M98.87 14.61c0.02 0.2 0.1 0.5 0.1 0.71l3.42-3.42c-0.06-0.2-0.13-0.39-0.21-0.57L98.87 14.61z"/></g><g><path fill="#6ABC45" d="M98.99 18.91c-0.01 0.28-0.01 0.54-0.02 0.8l4-4c-0.02-0.25-0.03-0.49-0.05-0.73L98.99 18.91z"/></g><g><polygon fill="#6ABC45" points="89.9,8.2 90.1,8 89.9,8"/></g><g><polygon fill="#6ABC45" points="91.5,8 90.8,8 89.9,8.9 89.9,9.7"/></g><g><path fill="#6ABC45" d="M102.87 20.91l-6.99 6.99h0.31c0.17 0 0.33-0.01 0.49-0.02l6.08-6.08 C102.8 21.5 102.8 21.2 102.9 20.91z"/></g><g><polygon fill="#6ABC45" points="94.5,8 93.7,8 89.9,11.9 89.9,12.6"/></g><g><polygon fill="#6ABC45" points="93,8 92.2,8 89.9,10.4 89.9,11.2"/></g><g><path fill="#6ABC45" d="M93.87 11.56v-0.6h0.6l2.91-2.91c-0.24-0.02-0.49-0.03-0.75-0.03l-6.78 6.78v0.78L93.87 11.56z"/></g><g><path fill="#6ABC45" d="M98.93 20.44c-0.02 0.3-0.04 0.58-0.08 0.85l4.15-4.15c0-0.26-0.01-0.51-0.02-0.76L98.93 20.44z"/></g><g><polygon fill="#6ABC45" points="96,8 95.2,8 89.9,13.3 89.9,14.1"/></g><g><path fill="#6ABC45" d="M96.81 24.8c-0.27 0.08-0.57 0.12-0.91 0.13l-2.96 2.97h0.78L96.81 24.8z"/></g><g><polygon fill="#6ABC45" points="93.9,24.8 93.9,24 90,27.9 90.8,27.9"/></g><g><path fill="#6ABC45" d="M96.54 11.06c0.21 0.1 0.4 0.1 0.6 0.19l2.6-2.6c-0.17-0.08-0.35-0.16-0.55-0.23L96.54 11.06z"/></g><g><polygon fill="#6ABC45" points="93.9,23.3 93.9,22.6 89.9,26.6 89.9,27.4"/></g><g><polygon fill="#6ABC45" points="95.2,24.9 94.4,24.9 91.5,27.9 92.2,27.9"/></g><g><path fill="#6ABC45" d="M101.94 24.78l-2.56 2.57C100.55 26.8 101.4 26 101.9 24.78z"/></g><g><path fill="#6ABC45" d="M102.35 23.68c0.1-0.33 0.18-0.67 0.26-1.04l-5.19 5.19c0.33-0.04 0.64-0.09 0.94-0.16L102.35 23.68z"/></g><g><path fill="#6ABC45" d="M102.93 20.15c0.02-0.26 0.03-0.54 0.04-0.82L94.4 27.9h0.78L102.93 20.15z"/></g><g><polygon fill="#6ABC45" points="93.9,21.9 93.9,21.1 89.9,25.1 89.9,25.9"/></g><g><polygon fill="#6ABC45" points="93.9,20.4 93.9,19.6 89.9,23.6 89.9,24.4"/></g><g><path fill="#6ABC45" d="M95.17 10.96h0.4c0.13 0 0.2 0 0.4 0.02l2.71-2.71c-0.2-0.05-0.42-0.1-0.64-0.13L95.17 10.96z"/></g><g><polygon fill="#6ABC45" points="93.9,14.5 93.9,13.7 89.9,17.7 89.9,18.5"/></g><g><polygon fill="#6ABC45" points="93.9,13 93.9,12.3 89.9,16.3 89.9,17.1"/></g><g><polygon fill="#6ABC45" points="93.9,16 93.9,15.2 89.9,19.2 89.9,20"/></g><g><polygon fill="#6ABC45" points="93.9,18.9 93.9,18.1 89.9,22.1 89.9,22.9"/></g><g><polygon fill="#6ABC45" points="93.9,17.4 93.9,16.7 89.9,20.7 89.9,21.5"/></g></g><g><g><polygon fill="#6ABC45" points="80.7,17.4 80.5,16.8 78.3,19 78.5,19.6"/></g><g><polygon fill="#6ABC45" points="80,15.2 79.8,14.6 77.5,16.8 77.7,17.4"/></g><g><polygon fill="#6ABC45" points="81.1,18.4 80.9,17.9 78.7,20.1 78.9,20.7"/></g><g><polygon fill="#6ABC45" points="80.3,16.3 80.1,15.7 77.9,17.9 78.1,18.5"/></g><g><polygon fill="#6ABC45" points="86,18 86,17.2 82.3,20.9 82.3,21.6 82.2,21.6 82.1,21.1 79.8,23.4 80,23.9"/></g><g><polygon fill="#6ABC45" points="82.3,19.4 82.3,20.2 86,16.5 86,15.7"/></g><g><polygon fill="#6ABC45" points="82.3,16.5 82.3,17.2 86,13.6 86,12.8"/></g><g><polygon fill="#6ABC45" points="76.8,14.7 77,15.2 79.2,13 79,12.4"/></g><g><polygon fill="#6ABC45" points="81.9,20.6 81.7,20 79.4,22.3 79.6,22.9"/></g><g><polygon fill="#6ABC45" points="82.3,17.9 82.3,18.7 86,15 86,14.3"/></g><g><polygon fill="#6ABC45" points="75.4,8 74.6,8 72.8,9.8 72.8,10.6"/></g><g><polygon fill="#6ABC45" points="79.6,14.1 79.4,13.5 77.1,15.8 77.3,16.3"/></g><g><polygon fill="#6ABC45" points="76.5,23.8 72.8,27.5 72.8,27.9 73.1,27.9 76.5,24.6"/></g><g><polygon fill="#6ABC45" points="86,23.1 81.3,27.7 81.4,27.9 81.9,27.9 86,23.9"/></g><g><polygon fill="#6ABC45" points="76.8,8 76.1,8 72.8,11.3 72.8,12.1"/></g><g><polygon fill="#6ABC45" points="73.9,8 73.1,8 72.8,8.3 72.8,9.1"/></g><g><polygon fill="#6ABC45" points="77.6,8.7 77.4,8.1 72.8,12.8 72.8,13.5"/></g><g><polygon fill="#6ABC45" points="78.4,10.8 78.2,10.3 72.8,15.7 72.8,16.5"/></g><g><polygon fill="#6ABC45" points="76.5,14.3 76.5,14 76.5,14 76.6,14.2 78.8,11.9 78.6,11.4 72.8,17.2 72.8,17.9"/></g><g><polygon fill="#6ABC45" points="78,9.8 77.8,9.2 72.8,14.2 72.8,15"/></g><g><polygon fill="#6ABC45" points="81.5,19.5 81.3,18.9 79,21.2 79.2,21.8"/></g><g><polygon fill="#6ABC45" points="86,19.4 86,18.7 80.2,24.5 80.4,25"/></g><g><polygon fill="#6ABC45" points="86,20.9 86,20.1 80.6,25.6 80.8,26.1"/></g><g><polygon fill="#6ABC45" points="76.5,27.5 76.5,26.7 75.3,27.9 76.1,27.9"/></g><g><polygon fill="#6ABC45" points="76.5,23.1 76.5,22.3 72.8,26 72.8,26.8"/></g><g><polygon fill="#6ABC45" points="76.5,26 76.5,25.3 73.8,27.9 74.6,27.9"/></g><g><polygon fill="#6ABC45" points="86,26.8 86,26 84.1,27.9 84.9,27.9"/></g><g><polygon fill="#6ABC45" points="86,27.5 85.6,27.9 86,27.9"/></g><g><polygon fill="#6ABC45" points="76.5,21.6 76.5,20.9 72.8,24.5 72.8,25.3"/></g><g><polygon fill="#6ABC45" points="86,22.4 86,21.6 81,26.6 81.2,27.2"/></g><g><polygon fill="#6ABC45" points="86,25.3 86,24.6 82.6,27.9 83.4,27.9"/></g><g><polygon fill="#6ABC45" points="76.5,17.2 76.5,16.4 72.8,20.1 72.8,20.9"/></g><g><polygon fill="#6ABC45" points="76.5,20.2 76.5,19.4 72.8,23.1 72.8,23.8"/></g><g><polygon fill="#6ABC45" points="82.3,9.1 82.3,9.9 84.2,8 83.4,8"/></g><g><polygon fill="#6ABC45" points="82.3,12.1 82.3,12.8 86,9.2 86,8.4"/></g><g><polygon fill="#6ABC45" points="82.3,13.5 82.3,14.3 86,10.6 86,9.8"/></g><g><polygon fill="#6ABC45" points="82.3,10.6 82.3,11.4 85.7,8 84.9,8"/></g><g><polygon fill="#6ABC45" points="82.3,8.4 82.7,8 82.3,8"/></g><g><polygon fill="#6ABC45" points="82.3,15 82.3,15.8 86,12.1 86,11.3"/></g><g><polygon fill="#6ABC45" points="76.5,18.7 76.5,17.9 72.8,21.6 72.8,22.4"/></g><g><polygon fill="#6ABC45" points="76.5,15.7 76.5,15 72.8,18.6 72.8,19.4"/></g></g><g><g><polygon fill="#6ABC45" points="62.4,12.2 62.4,11.4 58.4,15.4 58.4,16.2"/></g><g><polygon fill="#6ABC45" points="62.5,11.3 63.2,11.3 66.5,8 65.8,8"/></g><g><polygon fill="#6ABC45" points="63.9,11.3 64.7,11.3 68,8 67.2,8"/></g><g><polygon fill="#6ABC45" points="63,16 62.4,16 62.4,15.8 58.4,19.8 58.4,20.6"/></g><g><polygon fill="#6ABC45" points="62.4,13.6 62.4,12.8 58.4,16.9 58.4,17.6"/></g><g><polygon fill="#6ABC45" points="66.9,11.3 67.7,11.3 69.5,9.4 69.5,8.7"/></g><g><polygon fill="#6ABC45" points="64.5,16 63.7,16 58.4,21.3 58.4,22"/></g><g><polygon fill="#6ABC45" points="62.4,15.1 62.4,14.3 58.4,18.3 58.4,19.1"/></g><g><polygon fill="#6ABC45" points="59.2,8 58.4,8 58.4,8 58.4,8.8"/></g><g><polygon fill="#6ABC45" points="62.4,23.1 58.4,27.1 58.4,27.9 58.4,27.9 62.4,23.9"/></g><g><polygon fill="#6ABC45" points="68.3,11.3 69.1,11.3 69.5,10.9 69.5,10.2"/></g><g><polygon fill="#6ABC45" points="60.6,8 59.9,8 58.4,9.5 58.4,10.3"/></g><g><polygon fill="#6ABC45" points="62.1,8 61.4,8 58.4,11 58.4,11.8"/></g><g><polygon fill="#6ABC45" points="65.1,8 64.3,8 58.4,13.9 58.4,14.7"/></g><g><polygon fill="#6ABC45" points="63.6,8 62.8,8 58.4,12.4 58.4,13.2"/></g><g><polygon fill="#6ABC45" points="65.4,11.3 66.2,11.3 69.5,8 68.7,8"/></g><g><polygon fill="#6ABC45" points="64.6,24.6 63.9,24.6 60.6,27.9 61.4,27.9"/></g><g><polygon fill="#6ABC45" points="66.1,24.6 65.3,24.6 62,27.9 62.8,27.9"/></g><g><polygon fill="#6ABC45" points="69,24.6 68.3,24.6 65,27.9 65.8,27.9"/></g><g><polygon fill="#6ABC45" points="67.6,24.6 66.8,24.6 63.5,27.9 64.3,27.9"/></g><g><polygon fill="#6ABC45" points="62.4,19.5 62.4,19.3 62.6,19.3 65.9,16 65.1,16 58.4,22.7 58.4,23.5"/></g><g><polygon fill="#6ABC45" points="69.8,26.8 69.8,26.1 67.9,27.9 68.7,27.9"/></g><g><polygon fill="#6ABC45" points="69.8,25.4 69.8,24.6 69.8,24.6 66.5,27.9 67.2,27.9"/></g><g><polygon fill="#6ABC45" points="69.8,27.5 69.4,27.9 69.8,27.9"/></g><g><polygon fill="#6ABC45" points="66.3,19.3 67,19.3 69.1,17.2 69.1,16.4"/></g><g><polygon fill="#6ABC45" points="67.7,19.3 68.5,19.3 69.1,18.7 69.1,17.9"/></g><g><polygon fill="#6ABC45" points="64.8,19.3 65.6,19.3 68.9,16 68.1,16"/></g><g><polygon fill="#6ABC45" points="62.4,22.4 62.4,21.7 58.4,25.7 58.4,26.5"/></g><g><polygon fill="#6ABC45" points="63.2,24.6 62.4,24.6 62.4,24.6 59.1,27.9 59.9,27.9"/></g><g><polygon fill="#6ABC45" points="63.3,19.3 64.1,19.3 67.4,16 66.6,16"/></g><g><polygon fill="#6ABC45" points="62.4,21 62.4,20.2 58.4,24.2 58.4,25"/></g></g><g><g><path fill="#6ABC45" d="M54.54 13.91c0-0.19-0.01-0.37-0.02-0.56l-0.56 0.56H54.54z"/></g><g><polygon fill="#6ABC45" points="49.2,20.1 50,20.1 53,17.2 52.2,17.2"/></g><g><polygon fill="#6ABC45" points="50.9,21.4 50.9,22.1 54.8,18.3 54.8,17.5"/></g><g><path fill="#6ABC45" d="M54.76 19.78V19l-3.91 3.91c-0.11 0.59-0.35 1.06-0.65 1.43L54.76 19.78z"/></g><g><polygon fill="#6ABC45" points="50.7,20.1 50.9,20.1 50.9,20.7 54.4,17.2 53.6,17.2"/></g><g><polygon fill="#6ABC45" points="48.3,17.4 48.5,17.2 48.3,17.2"/></g><g><polygon fill="#6ABC45" points="50,17.2 49.2,17.2 48.3,18.1 48.3,18.9"/></g><g><polygon fill="#6ABC45" points="48.3,19.6 48.3,20.1 48.5,20.1 51.5,17.2 50.7,17.2"/></g><g><path fill="#6ABC45" d="M50.44 12.34l2.85-2.85c-0.12-0.14-0.24-0.28-0.37-0.4l-2.71 2.71C50.3 12 50.4 12.2 50.4 12.34z "/></g><g><path fill="#6ABC45" d="M46.07 12.98l-4.4 4.4c0 0.1 0 0.2 0 0.35c0 0.1 0 0.3 0 0.43l4.22-4.22 C45.94 13.6 46 13.3 46.1 12.98z"/></g><g><path fill="#6ABC45" d="M54.76 20.47l-7.79 7.79c0.2 0 0.4 0 0.6 0.03c0.05 0 0.1-0.01 0.15-0.01l7.04-7.04V20.47z"/></g><g><polygon fill="#6ABC45" points="54.8,24.9 51.8,27.8 51.8,27.9 52.5,27.9 54.8,25.7"/></g><g><path fill="#6ABC45" d="M46.02 7.93c-0.53 0.16-1.01 0.37-1.43 0.65l-1.31 1.31c-0.32 0.46-0.58 0.98-0.8 1.58L46.02 7.93z"/></g><g><path fill="#6ABC45" d="M46.43 11.93c0.31-0.65 0.71-1.06 1.24-1.24l2.85-2.85c-0.21-0.05-0.43-0.09-0.65-0.12l-8.15 8.2 c-0.01 0.27-0.03 0.53-0.04 0.81L46.43 11.93z"/></g><g><path fill="#6ABC45" d="M52.5 13.91h0.78l1.2-1.2c-0.02-0.23-0.06-0.46-0.1-0.68L52.5 13.91z"/></g><g><path fill="#6ABC45" d="M47.78 7.64c-0.3 0.02-0.59 0.05-0.87 0.09l-4.74 4.74c-0.08 0.31-0.15 0.64-0.2 0.98L47.78 7.64z"/></g><g><path fill="#6ABC45" d="M49.24 7.65C49 7.6 48.8 7.6 48.5 7.62l-6.64 6.64c-0.03 0.28-0.06 0.57-0.08 0.86L49.24 7.65z"/></g><g><polygon fill="#6ABC45" points="54.8,27.8 54.7,27.9 54.8,27.9"/></g><g><path fill="#6ABC45" d="M46.93 24.67c-0.12-0.13-0.23-0.28-0.33-0.45l-2.8 2.8c0.13 0.1 0.3 0.2 0.4 0.35L46.93 24.67z"/></g><g><path fill="#6ABC45" d="M47.82 25.25c-0.19-0.06-0.37-0.13-0.53-0.25l-2.65 2.64c0.17 0.1 0.3 0.2 0.5 0.25L47.82 25.25z"/></g><g><path fill="#6ABC45" d="M49.68 24.87c-0.42 0.31-0.87 0.47-1.24 0.47c0 0-0.01 0-0.01 0l-2.72 2.7 c0.2 0.1 0.4 0.1 0.6 0.13L49.68 24.87z"/></g><g><path fill="#6ABC45" d="M46.38 23.76c-0.07-0.18-0.14-0.37-0.2-0.58l-3.05 3.05c0.1 0.2 0.2 0.3 0.3 0.44L46.38 23.76z"/></g><g><path fill="#6ABC45" d="M54.76 22.72v-0.78l-6.28 6.28c0.36-0.05 0.7-0.13 1.02-0.24L54.76 22.72z"/></g><g><path fill="#6ABC45" d="M46.04 22.62c-0.04-0.21-0.08-0.43-0.12-0.66l-3.29 3.29c0.08 0.2 0.2 0.4 0.2 0.53L46.04 22.62z"/></g><g><polygon fill="#6ABC45" points="54.8,27.1 54.8,26.4 53.2,27.9 54,27.9"/></g><g><path fill="#6ABC45" d="M51.02 13.91h0.78l2.45-2.45c-0.05-0.21-0.12-0.4-0.19-0.59L51.02 13.91z"/></g><g><polygon fill="#6ABC45" points="54.8,24.2 54.8,23.4 51.8,26.4 51.8,27.1"/></g><g><path fill="#6ABC45" d="M48.48 10.58c0.23 0 0.5 0.1 0.6 0.14l2.5-2.5C51.44 8.1 51.3 8.1 51.1 8L48.48 10.58z"/></g><g><path fill="#6ABC45" d="M49.56 10.97c0.14 0.1 0.3 0.2 0.4 0.39l2.6-2.6c-0.15-0.11-0.3-0.21-0.47-0.31L49.56 10.97z"/></g><g><path fill="#6ABC45" d="M50.59 12.88c0.05 0.2 0.1 0.5 0.1 0.68l3.18-3.18c-0.08-0.17-0.18-0.34-0.28-0.5L50.59 12.88z"/></g><g><path fill="#6ABC45" d="M45.73 15.57c0.02-0.29 0.04-0.58 0.06-0.84l-4.12 4.12c0 0.3 0 0.5 0 0.76L45.73 15.57z"/></g><g><path fill="#6ABC45" d="M45.69 18.56c0-0.25-0.01-0.51-0.01-0.77l-3.85 3.85c0.02 0.2 0.1 0.5 0.1 0.7L45.69 18.56z"/></g><g><path fill="#6ABC45" d="M45.68 17.09c0-0.28 0.01-0.54 0.02-0.79l-3.98 3.97c0.01 0.2 0 0.5 0.1 0.73L45.68 17.09z"/></g><g><path fill="#6ABC45" d="M45.73 19.98c-0.01-0.24-0.02-0.49-0.03-0.75L42 22.94c0.04 0.2 0.1 0.4 0.1 0.65L45.73 19.98z"/></g><g><path fill="#6ABC45" d="M45.84 21.35c-0.03-0.23-0.05-0.47-0.07-0.71l-3.52 3.52c0.05 0.2 0.1 0.4 0.2 0.6L45.84 21.35z"/></g></g><g><g><polygon fill="#6ABC45" points="33.5,18.2 33.7,18.8 36.6,15.8 36.5,15.2"/></g><g><polygon fill="#6ABC45" points="33.3,17 33.4,17.6 36.3,14.7 36.1,14.1"/></g><g><polygon fill="#6ABC45" points="33.8,19.4 33.9,20 36.9,17 36.8,16.4"/></g><g><polygon fill="#6ABC45" points="29.5,23.7 30.2,23.7 33.5,20.4 32.8,20.4"/></g><g><polygon fill="#6ABC45" points="32.5,13.3 32.6,14 35.4,11.2 35.2,10.6"/></g><g><polygon fill="#6ABC45" points="32.8,14.5 32.9,15.2 35.7,12.4 35.5,11.8"/></g><g><polygon fill="#6ABC45" points="33,15.7 33.1,16.4 36,13.5 35.9,12.9"/></g><g><polygon fill="#6ABC45" points="32.7,8 31.9,8 28.7,11.2 28.5,12.2"/></g><g><polygon fill="#6ABC45" points="31.2,8 30.5,8 29.3,9.2 29,10.2"/></g><g><polygon fill="#6ABC45" points="31.3,20.4 24.5,27.2 24.3,27.9 24.6,27.9 32.1,20.4"/></g><g><polygon fill="#6ABC45" points="37.2,18.2 37.1,17.6 30.9,23.7 31.7,23.7"/></g><g><polygon fill="#6ABC45" points="38.9,24.5 35.6,27.9 35.6,27.9 36.3,27.9 39.1,25.2"/></g><g><polygon fill="#6ABC45" points="29.5,8.2 29.8,8 29.6,8"/></g><g><polygon fill="#6ABC45" points="34.2,8 33.4,8 28.2,13.2 27.9,14.2"/></g><g><polygon fill="#6ABC45" points="32.2,12.1 32.4,12.8 35.1,10 34.9,9.4"/></g><g><polygon fill="#6ABC45" points="32,11.7 32,11.5 32.1,11.5 32.1,11.5 34.8,8.9 34.6,8.3 27.7,15.2 27.4,16.2"/></g><g><polygon fill="#6ABC45" points="38.5,22.8 38.3,22.2 35.1,25.4 35.2,26.1"/></g><g><polygon fill="#6ABC45" points="38.2,21.7 38,21.1 34.8,24.2 35,24.9"/></g><g><polygon fill="#6ABC45" points="37.9,20.5 37.7,19.9 33.9,23.7 34.7,23.7"/></g><g><polygon fill="#6ABC45" points="38.8,24 38.6,23.4 35.4,26.6 35.5,27.3"/></g><g><polygon fill="#6ABC45" points="37.4,18.7 32.4,23.7 33.2,23.7 37.5,19.3"/></g><g><polygon fill="#6ABC45" points="39.7,27.5 39.5,26.9 38.5,27.9 39.3,27.9"/></g><g><polygon fill="#6ABC45" points="39.4,26.3 39.2,25.7 37,27.9 37.8,27.9"/></g><g><polygon fill="#6ABC45" points="30.8,17.3 31,16.3 26.1,21.2 25.8,22.2"/></g><g><polygon fill="#6ABC45" points="30.4,19.1 30.6,18.2 25.6,23.2 25.3,24.2"/></g><g><polygon fill="#6ABC45" points="28.6,27.5 28.2,27.9 28.5,27.9"/></g><g><polygon fill="#6ABC45" points="31.2,15.4 31.4,14.4 26.6,19.2 26.4,20.2"/></g><g><polygon fill="#6ABC45" points="31.6,13.5 31.8,12.5 27.1,17.2 26.9,18.2"/></g><g><polygon fill="#6ABC45" points="28.8,26.6 29,25.6 26.7,27.9 27.5,27.9"/></g><g><polygon fill="#6ABC45" points="29.2,24.8 29.4,23.8 25.3,27.9 26.1,27.9"/></g><g><polygon fill="#6ABC45" points="30.6,20.4 30.1,20.4 30.2,20 25,25.2 24.8,26.2"/></g></g></g><g><g><path fill="#6ABC45" d="M33.84 26.63l-0.92-4.21h-4.83l-0.92 4.21h-4.79L27.8 6.16h5.41l5.42 20.47H33.84z M32.1 18.6 l-1.59-7.41l-1.59 7.41H32.1z"/><path fill="#FFFFFF" d="M32.99 6.44l5.27 19.9h-4.18l-0.92-4.21h-5.3l-0.92 4.21h-4.18l5.27-19.9H32.99 M28.56 18.85h3.9 L30.54 9.9h-0.06L28.56 18.9 M33.43 5.87h-0.44h-4.96h-0.44L27.47 6.3L22.2 26.2l-0.19 0.72h0.75h4.18h0.46l0.1-0.45l0.82-3.75 h4.37l0.82 3.75l0.1 0.45h0.47h4.18h0.75l-0.19-0.72L33.55 6.3L33.43 5.87L33.43 5.87z M29.27 18.27l1.24-5.75l1.24 5.75H29.27 L29.27 18.27z"/></g><g><path fill="#6ABC45" d="M46.01 27.02c-5.18 0-6.2-3.98-6.2-10.85c0-7.39 2.02-10.4 6.98-10.4c4.36 0 6.5 2.1 6.5 6.59v0.29 h-4.42v-0.29c0-1.23-0.53-3.06-2-3.06c-1.74 0-2.44 1.94-2.44 6.68c0 4.6 0.4 7.5 2.5 7.52c0.74 0 2.19-0.87 2.19-2.89 v-1.75h-2.65v-3.53h7.07v11.31h-3.53v-1.3C49.02 26.5 47.7 27 46 27.02z"/><path fill="#FFFFFF" d="M46.79 6.06c4.4 0 6.2 2.3 6.2 6.3h-3.84c0-1.48-0.67-3.34-2.29-3.34c-1.95 0-2.73 2.01-2.73 7 c0 4.8 0.5 7.8 2.8 7.8c0.95 0 2.48-1.03 2.48-3.18v-2.03h-2.65v-2.96h6.49v10.73h-2.95V24.5h-0.06 c-0.95 1.56-2.31 2.23-4.18 2.23c-4.93 0-5.91-3.68-5.91-10.56C40.1 9.5 41.7 6.1 46.8 6.1 M46.79 5.5 c-6.38 0-7.27 5.14-7.27 10.69c0 5.9 0.5 11.1 6.5 11.14c1.51 0 2.72-0.42 3.66-1.26v0.3v0.58h0.58h2.95h0.58v-0.58V15.61 v-0.58H53.2h-6.49h-0.58v0.58v2.96v0.58h0.58h2.07v1.46c0 1.81-1.26 2.6-1.9 2.6c-1.57 0-2.18-2.03-2.18-7.23 c0-5.61 1.04-6.39 2.15-6.39c1.25 0 1.7 1.6 1.7 2.77v0.58h0.58h3.84h0.58v-0.58C53.56 7.8 51.3 5.5 46.8 5.5 L46.79 5.48z"/></g><g><polygon fill="#6ABC45" points="56.5,26.6 56.5,6.2 68.2,6.2 68.2,10 61.1,10 61.1,14.1 67.8,14.1 67.8,18 61.1,18 61.1,22.8 68.5,22.8 68.5,26.6"/><path fill="#FFFFFF" d="M67.94 6.44v3.29h-7.1v4.68h6.69v3.29h-6.69v5.35h7.38v3.29h-11.4V6.44H67.94 M68.52 5.87h-0.58H56.82 h-0.58v0.58v19.9v0.58h0.58h11.4h0.58v-0.58v-3.29v-0.58h-0.58h-6.81v-4.2h6.11h0.58V17.7v-3.29v-0.58h-0.58h-6.11v-3.53h6.53 h0.58V9.73V6.44L68.52 5.87L68.52 5.87z"/></g><g><polygon fill="#6ABC45" points="79.7,26.6 75.2,13.9 75.2,26.6 70.9,26.6 70.9,6.2 76,6.2 80.5,18.6 80.5,6.2 84.7,6.2 84.7,26.6"/><path fill="#FFFFFF" d="M84.42 6.44v19.9h-4.57l-4.9-13.93h-0.06v13.93h-3.68V6.44h4.63l4.85 13.63h0.06V6.44H84.42 M85 5.9 h-0.58h-3.68h-0.58v0.58v10.44L76.38 6.25l-0.14-0.38h-0.41h-4.63h-0.58v0.58v19.9v0.58h0.58h3.68h0.58v-0.58V15.62l3.84 10.9 l0.14 0.39h0.41h4.57H85v-0.58V6.44V5.87L85 5.87z"/></g><g><path fill="#6ABC45" d="M88.01 26.63V6.16h6.86c5.72 0 6.9 3.8 6.9 9.96c0 6.49-1.19 10.52-7.11 10.52H88.01z M94.09 23.1 c2.46 0 3.06-1.35 3.06-6.88c0-4.83-0.47-6.54-3.14-6.54H92.6V23.1H94.09z"/><path fill="#FFFFFF" d="M94.87 6.44c5.57 0 6.6 3.8 6.6 9.67c0 7.05-1.5 10.23-6.83 10.23H88.3V6.44H94.87 M92.31 23.39h1.79 c2.79 0 3.34-1.75 3.34-7.16c0-4.51-0.36-6.83-3.43-6.83h-1.7V23.39 M94.87 5.87H88.3h-0.58v0.58v19.9v0.58h0.58h6.33 c6.17 0 7.4-4.13 7.4-10.8C102.02 11.2 101.5 5.9 94.9 5.87L94.87 5.87z M92.89 9.98h1.12c2.29 0 2.9 1.2 2.9 6.2 c0 5.68-0.66 6.58-2.77 6.58h-1.21V9.98L92.89 9.98z"/></g><g><path fill="#6ABC45" d="M114.32 26.63l-0.92-4.21h-4.83l-0.92 4.21h-4.79l5.42-20.47h5.4l5.42 20.47H114.32z M112.58 18.6 l-1.59-7.41l-1.59 7.41H112.58z"/><path fill="#FFFFFF" d="M113.46 6.44l5.27 19.9h-4.18l-0.92-4.21h-5.3l-0.92 4.21h-4.18l5.27-19.9H113.46 M109.03 18.85h3.9 l-1.92-8.95h-0.06L109.03 18.9 M113.91 5.87h-0.44h-4.96h-0.44l-0.11 0.43l-5.27 19.9l-0.19 0.72h0.75h4.18h0.46l0.1-0.45 l0.82-3.75h4.37l0.82 3.75l0.1 0.45h0.46h4.18h0.75l-0.19-0.72l-5.27-19.9L113.91 5.87L113.91 5.87z M109.75 18.27l1.24-5.75 l1.24 5.75H109.75L109.75 18.27z"/></g></g></g><g><g><g><rect x="17.6" y="1.2" fill="none" stroke="#FFFFFF" stroke-width="2.7425" stroke-linejoin="round" stroke-miterlimit="10" width="0.6" height="27"/><polygon fill="none" stroke="#FFFFFF" stroke-width="2.7425" stroke-linejoin="round" stroke-miterlimit="10" points="2.6,2.8 9,2.8 9,1.2 17,1.2 17,6.6 13.6,6.6 13.6,8.2 2.6,8.2 5.5,5.5"/></g><g><line fill="none" stroke="#589642" stroke-width="0.5485" stroke-miterlimit="10" x1="17.9" y1="28.2" x2="17.9" y2="1.2"/><g><polygon fill="#6ABC45" points="2.6,8.2 13.6,8.2 13.6,2.8 2.6,2.8 5.5,5.5"/></g><g><rect x="9" y="1.2" fill="#6ABC45" width="8.1" height="5.4"/></g><polygon fill="#589642" points="9,6.6 13.6,8.2 13.6,6.6"/></g></g></g></g></svg>