<?xml version="1.0" encoding="utf-8"?>
<!-- Generator: Adobe Illustrator 16.0.0, SVG Export Plug-In . SVG Version: 6.00 Build 0)  -->
<!DOCTYPE svg PUBLIC "-//W3C//DTD SVG 1.1//EN" "http://www.w3.org/Graphics/SVG/1.1/DTD/svg11.dtd">
<svg version="1.1" id="Layer_1" xmlns="http://www.w3.org/2000/svg" xmlns:xlink="http://www.w3.org/1999/xlink" x="0px" y="0px"
	 width="1300px" height="430px" viewBox="0 0 1300 430" enable-background="new 0 0 1300 430" xml:space="preserve">
<g>
	<g>
		<path fill="#1A1A1A" stroke="#1A1A1A" stroke-width="5.9505" d="M296.034,183.038l45.088-5.438
			c2.646-0.319,5.418-0.583,8.32-0.789c2.9-0.205,5.809-0.147,8.724,0.17c2.916,0.321,5.825,1.002,8.733,2.04
			c2.906,1.041,5.642,2.652,8.207,4.836c2.681,2.362,4.986,5.368,6.914,9.02c1.926,3.65,3.164,7.746,3.711,12.283
			c0.604,5.011,0.345,9.237-0.772,12.68c-1.12,3.443-2.617,6.335-4.493,8.669c-1.876,2.337-3.934,4.167-6.17,5.491
			c-2.238,1.327-4.167,2.422-5.789,3.288l27.933,37.195l-27.648,3.335l-24.24-33.327l-15.8,1.906l4.31,35.73l-24.955,3.01
			L296.034,183.038z M323.246,198.744l3.266,27.081l20.783-2.507c0.853-0.103,2.122-0.351,3.809-0.748
			c1.686-0.395,3.304-1.141,4.857-2.239c1.551-1.098,2.833-2.643,3.844-4.636c1.012-1.992,1.32-4.641,0.921-7.951
			c-0.388-3.212-1.186-5.633-2.394-7.263c-1.208-1.627-2.621-2.776-4.241-3.444c-1.623-0.667-3.276-1.019-4.966-1.056
			c-1.69-0.034-3.198,0.027-4.527,0.188L323.246,198.744z"/>
		<path fill="#1A1A1A" stroke="#1A1A1A" stroke-width="5.9505" d="M421.797,167.87l12.073,100.101l-24.955,3.01l-12.073-100.101
			L421.797,167.87z"/>
		<path fill="#1A1A1A" stroke="#1A1A1A" stroke-width="5.9505" d="M500.203,158.414l26.656-3.215l-22.665,104.291l-25.521,3.078
			l-46.385-95.963l26.656-3.215l29.285,68.68L500.203,158.414z"/>
		<path fill="#1A1A1A" stroke="#1A1A1A" stroke-width="5.9505" d="M541.036,153.489l74.012-8.926l2.36,19.565l-49.058,5.917
			l2.171,18.008l45.797-5.523l2.292,18.999l-45.797,5.523l2.89,23.962l53.453-6.447l2.36,19.566l-78.407,9.457L541.036,153.489z"/>
		<path fill="#1A1A1A" stroke="#1A1A1A" stroke-width="5.9505" d="M631.41,142.589l45.087-5.438c2.646-0.319,5.419-0.583,8.32-0.789
			c2.899-0.205,5.808-0.147,8.724,0.17c2.915,0.321,5.825,1.002,8.732,2.04c2.906,1.041,5.643,2.652,8.208,4.836
			c2.681,2.362,4.985,5.368,6.913,9.02c1.927,3.651,3.164,7.746,3.711,12.283c0.604,5.011,0.346,9.237-0.771,12.68
			c-1.12,3.443-2.617,6.335-4.493,8.669c-1.876,2.336-3.935,4.167-6.171,5.491c-2.237,1.327-4.167,2.421-5.788,3.288l27.933,37.196
			l-27.648,3.335l-24.238-33.327l-15.8,1.906l4.31,35.73l-24.955,3.01L631.41,142.589z M658.621,158.295l3.267,27.081l20.782-2.507
			c0.853-0.103,2.122-0.351,3.81-0.748c1.686-0.395,3.304-1.141,4.856-2.239c1.551-1.098,2.833-2.644,3.845-4.636
			c1.011-1.993,1.319-4.642,0.92-7.951c-0.388-3.212-1.186-5.633-2.394-7.263c-1.208-1.628-2.62-2.776-4.24-3.445
			c-1.623-0.667-3.277-1.019-4.967-1.056c-1.689-0.034-3.197,0.027-4.526,0.188L658.621,158.295z"/>
		<path fill="#1A1A1A" stroke="#1A1A1A" stroke-width="5.9505" d="M803.395,121.847c2.161,5.205,4.324,10.411,6.486,15.617
			c2.161,5.206,4.37,10.405,6.629,15.599c1.999,4.649,3.612,8.482,4.839,11.499c1.228,3.016,2.342,5.904,3.346,8.659
			c1.003,2.756,2.003,5.682,3.001,8.773c0.995,3.094,2.161,7.003,3.501,11.732c0.162-5.004,0.307-9.171,0.434-12.496
			c0.126-3.322,0.294-6.508,0.503-9.554c0.208-3.046,0.467-6.264,0.776-9.659c0.311-3.394,0.725-7.711,1.243-12.953
			c0.423-5.229,0.898-10.44,1.423-15.634c0.524-5.192,0.997-10.405,1.423-15.635l24.812-2.993l-13.306,103.162l-25.806,3.112
			c-2.28-5.383-4.508-10.725-6.679-16.025c-2.175-5.298-4.396-10.594-6.663-15.883c-1.883-4.471-3.389-8.006-4.516-10.604
			c-1.129-2.596-2.104-4.924-2.928-6.982c-0.824-2.059-1.604-4.144-2.338-6.263c-0.736-2.117-1.691-4.877-2.87-8.285
			c-0.285,3.199-0.523,5.794-0.715,7.782c-0.191,1.99-0.442,4.081-0.753,6.277c-0.312,2.194-0.701,4.737-1.167,7.62
			c-0.468,2.886-1.119,6.824-1.955,11.816l-5.572,34.908l-25.805,3.112l-37.453-97.04l24.955-3.01
			c2.752,7.724,5.113,14.368,7.079,19.933c1.966,5.566,3.683,10.465,5.153,14.698c1.468,4.235,2.728,7.919,3.777,11.052
			c1.049,3.135,2.008,6.112,2.876,8.931c0.866,2.822,1.688,5.648,2.461,8.478c0.773,2.833,1.61,6.016,2.519,9.55
			c0.351-5.027,0.659-9.236,0.922-12.625c0.262-3.388,0.545-6.61,0.849-9.669c0.301-3.057,0.683-6.268,1.14-9.631
			c0.457-3.364,1.044-7.629,1.765-12.8l4.496-31.901L803.395,121.847z"/>
		<path fill="#1A1A1A" stroke="#1A1A1A" stroke-width="5.9505" d="M955.25,197.321c-4.426,4.657-9.267,8.047-14.524,10.167
			c-5.261,2.119-10.489,3.495-15.687,4.122c-7.939,0.958-15.178,0.391-21.709-1.698c-6.534-2.089-12.198-5.312-16.991-9.674
			c-4.793-4.36-8.689-9.62-11.685-15.781c-2.997-6.159-4.934-12.877-5.812-20.158c-0.82-6.805-0.55-13.501,0.813-20.092
			c1.363-6.588,3.829-12.568,7.402-17.94c3.571-5.369,8.248-9.913,14.035-13.631c5.784-3.719,12.694-6.062,20.729-7.031
			c3.024-0.364,6.101-0.496,9.23-0.394c3.128,0.103,6.268,0.49,9.419,1.166c5.32,1.18,9.95,2.996,13.891,5.445
			c3.939,2.451,7.317,5.208,10.133,8.271c2.814,3.065,5.147,6.308,6.998,9.728c1.852,3.423,3.322,6.673,4.413,9.754
			c1.091,3.082,1.878,5.839,2.364,8.273c0.485,2.436,0.797,4.219,0.934,5.354c0.524,4.349,0.559,8.614,0.104,12.789
			c-0.456,4.18-1.316,8.168-2.585,11.964c-1.269,3.798-2.882,7.324-4.837,10.581C959.929,191.793,957.717,194.721,955.25,197.321z
			 M944.456,157.913c-0.45-5.315-1.659-10.348-3.626-15.098c-1.966-4.749-4.554-8.464-7.761-11.147
			c-2.454-2.005-5.302-3.482-8.542-4.436c-3.24-0.951-6.568-1.222-9.98-0.811c-3.792,0.458-7.135,1.651-10.025,3.583
			c-2.892,1.931-5.234,4.443-7.025,7.536c-1.792,3.093-3.049,6.625-3.771,10.596c-0.724,3.971-0.811,8.225-0.263,12.763
			c0.718,5.954,2.085,10.92,4.104,14.896c2.017,3.979,4.389,7.095,7.113,9.355c2.726,2.261,5.65,3.803,8.779,4.624
			c3.13,0.823,6.163,1.055,9.103,0.701c2.938-0.354,5.834-1.254,8.689-2.703c2.855-1.445,5.32-3.519,7.4-6.215
			c2.08-2.697,3.68-5.982,4.799-9.857C944.57,167.826,944.904,163.231,944.456,157.913z"/>
		<path fill="#1A1A1A" stroke="#1A1A1A" stroke-width="5.9505" d="M975.562,101.082l45.088-5.438
			c2.646-0.319,5.419-0.583,8.32-0.789c2.899-0.205,5.809-0.146,8.724,0.17c2.916,0.321,5.825,1.002,8.732,2.04
			c2.906,1.041,5.644,2.652,8.208,4.836c2.681,2.363,4.985,5.368,6.914,9.02c1.926,3.651,3.163,7.746,3.71,12.283
			c0.604,5.011,0.346,9.237-0.771,12.68c-1.12,3.443-2.617,6.335-4.492,8.669c-1.877,2.337-3.935,4.167-6.171,5.491
			c-2.238,1.327-4.168,2.422-5.789,3.288l27.933,37.196l-27.647,3.334l-24.239-33.327l-15.8,1.906l4.31,35.73l-24.955,3.01
			L975.562,101.082z M1002.773,116.788l3.267,27.081l20.782-2.507c0.854-0.103,2.122-0.351,3.81-0.748
			c1.686-0.395,3.304-1.141,4.856-2.239c1.552-1.098,2.833-2.643,3.845-4.636s1.319-4.642,0.92-7.951
			c-0.388-3.212-1.186-5.633-2.393-7.263c-1.209-1.628-2.621-2.776-4.241-3.445c-1.623-0.667-3.276-1.019-4.967-1.056
			c-1.689-0.034-3.197,0.027-4.526,0.188L1002.773,116.788z"/>
		<path fill="#1A1A1A" stroke="#1A1A1A" stroke-width="5.9505" d="M1076.229,88.941l23.82-2.873l4.926,40.834l32.506-45.349
			l30.059-3.625l-30.967,41.422l45.875,58.336l-28.215,3.403l-32.27-42.14l-13.381,17.869l3.54,29.35l-23.82,2.873L1076.229,88.941z
			"/>
		<path fill="#1A1A1A" stroke="#1A1A1A" stroke-width="5.9505" d="M1198.405,145.41c1.493,1.258,2.976,2.423,4.449,3.491
			c1.47,1.07,3.514,2.119,6.132,3.144c3.524,1.399,6.983,2.251,10.379,2.561c3.393,0.311,6.555,0.289,9.486-0.065
			c2.457-0.296,4.762-0.863,6.915-1.698c2.152-0.834,4.021-1.854,5.602-3.053c1.582-1.2,2.78-2.595,3.596-4.181
			c0.815-1.586,1.121-3.232,0.915-4.938c-0.24-1.987-1.001-3.527-2.279-4.623c-1.28-1.094-2.813-1.894-4.596-2.398
			s-3.733-0.797-5.847-0.879c-2.113-0.083-4.085-0.157-5.911-0.226c-2.779-0.049-5.562-0.097-8.341-0.146
			c-2.782-0.049-5.573-0.193-8.375-0.431c-1.062-0.064-2.466-0.208-4.215-0.429c-1.748-0.22-3.664-0.639-5.747-1.25
			c-2.083-0.613-4.24-1.434-6.469-2.461c-2.23-1.028-4.287-2.414-6.17-4.156c-1.885-1.742-3.509-3.901-4.871-6.474
			c-1.362-2.573-2.261-5.659-2.694-9.256c-0.776-6.438-0.148-11.965,1.884-16.582c2.033-4.614,4.88-8.441,8.541-11.477
			c3.662-3.035,7.789-5.381,12.386-7.041c4.594-1.658,9.065-2.749,13.414-3.274c5.765-0.695,10.991-0.705,15.675-0.035
			c4.686,0.673,8.912,1.735,12.684,3.184c3.771,1.452,7.137,3.115,10.097,4.995c2.96,1.882,5.644,3.675,8.057,5.383l-16.842,15.404
			c-1.802-1.412-3.539-2.688-5.209-3.832c-1.673-1.14-3.569-2.158-5.69-3.053c-1.923-0.823-4.406-1.53-7.449-2.123
			c-3.044-0.591-6.175-0.695-9.387-0.308c-2.459,0.297-4.593,0.892-6.402,1.782c-1.812,0.89-3.271,1.907-4.379,3.049
			c-1.109,1.144-1.897,2.367-2.362,3.672c-0.468,1.307-0.625,2.572-0.477,3.802c0.229,1.895,0.886,3.377,1.975,4.446
			c1.087,1.068,2.332,1.855,3.737,2.36c1.402,0.502,2.853,0.808,4.354,0.915c1.499,0.107,2.773,0.146,3.826,0.114
			c2.679-0.035,5.539,0.004,8.573,0.118c3.034,0.115,6.004,0.286,8.907,0.511c2.905,0.229,5.572,0.483,8.005,0.766
			c2.43,0.283,4.385,0.575,5.859,0.875c6.027,1.484,10.74,4.182,14.139,8.095c3.396,3.912,5.438,8.709,6.122,14.389
			c0.435,3.598,0.213,7.372-0.66,11.319c-0.874,3.948-2.459,7.597-4.755,10.948c-1.962,2.926-4.291,5.417-6.985,7.472
			s-5.612,3.799-8.757,5.233c-3.145,1.435-6.441,2.578-9.886,3.427c-3.447,0.845-6.919,1.481-10.415,1.903
			c-7.089,0.854-13.249,0.882-18.475,0.086c-5.227-0.797-9.736-2.015-13.53-3.653c-3.794-1.636-6.99-3.488-9.589-5.555
			c-2.6-2.066-4.763-3.903-6.489-5.506L1198.405,145.41z"/>
		<path fill="#1A1A1A" d="M389.388,372.229l-10.821,1.306l-25.725-63.432l-0.219,0.026l-10.125,67.755l-10.821,1.306l-29.414-75.627
			l10.383-1.252l23.351,63.052l0.219-0.026l9.658-67.033l11.258-1.357l25.099,62.841l0.219-0.026l8.019-66.836l10.383-1.252
			L389.388,372.229z"/>
		<path fill="#1A1A1A" d="M406.529,290.988l53.885-6.499l1.055,8.743l-43.502,5.247l2.992,24.812l40.55-4.891l1.055,8.744
			l-40.55,4.891l3.256,26.996l43.83-5.286l1.054,8.744l-54.213,6.538L406.529,290.988z"/>
		<path fill="#1A1A1A" d="M468.858,283.471l53.885-6.499l1.055,8.743l-43.502,5.247l2.992,24.812l40.55-4.891l1.055,8.744
			l-40.55,4.891l3.256,26.996l43.83-5.286l1.054,8.744l-54.213,6.538L468.858,283.471z"/>
		<path fill="#1A1A1A" d="M530.28,276.062l10.383-1.252l4.693,38.91l34.874-43.682l13.444-1.622l-29.103,35.445l39.827,42.436
			l-13.116,1.582l-32.958-36.056l-11.543,13.7l3.295,27.325l-10.383,1.252L530.28,276.062z"/>
		<path fill="#666666" d="M638.266,321.922c1.199,9.945,8.571,16.818,19.829,15.461c10.82-1.306,17.099-9.936,15.898-19.881
			c-1.226-10.166-7.112-13.005-16.226-15.01l-9.223-1.992c-10.696-2.26-16.876-6.614-18.155-17.218
			c-1.516-12.568,6.183-21.37,18.424-22.847c14.428-1.74,21.866,5.68,23.434,18.686l-4.591,0.554
			c-1.265-10.492-6.919-16.907-17.958-15.575c-8.744,1.055-16.235,6.061-14.772,18.193c1.041,8.635,6.242,12.221,13.295,13.699
			l12.074,2.646c10.478,2.285,16.863,6.505,18.247,17.981c1.675,13.881-7.65,22.989-20.001,24.479
			c-18.035,2.175-23.827-9.989-24.736-17.531l-0.62-5.138l4.591-0.554L638.266,321.922z"/>
		<path fill="#666666" d="M677.146,258.35l37.271-4.495l0.501,4.153l-32.681,3.941l3.757,31.15l30.495-3.678l0.501,4.153
			l-30.495,3.678l4.152,34.429l33.665-4.06l0.501,4.153l-38.255,4.613L677.146,258.35z"/>
		<path fill="#666666" d="M719.453,253.247l20.22-2.438c18.293-1.874,22.799,10.667,23.814,19.083
			c1.595,13.226-5.587,22.63-19.577,24.317l-14.646,1.766l4.191,34.758l-4.59,0.554L719.453,253.247z M743.898,290.44
			c9.291-1.121,16.555-7.098,14.999-19.995c-1.345-11.148-8.065-17.213-18.667-15.934l-15.739,1.897l4.323,35.85L743.898,290.44z"/>
		<path fill="#666666" d="M780.503,250.098l-20.767,2.505l-0.501-4.153l46.124-5.562l0.501,4.153l-20.767,2.504l8.911,73.886
			l-4.591,0.554L780.503,250.098z"/>
		<path fill="#666666" d="M808.832,242.468l37.271-4.495l0.5,4.153l-32.68,3.941l3.757,31.15l30.494-3.678l0.501,4.153
			l-30.494,3.678l4.152,34.429l33.664-4.061l0.501,4.153l-38.255,4.614L808.832,242.468z"/>
		<path fill="#666666" d="M905.932,236.744l-0.219,0.026l-13.705,74.84l-4.591,0.554l-31.107-69.436l-0.219,0.026l8.701,72.138
			l-4.591,0.554l-9.412-78.039l7.433-0.896l30.65,67.494l0.219-0.026l13.179-72.78l7.541-0.909l9.412,78.039l-4.59,0.554
			L905.932,236.744z"/>
		<path fill="#666666" d="M918.299,229.266l20.986-2.531c15.301-1.846,21.387,5.404,22.784,16.988
			c1.266,10.494-3.815,17.096-12.318,19.229l0.026,0.219c11.351-0.593,18.023,6.92,19.314,17.632
			c1.582,13.115-5.968,22.231-19.739,23.893l-21.642,2.61L918.299,229.266z M942.121,262.209
			c10.056-1.213,16.689-6.893,15.358-17.933c-1.279-10.602-7.146-15.105-17.2-13.893l-16.941,2.044l3.81,31.588L942.121,262.209z
			 M947.265,301.176c12.679-1.529,18.779-7.033,17.224-19.93c-1.674-13.881-10.552-16.692-21.7-15.348l-15.192,1.833l4.258,35.304
			L947.265,301.176z"/>
		<path fill="#666666" d="M968.093,223.26l37.271-4.495l0.501,4.153l-32.682,3.941l3.758,31.15l30.494-3.678l0.501,4.153
			l-30.494,3.678l4.152,34.429l33.664-4.061l0.501,4.153l-38.255,4.614L968.093,223.26z"/>
		<path fill="#666666" d="M1010.399,218.157l22.844-2.755c10.821-1.305,20.098,3.896,21.812,18.104
			c1.239,10.274-3.264,18.912-13.297,21.231l0.026,0.219c12.88-0.777,16.124,6.815,17.416,17.526l0.989,8.197
			c0.54,4.482,1.539,7.245,3.889,10.177l-5.246,0.633c-1.479-2.15-2.693-5.773-3.247-10.364l-0.962-7.979
			c-1.345-11.148-5.183-17.228-17.752-15.712l-16.832,2.03l4.363,36.178l-4.591,0.554L1010.399,218.157z M1034.237,253.982
			c8.634-1.041,18.02-5.057,16.227-19.922c-1.266-10.493-7.919-16.011-17.429-14.863l-17.598,2.122l4.153,34.43L1034.237,253.982z"
			/>
		<path fill="#666666" d="M1107.715,215.068c-3.202,4.712-10.776,9.949-17.364,11.41l-0.448-3.716
			c7.668-1.702,15.713-8.55,17.301-15.616l3.716-0.448l9.333,77.383l-4.153,0.501L1107.715,215.068z"/>
		<path fill="#666666" d="M1129.885,205.742l33.336-4.021l0.502,4.153l-29.84,3.599l-0.011,31.162l0.218-0.026
			c2.401-5.834,8.209-10.083,14.986-10.9c14.318-1.727,22.316,8.509,23.951,22.062c1.7,14.1-3.314,27.679-18.944,29.564
			c-14.975,1.806-21.91-7.893-23.058-17.402l-0.092-0.765l4.59-0.554l0.158,1.312c1.86,8.98,8.226,14.865,17.516,13.745
			c12.897-1.556,16.77-12.669,15.279-25.02c-1.449-12.022-8.35-20.505-19.39-19.174c-9.618,1.16-13.187,8.355-14.392,12.16
			l-4.59,0.553L1129.885,205.742z"/>
		<path fill="#666666" d="M1178.541,245.006l20.657-2.491l0.448,3.716l-20.657,2.491L1178.541,245.006z"/>
		<path fill="#666666" d="M1211.541,202.546c-3.203,4.712-10.776,9.949-17.365,11.41l-0.448-3.716
			c7.668-1.702,15.714-8.549,17.302-15.616l3.716-0.448l9.333,77.384l-4.153,0.501L1211.541,202.546z"/>
		<path fill="#666666" d="M1241.697,252.913c0.738,6.121,5.609,13.406,15.665,12.193c13.881-1.674,16.573-17.967,13.937-39.827
			l-0.185-1.529l-0.218,0.026c-1.054,6.891-4.875,15.668-16.57,17.079c-12.46,1.503-21.615-6.376-23.501-22.006
			c-1.832-15.192,3.722-27.062,18.587-28.854c18.69-2.254,23.76,15.875,25.896,33.581c2.755,22.845,1.63,42.94-17.935,45.3
			c-14.755,1.78-19.646-10.272-20.266-15.409L1241.697,252.913z M1249.642,193.737c-10.493,1.266-16.032,9.585-14.226,24.56
			c1.397,11.586,7.641,20.147,19.009,18.776c11.586-1.397,15.563-11.636,14.073-23.986
			C1267.325,203.359,1261.665,192.288,1249.642,193.737z"/>
	</g>
	<g opacity="0.5">
	</g>
	<g>
		
			<line fill="none" stroke="#666666" stroke-width="4.009" stroke-miterlimit="10" x1="258.925" y1="40.756" x2="299.787" y2="379.569"/>
		<g>
			<polygon fill="#EC297B" points="21.291,183.564 199.905,162.022 189.424,75.137 10.814,96.68 64.205,134.072 			"/>
		</g>
		<g>
			
				<rect x="116.066" y="50.38" transform="matrix(-0.9928 0.1198 -0.1198 -0.9928 373.4761 165.8327)" fill="#EC297B" width="131.378" height="87.515"/>
		</g>
		<polygon fill="#C01C64" points="121.777,145.447 199.905,162.022 196.814,136.397 		"/>
	</g>
</g>
</svg>
