<?xml version="1.0" encoding="utf-8"?>
<!-- Generator: Adobe Illustrator 16.0.0, SVG Export Plug-In . SVG Version: 6.00 Build 0)  -->
<!DOCTYPE svg PUBLIC "-//W3C//DTD SVG 1.1//EN" "http://www.w3.org/Graphics/SVG/1.1/DTD/svg11.dtd">
<svg version="1.1" id="Layer_1" xmlns="http://www.w3.org/2000/svg" xmlns:xlink="http://www.w3.org/1999/xlink" x="0px" y="0px"
	 width="920px" height="271px" viewBox="0 0 920 271" enable-background="new 0 0 920 271" xml:space="preserve">
<g>
	<g>
		<path fill="#1A1A1A" stroke="#1A1A1A" stroke-width="4.1002" d="M205.925,113.813l31.293,0.012c1.836,0,3.755,0.049,5.757,0.148
			c2,0.1,3.985,0.38,5.953,0.839c1.968,0.461,3.901,1.168,5.805,2.118c1.902,0.952,3.64,2.281,5.214,3.987
			c1.638,1.838,2.967,4.084,3.983,6.742c1.016,2.657,1.523,5.56,1.522,8.709c-0.001,3.478-0.528,6.347-1.578,8.61
			c-1.051,2.262-2.314,4.116-3.791,5.558c-1.477,1.443-3.036,2.524-4.675,3.245c-1.642,0.724-3.052,1.313-4.233,1.771l16.03,27.757
			l-19.189-0.008l-13.823-24.804l-10.966-0.004l-0.009,24.798l-17.319-0.006L205.925,113.813z M223.24,126.81l-0.007,18.795
			l14.424,0.006c0.592,0,1.481-0.065,2.668-0.196c1.186-0.131,2.354-0.507,3.507-1.131c1.151-0.622,2.156-1.572,3.013-2.853
			c0.858-1.278,1.288-3.066,1.288-5.363c0.001-2.228-0.345-3.951-1.036-5.166c-0.692-1.214-1.563-2.116-2.616-2.707
			c-1.055-0.591-2.157-0.968-3.31-1.133c-1.153-0.164-2.19-0.247-3.112-0.247L223.24,126.81z"/>
		<path fill="#1A1A1A" stroke="#1A1A1A" stroke-width="4.1002" d="M293.209,113.846l-0.025,69.473l-17.32-0.006l0.026-69.474
			L293.209,113.846z"/>
		<path fill="#1A1A1A" stroke="#1A1A1A" stroke-width="4.1002" d="M347.626,113.866l18.501,0.007l-24.136,69.464l-17.713-0.007
			l-23.788-69.482l18.5,0.007l14.349,49.405L347.626,113.866z"/>
		<path fill="#1A1A1A" stroke="#1A1A1A" stroke-width="4.1002" d="M375.965,113.876l51.368,0.02l-0.005,13.579l-34.048-0.013
			l-0.005,12.497l31.784,0.013l-0.004,13.186l-31.785-0.011l-0.007,16.63l37.099,0.014l-0.005,13.579l-54.417-0.019L375.965,113.876
			z"/>
		<path fill="#1A1A1A" stroke="#1A1A1A" stroke-width="4.1002" d="M438.688,113.899l31.292,0.011
			c1.836,0.001,3.756,0.051,5.756,0.149c2.002,0.1,3.986,0.38,5.954,0.838c1.968,0.461,3.902,1.168,5.806,2.118
			c1.901,0.953,3.64,2.282,5.214,3.988c1.639,1.838,2.966,4.085,3.981,6.743c1.018,2.657,1.524,5.561,1.523,8.709
			c-0.001,3.478-0.528,6.347-1.577,8.609c-1.052,2.263-2.315,4.118-3.791,5.559c-1.478,1.444-3.036,2.525-4.676,3.246
			c-1.642,0.723-3.052,1.312-4.231,1.77l16.029,27.756l-19.188-0.006l-13.824-24.805l-10.966-0.003l-0.009,24.798l-17.319-0.007
			L438.688,113.899z M456.002,126.896l-0.007,18.795l14.425,0.005c0.591,0.002,1.479-0.063,2.667-0.195
			c1.186-0.13,2.354-0.508,3.507-1.13c1.151-0.623,2.156-1.574,3.014-2.854c0.857-1.277,1.287-3.063,1.288-5.361
			c0-2.229-0.346-3.951-1.036-5.167c-0.692-1.213-1.563-2.116-2.616-2.708c-1.056-0.59-2.157-0.967-3.311-1.133
			c-1.152-0.163-2.19-0.246-3.112-0.246L456.002,126.896z"/>
		<path fill="#1A1A1A" stroke="#1A1A1A" stroke-width="4.1002" d="M558.052,113.944c1.049,3.739,2.098,7.479,3.145,11.219
			c1.048,3.74,2.129,7.479,3.244,11.219c0.982,3.346,1.77,6.102,2.357,8.267c0.591,2.165,1.113,4.231,1.573,6.2
			c0.458,1.969,0.9,4.052,1.326,6.25c0.425,2.198,0.899,4.97,1.424,8.315c0.525-3.411,0.969-6.248,1.331-8.513
			c0.361-2.262,0.739-4.427,1.135-6.494c0.395-2.065,0.838-4.246,1.33-6.542c0.493-2.296,1.135-5.216,1.923-8.758
			c0.722-3.542,1.479-7.068,2.267-10.578c0.789-3.508,1.545-7.035,2.269-10.577l17.22,0.006l-17.64,69.467l-17.91-0.007
			c-1.113-3.87-2.195-7.709-3.243-11.515c-1.048-3.804-2.128-7.611-3.243-11.417c-0.917-3.213-1.654-5.755-2.21-7.627
			c-0.559-1.869-1.034-3.542-1.426-5.019c-0.394-1.477-0.753-2.968-1.081-4.478c-0.328-1.509-0.753-3.477-1.277-5.904
			c-0.46,2.165-0.837,3.919-1.133,5.264s-0.64,2.755-1.035,4.231c-0.395,1.475-0.871,3.183-1.428,5.116
			c-0.56,1.935-1.332,4.575-2.315,7.92l-6.701,23.419l-17.91-0.007l-17.588-69.48l17.319,0.007
			c1.242,5.511,2.309,10.251,3.192,14.221c0.884,3.969,1.653,7.463,2.309,10.479c0.655,3.021,1.211,5.645,1.67,7.874
			c0.457,2.231,0.867,4.347,1.229,6.347c0.358,2.002,0.687,4.004,0.981,6.004c0.295,2.002,0.604,4.248,0.932,6.741
			c0.657-3.41,1.217-6.264,1.677-8.561c0.458-2.296,0.919-4.477,1.38-6.543c0.459-2.066,0.985-4.231,1.576-6.494
			c0.592-2.265,1.346-5.133,2.268-8.61l5.714-21.45L558.052,113.944z"/>
		<path fill="#1A1A1A" stroke="#1A1A1A" stroke-width="4.1002" d="M655.684,178.14c-3.412,2.819-7.005,4.738-10.776,5.753
			c-3.774,1.015-7.464,1.522-11.072,1.521c-5.509-0.001-10.414-0.988-14.71-2.958c-4.296-1.969-7.904-4.643-10.821-8.023
			c-2.918-3.379-5.148-7.3-6.688-11.762c-1.541-4.462-2.309-9.218-2.307-14.271c0.002-4.723,0.741-9.28,2.219-13.676
			c1.478-4.394,3.659-8.28,6.549-11.66c2.887-3.377,6.463-6.098,10.729-8.163c4.264-2.065,9.186-3.096,14.763-3.094
			c2.099,0.001,4.214,0.166,6.346,0.495c2.132,0.33,4.247,0.854,6.348,1.577c3.542,1.248,6.559,2.873,9.051,4.875
			c2.492,2.002,4.575,4.168,6.247,6.497c1.671,2.33,2.999,4.741,3.982,7.234c0.983,2.495,1.72,4.839,2.21,7.037
			c0.492,2.198,0.802,4.15,0.935,5.855c0.13,1.706,0.195,2.951,0.195,3.739c-0.002,3.019-0.331,5.938-0.988,8.757
			c-0.657,2.821-1.576,5.479-2.758,7.971c-1.183,2.493-2.578,4.771-4.185,6.838C659.342,174.745,657.587,176.565,655.684,178.14z
			 M651.561,150.289c0.133-3.673-0.278-7.216-1.229-10.629c-0.953-3.41-2.415-6.165-4.387-8.267
			c-1.513-1.575-3.339-2.821-5.477-3.742c-2.137-0.919-4.392-1.379-6.76-1.38c-2.632-0.001-5.018,0.54-7.154,1.622
			c-2.139,1.082-3.948,2.606-5.43,4.574c-1.482,1.967-2.634,4.28-3.455,6.937c-0.824,2.656-1.236,5.559-1.236,8.708
			c-0.002,4.134,0.521,7.644,1.574,10.53c1.051,2.887,2.415,5.216,4.092,6.988s3.551,3.068,5.623,3.889
			c2.072,0.821,4.129,1.232,6.169,1.232c2.038,0,4.094-0.375,6.168-1.13c2.071-0.751,3.93-1.967,5.577-3.638
			c1.646-1.674,3.012-3.788,4.098-6.346S651.429,153.965,651.561,150.289z"/>
		<path fill="#1A1A1A" stroke="#1A1A1A" stroke-width="4.1002" d="M677.543,113.987L708.836,114c1.835,0,3.754,0.05,5.756,0.149
			c2.001,0.1,3.985,0.38,5.953,0.838c1.969,0.461,3.902,1.167,5.805,2.118c1.902,0.953,3.641,2.281,5.215,3.987
			c1.638,1.838,2.967,4.085,3.984,6.743c1.015,2.657,1.521,5.561,1.52,8.709c-0.001,3.479-0.526,6.349-1.577,8.61
			c-1.05,2.263-2.314,4.117-3.79,5.558c-1.477,1.444-3.036,2.526-4.676,3.246c-1.641,0.723-3.051,1.312-4.23,1.771l16.028,27.756
			l-19.188-0.007l-13.822-24.804l-10.967-0.004l-0.01,24.798l-17.318-0.007L677.543,113.987z M694.857,126.984l-0.008,18.795
			l14.425,0.005c0.593,0.001,1.48-0.064,2.668-0.196c1.185-0.13,2.354-0.507,3.507-1.13c1.152-0.622,2.156-1.573,3.015-2.852
			c0.856-1.28,1.285-3.066,1.286-5.363c0.002-2.23-0.344-3.952-1.035-5.167c-0.693-1.214-1.563-2.117-2.615-2.708
			c-1.056-0.59-2.158-0.967-3.311-1.133c-1.153-0.164-2.189-0.246-3.112-0.247L694.857,126.984z"/>
		<path fill="#1A1A1A" stroke="#1A1A1A" stroke-width="4.1002" d="M747.409,114.014l16.532,0.006l-0.009,28.34l25.988-28.331
			l20.861,0.007l-24.611,25.772l26.554,43.702l-19.582-0.008l-18.588-31.496l-10.631,11.116l-0.007,20.368l-16.533-0.005
			L747.409,114.014z"/>
		<path fill="#1A1A1A" stroke="#1A1A1A" stroke-width="4.1002" d="M826.312,162.753c0.918,0.984,1.835,1.903,2.755,2.757
			c0.917,0.854,2.229,1.739,3.935,2.657c2.295,1.249,4.591,2.118,6.887,2.611c2.296,0.492,4.46,0.739,6.495,0.739
			c1.706,0.001,3.33-0.195,4.871-0.589c1.542-0.392,2.903-0.935,4.084-1.624c1.183-0.689,2.117-1.545,2.806-2.562
			c0.689-1.019,1.035-2.118,1.035-3.303c-0.001-1.38-0.394-2.496-1.177-3.351c-0.785-0.855-1.769-1.528-2.945-2.022
			c-1.178-0.491-2.487-0.854-3.927-1.085c-1.438-0.231-2.781-0.445-4.025-0.643c-1.896-0.265-3.796-0.527-5.693-0.791
			c-1.898-0.264-3.795-0.594-5.693-0.988c-0.721-0.132-1.669-0.347-2.848-0.642c-1.177-0.296-2.453-0.741-3.827-1.332
			c-1.375-0.59-2.782-1.33-4.222-2.219c-1.44-0.888-2.732-2.005-3.877-3.353s-2.076-2.959-2.796-4.832
			c-0.719-1.873-1.077-4.059-1.076-6.555c0.001-4.468,0.888-8.197,2.66-11.188c1.772-2.988,4.036-5.371,6.793-7.144
			c2.756-1.773,5.773-3.036,9.055-3.791c3.28-0.754,6.429-1.13,9.446-1.129c4.001,0.001,7.578,0.427,10.726,1.274
			c3.15,0.848,5.953,1.924,8.413,3.227c2.46,1.305,4.625,2.721,6.493,4.253c1.87,1.532,3.557,2.98,5.064,4.349l-12.794,9.143
			c-1.116-1.115-2.198-2.132-3.246-3.052c-1.051-0.917-2.263-1.772-3.64-2.559c-1.248-0.722-2.889-1.412-4.92-2.069
			c-2.033-0.656-4.167-0.986-6.396-0.987c-1.706,0-3.216,0.23-4.526,0.689c-1.314,0.459-2.396,1.034-3.248,1.724
			c-0.854,0.69-1.493,1.462-1.919,2.316c-0.429,0.855-0.641,1.708-0.642,2.561c-0.001,1.315,0.326,2.384,0.982,3.205
			c0.655,0.821,1.442,1.463,2.362,1.924c0.917,0.459,1.885,0.79,2.901,0.985c1.017,0.197,1.886,0.33,2.608,0.396
			c1.835,0.197,3.788,0.461,5.855,0.79c2.065,0.33,4.082,0.692,6.05,1.087c1.969,0.396,3.771,0.792,5.413,1.186
			c1.638,0.395,2.951,0.757,3.936,1.084c3.999,1.515,7,3.75,9.001,6.708c1.999,2.956,2.999,6.407,2.997,10.35
			c0,2.497-0.465,5.06-1.388,7.688c-0.925,2.629-2.312,4.994-4.159,7.096c-1.584,1.84-3.383,3.351-5.396,4.533
			c-2.014,1.184-4.154,2.135-6.423,2.855c-2.271,0.721-4.62,1.229-7.046,1.526c-2.43,0.292-4.856,0.44-7.283,0.439
			c-4.919-0.002-9.136-0.493-12.645-1.47c-3.51-0.979-6.492-2.185-8.952-3.619c-2.461-1.433-4.494-2.963-6.101-4.593
			c-1.607-1.63-2.935-3.064-3.982-4.304L826.312,162.753z"/>
		<path fill="#1A1A1A" d="M254.127,250.957l-7.51-0.002l-12.347-45.521h-0.152l-12.534,45.511l-7.51-0.003l-13.861-54.167
			l7.206,0.003l10.755,45.063h0.152l12.154-45.055l7.813,0.003l11.969,45.063h0.152l11.016-45.056l7.206,0.003L254.127,250.957z"/>
		<path fill="#1A1A1A" d="M272.576,196.802l37.398,0.015l-0.001,6.068l-30.192-0.012l-0.006,17.22l28.144,0.011l-0.003,6.068
			l-28.143-0.01l-0.007,18.736l30.419,0.012l-0.002,6.067l-37.626-0.014L272.576,196.802z"/>
		<path fill="#1A1A1A" d="M315.835,196.818l37.398,0.013l-0.002,6.067l-30.192-0.01l-0.006,17.221l28.143,0.011l-0.002,6.068
			l-28.144-0.011l-0.007,18.736l30.42,0.012l-0.002,6.069l-37.626-0.015L315.835,196.818z"/>
		<path fill="#1A1A1A" d="M358.464,196.834l7.206,0.002l-0.01,27.005l27.47-26.995l9.331,0.004l-22.842,21.839l23.732,32.324
			l-9.103-0.004l-19.562-27.392l-9.03,8.416l-0.007,18.965l-7.206-0.003L358.464,196.834z"/>
		<path fill="#666666" d="M428.537,237.141c-0.002,6.901,4.471,12.214,12.285,12.218c7.51,0.002,12.519-5.383,12.521-12.285
			c0.003-7.055-3.789-9.483-9.857-11.609l-6.145-2.125c-7.13-2.433-10.997-5.922-10.994-13.282
			c0.003-8.723,5.998-14.106,14.495-14.104c10.013,0.004,14.487,5.694,14.483,14.722l-3.187-0.001
			c0.002-7.281-3.333-12.139-10.995-12.142c-6.068-0.001-11.607,2.804-11.611,11.224c-0.002,5.993,3.259,8.877,7.961,10.473
			l8.041,2.809c6.978,2.43,10.997,5.845,10.993,13.811c-0.003,9.634-7.136,15.093-15.708,15.089
			c-12.516-0.004-15.472-8.804-15.47-14.038l0.001-3.566l3.186,0.002L428.537,237.141z"/>
		<path fill="#666666" d="M460.395,196.871l25.868,0.01l-0.002,2.883l-22.681-0.01l-0.01,21.62l21.166,0.009l-0.002,2.883
			l-21.164-0.008l-0.01,23.894l23.366,0.009l-0.001,2.884l-26.551-0.011L460.395,196.871z"/>
		<path fill="#666666" d="M489.757,196.883l14.033,0.006c12.669,0.23,14.714,9.184,14.712,15.024
			c-0.005,9.179-5.694,15.017-15.404,15.014l-10.166-0.005l-0.009,24.123h-3.185L489.757,196.883z M503.4,224.349
			c6.448,0.002,11.912-3.486,11.916-12.438c0.003-7.738-4.094-12.442-11.45-12.445l-10.925-0.003l-0.009,24.881L503.4,224.349z"/>
		<path fill="#666666" d="M531.778,199.78l-14.412-0.005l0.001-2.883l32.013,0.012l-0.001,2.883l-14.413-0.007l-0.019,51.28
			l-3.188-0.001L531.778,199.78z"/>
		<path fill="#666666" d="M551.79,196.906l25.866,0.009l-0.001,2.882l-22.681-0.008l-0.008,21.619l21.164,0.008l-0.001,2.883
			l-21.165-0.008l-0.009,23.896l23.365,0.008l-0.002,2.884l-26.55-0.012L551.79,196.906z"/>
		<path fill="#666666" d="M618.685,201.026h-0.151l-15.569,50.061l-3.186-0.002l-15.533-50.072h-0.152l-0.018,50.065h-3.187
			l0.02-54.162l5.16,0.002l15.38,48.706h0.151l15.038-48.694l5.234,0.001l-0.02,54.162h-3.186L618.685,201.026z"/>
		<path fill="#666666" d="M627.763,196.935l14.565,0.004c10.62,0.004,14.184,5.467,14.18,13.507
			c-0.002,7.283-4.024,11.38-10.017,12.135l-0.001,0.15c7.813,0.534,11.757,6.227,11.753,13.661
			c-0.004,9.102-5.922,14.713-15.48,14.709l-15.019-0.004L627.763,196.935z M641.333,221.44c6.979,0.002,11.987-3.333,11.99-10.995
			c0.003-7.359-3.638-10.926-10.616-10.927l-11.758-0.005l-0.009,21.923L641.333,221.44z M641.627,248.521
			c8.799,0.003,13.428-3.256,13.432-12.208c0.002-9.634-5.838-12.292-13.575-12.294l-10.543-0.004l-0.009,24.503L641.627,248.521z"
			/>
		<path fill="#666666" d="M662.322,196.946l25.867,0.01v2.883l-22.683-0.01l-0.008,21.621l21.164,0.007l-0.001,2.884l-21.165-0.008
			l-0.008,23.894l23.364,0.009v2.883l-26.552-0.01L662.322,196.946z"/>
		<path fill="#666666" d="M691.684,196.957l15.856,0.006c7.51,0.003,13.425,4.329,13.421,14.189
			c-0.002,7.131-3.798,12.667-10.853,13.423v0.152c8.874,0.533,10.466,5.996,10.463,13.431l-0.002,5.689
			c-0.002,3.111,0.454,5.084,1.817,7.283l-3.64-0.003c-0.834-1.592-1.365-4.171-1.363-7.356l0.002-5.539
			c0.002-7.737-2.119-12.214-10.843-12.217l-11.684-0.004l-0.009,25.108l-3.186-0.001L691.684,196.957z M705.026,223.438
			c5.992,0.001,12.745-1.968,12.749-12.287c0.003-7.282-4.092-11.606-10.692-11.609l-12.214-0.005l-0.008,23.896L705.026,223.438z"
			/>
		<path fill="#666666" d="M758.51,202.897c-2.58,2.959-8.195,5.915-12.822,6.368v-2.579c5.387-0.528,11.457-4.548,13.128-9.25
			l2.579,0.001l-0.021,53.707l-2.882-0.001L758.51,202.897z"/>
		<path fill="#666666" d="M774.446,198.353l23.138,0.009l-0.001,2.883l-20.71-0.008l-2.586,21.314l0.15,0.001
			c2.126-3.792,6.45-6.218,11.154-6.217c9.938,0.004,14.561,7.668,14.558,17.073c-0.003,9.786-4.558,18.66-15.405,18.656
			c-10.393-0.004-14.335-7.212-14.333-13.812v-0.531l3.187,0.002l-0.001,0.91c0.529,6.296,4.396,10.85,10.845,10.853
			c8.951,0.002,12.52-7.278,12.523-15.851c0.003-8.345-4.016-14.717-11.678-14.721c-6.676-0.003-9.712,4.624-10.852,7.127
			l-3.185-0.002L774.446,198.353z"/>
		<path fill="#666666" d="M804.481,229.237l14.336,0.007v2.578l-14.338-0.005L804.481,229.237z"/>
		<path fill="#666666" d="M830.569,202.925c-2.582,2.958-8.195,5.914-12.824,6.368l0.002-2.58c5.386-0.528,11.456-4.548,13.127-9.25
			l2.58,0.001l-0.021,53.708l-2.882-0.001L830.569,202.925z"/>
		<path fill="#666666" d="M847.029,239.874c-0.001,4.248,2.728,9.635,9.707,9.638c9.634,0.004,12.823-10.919,12.829-26.092v-1.061
			h-0.151c-1.291,4.626-4.632,10.314-12.748,10.312c-8.648-0.003-14.258-6.149-14.255-16.998
			c0.004-10.544,4.785-18.203,15.102-18.199c12.974,0.004,14.94,12.825,14.936,25.113c-0.005,15.855-2.438,29.509-16.018,29.504
			c-10.24-0.004-12.589-8.654-12.587-12.219L847.029,239.874z M857.36,200.053c-7.281-0.004-11.76,5.229-11.764,15.622
			c-0.002,8.04,3.56,14.414,11.45,14.417c8.041,0.004,11.608-6.672,11.611-15.243C868.661,208.097,865.705,200.055,857.36,200.053z"
			/>
	</g>
	<g opacity="0.5">
	</g>
	<g>
		
			<line fill="none" stroke="#666666" stroke-width="2.7624" stroke-miterlimit="10" x1="192.315" y1="13.413" x2="192.227" y2="248.562"/>
		<g>
			<polygon fill="#EC297B" points="17.941,91.436 141.907,91.482 141.928,31.18 17.965,31.135 51.393,61.132 			"/>
		</g>
		<g>
			
				<rect x="89.847" y="13.392" transform="matrix(-1 -3.506263e-04 3.506263e-04 -1 270.2039 87.1343)" fill="#EC297B" width="90.525" height="60.302"/>
		</g>
		<polygon fill="#C01C64" points="89.835,73.679 141.907,91.482 141.913,73.697 		"/>
	</g>
</g>
</svg>
