<?xml version="1.0" encoding="utf-8"?>
<!-- Generator: Adobe Illustrator 16.0.0, SVG Export Plug-In . SVG Version: 6.00 Build 0)  -->
<!DOCTYPE svg PUBLIC "-//W3C//DTD SVG 1.1//EN" "http://www.w3.org/Graphics/SVG/1.1/DTD/svg11.dtd">
<svg version="1.1" id="Layer_1" xmlns="http://www.w3.org/2000/svg" xmlns:xlink="http://www.w3.org/1999/xlink" x="0px" y="0px"
	 width="120px" height="141px" viewBox="0 0 120 141" enable-background="new 0 0 120 141" xml:space="preserve">
<g>
	<g>
		<path fill="#6D6E71" d="M85.88,40.607v0.012H75.203l-0.017,0.236c-0.033,0.377-0.067,0.748-0.125,1.117l-0.043,0.294h9.787v19.098
			h2.024V40.607H85.88z M62.945,54.379l-0.294,0.046c-0.364,0.055-0.738,0.093-1.116,0.122l-0.236,0.021v0.235
			c0,5.141,0,9.702,0,9.702v0.252h23.507v3.675c-1.135-0.13-2.159-0.185-3.092-0.185c-3.326,0-5.511,0.709-7.451,1.344
			c-1.713,0.559-3.293,1.08-5.687,1.125c-0.126,0.004-0.252,0.004-0.378,0.004c-2.749,0-4.778-0.584-6.773-1.16
			c-1.491-0.428-2.919-0.839-4.54-0.987c-0.882-0.076-1.756-0.118-2.612-0.118c-2.86,0-5.532,0.437-7.724,1.277l-0.168,0.063
			l0.062,4.889l0.344-0.126c1.845-0.714,5.339-1.387,8.262-1.382c0.496,0,0.971,0.021,1.42,0.059
			c1.159,0.105,2.311,0.433,3.662,0.819c2.173,0.63,4.658,1.344,8.067,1.34c0.151,0,0.311,0,0.462-0.004
			c3.1-0.055,5.225-0.748,7.056-1.353c1.874-0.613,3.848-1.21,6.679-1.21c0.739,0,1.537,0.042,2.411,0.135v4.901h-38.24v4.677h38.24
			v1.201h-38.24v4.679h38.24v3.755H36.031V42.266h9.74l-0.042-0.294c-0.055-0.369-0.093-0.739-0.122-1.117l-0.017-0.236H34.002
			v53.583H86.83v-7.418h-3.1v-0.008H48.212v-1.386H83.73v-0.009h3.1v-4.485h-2.353l0,0H48.212v-1.384H83.73v-0.021h3.1v-7.795
			l-0.202-0.038c-0.369-0.075-0.907-0.173-1.537-0.257l-0.285-0.033v0.009c-1.059-0.093-2-0.135-2.848-0.135
			c-2.756,0-4.562,0.463-6.401,1.067c-1.873,0.612-3.738,1.444-6.577,1.503c-0.144,0.005-0.286,0.005-0.429,0.005
			c-3.182,0-5.517-0.677-7.617-1.277c-1.349-0.391-2.634-0.756-3.97-0.877c-0.818-0.072-1.621-0.11-2.406-0.11
			c-2.326,0-4.494,0.307-6.329,0.874l-0.03-1.474c1.798-0.58,3.634-0.827,5.742-0.827c0.982,0,2.024,0.054,3.146,0.155
			c1.454,0.126,2.793,0.513,4.229,0.928c2.075,0.597,4.247,1.223,7.227,1.223c0.135,0,0.27,0,0.411-0.005
			c2.655-0.051,4.394-0.802,6.166-1.386c1.958-0.638,3.781-1.192,6.813-1.192c0.814,0,1.73,0.042,2.755,0.134
			c0.445,0.029,1.276,0.105,1.823,0.248l0.319,0.08v-7.56H62.945V54.379z"/>
		<path fill="#6D6E71" d="M75.062,39.179l-0.018-0.244c-0.017-0.374-0.051-0.744-0.101-1.118l0,0l-0.042-0.285h9.744V17.758H62.71
			v7.333l-0.289-0.046c-0.365-0.05-0.739-0.088-1.117-0.118l0,0l-0.235-0.017v-8.929v-0.256l25.602,0.008v23.445h-0.252h-0.521l0,0
			H75.062L75.062,39.179z M61.32,16.233v-0.251V16.233L61.32,16.233z"/>
		<path fill="#6D6E71" d="M33.918,39.166v-23.44h25.583v0.256v-0.256h0.257l-0.005,9.156l-0.243,0.017
			c-0.374,0.017-0.743,0.054-1.113,0.101l0,0l-0.29,0.038V17.75H35.942v19.77h9.698l-0.037,0.286
			c-0.051,0.374-0.084,0.743-0.105,1.125l0,0l-0.012,0.235H33.918L33.918,39.166z"/>
		<path fill="#6D6E71" d="M67.308,39.372h6.015l-0.018-0.265c-0.033-0.592-0.108-1.185-0.227-1.751
			c-0.008-0.034-0.008-0.068-0.017-0.11c-1.159-5.603-5.889-9.878-11.712-10.361l-0.265-0.021v6.191h-1.344v-6.208l-0.261,0.017
			c-6.578,0.408-11.832,5.662-12.227,12.243l-0.017,0.265h6.145v1.336h-6.128l0.025,0.269c0.542,6.459,5.767,11.576,12.281,11.941
			l0.26,0.012v-1.923h-0.004V39.372h1.34v1.634h-0.004v9.984l0,0v1.919l0.265-0.021c5.378-0.474,9.805-4.187,11.334-9.177
			l0.009-0.004c0.101-0.34,0.185-0.681,0.269-1.021c0.017-0.092,0.042-0.189,0.059-0.286c0.092-0.466,0.151-0.94,0.193-1.419
			l0.024-0.272h-5.997V39.372z M58.229,37.78v1.587h-0.008v1.592h0.008v9.887c-4.418-0.802-7.926-4.192-8.892-8.543h5.733v-1.403
			h-0.005v-1.453h0.005V37.78h-5.796c0.86-4.481,4.394-8.001,8.879-8.845v5.812h4.52v-5.733c4.299,0.97,7.658,4.414,8.49,8.766h-5.5
			v4.523h5.441c-0.925,4.171-4.192,7.463-8.356,8.434V37.78H58.229z"/>
	</g>
	<g>
		<path fill="#6D6E71" d="M13.951,101.057h2.835c1.727,0,4.423,0.093,4.423,4.562c0,1.681-0.495,4.233-2.457,4.587l3.284,8.677
			h-2.461l-3.213-8.728h-0.047v8.728h-2.364V101.057z M18.701,106.139c0-1.705-0.21-3.116-2.007-3.074h-0.379v5.889
			C18.088,109.07,18.701,107.937,18.701,106.139z"/>
		<path fill="#6D6E71" d="M25.796,118.882h-2.365v-17.825h2.365V118.882z"/>
		<path fill="#6D6E71" d="M30.004,101.057l2.033,13.407h0.05l0.114-1.117l0.948-5.998l1.088-6.292h2.247l-3.503,17.825h-1.89
			l-3.452-17.825H30.004z"/>
		<path fill="#6D6E71" d="M44.662,101.057v2.059h-3.994v5.603h3.57v2.059h-3.57v6.048h3.994v2.058h-6.358v-17.825H44.662z"/>
		<path fill="#6D6E71" d="M46.507,101.057h2.839c1.726,0,4.418,0.093,4.418,4.562c0,1.681-0.495,4.233-2.457,4.587l3.289,8.677
			h-2.462l-3.212-8.728h-0.047v8.728h-2.368V101.057z M51.261,106.139c0-1.705-0.214-3.116-2.012-3.074h-0.374v5.889
			C50.644,109.07,51.261,107.937,51.261,106.139z"/>
		<path fill="#6D6E71" d="M56.792,101.057l1.681,12.079l0.096,1.328h0.047l0.71-5.98l1.23-7.427h1.844l1.937,13.289h0.046
			l0.639-5.721l1.088-7.568h2.291l-3.118,17.825h-1.891l-1.348-8.299l-0.542-4.486l-0.025-0.453h-0.051l-0.517,4.797l-0.163,1.017
			l-1.256,7.425h-1.941l-3.069-17.825H56.792z"/>
		<path fill="#6D6E71" d="M78.48,109.97c0,3.217-0.051,9.147-4.638,9.147c-4.586,0-4.637-5.931-4.637-9.147
			c0-3.218,0.051-9.148,4.637-9.148C78.43,100.821,78.48,106.752,78.48,109.97z M71.718,109.97c0,3.788,0.26,6.93,2.125,6.93
			s2.125-3.142,2.125-6.93c0-3.78-0.26-6.931-2.125-6.931S71.718,106.189,71.718,109.97z"/>
		<path fill="#6D6E71" d="M80.319,101.057h2.84c1.722,0,4.418,0.093,4.418,4.562c0,1.681-0.495,4.233-2.453,4.587l3.285,8.677
			h-2.462l-3.217-8.728h-0.042v8.728h-2.369V101.057z M85.074,106.139c0-1.705-0.21-3.116-2.008-3.074h-0.378v5.889
			C84.461,109.07,85.074,107.937,85.074,106.139z"/>
		<path fill="#6D6E71" d="M92.163,101.057l0.025,8.627h0.076l3.284-8.627h2.437l-3.503,8.627l3.779,9.198h-2.713l-3.335-9.198
			h-0.051v9.198h-2.359v-17.825H92.163z"/>
		<path fill="#6D6E71" d="M105.075,103.804c-0.613-0.454-1.201-0.765-2.008-0.765c-1.302,0-2.108,1.067-2.108,2.293
			c0,0.782,0.193,1.327,0.663,1.941l1.798,1.965c1.613,1.63,2.528,2.814,2.528,5.226c0,2.503-1.554,4.653-4.183,4.653
			c-0.916,0-1.865-0.261-2.596-0.848v-2.387c0.705,0.513,1.411,0.925,2.335,0.925c1.47,0,2.083-1.159,2.083-2.487
			c0-3.544-4.99-4.259-4.99-8.938c0-2.503,1.328-4.562,3.999-4.562c0.899,0,1.747,0.144,2.504,0.589L105.075,103.804z"/>
	</g>
	<rect x="13.858" y="123.586" fill="#6D6E71" width="92.283" height="1.688"/>
</g>
</svg>
