<?xml version="1.0" encoding="utf-8"?>
<!-- Generator: Adobe Illustrator 16.0.0, SVG Export Plug-In . SVG Version: 6.00 Build 0)  -->
<!DOCTYPE svg PUBLIC "-//W3C//DTD SVG 1.1//EN" "http://www.w3.org/Graphics/SVG/1.1/DTD/svg11.dtd">
<svg version="1.1" id="Layer_1" xmlns="http://www.w3.org/2000/svg" xmlns:xlink="http://www.w3.org/1999/xlink" x="0px" y="0px"
	 width="547px" height="264px" viewBox="0 0 547 264" enable-background="new 0 0 547 264" xml:space="preserve">
<g>
	<g>
		<path fill="#1A1A1A" stroke="#1A1A1A" stroke-width="3.1195" d="M20.582,146.114l23.808,0.01c1.397,0,2.857,0.037,4.38,0.113
			c1.522,0.075,3.032,0.288,4.529,0.638c1.497,0.351,2.969,0.889,4.417,1.611c1.447,0.725,2.77,1.735,3.967,3.033
			c1.246,1.399,2.257,3.108,3.03,5.13c0.772,2.022,1.158,4.231,1.158,6.626c-0.001,2.646-0.402,4.83-1.2,6.552
			c-0.801,1.721-1.761,3.132-2.885,4.228c-1.123,1.099-2.31,1.921-3.557,2.47c-1.248,0.551-2.321,0.999-3.22,1.347l12.195,21.118
			l-14.599-0.006l-10.518-18.871l-8.343-0.003l-0.007,18.866l-13.177-0.005L20.582,146.114z M33.755,156.002l-0.005,14.3
			l10.974,0.005c0.45,0,1.127-0.051,2.03-0.149c0.901-0.101,1.79-0.387,2.668-0.861c0.876-0.473,1.641-1.195,2.293-2.17
			c0.652-0.972,0.979-2.333,0.979-4.08c0.001-1.695-0.263-3.006-0.788-3.931c-0.526-0.923-1.189-1.609-1.99-2.06
			c-0.803-0.449-1.641-0.736-2.519-0.861c-0.877-0.125-1.665-0.188-2.368-0.188L33.755,156.002z"/>
		<path fill="#1A1A1A" stroke="#1A1A1A" stroke-width="3.1195" d="M86.989,146.14l-0.02,52.855l-13.177-0.005l0.02-52.856
			L86.989,146.14z"/>
		<path fill="#1A1A1A" stroke="#1A1A1A" stroke-width="3.1195" d="M128.391,146.154l14.075,0.006l-18.362,52.849l-13.477-0.005
			l-18.099-52.863l14.075,0.006l10.917,37.588L128.391,146.154z"/>
		<path fill="#1A1A1A" stroke="#1A1A1A" stroke-width="3.1195" d="M149.951,146.162l39.081,0.016l-0.004,10.33l-25.904-0.01
			l-0.003,9.508l24.182,0.01l-0.003,10.032l-24.183-0.009l-0.005,12.653l28.226,0.01l-0.005,10.332l-41.401-0.015L149.951,146.162z"
			/>
		<path fill="#1A1A1A" stroke="#1A1A1A" stroke-width="3.1195" d="M197.672,146.18l23.808,0.009
			c1.396,0.001,2.857,0.039,4.379,0.114c1.523,0.076,3.033,0.288,4.53,0.637c1.497,0.352,2.969,0.89,4.417,1.612
			c1.446,0.726,2.769,1.736,3.967,3.033c1.247,1.399,2.257,3.108,3.029,5.13c0.773,2.021,1.16,4.23,1.158,6.626
			c0,2.646-0.401,4.829-1.199,6.551c-0.8,1.722-1.762,3.134-2.885,4.229c-1.124,1.1-2.31,1.922-3.558,2.471
			c-1.248,0.55-2.321,0.997-3.219,1.346l12.195,21.117l-14.599-0.004l-10.519-18.872l-8.343-0.002l-0.006,18.866l-13.177-0.006
			L197.672,146.18z M210.844,156.067l-0.004,14.3l10.975,0.004c0.449,0.001,1.126-0.049,2.029-0.148
			c0.902-0.1,1.791-0.387,2.668-0.86c0.876-0.474,1.641-1.197,2.293-2.172c0.652-0.971,0.979-2.331,0.979-4.078
			c0-1.696-0.263-3.007-0.788-3.932c-0.527-0.923-1.189-1.608-1.99-2.06c-0.804-0.448-1.641-0.736-2.519-0.862
			c-0.877-0.124-1.667-0.188-2.368-0.188L210.844,156.067z"/>
		<path fill="#1A1A1A" stroke="#1A1A1A" stroke-width="3.1195" d="M288.485,146.213c0.798,2.846,1.596,5.691,2.393,8.537
			c0.798,2.845,1.62,5.689,2.468,8.535c0.748,2.546,1.347,4.643,1.795,6.29c0.449,1.646,0.847,3.219,1.196,4.716
			c0.349,1.498,0.685,3.083,1.009,4.756c0.323,1.672,0.684,3.78,1.083,6.326c0.4-2.596,0.737-4.753,1.013-6.477
			c0.275-1.721,0.563-3.367,0.863-4.94c0.301-1.571,0.639-3.23,1.013-4.978c0.375-1.747,0.863-3.969,1.462-6.663
			c0.55-2.695,1.125-5.377,1.725-8.048c0.602-2.67,1.176-5.353,1.727-8.047l13.101,0.005l-13.42,52.851l-13.627-0.005
			c-0.847-2.944-1.67-5.865-2.467-8.76c-0.798-2.895-1.619-5.791-2.468-8.687c-0.697-2.444-1.259-4.379-1.682-5.803
			c-0.425-1.422-0.787-2.695-1.084-3.818c-0.3-1.124-0.573-2.258-0.823-3.407c-0.25-1.147-0.572-2.644-0.972-4.491
			c-0.35,1.646-0.637,2.981-0.862,4.004c-0.225,1.023-0.486,2.097-0.787,3.22c-0.3,1.122-0.663,2.422-1.086,3.893
			c-0.426,1.472-1.014,3.48-1.762,6.025l-5.099,17.817l-13.626-0.005l-13.382-52.861l13.178,0.004
			c0.944,4.194,1.756,7.8,2.429,10.821c0.672,3.019,1.257,5.678,1.756,7.973c0.499,2.297,0.922,4.293,1.271,5.989
			c0.348,1.699,0.66,3.308,0.935,4.829c0.273,1.522,0.522,3.046,0.747,4.568s0.459,3.232,0.709,5.129
			c0.5-2.595,0.926-4.766,1.275-6.513c0.349-1.748,0.699-3.407,1.05-4.979c0.349-1.571,0.75-3.219,1.199-4.94
			c0.45-1.723,1.024-3.905,1.726-6.551l4.347-16.319L288.485,146.213z"/>
		<path fill="#1A1A1A" stroke="#1A1A1A" stroke-width="3.1195" d="M362.766,195.055c-2.596,2.145-5.33,3.604-8.199,4.377
			c-2.871,0.771-5.678,1.158-8.424,1.157c-4.191-0.001-7.924-0.752-11.191-2.25c-3.269-1.498-6.015-3.533-8.233-6.104
			c-2.22-2.57-3.917-5.555-5.087-8.949c-1.173-3.395-1.758-7.013-1.755-10.856c0.001-3.595,0.563-7.061,1.688-10.406
			c1.124-3.343,2.783-6.299,4.982-8.871c2.196-2.568,4.917-4.639,8.162-6.21c3.244-1.57,6.988-2.355,11.232-2.354
			c1.596,0.001,3.205,0.126,4.827,0.377c1.622,0.25,3.231,0.648,4.83,1.198c2.694,0.949,4.989,2.187,6.886,3.709
			c1.896,1.523,3.48,3.172,4.753,4.943c1.271,1.772,2.281,3.606,3.03,5.503c0.748,1.899,1.308,3.683,1.681,5.354
			c0.375,1.672,0.609,3.157,0.711,4.455c0.1,1.298,0.149,2.245,0.149,2.845c-0.002,2.296-0.253,4.519-0.753,6.663
			c-0.499,2.146-1.199,4.167-2.098,6.063c-0.9,1.896-1.962,3.63-3.185,5.202C365.549,192.473,364.213,193.857,362.766,195.055z
			 M359.629,173.865c0.101-2.794-0.213-5.489-0.936-8.086c-0.725-2.596-1.838-4.691-3.338-6.289c-1.15-1.199-2.54-2.147-4.166-2.847
			s-3.342-1.05-5.144-1.051c-2.002,0-3.817,0.41-5.442,1.233c-1.628,0.824-3.005,1.983-4.132,3.48
			c-1.128,1.496-2.003,3.256-2.628,5.277c-0.627,2.021-0.94,4.229-0.94,6.624c-0.002,3.146,0.396,5.816,1.197,8.012
			c0.799,2.197,1.837,3.969,3.112,5.317c1.276,1.35,2.702,2.335,4.279,2.958c1.576,0.625,3.141,0.938,4.693,0.938
			c1.55,0,3.114-0.285,4.692-0.859c1.576-0.572,2.989-1.496,4.243-2.768c1.251-1.274,2.291-2.882,3.117-4.829
			C359.064,179.032,359.528,176.662,359.629,173.865z"/>
		<path fill="#1A1A1A" stroke="#1A1A1A" stroke-width="3.1195" d="M379.396,146.247l23.808,0.009
			c1.396,0.001,2.856,0.038,4.38,0.114c1.522,0.075,3.032,0.288,4.529,0.638c1.498,0.351,2.969,0.888,4.416,1.611
			c1.447,0.726,2.771,1.735,3.968,3.033c1.245,1.399,2.257,3.108,3.031,5.13c0.771,2.021,1.157,4.231,1.156,6.626
			c-0.001,2.646-0.401,4.83-1.2,6.551c-0.799,1.722-1.762,3.133-2.884,4.229c-1.124,1.099-2.31,1.922-3.557,2.47
			c-1.249,0.55-2.321,0.998-3.22,1.348l12.195,21.116l-14.599-0.005l-10.517-18.871l-8.344-0.003l-0.007,18.866l-13.177-0.005
			L379.396,146.247z M392.569,156.135l-0.006,14.3l10.975,0.004c0.451,0.001,1.126-0.05,2.029-0.149
			c0.901-0.1,1.791-0.386,2.669-0.86c0.876-0.473,1.641-1.196,2.294-2.169c0.65-0.974,0.978-2.333,0.978-4.08
			c0.002-1.697-0.262-3.007-0.787-3.932c-0.527-0.923-1.189-1.609-1.99-2.06c-0.803-0.449-1.642-0.736-2.519-0.862
			c-0.877-0.124-1.665-0.188-2.367-0.188L392.569,156.135z"/>
		<path fill="#1A1A1A" stroke="#1A1A1A" stroke-width="3.1195" d="M432.552,146.267l12.578,0.006l-0.007,21.562l19.772-21.556
			l15.871,0.007l-18.725,19.607l20.202,33.249l-14.897-0.005l-14.143-23.964l-8.088,8.458l-0.006,15.497l-12.577-0.005
			L432.552,146.267z"/>
		<path fill="#1A1A1A" stroke="#1A1A1A" stroke-width="3.1195" d="M492.581,183.348c0.699,0.749,1.397,1.448,2.098,2.099
			c0.696,0.648,1.694,1.322,2.992,2.021c1.747,0.95,3.493,1.611,5.24,1.986c1.746,0.375,3.393,0.562,4.941,0.562
			c1.298,0.001,2.534-0.148,3.706-0.447c1.173-0.299,2.209-0.711,3.107-1.236c0.899-0.524,1.61-1.176,2.134-1.948
			c0.524-0.775,0.788-1.611,0.788-2.513c-0.001-1.05-0.299-1.899-0.896-2.55s-1.345-1.163-2.241-1.539
			c-0.896-0.373-1.892-0.648-2.987-0.825c-1.094-0.176-2.116-0.338-3.062-0.488c-1.442-0.201-2.888-0.402-4.332-0.603
			c-1.443-0.2-2.887-0.451-4.331-0.752c-0.549-0.101-1.271-0.264-2.166-0.488c-0.896-0.225-1.867-0.563-2.912-1.013
			c-1.047-0.449-2.117-1.012-3.212-1.688c-1.097-0.677-2.079-1.525-2.949-2.551c-0.871-1.026-1.58-2.252-2.128-3.677
			c-0.546-1.426-0.819-3.088-0.818-4.987c0-3.399,0.675-6.236,2.024-8.512c1.348-2.273,3.069-4.086,5.168-5.435
			c2.097-1.35,4.392-2.311,6.888-2.885c2.497-0.573,4.892-0.859,7.188-0.859c3.045,0.001,5.767,0.325,8.16,0.97
			c2.397,0.645,4.529,1.463,6.4,2.455c1.872,0.993,3.519,2.069,4.94,3.235c1.423,1.166,2.706,2.268,3.854,3.309l-9.734,6.957
			c-0.85-0.848-1.672-1.622-2.469-2.322c-0.8-0.699-1.722-1.349-2.771-1.947c-0.949-0.549-2.196-1.074-3.742-1.574
			c-1.548-0.499-3.171-0.751-4.867-0.751c-1.298-0.001-2.446,0.176-3.443,0.524c-0.999,0.35-1.822,0.787-2.472,1.312
			c-0.648,0.524-1.135,1.112-1.46,1.763s-0.486,1.299-0.487,1.947c-0.001,1.001,0.248,1.814,0.747,2.439
			c0.498,0.625,1.097,1.112,1.797,1.463c0.698,0.35,1.435,0.603,2.208,0.75c0.773,0.15,1.436,0.252,1.985,0.301
			c1.396,0.15,2.881,0.352,4.454,0.602c1.571,0.251,3.105,0.526,4.603,0.827c1.498,0.301,2.87,0.603,4.118,0.902
			c1.247,0.299,2.246,0.575,2.994,0.824c3.043,1.152,5.326,2.854,6.849,5.104c1.521,2.249,2.281,4.874,2.28,7.873
			c0,1.9-0.354,3.851-1.056,5.851c-0.704,1.999-1.759,3.799-3.164,5.397c-1.205,1.4-2.574,2.55-4.106,3.449
			c-1.532,0.9-3.161,1.624-4.887,2.173c-1.728,0.548-3.515,0.936-5.36,1.16c-1.849,0.223-3.695,0.336-5.541,0.335
			c-3.742-0.002-6.951-0.375-9.62-1.118c-2.671-0.744-4.939-1.662-6.812-2.754c-1.872-1.09-3.418-2.254-4.641-3.493
			c-1.223-1.24-2.233-2.332-3.03-3.275L492.581,183.348z"/>
		<path fill="#1A1A1A" d="M57.255,250.456l-5.714-0.002l-9.394-34.633h-0.116l-9.536,34.625l-5.714-0.002l-10.546-41.211
			l5.483,0.002l8.182,34.285h0.115l9.248-34.278l5.944,0.002l9.105,34.285h0.116l8.381-34.278l5.482,0.002L57.255,250.456z"/>
		<path fill="#1A1A1A" d="M71.291,209.254l28.453,0.011l-0.001,4.617l-22.971-0.01l-0.005,13.102l21.412,0.008l-0.003,4.617
			l-21.411-0.008l-0.006,14.256l23.144,0.009l-0.001,4.615l-28.627-0.011L71.291,209.254z"/>
		<path fill="#1A1A1A" d="M104.203,209.266l28.453,0.01l-0.001,4.616l-22.971-0.008l-0.005,13.103l21.411,0.008l-0.002,4.617
			l-21.412-0.009l-0.005,14.256l23.145,0.009l-0.003,4.617l-28.626-0.011L104.203,209.266z"/>
		<path fill="#1A1A1A" d="M136.637,209.277l5.481,0.002l-0.007,20.546l20.9-20.539l7.098,0.004l-17.378,16.615l18.056,24.593
			l-6.926-0.003l-14.883-20.84l-6.869,6.402l-0.006,14.429l-5.482-0.002L136.637,209.277z"/>
		<path fill="#666666" d="M189.948,239.943c-0.002,5.251,3.402,9.293,9.347,9.295c5.713,0.003,9.524-4.094,9.526-9.346
			c0.002-5.368-2.883-7.215-7.5-8.833l-4.675-1.617c-5.424-1.851-8.366-4.505-8.364-10.104c0.003-6.636,4.563-10.733,11.028-10.729
			c7.618,0.002,11.021,4.332,11.02,11.199h-2.425c0.002-5.54-2.536-9.235-8.365-9.237c-4.617-0.001-8.831,2.133-8.834,8.538
			c-0.001,4.56,2.479,6.755,6.058,7.969l6.117,2.136c5.309,1.849,8.366,4.447,8.363,10.509c-0.002,7.329-5.43,11.482-11.95,11.479
			c-9.522-0.003-11.771-6.697-11.77-10.68l0.001-2.713l2.424,0.001L189.948,239.943z"/>
		<path fill="#666666" d="M214.187,209.306l19.681,0.008l-0.001,2.192L216.61,211.5l-0.008,16.448l16.104,0.006l-0.002,2.194
			l-16.102-0.006l-0.007,18.179l17.776,0.006v2.194l-20.201-0.008L214.187,209.306z"/>
		<path fill="#666666" d="M236.525,209.314l10.677,0.005c9.639,0.175,11.194,6.987,11.193,11.432
			c-0.004,6.982-4.332,11.425-11.72,11.422l-7.734-0.004l-0.007,18.354h-2.423L236.525,209.314z M246.906,230.211
			c4.905,0.002,9.062-2.651,9.065-9.463c0.002-5.887-3.114-9.466-8.711-9.468l-8.312-0.003l-0.006,18.931L246.906,230.211z"/>
		<path fill="#666666" d="M268.496,211.52l-10.965-0.003l0.001-2.194l24.355,0.009v2.193l-10.966-0.005l-0.015,39.015l-2.425-0.001
			L268.496,211.52z"/>
		<path fill="#666666" d="M283.722,209.333l19.68,0.007l-0.001,2.192l-17.256-0.006l-0.006,16.448l16.103,0.006l-0.002,2.192
			l-16.103-0.005l-0.006,18.181l17.776,0.005l-0.002,2.193l-20.199-0.008L283.722,209.333z"/>
		<path fill="#666666" d="M334.615,212.468h-0.114l-11.846,38.086l-2.424-0.001l-11.817-38.096h-0.116l-0.014,38.09h-2.424
			l0.015-41.207l3.926,0.002l11.701,37.057h0.115l11.441-37.048l3.982,0.001l-0.015,41.208h-2.424L334.615,212.468z"/>
		<path fill="#666666" d="M341.522,209.354l11.082,0.004c8.08,0.003,10.791,4.158,10.788,10.276
			c-0.001,5.541-3.062,8.658-7.621,9.232v0.114c5.944,0.407,8.944,4.737,8.941,10.394c-0.003,6.924-4.505,11.194-11.777,11.19
			l-11.428-0.003L341.522,209.354z M351.848,227.999c5.309,0.001,9.12-2.535,9.122-8.365c0.002-5.6-2.768-8.312-8.077-8.313
			l-8.945-0.003l-0.007,16.679L351.848,227.999z M352.071,248.603c6.694,0.003,10.216-2.478,10.22-9.288
			c0.001-7.329-4.442-9.353-10.329-9.354l-8.021-0.003l-0.007,18.643L352.071,248.603z"/>
		<path fill="#666666" d="M367.816,209.363l19.68,0.007v2.194l-17.257-0.008l-0.006,16.45l16.103,0.004l-0.001,2.195l-16.104-0.007
			l-0.005,18.18l17.774,0.006v2.193l-20.2-0.008L367.816,209.363z"/>
		<path fill="#666666" d="M390.155,209.371l12.063,0.005c5.714,0.002,10.213,3.293,10.211,10.795
			c-0.002,5.426-2.89,9.638-8.257,10.213v0.116c6.751,0.405,7.962,4.562,7.96,10.219l-0.001,4.327
			c-0.001,2.368,0.345,3.868,1.383,5.542l-2.769-0.002c-0.635-1.211-1.039-3.174-1.038-5.598l0.001-4.214
			c0.002-5.887-1.612-9.292-8.249-9.295l-8.89-0.003l-0.006,19.104l-2.424-0.001L390.155,209.371z M400.306,229.518
			c4.56,0.001,9.697-1.497,9.701-9.348c0.002-5.54-3.114-8.83-8.137-8.832l-9.292-0.005l-0.005,18.182L400.306,229.518z"/>
		<path fill="#666666" d="M440.997,213.891c-1.963,2.251-6.234,4.501-9.756,4.846v-1.963c4.1-0.401,8.718-3.46,9.988-7.037
			l1.963,0.001l-0.017,40.861l-2.192-0.001L440.997,213.891z"/>
		<path fill="#666666" d="M453.122,210.433l17.604,0.007l-0.001,2.193l-15.757-0.005l-1.967,16.216h0.114
			c1.617-2.885,4.907-4.73,8.486-4.729c7.561,0.004,11.078,5.834,11.076,12.989c-0.002,7.446-3.468,14.197-11.721,14.195
			c-7.907-0.004-10.907-5.487-10.904-10.51v-0.403l2.424,0.001l-0.001,0.692c0.403,4.79,3.345,8.254,8.25,8.257
			c6.812,0.002,9.525-5.537,9.528-12.06c0.003-6.349-3.055-11.196-8.885-11.2c-5.078-0.002-7.388,3.519-8.256,5.423l-2.422-0.002
			L453.122,210.433z"/>
		<path fill="#666666" d="M475.974,233.931l10.906,0.005v1.962l-10.907-0.004L475.974,233.931z"/>
		<path fill="#666666" d="M495.821,213.912c-1.965,2.251-6.234,4.499-9.757,4.845l0.001-1.963c4.098-0.401,8.717-3.46,9.988-7.037
			h1.963L498,250.619l-2.191-0.001L495.821,213.912z"/>
		<path fill="#666666" d="M508.344,242.023c0,3.231,2.076,7.331,7.386,7.333c7.329,0.002,9.756-8.308,9.761-19.852v-0.807h-0.116
			c-0.981,3.52-3.522,7.848-9.698,7.845c-6.58-0.002-10.848-4.679-10.846-12.933c0.004-8.021,3.641-13.85,11.49-13.846
			c9.871,0.003,11.366,9.758,11.363,19.106c-0.004,12.062-1.855,22.45-12.188,22.447c-7.79-0.004-9.577-6.585-9.576-9.297
			L508.344,242.023z M516.204,211.727c-5.539-0.003-8.947,3.978-8.95,11.886c-0.001,6.117,2.709,10.966,8.712,10.968
			c6.117,0.004,8.832-5.075,8.834-11.597C524.802,217.847,522.554,211.729,516.204,211.727z"/>
	</g>
	<g opacity="0.5">
	</g>
</g>
<g>
	
		<line fill="none" stroke="#666666" stroke-width="1.3814" stroke-miterlimit="10" x1="274.1" y1="13.38" x2="274.057" y2="130.974"/>
	<g>
		<polygon fill="#EC297B" points="186.9,52.398 248.893,52.421 248.902,22.266 186.912,22.243 203.628,37.244 		"/>
	</g>
	<g>
		
			<rect x="222.859" y="13.37" transform="matrix(-1 -3.558715e-04 3.558715e-04 -1 490.9767 56.9834)" fill="#EC297B" width="45.269" height="30.156"/>
	</g>
	<polygon fill="#C01C64" points="222.852,43.518 248.893,52.421 248.896,43.527 	"/>
</g>
</svg>
