<?xml version="1.0" encoding="utf-8"?>
<!-- Generator: Adobe Illustrator 16.0.0, SVG Export Plug-In . SVG Version: 6.00 Build 0)  -->
<!DOCTYPE svg PUBLIC "-//W3C//DTD SVG 1.1//EN" "http://www.w3.org/Graphics/SVG/1.1/DTD/svg11.dtd">
<svg version="1.1" id="Layer_1" xmlns="http://www.w3.org/2000/svg" xmlns:xlink="http://www.w3.org/1999/xlink" x="0px" y="0px"
	 width="95px" height="29px" viewBox="0 0 95 29" enable-background="new 0 0 95 29" xml:space="preserve">
<g>
	<g opacity="0.5">
		<g>
			<g>
				<polygon fill="#C8BA2E" points="88.609,19.047 88.451,18.605 86.229,20.831 86.384,21.273 				"/>
			</g>
			<g>
				<polygon fill="#C8BA2E" points="88.016,17.377 87.857,16.936 85.639,19.154 85.794,19.598 				"/>
			</g>
			<g>
				<polygon fill="#C8BA2E" points="88.312,18.211 88.156,17.771 85.934,19.992 86.088,20.436 				"/>
			</g>
			<g>
				<polygon fill="#C8BA2E" points="87.719,16.541 87.561,16.1 85.344,18.316 85.498,18.76 				"/>
			</g>
			<g>
				<polygon fill="#C8BA2E" points="87.421,15.705 87.264,15.266 85.048,17.48 85.204,17.922 				"/>
			</g>
			<g>
				<polygon fill="#C8BA2E" points="87.122,14.871 86.967,14.43 84.753,16.643 84.909,17.084 				"/>
			</g>
			<g>
				<polygon fill="#C8BA2E" points="89.459,18.73 89.459,19.329 93.107,15.682 93.107,15.084 				"/>
			</g>
			<g>
				<polygon fill="#C8BA2E" points="88.907,19.883 88.75,19.441 86.521,21.668 86.678,22.111 				"/>
			</g>
			<g>
				<polygon fill="#C8BA2E" points="89.459,17.6 89.459,18.197 93.107,14.548 93.107,13.951 				"/>
			</g>
			<g>
				<polygon fill="#C8BA2E" points="89.459,19.864 89.459,20.463 93.107,16.812 93.107,16.215 				"/>
			</g>
			<g>
				<polygon fill="#C8BA2E" points="93.107,17.947 93.107,17.35 89.459,20.997 89.459,21.281 89.402,21.281 89.344,21.111 
					87.113,23.344 87.27,23.787 				"/>
			</g>
			<g>
				<polygon fill="#C8BA2E" points="89.203,20.718 89.047,20.277 86.816,22.506 86.973,22.949 				"/>
			</g>
			<g>
				<polygon fill="#C8BA2E" points="82.902,7.766 82.305,7.766 80.006,10.062 80.006,10.661 				"/>
			</g>
			<g>
				<polygon fill="#C8BA2E" points="89.459,16.467 89.459,17.064 93.107,13.416 93.107,12.818 				"/>
			</g>
			<g>
				<polygon fill="#C8BA2E" points="81.77,7.766 81.171,7.766 80.006,8.93 80.006,9.527 				"/>
			</g>
			<g>
				<polygon fill="#C8BA2E" points="84.034,7.766 83.438,7.766 80.006,11.195 80.006,11.793 				"/>
			</g>
			<g>
				<polygon fill="#C8BA2E" points="83.654,23.402 80.006,27.051 80.006,27.5 80.154,27.5 83.654,24 				"/>
			</g>
			<g>
				<polygon fill="#C8BA2E" points="84.745,8.188 84.596,7.766 84.568,7.766 80.006,12.326 80.006,12.926 				"/>
			</g>
			<g>
				<polygon fill="#C8BA2E" points="80.637,7.766 80.038,7.766 80.006,7.797 80.006,8.395 				"/>
			</g>
			<g>
				<polygon fill="#C8BA2E" points="86.529,13.2 86.371,12.758 84.164,14.967 84.32,15.409 				"/>
			</g>
			<g>
				<polygon fill="#C8BA2E" points="83.654,13.808 83.654,13.68 83.711,13.68 83.729,13.734 85.934,11.529 85.777,11.088 
					80.006,16.857 80.006,17.456 				"/>
			</g>
			<g>
				<polygon fill="#C8BA2E" points="86.827,14.036 86.669,13.594 84.459,15.805 84.615,16.246 				"/>
			</g>
			<g>
				<polygon fill="#C8BA2E" points="83.868,14.129 84.023,14.572 86.23,12.364 86.074,11.923 				"/>
			</g>
			<g>
				<polygon fill="#C8BA2E" points="85.639,10.693 85.479,10.253 80.006,15.727 80.006,16.324 				"/>
			</g>
			<g>
				<polygon fill="#C8BA2E" points="85.042,9.023 84.885,8.582 80.006,13.459 80.006,14.059 				"/>
			</g>
			<g>
				<polygon fill="#C8BA2E" points="85.34,9.858 85.182,9.416 80.006,14.593 80.006,15.191 				"/>
			</g>
			<g>
				<polygon fill="#C8BA2E" points="83.654,14.94 83.654,14.342 80.006,17.991 80.006,18.588 				"/>
			</g>
			<g>
				<polygon fill="#C8BA2E" points="83.654,27.398 83.654,26.801 82.956,27.5 83.555,27.5 				"/>
			</g>
			<g>
				<polygon fill="#C8BA2E" points="93.107,20.211 93.107,19.613 87.702,25.02 87.857,25.461 				"/>
			</g>
			<g>
				<polygon fill="#C8BA2E" points="83.654,26.266 83.654,25.668 81.822,27.5 82.422,27.5 				"/>
			</g>
			<g>
				<polygon fill="#C8BA2E" points="93.107,19.078 93.107,18.48 87.406,24.182 87.562,24.623 				"/>
			</g>
			<g>
				<polygon fill="#C8BA2E" points="89.459,15.334 89.459,15.934 93.107,12.284 93.107,11.686 				"/>
			</g>
			<g>
				<polygon fill="#C8BA2E" points="83.654,22.868 83.654,22.27 80.006,25.918 80.006,26.518 				"/>
			</g>
			<g>
				<polygon fill="#C8BA2E" points="93.107,22.477 93.107,21.878 88.291,26.695 88.447,27.137 				"/>
			</g>
			<g>
				<polygon fill="#C8BA2E" points="93.107,25.875 93.107,25.275 90.883,27.5 91.482,27.5 				"/>
			</g>
			<g>
				<polygon fill="#C8BA2E" points="93.107,27.008 93.107,26.408 92.016,27.5 92.615,27.5 				"/>
			</g>
			<g>
				<polygon fill="#C8BA2E" points="93.107,24.742 93.107,24.143 89.75,27.5 90.35,27.5 				"/>
			</g>
			<g>
				<polygon fill="#C8BA2E" points="93.107,21.344 93.107,20.745 87.997,25.855 88.152,26.3 				"/>
			</g>
			<g>
				<polygon fill="#C8BA2E" points="83.654,21.736 83.654,21.137 80.006,24.785 80.006,25.385 				"/>
			</g>
			<g>
				<polygon fill="#C8BA2E" points="93.107,23.609 93.107,23.01 88.618,27.5 89.216,27.5 				"/>
			</g>
			<g>
				<polygon fill="#C8BA2E" points="83.654,25.133 83.654,24.535 80.689,27.5 81.289,27.5 				"/>
			</g>
			<g>
				<polygon fill="#C8BA2E" points="89.459,11.936 89.459,12.535 93.107,8.887 93.107,8.288 				"/>
			</g>
			<g>
				<polygon fill="#C8BA2E" points="89.459,8.539 89.459,9.137 90.83,7.766 90.232,7.766 				"/>
			</g>
			<g>
				<polygon fill="#C8BA2E" points="89.459,9.67 89.459,10.27 91.963,7.766 91.363,7.766 				"/>
			</g>
			<g>
				<polygon fill="#C8BA2E" points="89.459,10.804 89.459,11.402 93.096,7.766 92.496,7.766 				"/>
			</g>
			<g>
				<polygon fill="#C8BA2E" points="89.459,14.201 89.459,14.8 93.107,11.151 93.107,10.552 				"/>
			</g>
			<g>
				<polygon fill="#C8BA2E" points="89.459,13.068 89.459,13.667 93.107,10.018 93.107,9.42 				"/>
			</g>
			<g>
				<polygon fill="#C8BA2E" points="89.459,8.004 89.698,7.766 89.459,7.766 				"/>
			</g>
			<g>
				<polygon fill="#C8BA2E" points="83.654,19.471 83.654,18.872 80.006,22.521 80.006,23.119 				"/>
			</g>
			<g>
				<polygon fill="#C8BA2E" points="83.654,18.338 83.654,17.74 80.006,21.389 80.006,21.986 				"/>
			</g>
			<g>
				<polygon fill="#C8BA2E" points="83.654,20.604 83.654,20.004 80.006,23.652 80.006,24.252 				"/>
			</g>
			<g>
				<polygon fill="#C8BA2E" points="83.654,17.206 83.654,16.605 80.006,20.255 80.006,20.855 				"/>
			</g>
			<g>
				<polygon fill="#C8BA2E" points="83.654,16.073 83.654,15.475 80.006,19.123 80.006,19.723 				"/>
			</g>
		</g>
		<g>
			<g>
				<polygon fill="#C8BA2E" points="72.246,11.027 72.846,11.027 76.105,7.766 75.507,7.766 				"/>
			</g>
			<g>
				<polygon fill="#C8BA2E" points="71.113,11.027 71.713,11.027 74.975,7.766 74.376,7.766 				"/>
			</g>
			<g>
				<polygon fill="#C8BA2E" points="69.98,11.027 70.58,11.027 73.842,7.766 73.244,7.766 				"/>
			</g>
			<g>
				<polygon fill="#C8BA2E" points="69.717,11.891 69.717,11.293 65.736,15.271 65.736,15.871 				"/>
			</g>
			<g>
				<polygon fill="#C8BA2E" points="71.6,15.671 71.001,15.671 65.736,20.936 65.736,21.533 				"/>
			</g>
			<g>
				<polygon fill="#C8BA2E" points="70.468,15.671 69.868,15.671 65.736,19.803 65.736,20.402 				"/>
			</g>
			<g>
				<polygon fill="#C8BA2E" points="74.512,11.027 75.111,11.027 76.764,9.374 76.764,8.775 				"/>
			</g>
			<g>
				<polygon fill="#C8BA2E" points="69.717,13.022 69.717,12.426 65.736,16.405 65.736,17.003 				"/>
			</g>
			<g>
				<polygon fill="#C8BA2E" points="69.717,15.289 69.717,14.689 65.736,18.67 65.736,19.268 				"/>
			</g>
			<g>
				<polygon fill="#C8BA2E" points="69.717,14.156 69.717,13.557 65.736,17.537 65.736,18.137 				"/>
			</g>
			<g>
				<polygon fill="#C8BA2E" points="73.979,11.027 76.764,8.241 76.764,7.766 76.641,7.766 73.379,11.027 				"/>
			</g>
			<g>
				<polygon fill="#C8BA2E" points="75.646,11.027 76.242,11.027 76.764,10.506 76.764,9.908 				"/>
			</g>
			<g>
				<polygon fill="#C8BA2E" points="69.312,7.766 68.713,7.766 65.736,10.742 65.736,11.342 				"/>
			</g>
			<g>
				<polygon fill="#C8BA2E" points="68.18,7.766 67.58,7.766 65.736,9.609 65.736,10.207 				"/>
			</g>
			<g>
				<polygon fill="#C8BA2E" points="67.046,7.766 66.447,7.766 65.736,8.477 65.736,9.074 				"/>
			</g>
			<g>
				<polygon fill="#C8BA2E" points="65.736,7.942 65.913,7.766 65.736,7.766 				"/>
			</g>
			<g>
				<polygon fill="#C8BA2E" points="72.732,15.671 72.133,15.671 65.736,22.066 65.736,22.666 				"/>
			</g>
			<g>
				<polygon fill="#C8BA2E" points="72.709,7.766 72.109,7.766 65.736,14.14 65.736,14.738 				"/>
			</g>
			<g>
				<polygon fill="#C8BA2E" points="71.576,7.766 70.979,7.766 65.736,13.006 65.736,13.605 				"/>
			</g>
			<g>
				<polygon fill="#C8BA2E" points="70.443,7.766 69.848,7.766 65.736,11.875 65.736,12.473 				"/>
			</g>
			<g>
				<polygon fill="#C8BA2E" points="70.96,24.238 70.361,24.238 67.1,27.5 67.698,27.5 				"/>
			</g>
			<g>
				<polygon fill="#C8BA2E" points="69.826,24.238 69.717,24.238 69.717,23.75 65.968,27.5 66.564,27.5 				"/>
			</g>
			<g>
				<polygon fill="#C8BA2E" points="74.357,24.238 73.759,24.238 70.498,27.5 71.096,27.5 				"/>
			</g>
			<g>
				<polygon fill="#C8BA2E" points="75.49,24.238 74.891,24.238 71.629,27.5 72.229,27.5 				"/>
			</g>
			<g>
				<polygon fill="#C8BA2E" points="72.093,24.238 71.495,24.238 68.232,27.5 68.831,27.5 				"/>
			</g>
			<g>
				<polygon fill="#C8BA2E" points="73.225,24.238 72.627,24.238 69.363,27.5 69.963,27.5 				"/>
			</g>
			<g>
				<polygon fill="#C8BA2E" points="76.623,24.238 76.023,24.238 72.764,27.5 73.361,27.5 				"/>
			</g>
			<g>
				<polygon fill="#C8BA2E" points="77.041,26.086 77.041,25.486 75.027,27.5 75.625,27.5 				"/>
			</g>
			<g>
				<polygon fill="#C8BA2E" points="75.667,18.932 76.268,18.932 76.35,18.85 76.35,18.25 				"/>
			</g>
			<g>
				<polygon fill="#C8BA2E" points="77.041,24.953 77.041,24.354 73.896,27.5 74.494,27.5 				"/>
			</g>
			<g>
				<polygon fill="#C8BA2E" points="77.041,27.219 77.041,26.619 76.16,27.5 76.758,27.5 				"/>
			</g>
			<g>
				<polygon fill="#C8BA2E" points="73.4,18.932 74.001,18.932 76.35,16.582 76.35,15.984 				"/>
			</g>
			<g>
				<polygon fill="#C8BA2E" points="71.137,18.932 71.734,18.932 74.997,15.671 74.398,15.671 				"/>
			</g>
			<g>
				<polygon fill="#C8BA2E" points="72.27,18.932 72.867,18.932 76.129,15.671 75.529,15.671 				"/>
			</g>
			<g>
				<polygon fill="#C8BA2E" points="74.535,18.932 75.134,18.932 76.35,17.715 76.35,17.117 				"/>
			</g>
			<g>
				<polygon fill="#C8BA2E" points="70.005,18.932 70.604,18.932 73.863,15.671 73.268,15.671 				"/>
			</g>
			<g>
				<polygon fill="#C8BA2E" points="69.717,23.216 69.717,22.617 65.736,26.598 65.736,27.195 				"/>
			</g>
			<g>
				<polygon fill="#C8BA2E" points="69.717,20.951 69.717,20.354 65.736,24.333 65.736,24.932 				"/>
			</g>
			<g>
				<polygon fill="#C8BA2E" points="69.717,22.084 69.717,21.484 65.736,25.467 65.736,26.062 				"/>
			</g>
			<g>
				<polygon fill="#C8BA2E" points="69.717,19.818 69.717,19.22 65.736,23.199 65.736,23.799 				"/>
			</g>
		</g>
		<g>
			<g>
				<polygon fill="#C8BA2E" points="55.475,18.738 56.073,18.738 61.982,12.828 61.982,12.23 				"/>
			</g>
			<g>
				<polygon fill="#C8BA2E" points="56.607,18.738 57.206,18.738 61.982,13.961 61.982,13.363 				"/>
			</g>
			<g>
				<polygon fill="#C8BA2E" points="57.741,18.738 58.002,18.738 58.002,19.075 61.982,15.095 61.982,14.496 				"/>
			</g>
			<g>
				<polygon fill="#C8BA2E" points="61.982,18.492 61.982,17.895 58.002,21.873 58.002,22.473 				"/>
			</g>
			<g>
				<polygon fill="#C8BA2E" points="58.002,19.609 58.002,20.207 61.982,16.227 61.982,15.629 				"/>
			</g>
			<g>
				<polygon fill="#C8BA2E" points="58.002,12.813 58.002,13.412 61.982,9.432 61.982,8.832 				"/>
			</g>
			<g>
				<polygon fill="#C8BA2E" points="58.002,20.74 58.002,21.34 61.982,17.359 61.982,16.761 				"/>
			</g>
			<g>
				<polygon fill="#C8BA2E" points="58.002,10.549 58.002,11.146 61.383,7.766 60.786,7.766 				"/>
			</g>
			<g>
				<polygon fill="#C8BA2E" points="58.002,13.945 58.002,14.545 61.982,10.564 61.982,9.967 				"/>
			</g>
			<g>
				<polygon fill="#C8BA2E" points="58.002,15.079 58.002,15.311 57.77,15.311 54.343,18.738 54.941,18.738 61.982,11.695 
					61.982,11.1 				"/>
			</g>
			<g>
				<polygon fill="#C8BA2E" points="51.191,7.766 50.593,7.766 49.38,8.979 49.38,9.578 				"/>
			</g>
			<g>
				<polygon fill="#C8BA2E" points="50.059,7.766 49.459,7.766 49.38,7.846 49.38,8.445 				"/>
			</g>
			<g>
				<polygon fill="#C8BA2E" points="52.322,7.766 51.725,7.766 49.38,10.111 49.38,10.709 				"/>
			</g>
			<g>
				<polygon fill="#C8BA2E" points="58.002,9.415 58.002,10.016 60.252,7.766 59.652,7.766 				"/>
			</g>
			<g>
				<polygon fill="#C8BA2E" points="53.359,7.862 53.359,7.766 52.855,7.766 49.38,11.242 49.38,11.842 				"/>
			</g>
			<g>
				<polygon fill="#C8BA2E" points="53.359,23.119 49.38,27.1 49.38,27.5 49.578,27.5 53.359,23.719 				"/>
			</g>
			<g>
				<polygon fill="#C8BA2E" points="53.359,8.994 53.359,8.396 49.38,12.377 49.38,12.975 				"/>
			</g>
			<g>
				<polygon fill="#C8BA2E" points="53.359,12.393 53.359,11.793 49.38,15.771 49.38,16.373 				"/>
			</g>
			<g>
				<polygon fill="#C8BA2E" points="53.359,11.259 53.359,10.662 49.38,14.642 49.38,15.238 				"/>
			</g>
			<g>
				<polygon fill="#C8BA2E" points="53.359,10.127 53.359,9.529 49.38,13.509 49.38,14.107 				"/>
			</g>
			<g>
				<polygon fill="#C8BA2E" points="58.002,12.279 61.982,8.299 61.982,7.766 61.917,7.766 58.002,11.68 				"/>
			</g>
			<g>
				<polygon fill="#C8BA2E" points="61.982,26.42 61.982,25.82 60.305,27.5 60.902,27.5 				"/>
			</g>
			<g>
				<polygon fill="#C8BA2E" points="61.982,20.757 61.982,20.159 58.002,24.141 58.002,24.736 				"/>
			</g>
			<g>
				<polygon fill="#C8BA2E" points="61.982,19.625 61.982,19.025 58.002,23.006 58.002,23.605 				"/>
			</g>
			<g>
				<polygon fill="#C8BA2E" points="61.982,21.891 61.982,21.291 58.002,25.271 58.002,25.869 				"/>
			</g>
			<g>
				<polygon fill="#C8BA2E" points="53.359,27.115 53.359,26.518 52.376,27.5 52.975,27.5 				"/>
			</g>
			<g>
				<polygon fill="#C8BA2E" points="53.359,24.85 53.359,24.253 50.111,27.5 50.709,27.5 				"/>
			</g>
			<g>
				<polygon fill="#C8BA2E" points="58.002,8.283 58.002,8.881 59.119,7.766 58.52,7.766 				"/>
			</g>
			<g>
				<polygon fill="#C8BA2E" points="61.982,26.953 61.436,27.5 61.982,27.5 				"/>
			</g>
			<g>
				<polygon fill="#C8BA2E" points="61.982,25.287 61.982,24.689 59.173,27.5 59.77,27.5 				"/>
			</g>
			<g>
				<polygon fill="#C8BA2E" points="61.982,23.021 61.982,22.424 58.002,26.404 58.002,27.003 				"/>
			</g>
			<g>
				<polygon fill="#C8BA2E" points="61.982,24.156 61.982,23.557 58.039,27.5 58.639,27.5 				"/>
			</g>
			<g>
				<polygon fill="#C8BA2E" points="53.359,25.982 53.359,25.384 51.243,27.5 51.843,27.5 				"/>
			</g>
			<g>
				<polygon fill="#C8BA2E" points="53.838,15.311 53.359,15.311 53.359,15.191 49.38,19.171 49.38,19.77 				"/>
			</g>
			<g>
				<polygon fill="#C8BA2E" points="54.971,15.311 54.371,15.311 49.38,20.303 49.38,20.902 				"/>
			</g>
			<g>
				<polygon fill="#C8BA2E" points="53.359,22.585 53.359,21.986 49.38,25.967 49.38,26.564 				"/>
			</g>
			<g>
				<polygon fill="#C8BA2E" points="53.359,13.525 53.359,12.926 49.38,16.906 49.38,17.504 				"/>
			</g>
			<g>
				<polygon fill="#C8BA2E" points="53.359,14.658 53.359,14.059 49.38,18.039 49.38,18.639 				"/>
			</g>
			<g>
				<polygon fill="#C8BA2E" points="53.359,21.452 53.359,20.854 49.38,24.834 49.38,25.432 				"/>
			</g>
			<g>
				<polygon fill="#C8BA2E" points="53.359,20.32 53.359,19.723 49.38,23.702 49.38,24.299 				"/>
			</g>
			<g>
				<polygon fill="#C8BA2E" points="56.104,15.311 55.504,15.311 49.38,21.436 49.38,22.035 				"/>
			</g>
			<g>
				<polygon fill="#C8BA2E" points="53.359,19.188 53.359,18.738 53.811,18.738 57.236,15.311 56.637,15.311 49.38,22.568 
					49.38,23.168 				"/>
			</g>
		</g>
		<g>
			<g>
				<polygon fill="#C8BA2E" points="39.972,18.984 39.891,18.468 37.494,20.863 37.574,21.383 				"/>
			</g>
			<g>
				<polygon fill="#C8BA2E" points="39.817,18.008 39.734,17.49 37.343,19.883 37.424,20.4 				"/>
			</g>
			<g>
				<polygon fill="#C8BA2E" points="40.128,19.961 40.046,19.445 37.646,21.845 37.726,22.361 				"/>
			</g>
			<g>
				<polygon fill="#C8BA2E" points="39.661,17.03 39.578,16.514 37.191,18.9 37.271,19.42 				"/>
			</g>
			<g>
				<polygon fill="#C8BA2E" points="39.35,15.076 39.268,14.56 36.888,16.939 36.969,17.459 				"/>
			</g>
			<g>
				<polygon fill="#C8BA2E" points="39.112,13.582 36.736,15.958 36.816,16.477 39.195,14.099 				"/>
			</g>
			<g>
				<polygon fill="#C8BA2E" points="40.283,20.938 40.202,20.421 37.798,22.826 37.877,23.344 				"/>
			</g>
			<g>
				<polygon fill="#C8BA2E" points="35.548,17.745 35.658,17.037 32.377,20.318 32.263,21.031 				"/>
			</g>
			<g>
				<polygon fill="#C8BA2E" points="39.507,16.053 39.423,15.537 37.04,17.92 37.12,18.438 				"/>
			</g>
			<g>
				<polygon fill="#C8BA2E" points="42.363,10.33 42.259,11.034 45.528,7.766 44.93,7.766 				"/>
			</g>
			<g>
				<polygon fill="#C8BA2E" points="42.563,8.998 42.459,9.701 44.395,7.766 43.796,7.766 				"/>
			</g>
			<g>
				<polygon fill="#C8BA2E" points="41.966,12.994 41.859,13.697 46.289,9.27 46.421,8.539 				"/>
			</g>
			<g>
				<polygon fill="#C8BA2E" points="41.169,18.322 41.064,19.025 45.28,14.809 45.412,14.078 				"/>
			</g>
			<g>
				<polygon fill="#C8BA2E" points="41.367,16.99 41.263,17.693 45.531,13.426 45.665,12.693 				"/>
			</g>
			<g>
				<polygon fill="#C8BA2E" points="41.568,15.657 41.462,16.361 45.784,12.041 45.918,11.307 				"/>
			</g>
			<g>
				<polygon fill="#C8BA2E" points="41.767,14.325 41.661,15.029 46.037,10.654 46.169,9.923 				"/>
			</g>
			<g>
				<polygon fill="#C8BA2E" points="42.061,12.367 46.541,7.887 46.562,7.766 46.062,7.766 42.165,11.662 				"/>
			</g>
			<g>
				<polygon fill="#C8BA2E" points="29.672,7.766 29.073,7.766 26.472,10.366 26.564,10.873 				"/>
			</g>
			<g>
				<polygon fill="#C8BA2E" points="29.942,8.629 29.864,8.107 26.646,11.324 26.739,11.832 				"/>
			</g>
			<g>
				<polygon fill="#C8BA2E" points="30.09,9.614 30.012,9.092 26.82,12.283 26.913,12.79 				"/>
			</g>
			<g>
				<polygon fill="#C8BA2E" points="25.999,7.766 26.041,7.999 26.275,7.766 				"/>
			</g>
			<g>
				<polygon fill="#C8BA2E" points="30.237,10.599 30.159,10.078 26.996,13.241 27.087,13.748 				"/>
			</g>
			<g>
				<polygon fill="#C8BA2E" points="27.408,7.766 26.81,7.766 26.124,8.451 26.216,8.957 				"/>
			</g>
			<g>
				<polygon fill="#C8BA2E" points="28.54,7.766 27.941,7.766 26.298,9.409 26.391,9.915 				"/>
			</g>
			<g>
				<polygon fill="#C8BA2E" points="38.957,12.604 36.585,14.977 36.665,15.496 39.039,13.121 				"/>
			</g>
			<g>
				<polygon fill="#C8BA2E" points="35.755,16.405 35.864,15.697 32.591,18.971 32.477,19.684 				"/>
			</g>
			<g>
				<polygon fill="#C8BA2E" points="44.775,17.578 44.908,16.848 40.771,20.984 40.665,21.689 				"/>
			</g>
			<g>
				<polygon fill="#C8BA2E" points="32.805,17.626 32.692,18.336 35.963,15.064 36.071,14.359 				"/>
			</g>
			<g>
				<polygon fill="#C8BA2E" points="33.549,12.948 38.262,8.235 38.188,7.766 38.135,7.766 33.662,12.238 				"/>
			</g>
			<g>
				<polygon fill="#C8BA2E" points="40.97,19.652 40.864,20.357 45.027,16.193 45.161,15.461 				"/>
			</g>
			<g>
				<polygon fill="#C8BA2E" points="30.385,11.584 30.307,11.062 27.17,14.199 27.263,14.706 				"/>
			</g>
			<g>
				<polygon fill="#C8BA2E" points="42.657,8.37 43.263,7.766 42.748,7.766 				"/>
			</g>
			<g>
				<polygon fill="#C8BA2E" points="44.02,21.732 44.152,21 38.403,26.749 38.483,27.268 				"/>
			</g>
			<g>
				<polygon fill="#C8BA2E" points="34.721,23.104 34.83,22.395 29.725,27.5 30.324,27.5 				"/>
			</g>
			<g>
				<polygon fill="#C8BA2E" points="36.513,14.514 38.884,12.144 38.802,11.629 36.434,13.996 				"/>
			</g>
			<g>
				<polygon fill="#C8BA2E" points="34.308,25.781 34.417,25.074 31.99,27.5 32.588,27.5 				"/>
			</g>
			<g>
				<polygon fill="#C8BA2E" points="35.135,20.424 35.243,19.717 29.264,25.697 29.354,26.203 				"/>
			</g>
			<g>
				<polygon fill="#C8BA2E" points="35.341,19.086 35.451,18.377 32.162,21.665 32.051,22.357 31.997,22.357 31.928,21.9 
					29.089,24.738 29.181,25.246 				"/>
			</g>
			<g>
				<polygon fill="#C8BA2E" points="34.928,21.764 35.037,21.055 29.438,26.654 29.529,27.161 				"/>
			</g>
			<g>
				<polygon fill="#C8BA2E" points="34.101,27.121 34.21,26.413 33.121,27.5 33.721,27.5 				"/>
			</g>
			<g>
				<polygon fill="#C8BA2E" points="44.271,20.348 44.404,19.617 38.252,25.77 38.332,26.287 				"/>
			</g>
			<g>
				<polygon fill="#C8BA2E" points="43.515,24.503 43.647,23.77 39.918,27.5 40.519,27.5 				"/>
			</g>
			<g>
				<polygon fill="#C8BA2E" points="43.263,25.887 43.396,25.155 41.051,27.5 41.649,27.5 				"/>
			</g>
			<g>
				<polygon fill="#C8BA2E" points="40.438,21.915 40.356,21.398 37.949,23.807 38.028,24.324 				"/>
			</g>
			<g>
				<polygon fill="#C8BA2E" points="43.01,27.271 43.145,26.539 42.182,27.5 42.781,27.5 				"/>
			</g>
			<g>
				<polygon fill="#C8BA2E" points="43.767,23.117 43.9,22.385 38.785,27.5 39.384,27.5 				"/>
			</g>
			<g>
				<polygon fill="#C8BA2E" points="44.522,18.964 44.656,18.232 40.571,22.316 40.565,22.357 40.529,22.357 38.1,24.788 
					38.181,25.307 				"/>
			</g>
			<g>
				<polygon fill="#C8BA2E" points="31.857,21.436 31.78,20.914 28.913,23.78 29.006,24.287 				"/>
			</g>
			<g>
				<polygon fill="#C8BA2E" points="34.514,24.443 34.623,23.734 30.857,27.5 31.457,27.5 				"/>
			</g>
			<g>
				<polygon fill="#C8BA2E" points="34.091,9.544 33.977,10.256 36.469,7.766 35.869,7.766 				"/>
			</g>
			<g>
				<polygon fill="#C8BA2E" points="31.711,20.449 31.633,19.93 28.739,22.822 28.833,23.328 				"/>
			</g>
			<g>
				<polygon fill="#C8BA2E" points="33.875,10.892 33.764,11.604 37.601,7.766 37.002,7.766 				"/>
			</g>
			<g>
				<polygon fill="#C8BA2E" points="34.306,8.197 34.192,8.909 35.334,7.766 34.735,7.766 				"/>
			</g>
			<g>
				<polygon fill="#C8BA2E" points="33.447,13.584 33.335,14.296 38.417,9.213 38.336,8.697 				"/>
			</g>
			<g>
				<polygon fill="#C8BA2E" points="33.02,16.279 32.905,16.99 36.169,13.728 36.252,13.184 36.309,13.184 36.363,13.533 
					38.728,11.168 38.646,10.65 				"/>
			</g>
			<g>
				<polygon fill="#C8BA2E" points="33.233,14.932 33.119,15.643 38.572,10.19 38.491,9.674 				"/>
			</g>
			<g>
				<polygon fill="#C8BA2E" points="30.532,12.568 30.454,12.048 27.345,15.157 27.438,15.664 				"/>
			</g>
			<g>
				<polygon fill="#C8BA2E" points="31.416,18.48 31.338,17.96 28.392,20.906 28.483,21.413 				"/>
			</g>
			<g>
				<polygon fill="#C8BA2E" points="30.679,13.555 30.602,13.033 27.52,16.115 27.61,16.622 				"/>
			</g>
			<g>
				<polygon fill="#C8BA2E" points="31.564,19.465 31.485,18.945 28.565,21.865 28.657,22.37 				"/>
			</g>
			<g>
				<polygon fill="#C8BA2E" points="31.27,17.494 31.19,16.975 28.216,19.947 28.309,20.455 				"/>
			</g>
			<g>
				<polygon fill="#C8BA2E" points="30.826,14.54 30.748,14.02 27.693,17.074 27.786,17.58 				"/>
			</g>
			<g>
				<polygon fill="#C8BA2E" points="31.121,16.51 31.043,15.988 28.043,18.99 28.135,19.496 				"/>
			</g>
			<g>
				<polygon fill="#C8BA2E" points="30.974,15.523 30.896,15.004 27.867,18.031 27.96,18.537 				"/>
			</g>
		</g>
	</g>
	<g>
		<g>
			<polygon fill="#F2E900" points="36.26,25.777 34.27,12.883 32.279,25.777 27.339,25.777 23.643,5.467 28.051,5.467 
				30.021,18.641 32.116,5.467 36.423,5.467 38.519,18.635 40.488,5.467 44.896,5.467 41.199,25.777 			"/>
			<path fill="#FFFFFF" d="M44.551,5.755l-3.593,19.734h-4.45l-2.21-14.317h-0.056l-2.211,14.317H27.58L23.988,5.755h3.814
				l2.182,14.593h0.057l2.321-14.593h3.814l2.322,14.593h0.055l2.183-14.593H44.551 M45.242,5.178h-0.691h-3.814H40.24L40.166,5.67
				L38.51,16.743L36.747,5.665L36.67,5.179h-0.493h-3.814H31.87l-0.077,0.486L30.03,16.748L28.374,5.67L28.3,5.178h-0.497h-3.814
				h-0.691l0.124,0.681l3.592,19.734l0.086,0.474h0.481h4.451h0.495l0.076-0.488l1.668-10.804l1.667,10.804l0.076,0.488h0.495h4.45
				h0.481l0.086-0.474l3.593-19.734L45.242,5.178L45.242,5.178z"/>
		</g>
		<g>
			<polygon fill="#F2E900" points="55.702,25.777 55.702,17.018 51.637,17.018 51.637,25.777 47.081,25.777 47.081,5.467 
				51.637,5.467 51.637,13.012 55.702,13.012 55.702,5.467 60.259,5.467 60.259,25.777 			"/>
			<path fill="#FFFFFF" d="M59.971,5.755v19.734h-3.979v-8.761h-4.644v8.761h-3.979V5.755h3.979V13.3h4.644V5.755H59.971
				 M60.548,5.178h-0.577h-3.979h-0.577v0.577v6.968h-3.488V5.755V5.178H51.35H47.37h-0.577v0.577v19.734v0.577h0.577h3.979h0.576
				v-0.577v-8.185h3.488v8.185v0.577h0.577h3.979h0.577v-0.577V5.755V5.178L60.548,5.178z"/>
		</g>
		<g>
			<polygon fill="#F2E900" points="63.438,25.777 63.438,5.467 75.041,5.467 75.041,9.305 67.993,9.305 67.993,13.371 
				74.627,13.371 74.627,17.21 67.993,17.21 67.993,21.939 75.318,21.939 75.318,25.777 			"/>
			<path fill="#FFFFFF" d="M74.753,5.755v3.261h-7.048v4.644h6.634v3.262h-6.634v5.307h7.324v3.262H63.727V5.755H74.753
				 M75.33,5.178h-0.577H63.727h-0.578v0.577v19.734v0.577h0.578h11.303h0.578v-0.577v-3.263V21.65h-0.578h-6.747v-4.151h6.057
				h0.577v-0.577V13.66v-0.578h-0.577h-6.057V9.594h6.471h0.577V9.017V5.755V5.178L75.33,5.178z"/>
		</g>
		<g>
			<polygon fill="#F2E900" points="86.359,25.777 81.934,13.203 81.934,25.777 77.708,25.777 77.708,5.467 82.787,5.467 
				87.16,17.753 87.16,5.467 91.385,5.467 91.385,25.777 			"/>
			<path fill="#FFFFFF" d="M91.098,5.755v19.734h-4.533L81.699,11.67h-0.055v13.819h-3.648V5.755h4.588l4.811,13.515h0.055V5.755
				H91.098 M91.674,5.178h-0.576h-3.648h-0.577v0.577v10.327l-3.743-10.52l-0.137-0.384h-0.407h-4.588H77.42v0.577v19.734v0.577
				h0.577h3.647h0.578v-0.577V14.891l3.797,10.791l0.137,0.385h0.408h4.533h0.576V25.49V5.755V5.178L91.674,5.178z"/>
		</g>
	</g>
</g>
<polyline fill="none" stroke="#FFFFFF" stroke-width="2.7425" stroke-linejoin="round" stroke-miterlimit="10" points="16.062,0.5 
	16.062,27.5 15.513,27.5 15.513,0.5 "/>
<polyline fill="none" stroke="#FFFFFF" stroke-width="2.7425" stroke-linejoin="round" stroke-miterlimit="10" points="14.933,0.5 
	14.933,5.872 11.506,5.872 11.506,7.459 0.461,7.459 3.44,4.756 0.461,2.084 6.866,2.084 6.866,0.5 "/>
<line fill="none" stroke="#C8BA2E" stroke-width="0.5485" stroke-miterlimit="10" x1="15.787" y1="27.5" x2="15.787" y2="0.5"/>
<g>
	<polygon fill="#F2E900" points="0.461,7.459 11.506,7.459 11.506,2.084 0.461,2.084 3.44,4.756 	"/>
</g>
<g>
	<polyline fill="#F2E900" points="6.866,0.5 6.866,5.872 14.933,5.872 14.933,0.5 	"/>
</g>
<polygon fill="#C8BA2E" points="6.866,5.872 11.506,7.459 11.506,5.872 "/>
</svg>
