<svg xmlns="http://www.w3.org/2000/svg" xmlns:xlink="http://www.w3.org/1999/xlink" version="1.1" x="0px" y="0px" width="110px" height="29px" viewBox="0 0 110 29" enable-background="new 0 0 110 29" xml:space="preserve"><polyline fill="none" stroke="#FFFFFF" stroke-width="2.7425" stroke-linejoin="round" stroke-miterlimit="10" points="16.6,0.5 16.6,27.5 16.1,27.5 16.1,0.5"/><polyline fill="none" stroke="#FFFFFF" stroke-width="2.7425" stroke-linejoin="round" stroke-miterlimit="10" points="15.5,0.5 15.5,5.9 12,5.9 12,7.5 1,7.5 4,4.8 1,2.1 7.4,2.1 7.4,0.5"/><line fill="none" stroke="#0077A0" stroke-width="0.5485" stroke-miterlimit="10" x1="16.3" y1="27.5" x2="16.3" y2="0.5"/><g><polygon fill="#0093D0" points="1,7.5 12,7.5 12,2.1 1,2.1 4,4.8"/></g><g><polyline fill="#0093D0" points="7.4,0.5 7.4,5.9 15.5,5.9 15.5,0.5"/></g><polygon fill="#0077A0" points="7.4,5.9 12,7.5 12,5.9"/><g><g><g opacity="0.5"><g><g><polygon fill="#DA8327" points="105.2,11.3 105.8,11.3 108.3,8.8 108.3,8.2"/></g><g><polygon fill="#DA8327" points="101.8,11.3 102.4,11.3 105.7,8 105.1,8"/></g><g><polygon fill="#DA8327" points="101.3,12.4 101.3,11.8 97.3,15.8 97.3,16.4"/></g><g><polygon fill="#DA8327" points="104.1,11.3 104.7,11.3 107.9,8 107.3,8"/></g><g><polygon fill="#DA8327" points="102.9,11.3 103.5,11.3 106.8,8 106.2,8"/></g><g><polygon fill="#DA8327" points="101.3,15.8 101.3,15.2 97.3,19.2 97.3,19.8"/></g><g><polygon fill="#DA8327" points="102.3,15.9 101.7,15.9 97.3,20.3 97.3,20.9"/></g><g><polygon fill="#DA8327" points="101.3,14.7 101.3,14.1 97.3,18.1 97.3,18.6"/></g><g><polygon fill="#DA8327" points="101.3,13.5 101.3,12.9 97.3,16.9 97.3,17.5"/></g><g><polygon fill="#DA8327" points="101.3,19.2 101.3,19.2 101.3,19.2 104.6,15.9 104,15.9 97.3,22.6 97.3,23.2"/></g><g><polygon fill="#DA8327" points="97.3,8.5 97.7,8 97.3,8"/></g><g><polygon fill="#DA8327" points="106.3,11.3 106.9,11.3 108.3,9.9 108.3,9.3"/></g><g><polygon fill="#DA8327" points="98.9,8 98.3,8 97.3,9 97.3,9.6"/></g><g><polygon fill="#DA8327" points="101.1,8 100.5,8 97.3,11.3 97.3,11.9"/></g><g><polygon fill="#DA8327" points="100,8 99.4,8 97.3,10.1 97.3,10.7"/></g><g><polygon fill="#DA8327" points="104.5,8 103.9,8 97.3,14.7 97.3,15.2"/></g><g><polygon fill="#DA8327" points="107.5,11.3 108.1,11.3 108.3,11 108.3,10.4"/></g><g><polygon fill="#DA8327" points="103.4,8 102.8,8 97.3,13.5 97.3,14.1"/></g><g><polygon fill="#DA8327" points="102.3,8 101.7,8 97.3,12.4 97.3,13"/></g><g><polygon fill="#DA8327" points="103.4,15.9 102.8,15.9 97.3,21.4 97.3,22.1"/></g><g><polygon fill="#DA8327" points="106.2,24.5 105.6,24.5 102.3,27.8 102.9,27.8"/></g><g><polygon fill="#DA8327" points="105,24.5 104.5,24.5 101.2,27.8 101.8,27.8"/></g><g><polygon fill="#DA8327" points="107.3,24.5 106.7,24.5 103.5,27.8 104,27.8"/></g><g><polygon fill="#DA8327" points="102.8,24.5 102.2,24.5 98.9,27.8 99.5,27.8"/></g><g><polygon fill="#DA8327" points="104.7,19.2 107.9,16 107.9,15.9 107.3,15.9 104.1,19.2"/></g><g><polygon fill="#DA8327" points="108.6,27.7 108.6,27.1 108,27.8 108.6,27.8"/></g><g><polygon fill="#DA8327" points="108.6,26.6 108.6,26 106.8,27.8 107.5,27.8"/></g><g><polygon fill="#DA8327" points="101.7,24.5 101.3,24.5 101.3,24.3 97.8,27.8 98.4,27.8"/></g><g><polygon fill="#DA8327" points="108.6,25.5 108.6,24.9 105.7,27.8 106.3,27.8"/></g><g><polygon fill="#DA8327" points="108.4,24.5 107.8,24.5 104.6,27.8 105.2,27.8"/></g><g><polygon fill="#DA8327" points="103.9,24.5 103.3,24.5 100,27.8 100.7,27.8"/></g><g><polygon fill="#DA8327" points="107.9,18.8 107.5,19.2 107.9,19.2"/></g><g><polygon fill="#DA8327" points="101.3,23.7 101.3,23.1 97.3,27.1 97.3,27.7"/></g><g><polygon fill="#DA8327" points="105.2,19.2 105.8,19.2 107.9,17.1 107.9,16.5"/></g><g><polygon fill="#DA8327" points="106.4,19.2 107,19.2 107.9,18.2 107.9,17.6"/></g><g><polygon fill="#DA8327" points="103,19.2 103.6,19.2 106.8,15.9 106.2,15.9"/></g><g><polygon fill="#DA8327" points="101.3,22.6 101.3,22 97.3,26 97.3,26.6"/></g><g><polygon fill="#DA8327" points="101.3,21.5 101.3,20.9 97.3,24.9 97.3,25.4"/></g><g><polygon fill="#DA8327" points="101.3,20.3 101.3,19.7 97.3,23.7 97.3,24.3"/></g><g><polygon fill="#DA8327" points="101.8,19.2 102.4,19.2 105.7,15.9 105.1,15.9"/></g></g><g><g><path fill="#DA8327" d="M87.9 19.53c0.16 0 0.3 0.1 0.4 0.17l5.1-5.1c0.04-0.22 0.07-0.45 0.1-0.69L87.9 19.53z"/></g><g><path fill="#DA8327" d="M90.49 18.07l-1.85 1.85c0.11 0.1 0.2 0.2 0.3 0.31l2.06-2.06C90.83 18.1 90.7 18.1 90.5 18.07z"/></g><g><path fill="#DA8327" d="M90.69 17.87c0.45-0.14 0.85-0.34 1.19-0.59l0.75-0.75c0.26-0.35 0.47-0.76 0.62-1.22L90.69 17.87z"/></g><g><path fill="#DA8327" d="M89.13 20.56c0.06 0.1 0.1 0.3 0.2 0.44l2.52-2.52c-0.13-0.07-0.26-0.13-0.41-0.19L89.13 20.56z"/></g><g><path fill="#DA8327" d="M85.75 19.42h0.6l7.16-7.16c-0.02-0.18-0.05-0.35-0.08-0.52L85.75 19.42z"/></g><g><path fill="#DA8327" d="M88.93 11.71c0.1 0.1 0.2 0.2 0.3 0.33l2.84-2.84c-0.11-0.09-0.22-0.18-0.33-0.26L88.93 11.71z"/></g><g><path fill="#DA8327" d="M88.26 11.24c0.14 0.1 0.3 0.1 0.4 0.22l2.73-2.73c-0.13-0.07-0.26-0.14-0.4-0.2L88.26 11.24z"/></g><g><path fill="#DA8327" d="M89.38 21.45c0.02 0.1 0 0.3 0 0.45l0 0.1l3.02-3.02c-0.09-0.11-0.2-0.2-0.31-0.29L89.38 21.4 z"/></g><g><path fill="#DA8327" d="M89.52 14.51c-0.06 0.34-0.15 0.63-0.28 0.88l4.09-4.09c-0.04-0.15-0.09-0.31-0.15-0.45L89.52 14.51z"/></g><g><path fill="#DA8327" d="M89.56 13.34c0.01 0.1 0 0.2 0 0.35c0 0.1 0 0.15-0.01 0.23l3.44-3.44 c-0.07-0.13-0.14-0.26-0.22-0.38L89.56 13.34z"/></g><g><path fill="#DA8327" d="M89.36 12.41c0.06 0.1 0.1 0.3 0.1 0.46l3.09-3.09c-0.09-0.11-0.18-0.22-0.28-0.32L89.36 12.41z"/></g><g><path fill="#DA8327" d="M87.07 19.42c0.14 0 0.3 0 0.4 0.03l6.11-6.11c0-0.07 0.01-0.15 0.01-0.23 c0-0.13-0.01-0.24-0.01-0.37l-6.67 6.67H87.07z"/></g><g><polygon fill="#DA8327" points="84.1,8 83.5,8 81,10.6 81,11.2"/></g><g><polygon fill="#DA8327" points="81.9,8 81.3,8 81,8.3 81,8.9"/></g><g><polygon fill="#DA8327" points="83,8 82.4,8 81,9.5 81,10.1"/></g><g><polygon fill="#DA8327" points="84.9,23.6 81,27.6 81,27.8 81.4,27.8 84.9,24.2"/></g><g><path fill="#DA8327" d="M93.46 24.17l-3.49 3.49c0.02 0 0 0.1 0.1 0.11h0.43l3.01-3.01 C93.46 24.6 93.5 24.4 93.5 24.17z"/></g><g><path fill="#DA8327" d="M85.75 10.96l2.92-2.92c-0.12 0-0.23-0.01-0.35-0.01h-0.24l-2.93 2.93H85.75z"/></g><g><path fill="#DA8327" d="M87.38 11c0.18 0 0.3 0.1 0.5 0.1l2.72-2.72c-0.15-0.05-0.3-0.1-0.46-0.14L87.38 11z"/></g><g><polygon fill="#DA8327" points="87.5,8 87,8 81,14 81,14.6"/></g><g><polygon fill="#DA8327" points="86.4,8 85.8,8 81,12.9 81,13.5"/></g><g><polygon fill="#DA8327" points="85.3,8 84.7,8 81,11.8 81,12.3"/></g><g><path fill="#DA8327" d="M89.45 23.11l3.43-3.43c-0.06-0.14-0.13-0.27-0.21-0.39l-3.24 3.24L89.45 23.11z"/></g><g><polygon fill="#DA8327" points="84.9,27.6 84.9,27 84.2,27.8 84.8,27.8"/></g><g><path fill="#DA8327" d="M93.16 20.53c-0.04-0.16-0.08-0.32-0.13-0.47l-3.56 3.56l0.02 0.58L93.16 20.53z"/></g><g><polygon fill="#DA8327" points="84.9,25.4 84.9,24.8 81.9,27.8 82.5,27.8"/></g><g><path fill="#DA8327" d="M93.32 21.5c-0.02-0.18-0.04-0.36-0.07-0.53l-3.75 3.75l0.02 0.58L93.32 21.5z"/></g><g><polygon fill="#DA8327" points="84.9,26.5 84.9,25.9 83.1,27.8 83.7,27.8"/></g><g><path fill="#DA8327" d="M86.28 10.96h0.54c0.02 0 0 0 0.1 0l2.81-2.81c-0.17-0.03-0.35-0.06-0.53-0.07L86.28 10.96z"/></g><g><path fill="#DA8327" d="M93.72 26.77c-0.05-0.14-0.08-0.31-0.12-0.48l-1.47 1.47h0.6L93.72 26.77z"/></g><g><polygon fill="#DA8327" points="84.9,23.1 84.9,22.5 81,26.5 81,27.1"/></g><g><path fill="#DA8327" d="M94.15 27.46c-0.11-0.09-0.2-0.19-0.28-0.32l-0.62 0.62h0.6L94.15 27.46z"/></g><g><path fill="#DA8327" d="M93.45 23.64c0-0.2-0.01-0.4-0.02-0.58l-3.78 3.78c0.03 0.2 0.1 0.3 0.1 0.46L93.45 23.64z"/></g><g><path fill="#DA8327" d="M93.53 25.82c-0.02-0.17-0.03-0.36-0.04-0.56l-2.5 2.5h0.6L93.53 25.82z"/></g><g><path fill="#DA8327" d="M93.41 22.55c-0.01-0.2-0.02-0.38-0.04-0.56l-3.83 3.83c0.01 0.2 0 0.4 0 0.56L93.41 22.55z"/></g><g><polygon fill="#DA8327" points="84.9,15.2 84.9,14.6 81,18.5 81,19.1"/></g><g><polygon fill="#DA8327" points="84.9,14 84.9,13.4 81,17.4 81,18"/></g><g><polygon fill="#DA8327" points="84.9,12.9 84.9,12.3 81,16.3 81,16.9"/></g><g><polygon fill="#DA8327" points="84.9,22 84.9,21.4 81,25.3 81,25.9"/></g><g><polygon fill="#DA8327" points="84.9,11.8 84.9,11.2 81,15.1 81,15.7"/></g><g><polygon fill="#DA8327" points="84.9,16.3 84.9,15.7 81,19.7 81,20.3"/></g><g><polygon fill="#DA8327" points="84.9,20.8 84.9,20.2 81,24.2 81,24.8"/></g><g><polygon fill="#DA8327" points="85.7,16.6 85.1,16.6 81,20.8 81,21.4"/></g><g><path fill="#DA8327" d="M84.94 19.69v-0.27h0.27l3.11-3.11c-0.26 0.13-0.55 0.23-0.88 0.28l-6.49 6.49v0.6L84.94 19.69z"/></g><g><path fill="#DA8327" d="M86.85 16.64c-0.08 0-0.17 0.01-0.25 0.01h-0.35l-5.29 5.29v0.6L86.85 16.64z"/></g></g><g><g><polygon fill="#DA8327" points="70.7,13.6 70.7,13 66.7,17 66.7,17.6"/></g><g><polygon fill="#DA8327" points="70.7,12.4 70.7,11.8 66.7,15.8 66.7,16.4"/></g><g><polygon fill="#DA8327" points="72.4,11.3 73,11.3 76.2,8 75.6,8"/></g><g><polygon fill="#DA8327" points="71.2,11.3 71.8,11.3 75.1,8 74.5,8"/></g><g><polygon fill="#DA8327" points="73.5,11.3 74.1,11.3 77.3,8 76.8,8"/></g><g><polygon fill="#DA8327" points="71.7,15.9 71.1,15.9 66.7,20.4 66.7,20.9"/></g><g><polygon fill="#DA8327" points="72.8,15.9 72.2,15.9 66.7,21.5 66.7,22.1"/></g><g><polygon fill="#DA8327" points="70.7,15.8 70.7,15.2 66.7,19.2 66.7,19.8"/></g><g><polygon fill="#DA8327" points="70.7,14.7 70.7,14.1 66.7,18.1 66.7,18.7"/></g><g><polygon fill="#DA8327" points="66.7,8.5 67.2,8 66.7,8"/></g><g><polygon fill="#DA8327" points="69.4,8 68.8,8 66.7,10.2 66.7,10.8"/></g><g><polygon fill="#DA8327" points="70.7,19.2 70.7,19.2 70.7,19.2 74,15.9 73.4,15.9 66.7,22.6 66.7,23.2"/></g><g><polygon fill="#DA8327" points="70.6,8 70,8 66.7,11.3 66.7,11.9"/></g><g><polygon fill="#DA8327" points="68.3,8 67.7,8 66.7,9 66.7,9.6"/></g><g><polygon fill="#DA8327" points="76.9,11.3 77.5,11.3 77.7,11.1 77.7,10.5"/></g><g><polygon fill="#DA8327" points="72.8,8 72.2,8 66.7,13.6 66.7,14.2"/></g><g><polygon fill="#DA8327" points="74.6,11.3 75.2,11.3 77.7,8.8 77.7,8.2"/></g><g><polygon fill="#DA8327" points="75.8,11.3 76.3,11.3 77.7,9.9 77.7,9.3"/></g><g><polygon fill="#DA8327" points="70.7,11.3 70.7,11.3 70.7,11.3 74,8 73.3,8 66.7,14.7 66.7,15.3"/></g><g><polygon fill="#DA8327" points="71.7,8 71.1,8 66.7,12.4 66.7,13"/></g><g><polygon fill="#DA8327" points="74.5,24.5 73.9,24.5 70.6,27.8 71.2,27.8"/></g><g><polygon fill="#DA8327" points="75.6,24.5 75,24.5 71.7,27.8 72.3,27.8"/></g><g><polygon fill="#DA8327" points="71.1,24.5 70.7,24.5 70.7,24.3 67.2,27.8 67.8,27.8"/></g><g><polygon fill="#DA8327" points="76.7,24.5 76.1,24.5 72.9,27.8 73.5,27.8"/></g><g><polygon fill="#DA8327" points="72.2,24.5 71.6,24.5 68.3,27.8 68.9,27.8"/></g><g><polygon fill="#DA8327" points="73.3,24.5 72.7,24.5 69.5,27.8 70.1,27.8"/></g><g><polygon fill="#DA8327" points="78,26.6 78,26 76.3,27.8 76.9,27.8"/></g><g><polygon fill="#DA8327" points="78,27.2 77.4,27.8 78,27.8"/></g><g><polygon fill="#DA8327" points="78,25.5 78,24.9 75.1,27.8 75.7,27.8"/></g><g><polygon fill="#DA8327" points="77.9,24.5 77.3,24.5 74,27.8 74.6,27.8"/></g><g><polygon fill="#DA8327" points="74.7,19.2 75.2,19.2 77.3,17.1 77.3,16.5"/></g><g><polygon fill="#DA8327" points="74.1,19.2 77.3,16 77.3,15.9 76.8,15.9 73.5,19.2"/></g><g><polygon fill="#DA8327" points="77.3,18.8 76.9,19.2 77.3,19.2"/></g><g><polygon fill="#DA8327" points="70.7,23.8 70.7,23.2 66.7,27.1 66.7,27.8"/></g><g><polygon fill="#DA8327" points="75.8,19.2 76.4,19.2 77.3,18.3 77.3,17.7"/></g><g><polygon fill="#DA8327" points="72.4,19.2 73,19.2 76.2,15.9 75.6,15.9"/></g><g><polygon fill="#DA8327" points="70.7,22.6 70.7,22 66.7,26 66.7,26.6"/></g><g><polygon fill="#DA8327" points="70.7,21.5 70.7,20.9 66.7,24.9 66.7,25.5"/></g><g><polygon fill="#DA8327" points="70.7,20.4 70.7,19.8 66.7,23.8 66.7,24.4"/></g><g><polygon fill="#DA8327" points="71.2,19.2 71.8,19.2 75.1,15.9 74.5,15.9"/></g></g><g><g><polygon fill="#DA8327" points="54.5,19 55,19 58.5,15.6 57.9,15.6"/></g><g><polygon fill="#DA8327" points="55.6,19 56.2,19 62.9,12.2 62.9,11.7"/></g><g><polygon fill="#DA8327" points="56.7,19 57.3,19 62.9,13.4 62.9,12.8"/></g><g><polygon fill="#DA8327" points="59,10 59,10.6 61.5,8 60.9,8"/></g><g><polygon fill="#DA8327" points="59,20.2 59,20.8 62.9,16.8 62.9,16.2"/></g><g><polygon fill="#DA8327" points="57.9,19 58.5,19 62.9,14.5 62.9,13.9"/></g><g><polygon fill="#DA8327" points="59,11.1 59,11.7 62.6,8 62,8"/></g><g><polygon fill="#DA8327" points="59,12.2 59,12.8 62.9,8.8 62.9,8.2"/></g><g><polygon fill="#DA8327" points="59,13.4 59,14 62.9,10 62.9,9.4"/></g><g><polygon fill="#DA8327" points="59,14.5 59,15.1 62.9,11.1 62.9,10.5"/></g><g><polygon fill="#DA8327" points="59,19 59,19.6 62.9,15.7 62.9,15.1"/></g><g><polygon fill="#DA8327" points="53.6,8 53,8 50.3,10.7 50.3,11.3"/></g><g><polygon fill="#DA8327" points="52.4,8 51.8,8 50.3,9.5 50.3,10.1"/></g><g><polygon fill="#DA8327" points="54.3,8.4 54.3,8 54.1,8 50.3,11.8 50.3,12.4"/></g><g><polygon fill="#DA8327" points="54.3,23.7 50.3,27.6 50.3,27.8 50.8,27.8 54.3,24.3"/></g><g><polygon fill="#DA8327" points="62.9,19 62.9,18.4 59,22.4 59,23"/></g><g><polygon fill="#DA8327" points="51.3,8 50.7,8 50.3,8.4 50.3,9"/></g><g><polygon fill="#DA8327" points="54.3,9.6 54.3,8.9 50.3,12.9 50.3,13.5"/></g><g><polygon fill="#DA8327" points="59,21.3 59,21.9 62.9,17.9 62.9,17.3"/></g><g><polygon fill="#DA8327" points="54.3,12.9 54.3,12.3 50.3,16.3 50.3,16.9"/></g><g><polygon fill="#DA8327" points="54.3,10.7 54.3,10.1 50.3,14.1 50.3,14.7"/></g><g><polygon fill="#DA8327" points="54.3,11.8 54.3,11.2 50.3,15.2 50.3,15.8"/></g><g><polygon fill="#DA8327" points="54.3,14.1 54.3,13.5 50.3,17.5 50.3,18.1"/></g><g><polygon fill="#DA8327" points="62.9,21.3 62.9,20.7 59,24.7 59,25.3"/></g><g><polygon fill="#DA8327" points="59,8.8 59,9.4 60.4,8 59.8,8"/></g><g><polygon fill="#DA8327" points="54.3,26.5 54.3,25.9 52.5,27.8 53.1,27.8"/></g><g><polygon fill="#DA8327" points="62.9,20.2 62.9,19.6 59,23.6 59,24.2"/></g><g><polygon fill="#DA8327" points="54.3,27.7 54.3,27.1 53.6,27.8 54.2,27.8"/></g><g><polygon fill="#DA8327" points="62.9,23.6 62.9,23 59,26.9 59,27.6"/></g><g><polygon fill="#DA8327" points="62.9,27.5 62.7,27.8 62.9,27.8"/></g><g><polygon fill="#DA8327" points="62.9,24.7 62.9,24.1 59.3,27.8 59.9,27.8"/></g><g><polygon fill="#DA8327" points="62.9,27 62.9,26.4 61.5,27.8 62.1,27.8"/></g><g><polygon fill="#DA8327" points="62.9,25.8 62.9,25.2 60.4,27.8 61,27.8"/></g><g><polygon fill="#DA8327" points="62.9,22.4 62.9,21.8 59,25.8 59,26.4"/></g><g><polygon fill="#DA8327" points="57.4,15.6 56.8,15.6 50.3,22 50.3,22.6"/></g><g><polygon fill="#DA8327" points="56.2,15.6 55.6,15.6 50.3,20.9 50.3,21.4"/></g><g><polygon fill="#DA8327" points="55.1,15.6 54.5,15.6 50.3,19.7 50.3,20.3"/></g><g><polygon fill="#DA8327" points="59,8.3 59.2,8 59,8"/></g><g><polygon fill="#DA8327" points="54.3,15.2 54.3,14.6 50.3,18.6 50.3,19.2"/></g><g><polygon fill="#DA8327" points="54.3,20.9 54.3,20.3 50.3,24.2 50.3,24.9"/></g><g><polygon fill="#DA8327" points="54.3,23.1 54.3,22.5 50.3,26.5 50.3,27.1"/></g><g><polygon fill="#DA8327" points="54.3,22 54.3,21.4 50.3,25.4 50.3,26"/></g><g><polygon fill="#DA8327" points="54.3,25.4 54.3,24.8 51.4,27.8 52,27.8"/></g><g><polygon fill="#DA8327" points="54.3,19.7 54.3,19.1 50.3,23.1 50.3,23.7"/></g></g><g><g><polygon fill="#DA8327" points="40.8,18.5 40.7,18 38.3,20.4 38.4,20.9"/></g><g><polygon fill="#DA8327" points="41,19.5 40.9,19 38.5,21.4 38.6,21.9"/></g><g><polygon fill="#DA8327" points="40.6,17.5 40.6,17 38.2,19.4 38.3,19.9"/></g><g><polygon fill="#DA8327" points="36.5,18.4 36.6,17.6 33.3,20.9 33.2,21.6"/></g><g><polygon fill="#DA8327" points="40.1,14.1 37.7,16.5 37.8,17 40.2,14.6"/></g><g><polygon fill="#DA8327" points="40.5,16.6 40.4,16.1 38,18.4 38.1,18.9"/></g><g><polygon fill="#DA8327" points="41.1,20.5 41,20 38.6,22.4 38.7,22.9"/></g><g><polygon fill="#DA8327" points="40.4,15.6 40.3,15.1 37.9,17.4 38,18"/></g><g><polygon fill="#DA8327" points="42.1,18.9 42,19.6 46.2,15.4 46.3,14.7"/></g><g><polygon fill="#DA8327" points="42.7,14.9 42.6,15.6 46.9,11.3 47.1,10.5"/></g><g><polygon fill="#DA8327" points="42.9,13.6 42.8,14.3 47.2,9.9 47.3,9.2"/></g><g><polygon fill="#DA8327" points="43.3,10.9 43.2,11.6 46.8,8 46.2,8"/></g><g><polygon fill="#DA8327" points="41.3,21.4 41.2,20.9 38.8,23.3 38.9,23.9"/></g><g><polygon fill="#DA8327" points="42.5,16.3 42.4,17 46.7,12.7 46.8,11.9"/></g><g><polygon fill="#DA8327" points="36.7,17 36.8,16.3 33.5,19.6 33.4,20.3"/></g><g><polygon fill="#DA8327" points="42.3,17.6 42.2,18.3 46.4,14 46.6,13.3"/></g><g><polygon fill="#DA8327" points="31.4,12.1 31.3,11.6 28.2,14.7 28.3,15.2"/></g><g><polygon fill="#DA8327" points="30.9,9.1 30.9,8.6 27.6,11.8 27.7,12.3"/></g><g><polygon fill="#DA8327" points="30.8,8.2 30.8,8 30.3,8 27.5,10.9 27.6,11.4"/></g><g><polygon fill="#DA8327" points="29.8,8 29.2,8 27.3,9.9 27.4,10.4"/></g><g><polygon fill="#DA8327" points="31.1,10.1 31,9.6 27.8,12.8 27.9,13.3"/></g><g><polygon fill="#DA8327" points="26.9,8 27,8.5 27.5,8"/></g><g><polygon fill="#DA8327" points="45,21.6 39.4,27.3 39.5,27.8 39.5,27.8 44.9,22.4"/></g><g><polygon fill="#DA8327" points="28.6,8 28.1,8 27.1,9 27.2,9.5"/></g><g><polygon fill="#DA8327" points="31.2,11.1 31.1,10.6 28,13.8 28.1,14.2"/></g><g><polygon fill="#DA8327" points="33.9,16.9 33.8,17.6 37.1,14.3 37.2,13.6"/></g><g><polygon fill="#DA8327" points="40,13.6 40,13.1 37.6,15.5 37.7,16"/></g><g><polygon fill="#DA8327" points="37.4,14.5 37.5,15 39.9,12.7 39.8,12.1"/></g><g><polygon fill="#DA8327" points="36.9,15.7 37,15 33.7,18.2 33.6,18.9"/></g><g><polygon fill="#DA8327" points="43.5,9.6 43.4,10.3 45.6,8 45,8"/></g><g><polygon fill="#DA8327" points="43,13 47.4,8.5 47.5,8 47.3,8 43.1,12.3"/></g><g><polygon fill="#DA8327" points="41.9,20.2 41.8,21 45.9,16.8 46,16.1"/></g><g><polygon fill="#DA8327" points="45.7,18.2 45.8,17.5 41.7,21.6 41.6,22.3"/></g><g><polygon fill="#DA8327" points="41.4,22.4 41.4,21.9 38.9,24.3 39,24.8"/></g><g><polygon fill="#DA8327" points="35.6,23.7 35.7,23 31,27.8 31.6,27.8"/></g><g><polygon fill="#DA8327" points="35.8,22.4 35.9,21.7 30.4,27.2 30.5,27.7"/></g><g><polygon fill="#DA8327" points="36,21 36.1,20.3 30.3,26.2 30.4,26.7"/></g><g><polygon fill="#DA8327" points="35.4,25.1 35.5,24.3 32.1,27.8 32.7,27.8"/></g><g><polygon fill="#DA8327" points="36.2,19.7 36.4,19 33.1,22.3 33,22.6 33,22.6 32.9,22.4 30.1,25.2 30.2,25.8"/></g><g><polygon fill="#DA8327" points="43.7,8.3 43.6,9 44.5,8 43.9,8"/></g><g><polygon fill="#DA8327" points="32.7,21 32.6,20.4 29.7,23.3 29.8,23.8"/></g><g><polygon fill="#DA8327" points="32.9,21.9 32.8,21.4 29.9,24.3 30,24.8"/></g><g><polygon fill="#DA8327" points="35,27.7 35.1,27 34.4,27.8 35,27.8"/></g><g><polygon fill="#DA8327" points="44.4,25.1 44.5,24.4 41.2,27.8 41.8,27.8"/></g><g><polygon fill="#DA8327" points="44.1,26.5 44.3,25.8 42.3,27.8 42.9,27.8"/></g><g><polygon fill="#DA8327" points="32.6,20 32.5,19.5 29.6,22.4 29.7,22.9"/></g><g><polygon fill="#DA8327" points="44,27.1 43.4,27.8 43.9,27.8"/></g><g><polygon fill="#DA8327" points="45.4,19.6 45.5,18.9 39.1,25.3 39.2,25.8"/></g><g><polygon fill="#DA8327" points="44.7,23.7 44.8,23 40,27.8 40.6,27.8"/></g><g><polygon fill="#DA8327" points="45.2,21 45.3,20.2 39.2,26.3 39.3,26.8"/></g><g><polygon fill="#DA8327" points="35.2,26.4 35.3,25.7 33.2,27.8 33.8,27.8"/></g><g><polygon fill="#DA8327" points="35.2,8.8 35.1,9.5 36.6,8 36,8"/></g><g><polygon fill="#DA8327" points="34.8,11.5 34.7,12.2 38.8,8 38.2,8"/></g><g><polygon fill="#DA8327" points="35,10.2 34.9,10.9 37.7,8 37.1,8"/></g><g><polygon fill="#DA8327" points="34.6,12.8 34.5,13.6 39.3,8.8 39.2,8.2"/></g><g><polygon fill="#DA8327" points="34.4,14.2 34.2,14.9 39.4,9.7 39.3,9.2"/></g><g><polygon fill="#DA8327" points="37.3,13.5 37.4,14.1 39.7,11.7 39.6,11.2"/></g><g><polygon fill="#DA8327" points="34.1,15.5 34,16.2 39.6,10.7 39.5,10.2"/></g><g><polygon fill="#DA8327" points="32.1,17 32,16.5 29,19.5 29.1,20"/></g><g><polygon fill="#DA8327" points="32.4,19 32.3,18.5 29.4,21.4 29.5,21.9"/></g><g><polygon fill="#DA8327" points="32.3,18 32.2,17.5 29.2,20.4 29.3,21"/></g><g><polygon fill="#DA8327" points="32,16 31.9,15.5 28.9,18.5 29,19"/></g><g><polygon fill="#DA8327" points="31.5,13.1 31.4,12.6 28.3,15.7 28.4,16.2"/></g><g><polygon fill="#DA8327" points="31.8,15.1 31.7,14.5 28.7,17.6 28.8,18.1"/></g><g><polygon fill="#DA8327" points="35.3,8.2 35.4,8 35.3,8"/></g><g><polygon fill="#DA8327" points="31.7,14.1 31.6,13.6 28.5,16.6 28.6,17.1"/></g></g></g><g><g><polygon fill="#F89B1C" points="37.3,26.2 35.4,13.3 33.4,26.2 28.4,26.2 24.7,5.8 29.1,5.8 31.1,19 33.2,5.8 37.5,5.8 39.6,19 41.6,5.8 46,5.8 42.3,26.2"/><path fill="#FFFFFF" d="M45.63 6.14l-3.59 19.73h-4.45l-2.21-14.32h-0.05l-2.21 14.32h-4.45L25.07 6.14h3.81l2.19 14.59h0.06 l2.32-14.59h3.81l2.32 14.59h0.06l2.19-14.59H45.63 M46.32 5.56h-0.69h-3.81h-0.5l-0.07 0.49l-1.66 11.08L37.83 6.05l-0.08-0.49 h-0.49h-3.81h-0.49l-0.08 0.49l-1.76 11.08L29.45 6.06l-0.07-0.49h-0.5h-3.81h-0.69l0.12 0.68l3.59 19.73l0.09 0.47h0.48h4.45 h0.5l0.08-0.49l1.67-10.8l1.67 10.8l0.08 0.49h0.49h4.45h0.48l0.09-0.47L46.2 6.25L46.32 5.56L46.32 5.56z"/></g><g><polygon fill="#F89B1C" points="56.8,26.2 56.8,17.4 52.7,17.4 52.7,26.2 48.2,26.2 48.2,5.8 52.7,5.8 52.7,13.4 56.8,13.4 56.8,5.8 61.3,5.8 61.3,26.2"/><path fill="#FFFFFF" d="M61.05 6.14v19.73h-3.98v-8.76h-4.64v8.76h-3.98V6.14h3.98v7.54h4.64V6.14H61.05 M61.63 5.56h-0.58 h-3.98H56.5v0.58v6.97h-3.49V6.14V5.56h-0.58h-3.98h-0.58v0.58v19.73v0.58h0.58h3.98h0.58v-0.58v-8.18h3.49v8.18v0.58h0.58h3.98 h0.58v-0.58V6.14V5.56L61.63 5.56z"/></g><g><polygon fill="#F89B1C" points="64.5,26.2 64.5,5.8 76.1,5.8 76.1,9.7 69.1,9.7 69.1,13.8 75.7,13.8 75.7,17.6 69.1,17.6 69.1,22.3 76.4,22.3 76.4,26.2"/><path fill="#FFFFFF" d="M75.83 6.14V9.4h-7.05v4.64h6.63v3.26h-6.63v5.31h7.32v3.26h-11.3V6.14H75.83 M76.41 5.56h-0.58H64.81 h-0.58v0.58v19.73v0.58h0.58h11.3h0.58v-0.58v-3.26v-0.58h-0.58h-6.75v-4.15h6.06H76v-0.58v-3.26v-0.58h-0.58h-6.06V9.98h6.47 h0.58V9.4V6.14L76.41 5.56L76.41 5.56z"/></g><g><path fill="#F89B1C" d="M87.99 26.16l-0.09-0.12c-0.43-0.62-0.52-1.44-0.55-2.23l-0.11-3.79c-0.05-1.51-0.71-2.21-2.06-2.21 h-1.84v8.35h-4.56V5.85h7.64c3.52 0 5.5 2 5.5 5.37c0 2.45-0.88 4.11-2.56 4.85c2.12 0.7 2.4 2.6 2.5 6.1 c0.03 2 0.1 3 0.7 3.29l0.16 0.08v0.63L87.99 26.16L87.99 26.16z M84.71 14.48c1.87 0 2.7-0.82 2.7-2.67 c0-1.65-0.81-2.45-2.48-2.45h-1.59v5.12H84.71z"/><path fill="#FFFFFF" d="M86.43 6.14c3.26 0 5.2 1.7 5.2 5.08c0 2.62-1.05 4.39-3.29 4.86v0.06c2.71 0.4 3.1 1.9 3.2 6 c0.03 2.1 0.1 3.1 0.9 3.54v0.17h-4.31c-0.39-0.55-0.47-1.3-0.5-2.07l-0.11-3.79c-0.06-1.55-0.75-2.49-2.35-2.49h-2.13v8.35 h-3.98V6.14H86.43 M83.06 14.77h1.66c1.91 0 2.99-0.83 2.99-2.96c0-1.83-0.97-2.74-2.76-2.74h-1.88L83.06 14.8 M86.43 5.6 h-7.35H78.5v0.58v19.73v0.58h0.58h3.98h0.58v-0.58v-7.77h1.55c1.19 0 1.7 0.6 1.8 1.93l0.11 3.8 c0.03 0.8 0.1 1.7 0.6 2.39l0.17 0.25h0.3h4.31h0.58v-0.58v-0.17v-0.35l-0.31-0.16c-0.45-0.24-0.55-1.21-0.57-3.03 c-0.04-3.32-0.29-5.27-2.05-6.14c1.41-0.89 2.16-2.54 2.16-4.8C92.26 7.6 90.1 5.6 86.4 5.56L86.43 5.56z M83.63 9.65h1.3 c1.49 0 2.2 0.7 2.2 2.16c0 1.69-0.7 2.38-2.41 2.38h-1.08L83.63 9.65L83.63 9.65z"/></g><g><polygon fill="#F89B1C" points="95.1,26.2 95.1,5.8 106.7,5.8 106.7,9.7 99.7,9.7 99.7,13.8 106.3,13.8 106.3,17.6 99.7,17.6 99.7,22.3 107,22.3 107,26.2"/><path fill="#FFFFFF" d="M106.45 6.14V9.4H99.4v4.64h6.63v3.26H99.4v5.31h7.32v3.26h-11.3V6.14H106.45 M107.03 5.56h-0.58H95.42 h-0.58v0.58v19.73v0.58h0.58h11.31h0.58v-0.58v-3.26v-0.58h-0.58h-6.75v-4.15h6.06h0.58v-0.58v-3.26v-0.58h-0.58h-6.06V9.98 h6.47h0.58V9.4V6.14V5.56L107.03 5.56z"/></g></g></g><g><g><rect x="16.6" y="0.8" fill="none" stroke="#FFFFFF" stroke-width="2.7425" stroke-linejoin="round" stroke-miterlimit="10" width="0.6" height="27"/><polygon fill="none" stroke="#FFFFFF" stroke-width="2.7425" stroke-linejoin="round" stroke-miterlimit="10" points="1.5,2.4 8,2.4 8,0.8 16,0.8 16,6.1 12.6,6.1 12.6,7.7 1.5,7.7 4.5,5"/></g><g><line fill="none" stroke="#DA8327" stroke-width="0.5485" stroke-miterlimit="10" x1="16.9" y1="27.8" x2="16.9" y2="0.8"/><g><polygon fill="#F89B1C" points="1.5,7.7 12.6,7.7 12.6,2.4 1.5,2.4 4.5,5"/></g><g><rect x="8" y="0.8" fill="#F89B1C" width="8.1" height="5.4"/></g><polygon fill="#DA8327" points="8,6.1 12.6,7.7 12.6,6.1"/></g></g></g></svg>